<?xml version="1.0" encoding="UTF-8" standalone="no"?>
<!DOCTYPE svg PUBLIC "-//W3C//DTD SVG 1.1//EN"
 "http://www.w3.org/Graphics/SVG/1.1/DTD/svg11.dtd">
<!-- Generated by graphviz version 2.43.0 (0)
 -->
<!-- Title: G Pages: 1 -->
<svg width="1534pt" height="148pt"
 viewBox="0.00 0.00 1534.20 148.20" xmlns="http://www.w3.org/2000/svg" xmlns:xlink="http://www.w3.org/1999/xlink">
<g id="graph0" class="graph" transform="scale(1 1) rotate(0) translate(21.6 126.6)">
<title>G</title>
<polygon fill="#111111" stroke="transparent" points="-21.6,21.6 -21.6,-126.6 1512.6,-126.6 1512.6,21.6 -21.6,21.6"/>
<!-- api&#45;router.js -->
<g id="node1" class="node">
<title>api&#45;router.js</title>
<path fill="none" stroke="#c6c5fe" d="M282.33,-64C282.33,-64 209.67,-64 209.67,-64 205.83,-64 202,-60.17 202,-56.33 202,-56.33 202,-48.67 202,-48.67 202,-44.83 205.83,-41 209.67,-41 209.67,-41 282.33,-41 282.33,-41 286.17,-41 290,-44.83 290,-48.67 290,-48.67 290,-56.33 290,-56.33 290,-60.17 286.17,-64 282.33,-64"/>
<text text-anchor="middle" x="246" y="-48.8" font-family="Arial" font-size="14.00" fill="#c6c5fe">api&#45;router.js</text>
</g>
<!-- payments/index.js -->
<g id="node2" class="node">
<title>payments/index.js</title>
<path fill="none" stroke="#c6c5fe" d="M443.33,-64C443.33,-64 333.67,-64 333.67,-64 329.83,-64 326,-60.17 326,-56.33 326,-56.33 326,-48.67 326,-48.67 326,-44.83 329.83,-41 333.67,-41 333.67,-41 443.33,-41 443.33,-41 447.17,-41 451,-44.83 451,-48.67 451,-48.67 451,-56.33 451,-56.33 451,-60.17 447.17,-64 443.33,-64"/>
<text text-anchor="middle" x="388.5" y="-48.8" font-family="Arial" font-size="14.00" fill="#c6c5fe">payments/index.js</text>
</g>
<!-- api&#45;router.js&#45;&gt;payments/index.js -->
<g id="edge1" class="edge">
<title>api&#45;router.js&#45;&gt;payments/index.js</title>
<path fill="none" stroke="#757575" d="M290.3,-52.5C298.36,-52.5 306.97,-52.5 315.61,-52.5"/>
<polygon fill="#757575" stroke="#757575" points="315.75,-56 325.75,-52.5 315.75,-49 315.75,-56"/>
</g>
<!-- payments/router.js -->
<g id="node7" class="node">
<title>payments/router.js</title>
<path fill="none" stroke="#c6c5fe" d="M607.33,-64C607.33,-64 494.67,-64 494.67,-64 490.83,-64 487,-60.17 487,-56.33 487,-56.33 487,-48.67 487,-48.67 487,-44.83 490.83,-41 494.67,-41 494.67,-41 607.33,-41 607.33,-41 611.17,-41 615,-44.83 615,-48.67 615,-48.67 615,-56.33 615,-56.33 615,-60.17 611.17,-64 607.33,-64"/>
<text text-anchor="middle" x="551" y="-48.8" font-family="Arial" font-size="14.00" fill="#c6c5fe">payments/router.js</text>
</g>
<!-- payments/index.js&#45;&gt;payments/router.js -->
<g id="edge4" class="edge">
<title>payments/index.js&#45;&gt;payments/router.js</title>
<path fill="none" stroke="#757575" d="M451.09,-52.5C459.55,-52.5 468.29,-52.5 476.92,-52.5"/>
<polygon fill="#757575" stroke="#757575" points="476.98,-56 486.98,-52.5 476.98,-49 476.98,-56"/>
</g>
<!-- index.js -->
<g id="node3" class="node">
<title>index.js</title>
<path fill="none" stroke="#c6c5fe" d="M54.33,-64C54.33,-64 7.67,-64 7.67,-64 3.83,-64 0,-60.17 0,-56.33 0,-56.33 0,-48.67 0,-48.67 0,-44.83 3.83,-41 7.67,-41 7.67,-41 54.33,-41 54.33,-41 58.17,-41 62,-44.83 62,-48.67 62,-48.67 62,-56.33 62,-56.33 62,-60.17 58.17,-64 54.33,-64"/>
<text text-anchor="middle" x="31" y="-48.8" font-family="Arial" font-size="14.00" fill="#c6c5fe">index.js</text>
</g>
<!-- server.js -->
<g id="node4" class="node">
<title>server.js</title>
<path fill="none" stroke="#c6c5fe" d="M158.33,-64C158.33,-64 105.67,-64 105.67,-64 101.83,-64 98,-60.17 98,-56.33 98,-56.33 98,-48.67 98,-48.67 98,-44.83 101.83,-41 105.67,-41 105.67,-41 158.33,-41 158.33,-41 162.17,-41 166,-44.83 166,-48.67 166,-48.67 166,-56.33 166,-56.33 166,-60.17 162.17,-64 158.33,-64"/>
<text text-anchor="middle" x="132" y="-48.8" font-family="Arial" font-size="14.00" fill="#c6c5fe">server.js</text>
</g>
<!-- index.js&#45;&gt;server.js -->
<g id="edge2" class="edge">
<title>index.js&#45;&gt;server.js</title>
<path fill="none" stroke="#757575" d="M62.24,-52.5C70.25,-52.5 79.05,-52.5 87.6,-52.5"/>
<polygon fill="#757575" stroke="#757575" points="87.84,-56 97.84,-52.5 87.84,-49 87.84,-56"/>
</g>
<!-- server.js&#45;&gt;api&#45;router.js -->
<g id="edge12" class="edge">
<title>server.js&#45;&gt;api&#45;router.js</title>
<path fill="none" stroke="#757575" d="M166.3,-52.5C174.27,-52.5 182.98,-52.5 191.61,-52.5"/>
<polygon fill="#757575" stroke="#757575" points="191.65,-56 201.65,-52.5 191.65,-49 191.65,-56"/>
</g>
<!-- payments/database/connection.js -->
<g id="node5" class="node">
<title>payments/database/connection.js</title>
<path fill="none" stroke="#c6c5fe" d="M1308.33,-64C1308.33,-64 1105.67,-64 1105.67,-64 1101.83,-64 1098,-60.17 1098,-56.33 1098,-56.33 1098,-48.67 1098,-48.67 1098,-44.83 1101.83,-41 1105.67,-41 1105.67,-41 1308.33,-41 1308.33,-41 1312.17,-41 1316,-44.83 1316,-48.67 1316,-48.67 1316,-56.33 1316,-56.33 1316,-60.17 1312.17,-64 1308.33,-64"/>
<text text-anchor="middle" x="1207" y="-48.8" font-family="Arial" font-size="14.00" fill="#c6c5fe">payments/database/connection.js</text>
</g>
<!-- payments/knexfile.js -->
<g id="node6" class="node">
<title>payments/knexfile.js</title>
<path fill="none" stroke="#cfffac" d="M1483.33,-64C1483.33,-64 1359.67,-64 1359.67,-64 1355.83,-64 1352,-60.17 1352,-56.33 1352,-56.33 1352,-48.67 1352,-48.67 1352,-44.83 1355.83,-41 1359.67,-41 1359.67,-41 1483.33,-41 1483.33,-41 1487.17,-41 1491,-44.83 1491,-48.67 1491,-48.67 1491,-56.33 1491,-56.33 1491,-60.17 1487.17,-64 1483.33,-64"/>
<text text-anchor="middle" x="1421.5" y="-48.8" font-family="Arial" font-size="14.00" fill="#cfffac">payments/knexfile.js</text>
</g>
<!-- payments/database/connection.js&#45;&gt;payments/knexfile.js -->
<g id="edge3" class="edge">
<title>payments/database/connection.js&#45;&gt;payments/knexfile.js</title>
<path fill="none" stroke="#757575" d="M1316.12,-52.5C1324.79,-52.5 1333.45,-52.5 1341.86,-52.5"/>
<polygon fill="#757575" stroke="#757575" points="1341.98,-56 1351.98,-52.5 1341.98,-49 1341.98,-56"/>
</g>
<!-- payments/models/index.js -->
<g id="node9" class="node">
<title>payments/models/index.js</title>
<path fill="none" stroke="#c6c5fe" d="M816.33,-64C816.33,-64 658.67,-64 658.67,-64 654.83,-64 651,-60.17 651,-56.33 651,-56.33 651,-48.67 651,-48.67 651,-44.83 654.83,-41 658.67,-41 658.67,-41 816.33,-41 816.33,-41 820.17,-41 824,-44.83 824,-48.67 824,-48.67 824,-56.33 824,-56.33 824,-60.17 820.17,-64 816.33,-64"/>
<text text-anchor="middle" x="737.5" y="-48.8" font-family="Arial" font-size="14.00" fill="#c6c5fe">payments/models/index.js</text>
</g>
<!-- payments/router.js&#45;&gt;payments/models/index.js -->
<g id="edge11" class="edge">
<title>payments/router.js&#45;&gt;payments/models/index.js</title>
<path fill="none" stroke="#757575" d="M615.24,-52.5C623.48,-52.5 632.08,-52.5 640.71,-52.5"/>
<polygon fill="#757575" stroke="#757575" points="640.84,-56 650.84,-52.5 640.84,-49 640.84,-56"/>
</g>
<!-- payments/models/donations.js -->
<g id="node8" class="node">
<title>payments/models/donations.js</title>
<path fill="none" stroke="#c6c5fe" d="M1053.33,-105C1053.33,-105 868.67,-105 868.67,-105 864.83,-105 861,-101.17 861,-97.33 861,-97.33 861,-89.67 861,-89.67 861,-85.83 864.83,-82 868.67,-82 868.67,-82 1053.33,-82 1053.33,-82 1057.17,-82 1061,-85.83 1061,-89.67 1061,-89.67 1061,-97.33 1061,-97.33 1061,-101.17 1057.17,-105 1053.33,-105"/>
<text text-anchor="middle" x="961" y="-89.8" font-family="Arial" font-size="14.00" fill="#c6c5fe">payments/models/donations.js</text>
</g>
<!-- payments/models/donations.js&#45;&gt;payments/database/connection.js -->
<g id="edge5" class="edge">
<title>payments/models/donations.js&#45;&gt;payments/database/connection.js</title>
<path fill="none" stroke="#757575" d="M1030.62,-81.97C1060.76,-76.9 1096.32,-70.93 1127.51,-65.69"/>
<polygon fill="#757575" stroke="#757575" points="1128.19,-69.12 1137.48,-64.01 1127.03,-62.22 1128.19,-69.12"/>
</g>
<!-- payments/models/index.js&#45;&gt;payments/models/donations.js -->
<g id="edge6" class="edge">
<title>payments/models/index.js&#45;&gt;payments/models/donations.js</title>
<path fill="none" stroke="#757575" d="M800.79,-64.03C827.8,-69.03 859.6,-74.92 887.65,-80.11"/>
<polygon fill="#757575" stroke="#757575" points="887.32,-83.61 897.79,-81.99 888.6,-76.72 887.32,-83.61"/>
</g>
<!-- payments/models/members.js -->
<g id="node10" class="node">
<title>payments/models/members.js</title>
<path fill="none" stroke="#c6c5fe" d="M1052.83,-64C1052.83,-64 869.17,-64 869.17,-64 865.33,-64 861.5,-60.17 861.5,-56.33 861.5,-56.33 861.5,-48.67 861.5,-48.67 861.5,-44.83 865.33,-41 869.17,-41 869.17,-41 1052.83,-41 1052.83,-41 1056.67,-41 1060.5,-44.83 1060.5,-48.67 1060.5,-48.67 1060.5,-56.33 1060.5,-56.33 1060.5,-60.17 1056.67,-64 1052.83,-64"/>
<text text-anchor="middle" x="961" y="-48.8" font-family="Arial" font-size="14.00" fill="#c6c5fe">payments/models/members.js</text>
</g>
<!-- payments/models/index.js&#45;&gt;payments/models/members.js -->
<g id="edge7" class="edge">
<title>payments/models/index.js&#45;&gt;payments/models/members.js</title>
<path fill="none" stroke="#757575" d="M824.14,-52.5C832.98,-52.5 842.05,-52.5 851.11,-52.5"/>
<polygon fill="#757575" stroke="#757575" points="851.31,-56 861.31,-52.5 851.31,-49 851.31,-56"/>
</g>
<!-- payments/models/reminders.js -->
<g id="node11" class="node">
<title>payments/models/reminders.js</title>
<path fill="none" stroke="#c6c5fe" d="M1054.33,-23C1054.33,-23 867.67,-23 867.67,-23 863.83,-23 860,-19.17 860,-15.33 860,-15.33 860,-7.67 860,-7.67 860,-3.83 863.83,0 867.67,0 867.67,0 1054.33,0 1054.33,0 1058.17,0 1062,-3.83 1062,-7.67 1062,-7.67 1062,-15.33 1062,-15.33 1062,-19.17 1058.17,-23 1054.33,-23"/>
<text text-anchor="middle" x="961" y="-7.8" font-family="Arial" font-size="14.00" fill="#c6c5fe">payments/models/reminders.js</text>
</g>
<!-- payments/models/index.js&#45;&gt;payments/models/reminders.js -->
<g id="edge8" class="edge">
<title>payments/models/index.js&#45;&gt;payments/models/reminders.js</title>
<path fill="none" stroke="#757575" d="M800.79,-40.97C827.8,-35.97 859.6,-30.08 887.65,-24.89"/>
<polygon fill="#757575" stroke="#757575" points="888.6,-28.28 897.79,-23.01 887.32,-21.39 888.6,-28.28"/>
</g>
<!-- payments/models/members.js&#45;&gt;payments/database/connection.js -->
<g id="edge9" class="edge">
<title>payments/models/members.js&#45;&gt;payments/database/connection.js</title>
<path fill="none" stroke="#757575" d="M1060.54,-52.5C1069.48,-52.5 1078.59,-52.5 1087.67,-52.5"/>
<polygon fill="#757575" stroke="#757575" points="1087.91,-56 1097.91,-52.5 1087.91,-49 1087.91,-56"/>
</g>
<!-- payments/models/reminders.js&#45;&gt;payments/database/connection.js -->
<g id="edge10" class="edge">
<title>payments/models/reminders.js&#45;&gt;payments/database/connection.js</title>
<path fill="none" stroke="#757575" d="M1030.62,-23.03C1060.76,-28.1 1096.32,-34.07 1127.51,-39.31"/>
<polygon fill="#757575" stroke="#757575" points="1127.03,-42.78 1137.48,-40.99 1128.19,-35.88 1127.03,-42.78"/>
</g>
</g>
</svg>
