<?xml version="1.0" encoding="UTF-8" standalone="no"?>
<!DOCTYPE svg PUBLIC "-//W3C//DTD SVG 1.1//EN"
 "http://www.w3.org/Graphics/SVG/1.1/DTD/svg11.dtd">
<!-- Generated by graphviz version 2.43.0 (0)
 -->
<!-- Title: G Pages: 1 -->
<svg width="2302pt" height="950pt"
 viewBox="0.00 0.00 2302.20 949.83" xmlns="http://www.w3.org/2000/svg" xmlns:xlink="http://www.w3.org/1999/xlink">
<g id="graph0" class="graph" transform="scale(1 1) rotate(0) translate(21.6 928.23)">
<title>G</title>
<polygon fill="#111111" stroke="transparent" points="-21.6,21.6 -21.6,-928.23 2280.6,-928.23 2280.6,21.6 -21.6,21.6"/>
<!-- App.js -->
<g id="node1" class="node">
<title>App.js</title>
<path fill="none" stroke="#c6c5fe" d="M175.33,-395.66C175.33,-395.66 136.67,-395.66 136.67,-395.66 132.83,-395.66 129,-391.83 129,-388 129,-388 129,-380.33 129,-380.33 129,-376.5 132.83,-372.66 136.67,-372.66 136.67,-372.66 175.33,-372.66 175.33,-372.66 179.17,-372.66 183,-376.5 183,-380.33 183,-380.33 183,-388 183,-388 183,-391.83 179.17,-395.66 175.33,-395.66"/>
<text text-anchor="middle" x="156" y="-380.46" font-family="Arial" font-size="14.00" fill="#c6c5fe">App.js</text>
</g>
<!-- components/index.js -->
<g id="node2" class="node">
<title>components/index.js</title>
<path fill="none" stroke="#c6c5fe" d="M382.33,-395.66C382.33,-395.66 257.67,-395.66 257.67,-395.66 253.83,-395.66 250,-391.83 250,-388 250,-388 250,-380.33 250,-380.33 250,-376.5 253.83,-372.66 257.67,-372.66 257.67,-372.66 382.33,-372.66 382.33,-372.66 386.17,-372.66 390,-376.5 390,-380.33 390,-380.33 390,-388 390,-388 390,-391.83 386.17,-395.66 382.33,-395.66"/>
<text text-anchor="middle" x="320" y="-380.46" font-family="Arial" font-size="14.00" fill="#c6c5fe">components/index.js</text>
</g>
<!-- App.js&#45;&gt;components/index.js -->
<g id="edge1" class="edge">
<title>App.js&#45;&gt;components/index.js</title>
<path fill="none" stroke="#757575" d="M183.03,-384.16C198.55,-384.16 219.18,-384.16 239.67,-384.16"/>
<polygon fill="#757575" stroke="#757575" points="239.69,-387.66 249.69,-384.16 239.69,-380.66 239.69,-387.66"/>
</g>
<!-- components/Common/Input/index.js -->
<g id="node7" class="node">
<title>components/Common/Input/index.js</title>
<path fill="none" stroke="#c6c5fe" d="M1950.33,-735.66C1950.33,-735.66 1731.67,-735.66 1731.67,-735.66 1727.83,-735.66 1724,-731.83 1724,-728 1724,-728 1724,-720.33 1724,-720.33 1724,-716.5 1727.83,-712.66 1731.67,-712.66 1731.67,-712.66 1950.33,-712.66 1950.33,-712.66 1954.17,-712.66 1958,-716.5 1958,-720.33 1958,-720.33 1958,-728 1958,-728 1958,-731.83 1954.17,-735.66 1950.33,-735.66"/>
<text text-anchor="middle" x="1841" y="-720.46" font-family="Arial" font-size="14.00" fill="#c6c5fe">components/Common/Input/index.js</text>
</g>
<!-- components/index.js&#45;&gt;components/Common/Input/index.js -->
<g id="edge52" class="edge">
<title>components/index.js&#45;&gt;components/Common/Input/index.js</title>
<path fill="none" stroke="#757575" d="M320.64,-395.73C319.7,-446.08 322.72,-648.35 426,-757.16 566.2,-904.88 656.35,-904.16 860,-904.16 860,-904.16 860,-904.16 1205,-904.16 1417.79,-904.16 1482.75,-923.99 1680,-844.16 1738,-820.69 1793.63,-770.8 1821.48,-743.32"/>
<polygon fill="#757575" stroke="#757575" points="1824.32,-745.43 1828.9,-735.88 1819.36,-740.49 1824.32,-745.43"/>
</g>
<!-- components/Common/Modal/index.js -->
<g id="node8" class="node">
<title>components/Common/Modal/index.js</title>
<path fill="none" stroke="#c6c5fe" d="M1317.33,-755.66C1317.33,-755.66 1090.67,-755.66 1090.67,-755.66 1086.83,-755.66 1083,-751.83 1083,-748 1083,-748 1083,-740.33 1083,-740.33 1083,-736.5 1086.83,-732.66 1090.67,-732.66 1090.67,-732.66 1317.33,-732.66 1317.33,-732.66 1321.17,-732.66 1325,-736.5 1325,-740.33 1325,-740.33 1325,-748 1325,-748 1325,-751.83 1321.17,-755.66 1317.33,-755.66"/>
<text text-anchor="middle" x="1204" y="-740.46" font-family="Arial" font-size="14.00" fill="#c6c5fe">components/Common/Modal/index.js</text>
</g>
<!-- components/index.js&#45;&gt;components/Common/Modal/index.js -->
<g id="edge53" class="edge">
<title>components/index.js&#45;&gt;components/Common/Modal/index.js</title>
<path fill="none" stroke="#757575" d="M320.41,-395.88C318.66,-444.91 319.18,-634.92 426,-716.16 524.95,-791.43 883.79,-772.88 1077.29,-756.55"/>
<polygon fill="#757575" stroke="#757575" points="1077.85,-760.02 1087.51,-755.68 1077.25,-753.04 1077.85,-760.02"/>
</g>
<!-- components/Common/Select/index.js -->
<g id="node9" class="node">
<title>components/Common/Select/index.js</title>
<path fill="none" stroke="#c6c5fe" d="M1317.33,-634.66C1317.33,-634.66 1090.67,-634.66 1090.67,-634.66 1086.83,-634.66 1083,-630.83 1083,-627 1083,-627 1083,-619.33 1083,-619.33 1083,-615.5 1086.83,-611.66 1090.67,-611.66 1090.67,-611.66 1317.33,-611.66 1317.33,-611.66 1321.17,-611.66 1325,-615.5 1325,-619.33 1325,-619.33 1325,-627 1325,-627 1325,-630.83 1321.17,-634.66 1317.33,-634.66"/>
<text text-anchor="middle" x="1204" y="-619.46" font-family="Arial" font-size="14.00" fill="#c6c5fe">components/Common/Select/index.js</text>
</g>
<!-- components/index.js&#45;&gt;components/Common/Select/index.js -->
<g id="edge54" class="edge">
<title>components/index.js&#45;&gt;components/Common/Select/index.js</title>
<path fill="none" stroke="#757575" d="M329.96,-395.77C346.51,-416.29 384,-458.72 426,-479.16 666.06,-596.02 762.5,-503.69 1018,-581.16 1034.76,-586.24 1037.25,-592.06 1054,-597.16 1070.48,-602.18 1088.31,-606.33 1105.7,-609.74"/>
<polygon fill="#757575" stroke="#757575" points="1105.4,-613.24 1115.88,-611.66 1106.7,-606.36 1105.4,-613.24"/>
</g>
<!-- components/Common/TitleText/index.js -->
<g id="node10" class="node">
<title>components/Common/TitleText/index.js</title>
<path fill="none" stroke="#c6c5fe" d="M1323.33,-235.66C1323.33,-235.66 1084.67,-235.66 1084.67,-235.66 1080.83,-235.66 1077,-231.83 1077,-228 1077,-228 1077,-220.33 1077,-220.33 1077,-216.5 1080.83,-212.66 1084.67,-212.66 1084.67,-212.66 1323.33,-212.66 1323.33,-212.66 1327.17,-212.66 1331,-216.5 1331,-220.33 1331,-220.33 1331,-228 1331,-228 1331,-231.83 1327.17,-235.66 1323.33,-235.66"/>
<text text-anchor="middle" x="1204" y="-220.46" font-family="Arial" font-size="14.00" fill="#c6c5fe">components/Common/TitleText/index.js</text>
</g>
<!-- components/index.js&#45;&gt;components/Common/TitleText/index.js -->
<g id="edge55" class="edge">
<title>components/index.js&#45;&gt;components/Common/TitleText/index.js</title>
<path fill="none" stroke="#757575" d="M331.94,-372.42C349.7,-354.22 386.79,-319.68 426,-304.16 539.19,-259.37 875.78,-238.06 1066.75,-229.32"/>
<polygon fill="#757575" stroke="#757575" points="1067.03,-232.81 1076.86,-228.86 1066.71,-225.82 1067.03,-232.81"/>
</g>
<!-- components/Reminder/index.js -->
<g id="node11" class="node">
<title>components/Reminder/index.js</title>
<path fill="none" stroke="#c6c5fe" d="M1297.83,-675.66C1297.83,-675.66 1110.17,-675.66 1110.17,-675.66 1106.33,-675.66 1102.5,-671.83 1102.5,-668 1102.5,-668 1102.5,-660.33 1102.5,-660.33 1102.5,-656.5 1106.33,-652.66 1110.17,-652.66 1110.17,-652.66 1297.83,-652.66 1297.83,-652.66 1301.67,-652.66 1305.5,-656.5 1305.5,-660.33 1305.5,-660.33 1305.5,-668 1305.5,-668 1305.5,-671.83 1301.67,-675.66 1297.83,-675.66"/>
<text text-anchor="middle" x="1204" y="-660.46" font-family="Arial" font-size="14.00" fill="#c6c5fe">components/Reminder/index.js</text>
</g>
<!-- components/index.js&#45;&gt;components/Reminder/index.js -->
<g id="edge60" class="edge">
<title>components/index.js&#45;&gt;components/Reminder/index.js</title>
<path fill="none" stroke="#757575" d="M326.04,-396.07C338.48,-423.89 373.5,-493.31 426,-526.16 634.4,-656.57 932.39,-671.97 1091.99,-669.51"/>
<polygon fill="#757575" stroke="#757575" points="1092.37,-673 1102.3,-669.32 1092.24,-666 1092.37,-673"/>
</g>
<!-- components/AddressForm/index.js -->
<g id="node12" class="node">
<title>components/AddressForm/index.js</title>
<path fill="none" stroke="#c6c5fe" d="M652.33,-707.66C652.33,-707.66 441.67,-707.66 441.67,-707.66 437.83,-707.66 434,-703.83 434,-700 434,-700 434,-692.33 434,-692.33 434,-688.5 437.83,-684.66 441.67,-684.66 441.67,-684.66 652.33,-684.66 652.33,-684.66 656.17,-684.66 660,-688.5 660,-692.33 660,-692.33 660,-700 660,-700 660,-703.83 656.17,-707.66 652.33,-707.66"/>
<text text-anchor="middle" x="547" y="-692.46" font-family="Arial" font-size="14.00" fill="#c6c5fe">components/AddressForm/index.js</text>
</g>
<!-- components/index.js&#45;&gt;components/AddressForm/index.js -->
<g id="edge49" class="edge">
<title>components/index.js&#45;&gt;components/AddressForm/index.js</title>
<path fill="none" stroke="#757575" d="M324.15,-395.82C334.15,-431.14 367.96,-538.85 426,-609.16 450.76,-639.16 488.13,-664.07 514.57,-679.44"/>
<polygon fill="#757575" stroke="#757575" points="513.01,-682.58 523.43,-684.47 516.47,-676.49 513.01,-682.58"/>
</g>
<!-- components/Common/BodyText/index.jsx -->
<g id="node15" class="node">
<title>components/Common/BodyText/index.jsx</title>
<path fill="none" stroke="#c6c5fe" d="M1329.33,-117.66C1329.33,-117.66 1078.67,-117.66 1078.67,-117.66 1074.83,-117.66 1071,-113.83 1071,-110 1071,-110 1071,-102.33 1071,-102.33 1071,-98.5 1074.83,-94.66 1078.67,-94.66 1078.67,-94.66 1329.33,-94.66 1329.33,-94.66 1333.17,-94.66 1337,-98.5 1337,-102.33 1337,-102.33 1337,-110 1337,-110 1337,-113.83 1333.17,-117.66 1329.33,-117.66"/>
<text text-anchor="middle" x="1204" y="-102.46" font-family="Arial" font-size="14.00" fill="#c6c5fe">components/Common/BodyText/index.jsx</text>
</g>
<!-- components/index.js&#45;&gt;components/Common/BodyText/index.jsx -->
<g id="edge50" class="edge">
<title>components/index.js&#45;&gt;components/Common/BodyText/index.jsx</title>
<path fill="none" stroke="#757575" d="M321.74,-372.62C325.03,-331.71 342.24,-193.03 426,-135.16 525.62,-66.35 867.13,-79.73 1062.63,-93.91"/>
<polygon fill="#757575" stroke="#757575" points="1062.46,-97.41 1072.69,-94.65 1062.98,-90.42 1062.46,-97.41"/>
</g>
<!-- components/Common/Button/index.jsx -->
<g id="node17" class="node">
<title>components/Common/Button/index.jsx</title>
<path fill="none" stroke="#c6c5fe" d="M1958.33,-275.66C1958.33,-275.66 1723.67,-275.66 1723.67,-275.66 1719.83,-275.66 1716,-271.83 1716,-268 1716,-268 1716,-260.33 1716,-260.33 1716,-256.5 1719.83,-252.66 1723.67,-252.66 1723.67,-252.66 1958.33,-252.66 1958.33,-252.66 1962.17,-252.66 1966,-256.5 1966,-260.33 1966,-260.33 1966,-268 1966,-268 1966,-271.83 1962.17,-275.66 1958.33,-275.66"/>
<text text-anchor="middle" x="1841" y="-260.46" font-family="Arial" font-size="14.00" fill="#c6c5fe">components/Common/Button/index.jsx</text>
</g>
<!-- components/index.js&#45;&gt;components/Common/Button/index.jsx -->
<g id="edge51" class="edge">
<title>components/index.js&#45;&gt;components/Common/Button/index.jsx</title>
<path fill="none" stroke="#757575" d="M321.01,-372.48C321.75,-326.79 331.04,-158.95 426,-82.16 577.14,40.06 665.62,-28.16 860,-28.16 860,-28.16 860,-28.16 1205,-28.16 1416.36,-28.16 1493.26,47.83 1680,-51.16 1761.13,-94.17 1812.65,-198.58 1831.7,-243.28"/>
<polygon fill="#757575" stroke="#757575" points="1828.49,-244.69 1835.55,-252.59 1834.96,-242.01 1828.49,-244.69"/>
</g>
<!-- components/OtherAmount/index.js -->
<g id="node23" class="node">
<title>components/OtherAmount/index.js</title>
<path fill="none" stroke="#c6c5fe" d="M1309.33,-395.66C1309.33,-395.66 1098.67,-395.66 1098.67,-395.66 1094.83,-395.66 1091,-391.83 1091,-388 1091,-388 1091,-380.33 1091,-380.33 1091,-376.5 1094.83,-372.66 1098.67,-372.66 1098.67,-372.66 1309.33,-372.66 1309.33,-372.66 1313.17,-372.66 1317,-376.5 1317,-380.33 1317,-380.33 1317,-388 1317,-388 1317,-391.83 1313.17,-395.66 1309.33,-395.66"/>
<text text-anchor="middle" x="1204" y="-380.46" font-family="Arial" font-size="14.00" fill="#c6c5fe">components/OtherAmount/index.js</text>
</g>
<!-- components/index.js&#45;&gt;components/OtherAmount/index.js -->
<g id="edge58" class="edge">
<title>components/index.js&#45;&gt;components/OtherAmount/index.js</title>
<path fill="none" stroke="#757575" d="M390.21,-384.16C539.35,-384.16 892.7,-384.16 1080.59,-384.16"/>
<polygon fill="#757575" stroke="#757575" points="1080.79,-387.66 1090.79,-384.16 1080.79,-380.66 1080.79,-387.66"/>
</g>
<!-- components/Donations/index.js -->
<g id="node25" class="node">
<title>components/Donations/index.js</title>
<path fill="none" stroke="#c6c5fe" d="M641.83,-336.66C641.83,-336.66 452.17,-336.66 452.17,-336.66 448.33,-336.66 444.5,-332.83 444.5,-329 444.5,-329 444.5,-321.33 444.5,-321.33 444.5,-317.5 448.33,-313.66 452.17,-313.66 452.17,-313.66 641.83,-313.66 641.83,-313.66 645.67,-313.66 649.5,-317.5 649.5,-321.33 649.5,-321.33 649.5,-329 649.5,-329 649.5,-332.83 645.67,-336.66 641.83,-336.66"/>
<text text-anchor="middle" x="547" y="-321.46" font-family="Arial" font-size="14.00" fill="#c6c5fe">components/Donations/index.js</text>
</g>
<!-- components/index.js&#45;&gt;components/Donations/index.js -->
<g id="edge56" class="edge">
<title>components/index.js&#45;&gt;components/Donations/index.js</title>
<path fill="none" stroke="#757575" d="M364.92,-372.65C401.19,-363.13 452.85,-349.59 491.72,-339.4"/>
<polygon fill="#757575" stroke="#757575" points="493.03,-342.67 501.81,-336.75 491.25,-335.9 493.03,-342.67"/>
</g>
<!-- components/MobileTextForm/index.js -->
<g id="node29" class="node">
<title>components/MobileTextForm/index.js</title>
<path fill="none" stroke="#c6c5fe" d="M660.33,-470.66C660.33,-470.66 433.67,-470.66 433.67,-470.66 429.83,-470.66 426,-466.83 426,-463 426,-463 426,-455.33 426,-455.33 426,-451.5 429.83,-447.66 433.67,-447.66 433.67,-447.66 660.33,-447.66 660.33,-447.66 664.17,-447.66 668,-451.5 668,-455.33 668,-455.33 668,-463 668,-463 668,-466.83 664.17,-470.66 660.33,-470.66"/>
<text text-anchor="middle" x="547" y="-455.46" font-family="Arial" font-size="14.00" fill="#c6c5fe">components/MobileTextForm/index.js</text>
</g>
<!-- components/index.js&#45;&gt;components/MobileTextForm/index.js -->
<g id="edge57" class="edge">
<title>components/index.js&#45;&gt;components/MobileTextForm/index.js</title>
<path fill="none" stroke="#757575" d="M355.66,-395.72C394.89,-408.79 458.88,-430.12 501.7,-444.4"/>
<polygon fill="#757575" stroke="#757575" points="500.7,-447.75 511.3,-447.6 502.92,-441.11 500.7,-447.75"/>
</g>
<!-- components/PrayerCard/index.js -->
<g id="node32" class="node">
<title>components/PrayerCard/index.js</title>
<path fill="none" stroke="#c6c5fe" d="M645.83,-167.66C645.83,-167.66 448.17,-167.66 448.17,-167.66 444.33,-167.66 440.5,-163.83 440.5,-160 440.5,-160 440.5,-152.33 440.5,-152.33 440.5,-148.5 444.33,-144.66 448.17,-144.66 448.17,-144.66 645.83,-144.66 645.83,-144.66 649.67,-144.66 653.5,-148.5 653.5,-152.33 653.5,-152.33 653.5,-160 653.5,-160 653.5,-163.83 649.67,-167.66 645.83,-167.66"/>
<text text-anchor="middle" x="547" y="-152.46" font-family="Arial" font-size="14.00" fill="#c6c5fe">components/PrayerCard/index.js</text>
</g>
<!-- components/index.js&#45;&gt;components/PrayerCard/index.js -->
<g id="edge59" class="edge">
<title>components/index.js&#45;&gt;components/PrayerCard/index.js</title>
<path fill="none" stroke="#757575" d="M325.55,-372.28C337.63,-342.15 373.19,-261.79 426,-214.16 447.14,-195.09 475.68,-180.96 499.63,-171.42"/>
<polygon fill="#757575" stroke="#757575" points="501.15,-174.58 509.23,-167.73 498.64,-168.05 501.15,-174.58"/>
</g>
<!-- components/ThankYou/index.js -->
<g id="node35" class="node">
<title>components/ThankYou/index.js</title>
<path fill="none" stroke="#c6c5fe" d="M642.33,-246.66C642.33,-246.66 451.67,-246.66 451.67,-246.66 447.83,-246.66 444,-242.83 444,-239 444,-239 444,-231.33 444,-231.33 444,-227.5 447.83,-223.66 451.67,-223.66 451.67,-223.66 642.33,-223.66 642.33,-223.66 646.17,-223.66 650,-227.5 650,-231.33 650,-231.33 650,-239 650,-239 650,-242.83 646.17,-246.66 642.33,-246.66"/>
<text text-anchor="middle" x="547" y="-231.46" font-family="Arial" font-size="14.00" fill="#c6c5fe">components/ThankYou/index.js</text>
</g>
<!-- components/index.js&#45;&gt;components/ThankYou/index.js -->
<g id="edge61" class="edge">
<title>components/index.js&#45;&gt;components/ThankYou/index.js</title>
<path fill="none" stroke="#757575" d="M328.73,-372.32C344.34,-349.35 381.89,-298.62 426,-271.16 440.97,-261.84 458.5,-254.82 475.46,-249.56"/>
<polygon fill="#757575" stroke="#757575" points="476.74,-252.84 485.36,-246.67 474.78,-246.12 476.74,-252.84"/>
</g>
<!-- atoms.js -->
<g id="node3" class="node">
<title>atoms.js</title>
<path fill="none" stroke="#cfffac" d="M1867.33,-436.66C1867.33,-436.66 1814.67,-436.66 1814.67,-436.66 1810.83,-436.66 1807,-432.83 1807,-429 1807,-429 1807,-421.33 1807,-421.33 1807,-417.5 1810.83,-413.66 1814.67,-413.66 1814.67,-413.66 1867.33,-413.66 1867.33,-413.66 1871.17,-413.66 1875,-417.5 1875,-421.33 1875,-421.33 1875,-429 1875,-429 1875,-432.83 1871.17,-436.66 1867.33,-436.66"/>
<text text-anchor="middle" x="1841" y="-421.46" font-family="Arial" font-size="14.00" fill="#cfffac">atoms.js</text>
</g>
<!-- components/AddressForm/AddressForm.jsx -->
<g id="node4" class="node">
<title>components/AddressForm/AddressForm.jsx</title>
<path fill="none" stroke="#c6c5fe" d="M994.33,-715.66C994.33,-715.66 727.67,-715.66 727.67,-715.66 723.83,-715.66 720,-711.83 720,-708 720,-708 720,-700.33 720,-700.33 720,-696.5 723.83,-692.66 727.67,-692.66 727.67,-692.66 994.33,-692.66 994.33,-692.66 998.17,-692.66 1002,-696.5 1002,-700.33 1002,-700.33 1002,-708 1002,-708 1002,-711.83 998.17,-715.66 994.33,-715.66"/>
<text text-anchor="middle" x="861" y="-700.46" font-family="Arial" font-size="14.00" fill="#c6c5fe">components/AddressForm/AddressForm.jsx</text>
</g>
<!-- components/AddressForm/AddressForm.jsx&#45;&gt;atoms.js -->
<g id="edge2" class="edge">
<title>components/AddressForm/AddressForm.jsx&#45;&gt;atoms.js</title>
<path fill="none" stroke="#757575" d="M1002.04,-708.32C1204.98,-711.93 1568.74,-708.56 1680,-643.16 1760.35,-595.93 1812.31,-490.84 1831.58,-446.05"/>
<polygon fill="#757575" stroke="#757575" points="1834.85,-447.31 1835.49,-436.73 1828.39,-444.6 1834.85,-447.31"/>
</g>
<!-- components/AddressForm/AddressSchema.js -->
<g id="node5" class="node">
<title>components/AddressForm/AddressSchema.js</title>
<path fill="none" stroke="#cfffac" d="M1342.83,-837.66C1342.83,-837.66 1065.17,-837.66 1065.17,-837.66 1061.33,-837.66 1057.5,-833.83 1057.5,-830 1057.5,-830 1057.5,-822.33 1057.5,-822.33 1057.5,-818.5 1061.33,-814.66 1065.17,-814.66 1065.17,-814.66 1342.83,-814.66 1342.83,-814.66 1346.67,-814.66 1350.5,-818.5 1350.5,-822.33 1350.5,-822.33 1350.5,-830 1350.5,-830 1350.5,-833.83 1346.67,-837.66 1342.83,-837.66"/>
<text text-anchor="middle" x="1204" y="-822.46" font-family="Arial" font-size="14.00" fill="#cfffac">components/AddressForm/AddressSchema.js</text>
</g>
<!-- components/AddressForm/AddressForm.jsx&#45;&gt;components/AddressForm/AddressSchema.js -->
<g id="edge3" class="edge">
<title>components/AddressForm/AddressForm.jsx&#45;&gt;components/AddressForm/AddressSchema.js</title>
<path fill="none" stroke="#757575" d="M879.06,-715.94C911.5,-737.7 985,-783.99 1054,-806.16 1061.34,-808.52 1068.97,-810.6 1076.72,-812.44"/>
<polygon fill="#757575" stroke="#757575" points="1076.07,-815.88 1086.59,-814.63 1077.59,-809.04 1076.07,-815.88"/>
</g>
<!-- components/AddressForm/options.js -->
<g id="node6" class="node">
<title>components/AddressForm/options.js</title>
<path fill="none" stroke="#c6c5fe" d="M1314.83,-796.66C1314.83,-796.66 1093.17,-796.66 1093.17,-796.66 1089.33,-796.66 1085.5,-792.83 1085.5,-789 1085.5,-789 1085.5,-781.33 1085.5,-781.33 1085.5,-777.5 1089.33,-773.66 1093.17,-773.66 1093.17,-773.66 1314.83,-773.66 1314.83,-773.66 1318.67,-773.66 1322.5,-777.5 1322.5,-781.33 1322.5,-781.33 1322.5,-789 1322.5,-789 1322.5,-792.83 1318.67,-796.66 1314.83,-796.66"/>
<text text-anchor="middle" x="1204" y="-781.46" font-family="Arial" font-size="14.00" fill="#c6c5fe">components/AddressForm/options.js</text>
</g>
<!-- components/AddressForm/AddressForm.jsx&#45;&gt;components/AddressForm/options.js -->
<g id="edge4" class="edge">
<title>components/AddressForm/AddressForm.jsx&#45;&gt;components/AddressForm/options.js</title>
<path fill="none" stroke="#757575" d="M893.5,-715.75C931.19,-729.2 996.42,-751.2 1054,-764.16 1067.13,-767.12 1081,-769.73 1094.79,-772.03"/>
<polygon fill="#757575" stroke="#757575" points="1094.38,-775.51 1104.81,-773.64 1095.49,-768.6 1094.38,-775.51"/>
</g>
<!-- components/AddressForm/AddressForm.jsx&#45;&gt;components/Common/Input/index.js -->
<g id="edge5" class="edge">
<title>components/AddressForm/AddressForm.jsx&#45;&gt;components/Common/Input/index.js</title>
<path fill="none" stroke="#757575" d="M872.19,-715.74C898.66,-744.78 973.12,-820.35 1054,-847.16 1186.33,-891.03 1546.79,-847.28 1680,-806.16 1729.73,-790.81 1782.56,-760.67 1813.35,-741.52"/>
<polygon fill="#757575" stroke="#757575" points="1815.58,-744.25 1822.17,-735.95 1811.85,-738.33 1815.58,-744.25"/>
</g>
<!-- components/AddressForm/AddressForm.jsx&#45;&gt;components/Common/Modal/index.js -->
<g id="edge6" class="edge">
<title>components/AddressForm/AddressForm.jsx&#45;&gt;components/Common/Modal/index.js</title>
<path fill="none" stroke="#757575" d="M960.17,-715.68C1002.34,-720.63 1051.75,-726.42 1094.95,-731.49"/>
<polygon fill="#757575" stroke="#757575" points="1094.59,-734.97 1104.93,-732.66 1095.4,-728.02 1094.59,-734.97"/>
</g>
<!-- components/AddressForm/AddressForm.jsx&#45;&gt;components/Common/Select/index.js -->
<g id="edge7" class="edge">
<title>components/AddressForm/AddressForm.jsx&#45;&gt;components/Common/Select/index.js</title>
<path fill="none" stroke="#757575" d="M892.47,-692.66C929.97,-678.93 995.81,-656.21 1054,-643.16 1065.44,-640.6 1077.45,-638.32 1089.49,-636.3"/>
<polygon fill="#757575" stroke="#757575" points="1090.27,-639.72 1099.59,-634.67 1089.16,-632.81 1090.27,-639.72"/>
</g>
<!-- components/AddressForm/AddressForm.jsx&#45;&gt;components/Common/TitleText/index.js -->
<g id="edge8" class="edge">
<title>components/AddressForm/AddressForm.jsx&#45;&gt;components/Common/TitleText/index.js</title>
<path fill="none" stroke="#757575" d="M874.22,-692.59C904.24,-663.36 981.82,-582.92 1018,-499.16 1056.6,-409.82 992.84,-358.87 1054,-283.16 1071.75,-261.19 1098.86,-247.36 1125.11,-238.68"/>
<polygon fill="#757575" stroke="#757575" points="1126.2,-242.01 1134.72,-235.71 1124.13,-235.32 1126.2,-242.01"/>
</g>
<!-- components/AddressForm/AddressForm.jsx&#45;&gt;components/Reminder/index.js -->
<g id="edge9" class="edge">
<title>components/AddressForm/AddressForm.jsx&#45;&gt;components/Reminder/index.js</title>
<path fill="none" stroke="#757575" d="M960.17,-692.65C1002.34,-687.7 1051.75,-681.9 1094.95,-676.84"/>
<polygon fill="#757575" stroke="#757575" points="1095.4,-680.31 1104.93,-675.67 1094.59,-673.36 1095.4,-680.31"/>
</g>
<!-- components/AddressForm/statesList.js -->
<g id="node13" class="node">
<title>components/AddressForm/statesList.js</title>
<path fill="none" stroke="#cfffac" d="M1652.83,-796.66C1652.83,-796.66 1417.17,-796.66 1417.17,-796.66 1413.33,-796.66 1409.5,-792.83 1409.5,-789 1409.5,-789 1409.5,-781.33 1409.5,-781.33 1409.5,-777.5 1413.33,-773.66 1417.17,-773.66 1417.17,-773.66 1652.83,-773.66 1652.83,-773.66 1656.67,-773.66 1660.5,-777.5 1660.5,-781.33 1660.5,-781.33 1660.5,-789 1660.5,-789 1660.5,-792.83 1656.67,-796.66 1652.83,-796.66"/>
<text text-anchor="middle" x="1535" y="-781.46" font-family="Arial" font-size="14.00" fill="#cfffac">components/AddressForm/statesList.js</text>
</g>
<!-- components/AddressForm/options.js&#45;&gt;components/AddressForm/statesList.js -->
<g id="edge11" class="edge">
<title>components/AddressForm/options.js&#45;&gt;components/AddressForm/statesList.js</title>
<path fill="none" stroke="#757575" d="M1322.85,-785.16C1347.67,-785.16 1374.04,-785.16 1399.42,-785.16"/>
<polygon fill="#757575" stroke="#757575" points="1399.47,-788.66 1409.47,-785.16 1399.47,-781.66 1399.47,-788.66"/>
</g>
<!-- components/Common/Input/Input.jsx -->
<g id="node18" class="node">
<title>components/Common/Input/Input.jsx</title>
<path fill="none" stroke="#cfffac" d="M2242.33,-735.66C2242.33,-735.66 2018.67,-735.66 2018.67,-735.66 2014.83,-735.66 2011,-731.83 2011,-728 2011,-728 2011,-720.33 2011,-720.33 2011,-716.5 2014.83,-712.66 2018.67,-712.66 2018.67,-712.66 2242.33,-712.66 2242.33,-712.66 2246.17,-712.66 2250,-716.5 2250,-720.33 2250,-720.33 2250,-728 2250,-728 2250,-731.83 2246.17,-735.66 2242.33,-735.66"/>
<text text-anchor="middle" x="2130.5" y="-720.46" font-family="Arial" font-size="14.00" fill="#cfffac">components/Common/Input/Input.jsx</text>
</g>
<!-- components/Common/Input/index.js&#45;&gt;components/Common/Input/Input.jsx -->
<g id="edge14" class="edge">
<title>components/Common/Input/index.js&#45;&gt;components/Common/Input/Input.jsx</title>
<path fill="none" stroke="#757575" d="M1958.11,-724.16C1972.03,-724.16 1986.31,-724.16 2000.4,-724.16"/>
<polygon fill="#757575" stroke="#757575" points="2000.62,-727.66 2010.62,-724.16 2000.62,-720.66 2000.62,-727.66"/>
</g>
<!-- components/Common/Modal/modal.jsx -->
<g id="node19" class="node">
<title>components/Common/Modal/modal.jsx</title>
<path fill="none" stroke="#cfffac" d="M1654.33,-755.66C1654.33,-755.66 1415.67,-755.66 1415.67,-755.66 1411.83,-755.66 1408,-751.83 1408,-748 1408,-748 1408,-740.33 1408,-740.33 1408,-736.5 1411.83,-732.66 1415.67,-732.66 1415.67,-732.66 1654.33,-732.66 1654.33,-732.66 1658.17,-732.66 1662,-736.5 1662,-740.33 1662,-740.33 1662,-748 1662,-748 1662,-751.83 1658.17,-755.66 1654.33,-755.66"/>
<text text-anchor="middle" x="1535" y="-740.46" font-family="Arial" font-size="14.00" fill="#cfffac">components/Common/Modal/modal.jsx</text>
</g>
<!-- components/Common/Modal/index.js&#45;&gt;components/Common/Modal/modal.jsx -->
<g id="edge15" class="edge">
<title>components/Common/Modal/index.js&#45;&gt;components/Common/Modal/modal.jsx</title>
<path fill="none" stroke="#757575" d="M1325.17,-744.16C1348.7,-744.16 1373.54,-744.16 1397.56,-744.16"/>
<polygon fill="#757575" stroke="#757575" points="1397.79,-747.66 1407.79,-744.16 1397.79,-740.66 1397.79,-747.66"/>
</g>
<!-- components/Common/Select/Select.jsx -->
<g id="node20" class="node">
<title>components/Common/Select/Select.jsx</title>
<path fill="none" stroke="#cfffac" d="M1654.33,-634.66C1654.33,-634.66 1415.67,-634.66 1415.67,-634.66 1411.83,-634.66 1408,-630.83 1408,-627 1408,-627 1408,-619.33 1408,-619.33 1408,-615.5 1411.83,-611.66 1415.67,-611.66 1415.67,-611.66 1654.33,-611.66 1654.33,-611.66 1658.17,-611.66 1662,-615.5 1662,-619.33 1662,-619.33 1662,-627 1662,-627 1662,-630.83 1658.17,-634.66 1654.33,-634.66"/>
<text text-anchor="middle" x="1535" y="-619.46" font-family="Arial" font-size="14.00" fill="#cfffac">components/Common/Select/Select.jsx</text>
</g>
<!-- components/Common/Select/index.js&#45;&gt;components/Common/Select/Select.jsx -->
<g id="edge16" class="edge">
<title>components/Common/Select/index.js&#45;&gt;components/Common/Select/Select.jsx</title>
<path fill="none" stroke="#757575" d="M1325.17,-623.16C1348.7,-623.16 1373.54,-623.16 1397.56,-623.16"/>
<polygon fill="#757575" stroke="#757575" points="1397.79,-626.66 1407.79,-623.16 1397.79,-619.66 1397.79,-626.66"/>
</g>
<!-- components/Common/TitleText/TitleText.jsx -->
<g id="node21" class="node">
<title>components/Common/TitleText/TitleText.jsx</title>
<path fill="none" stroke="#cfffac" d="M1666.83,-235.66C1666.83,-235.66 1403.17,-235.66 1403.17,-235.66 1399.33,-235.66 1395.5,-231.83 1395.5,-228 1395.5,-228 1395.5,-220.33 1395.5,-220.33 1395.5,-216.5 1399.33,-212.66 1403.17,-212.66 1403.17,-212.66 1666.83,-212.66 1666.83,-212.66 1670.67,-212.66 1674.5,-216.5 1674.5,-220.33 1674.5,-220.33 1674.5,-228 1674.5,-228 1674.5,-231.83 1670.67,-235.66 1666.83,-235.66"/>
<text text-anchor="middle" x="1535" y="-220.46" font-family="Arial" font-size="14.00" fill="#cfffac">components/Common/TitleText/TitleText.jsx</text>
</g>
<!-- components/Common/TitleText/index.js&#45;&gt;components/Common/TitleText/TitleText.jsx -->
<g id="edge17" class="edge">
<title>components/Common/TitleText/index.js&#45;&gt;components/Common/TitleText/TitleText.jsx</title>
<path fill="none" stroke="#757575" d="M1331.26,-224.16C1349,-224.16 1367.36,-224.16 1385.46,-224.16"/>
<polygon fill="#757575" stroke="#757575" points="1385.49,-227.66 1395.49,-224.16 1385.49,-220.66 1385.49,-227.66"/>
</g>
<!-- components/Reminder/reminder.jsx -->
<g id="node33" class="node">
<title>components/Reminder/reminder.jsx</title>
<path fill="none" stroke="#c6c5fe" d="M1643.33,-395.66C1643.33,-395.66 1426.67,-395.66 1426.67,-395.66 1422.83,-395.66 1419,-391.83 1419,-388 1419,-388 1419,-380.33 1419,-380.33 1419,-376.5 1422.83,-372.66 1426.67,-372.66 1426.67,-372.66 1643.33,-372.66 1643.33,-372.66 1647.17,-372.66 1651,-376.5 1651,-380.33 1651,-380.33 1651,-388 1651,-388 1651,-391.83 1647.17,-395.66 1643.33,-395.66"/>
<text text-anchor="middle" x="1535" y="-380.46" font-family="Arial" font-size="14.00" fill="#c6c5fe">components/Reminder/reminder.jsx</text>
</g>
<!-- components/Reminder/index.js&#45;&gt;components/Reminder/reminder.jsx -->
<g id="edge42" class="edge">
<title>components/Reminder/index.js&#45;&gt;components/Reminder/reminder.jsx</title>
<path fill="none" stroke="#757575" d="M1305.71,-667.48C1323.74,-663.54 1340.92,-656.12 1354,-643.16 1430.32,-567.57 1313.61,-479.68 1390,-404.16 1395.81,-398.42 1402.44,-393.82 1409.61,-390.14"/>
<polygon fill="#757575" stroke="#757575" points="1411.24,-393.25 1418.95,-385.98 1408.39,-386.86 1411.24,-393.25"/>
</g>
<!-- components/AddressForm/index.js&#45;&gt;components/AddressForm/AddressForm.jsx -->
<g id="edge10" class="edge">
<title>components/AddressForm/index.js&#45;&gt;components/AddressForm/AddressForm.jsx</title>
<path fill="none" stroke="#757575" d="M660.2,-699.04C676.26,-699.45 692.99,-699.88 709.64,-700.31"/>
<polygon fill="#757575" stroke="#757575" points="709.9,-703.82 719.98,-700.57 710.08,-696.82 709.9,-703.82"/>
</g>
<!-- components/Common/BodyText/BodyText.jsx -->
<g id="node14" class="node">
<title>components/Common/BodyText/BodyText.jsx</title>
<path fill="none" stroke="#cfffac" d="M1672.33,-117.66C1672.33,-117.66 1397.67,-117.66 1397.67,-117.66 1393.83,-117.66 1390,-113.83 1390,-110 1390,-110 1390,-102.33 1390,-102.33 1390,-98.5 1393.83,-94.66 1397.67,-94.66 1397.67,-94.66 1672.33,-94.66 1672.33,-94.66 1676.17,-94.66 1680,-98.5 1680,-102.33 1680,-102.33 1680,-110 1680,-110 1680,-113.83 1676.17,-117.66 1672.33,-117.66"/>
<text text-anchor="middle" x="1535" y="-102.46" font-family="Arial" font-size="14.00" fill="#cfffac">components/Common/BodyText/BodyText.jsx</text>
</g>
<!-- components/Common/BodyText/index.jsx&#45;&gt;components/Common/BodyText/BodyText.jsx -->
<g id="edge12" class="edge">
<title>components/Common/BodyText/index.jsx&#45;&gt;components/Common/BodyText/BodyText.jsx</title>
<path fill="none" stroke="#757575" d="M1337.39,-106.16C1351.26,-106.16 1365.44,-106.16 1379.53,-106.16"/>
<polygon fill="#757575" stroke="#757575" points="1379.76,-109.66 1389.76,-106.16 1379.76,-102.66 1379.76,-109.66"/>
</g>
<!-- components/Common/Button/Button.jsx -->
<g id="node16" class="node">
<title>components/Common/Button/Button.jsx</title>
<path fill="none" stroke="#cfffac" d="M2251.33,-275.66C2251.33,-275.66 2009.67,-275.66 2009.67,-275.66 2005.83,-275.66 2002,-271.83 2002,-268 2002,-268 2002,-260.33 2002,-260.33 2002,-256.5 2005.83,-252.66 2009.67,-252.66 2009.67,-252.66 2251.33,-252.66 2251.33,-252.66 2255.17,-252.66 2259,-256.5 2259,-260.33 2259,-260.33 2259,-268 2259,-268 2259,-271.83 2255.17,-275.66 2251.33,-275.66"/>
<text text-anchor="middle" x="2130.5" y="-260.46" font-family="Arial" font-size="14.00" fill="#cfffac">components/Common/Button/Button.jsx</text>
</g>
<!-- components/Common/Button/index.jsx&#45;&gt;components/Common/Button/Button.jsx -->
<g id="edge13" class="edge">
<title>components/Common/Button/index.jsx&#45;&gt;components/Common/Button/Button.jsx</title>
<path fill="none" stroke="#757575" d="M1966.01,-264.16C1974.53,-264.16 1983.15,-264.16 1991.73,-264.16"/>
<polygon fill="#757575" stroke="#757575" points="1991.79,-267.66 2001.79,-264.16 1991.79,-260.66 1991.79,-267.66"/>
</g>
<!-- components/Donations/Donations.jsx -->
<g id="node22" class="node">
<title>components/Donations/Donations.jsx</title>
<path fill="none" stroke="#c6c5fe" d="M973.33,-336.66C973.33,-336.66 748.67,-336.66 748.67,-336.66 744.83,-336.66 741,-332.83 741,-329 741,-329 741,-321.33 741,-321.33 741,-317.5 744.83,-313.66 748.67,-313.66 748.67,-313.66 973.33,-313.66 973.33,-313.66 977.17,-313.66 981,-317.5 981,-321.33 981,-321.33 981,-329 981,-329 981,-332.83 977.17,-336.66 973.33,-336.66"/>
<text text-anchor="middle" x="861" y="-321.46" font-family="Arial" font-size="14.00" fill="#c6c5fe">components/Donations/Donations.jsx</text>
</g>
<!-- components/Donations/Donations.jsx&#45;&gt;atoms.js -->
<g id="edge18" class="edge">
<title>components/Donations/Donations.jsx&#45;&gt;atoms.js</title>
<path fill="none" stroke="#757575" d="M981.06,-325.99C1174.93,-328.12 1550.2,-335.76 1680,-363.16 1726.09,-372.89 1776.3,-394.26 1807.94,-409.18"/>
<polygon fill="#757575" stroke="#757575" points="1806.61,-412.42 1817.14,-413.58 1809.63,-406.1 1806.61,-412.42"/>
</g>
<!-- components/Donations/Donations.jsx&#45;&gt;components/Common/Modal/index.js -->
<g id="edge21" class="edge">
<title>components/Donations/Donations.jsx&#45;&gt;components/Common/Modal/index.js</title>
<path fill="none" stroke="#757575" d="M883.63,-336.77C918.3,-356.62 985.69,-400.59 1018,-458.16 1067.78,-546.86 990.6,-604.63 1054,-684.16 1071.96,-706.69 1099.69,-720.81 1126.38,-729.63"/>
<polygon fill="#757575" stroke="#757575" points="1125.56,-733.04 1136.14,-732.65 1127.62,-726.36 1125.56,-733.04"/>
</g>
<!-- components/Donations/Donations.jsx&#45;&gt;components/Common/TitleText/index.js -->
<g id="edge22" class="edge">
<title>components/Donations/Donations.jsx&#45;&gt;components/Common/TitleText/index.js</title>
<path fill="none" stroke="#757575" d="M981.37,-315.23C994.27,-311.29 1006.77,-306.06 1018,-299.16 1041.02,-285.01 1031.03,-264.4 1054,-250.16 1060.9,-245.88 1068.31,-242.26 1076,-239.19"/>
<polygon fill="#757575" stroke="#757575" points="1077.32,-242.44 1085.51,-235.72 1074.92,-235.86 1077.32,-242.44"/>
</g>
<!-- components/Donations/Donations.jsx&#45;&gt;components/Common/BodyText/index.jsx -->
<g id="edge19" class="edge">
<title>components/Donations/Donations.jsx&#45;&gt;components/Common/BodyText/index.jsx</title>
<path fill="none" stroke="#757575" d="M880.33,-313.39C937.01,-276.99 1109.61,-166.14 1176.31,-123.31"/>
<polygon fill="#757575" stroke="#757575" points="1178.47,-126.08 1184.99,-117.73 1174.68,-120.19 1178.47,-126.08"/>
</g>
<!-- components/Donations/Donations.jsx&#45;&gt;components/Common/Button/index.jsx -->
<g id="edge20" class="edge">
<title>components/Donations/Donations.jsx&#45;&gt;components/Common/Button/index.jsx</title>
<path fill="none" stroke="#757575" d="M954.86,-313.65C975.86,-309.96 997.88,-305.2 1018,-299.16 1034.77,-294.13 1036.92,-287 1054,-283.16 1174.04,-256.17 1514.79,-257.77 1705.87,-261.08"/>
<polygon fill="#757575" stroke="#757575" points="1705.92,-264.58 1715.98,-261.26 1706.05,-257.58 1705.92,-264.58"/>
</g>
<!-- components/Donations/Donations.jsx&#45;&gt;components/OtherAmount/index.js -->
<g id="edge23" class="edge">
<title>components/Donations/Donations.jsx&#45;&gt;components/OtherAmount/index.js</title>
<path fill="none" stroke="#757575" d="M928.56,-336.68C985.27,-346.49 1066.78,-360.59 1126.23,-370.88"/>
<polygon fill="#757575" stroke="#757575" points="1125.87,-374.37 1136.32,-372.63 1127.06,-367.47 1125.87,-374.37"/>
</g>
<!-- integrations/donationAPI.js -->
<g id="node24" class="node">
<title>integrations/donationAPI.js</title>
<path fill="none" stroke="#cfffac" d="M1284.83,-315.66C1284.83,-315.66 1123.17,-315.66 1123.17,-315.66 1119.33,-315.66 1115.5,-311.83 1115.5,-308 1115.5,-308 1115.5,-300.33 1115.5,-300.33 1115.5,-296.5 1119.33,-292.66 1123.17,-292.66 1123.17,-292.66 1284.83,-292.66 1284.83,-292.66 1288.67,-292.66 1292.5,-296.5 1292.5,-300.33 1292.5,-300.33 1292.5,-308 1292.5,-308 1292.5,-311.83 1288.67,-315.66 1284.83,-315.66"/>
<text text-anchor="middle" x="1204" y="-300.46" font-family="Arial" font-size="14.00" fill="#cfffac">integrations/donationAPI.js</text>
</g>
<!-- components/Donations/Donations.jsx&#45;&gt;integrations/donationAPI.js -->
<g id="edge24" class="edge">
<title>components/Donations/Donations.jsx&#45;&gt;integrations/donationAPI.js</title>
<path fill="none" stroke="#757575" d="M981.27,-317.82C1021.73,-315.33 1066.43,-312.57 1105.04,-310.2"/>
<polygon fill="#757575" stroke="#757575" points="1105.47,-313.68 1115.24,-309.57 1105.04,-306.69 1105.47,-313.68"/>
</g>
<!-- components/OtherAmount/OtherAmount.jsx -->
<g id="node30" class="node">
<title>components/OtherAmount/OtherAmount.jsx</title>
<path fill="none" stroke="#c6c5fe" d="M1668.33,-436.66C1668.33,-436.66 1401.67,-436.66 1401.67,-436.66 1397.83,-436.66 1394,-432.83 1394,-429 1394,-429 1394,-421.33 1394,-421.33 1394,-417.5 1397.83,-413.66 1401.67,-413.66 1401.67,-413.66 1668.33,-413.66 1668.33,-413.66 1672.17,-413.66 1676,-417.5 1676,-421.33 1676,-421.33 1676,-429 1676,-429 1676,-432.83 1672.17,-436.66 1668.33,-436.66"/>
<text text-anchor="middle" x="1535" y="-421.46" font-family="Arial" font-size="14.00" fill="#c6c5fe">components/OtherAmount/OtherAmount.jsx</text>
</g>
<!-- components/OtherAmount/index.js&#45;&gt;components/OtherAmount/OtherAmount.jsx -->
<g id="edge37" class="edge">
<title>components/OtherAmount/index.js&#45;&gt;components/OtherAmount/OtherAmount.jsx</title>
<path fill="none" stroke="#757575" d="M1297.52,-395.69C1339.22,-400.89 1388.61,-407.04 1431.44,-412.38"/>
<polygon fill="#757575" stroke="#757575" points="1431.25,-415.89 1441.6,-413.65 1432.11,-408.94 1431.25,-415.89"/>
</g>
<!-- components/Donations/index.js&#45;&gt;components/Donations/Donations.jsx -->
<g id="edge25" class="edge">
<title>components/Donations/index.js&#45;&gt;components/Donations/Donations.jsx</title>
<path fill="none" stroke="#757575" d="M649.73,-325.16C675.51,-325.16 703.55,-325.16 730.5,-325.16"/>
<polygon fill="#757575" stroke="#757575" points="730.77,-328.66 740.77,-325.16 730.77,-321.66 730.77,-328.66"/>
</g>
<!-- components/MobileTextForm/MobileSchema.js -->
<g id="node26" class="node">
<title>components/MobileTextForm/MobileSchema.js</title>
<path fill="none" stroke="#cfffac" d="M1346.33,-516.66C1346.33,-516.66 1061.67,-516.66 1061.67,-516.66 1057.83,-516.66 1054,-512.83 1054,-509 1054,-509 1054,-501.33 1054,-501.33 1054,-497.5 1057.83,-493.66 1061.67,-493.66 1061.67,-493.66 1346.33,-493.66 1346.33,-493.66 1350.17,-493.66 1354,-497.5 1354,-501.33 1354,-501.33 1354,-509 1354,-509 1354,-512.83 1350.17,-516.66 1346.33,-516.66"/>
<text text-anchor="middle" x="1204" y="-501.46" font-family="Arial" font-size="14.00" fill="#cfffac">components/MobileTextForm/MobileSchema.js</text>
</g>
<!-- components/MobileTextForm/MobileTextForm.jsx -->
<g id="node27" class="node">
<title>components/MobileTextForm/MobileTextForm.jsx</title>
<path fill="none" stroke="#c6c5fe" d="M1010.33,-490.66C1010.33,-490.66 711.67,-490.66 711.67,-490.66 707.83,-490.66 704,-486.83 704,-483 704,-483 704,-475.33 704,-475.33 704,-471.5 707.83,-467.66 711.67,-467.66 711.67,-467.66 1010.33,-467.66 1010.33,-467.66 1014.17,-467.66 1018,-471.5 1018,-475.33 1018,-475.33 1018,-483 1018,-483 1018,-486.83 1014.17,-490.66 1010.33,-490.66"/>
<text text-anchor="middle" x="861" y="-475.46" font-family="Arial" font-size="14.00" fill="#c6c5fe">components/MobileTextForm/MobileTextForm.jsx</text>
</g>
<!-- components/MobileTextForm/MobileTextForm.jsx&#45;&gt;atoms.js -->
<g id="edge26" class="edge">
<title>components/MobileTextForm/MobileTextForm.jsx&#45;&gt;atoms.js</title>
<path fill="none" stroke="#757575" d="M898.7,-490.69C937,-502.06 999.03,-518.67 1054,-525.16 1186.41,-540.8 1221.35,-538.67 1354,-525.16 1519.94,-508.27 1712.89,-459.72 1797.06,-437.07"/>
<polygon fill="#757575" stroke="#757575" points="1798.04,-440.43 1806.78,-434.44 1796.21,-433.67 1798.04,-440.43"/>
</g>
<!-- components/MobileTextForm/MobileTextForm.jsx&#45;&gt;components/Common/Input/index.js -->
<g id="edge28" class="edge">
<title>components/MobileTextForm/MobileTextForm.jsx&#45;&gt;components/Common/Input/index.js</title>
<path fill="none" stroke="#757575" d="M888.76,-490.67C925.34,-505.85 993.34,-532.17 1054,-545.16 1327.18,-603.66 1419.65,-500.84 1680,-602.16 1739.21,-625.21 1795.06,-677.1 1822.43,-705.21"/>
<polygon fill="#757575" stroke="#757575" points="1819.93,-707.66 1829.37,-712.46 1824.98,-702.82 1819.93,-707.66"/>
</g>
<!-- components/MobileTextForm/MobileTextForm.jsx&#45;&gt;components/Common/Select/index.js -->
<g id="edge29" class="edge">
<title>components/MobileTextForm/MobileTextForm.jsx&#45;&gt;components/Common/Select/index.js</title>
<path fill="none" stroke="#757575" d="M923.69,-490.76C954.64,-499.03 991.14,-512.78 1018,-535.16 1042.48,-555.56 1027.86,-578.94 1054,-597.16 1060.07,-601.4 1066.61,-605.01 1073.45,-608.09"/>
<polygon fill="#757575" stroke="#757575" points="1072.35,-611.43 1082.93,-611.98 1075,-604.95 1072.35,-611.43"/>
</g>
<!-- components/MobileTextForm/MobileTextForm.jsx&#45;&gt;components/Common/TitleText/index.js -->
<g id="edge30" class="edge">
<title>components/MobileTextForm/MobileTextForm.jsx&#45;&gt;components/Common/TitleText/index.js</title>
<path fill="none" stroke="#757575" d="M879.11,-467.44C909.71,-445.87 974.63,-397.33 1018,-345.16 1038.37,-320.66 1029.85,-303.95 1054,-283.16 1078.72,-261.88 1112.05,-247.71 1140.92,-238.61"/>
<polygon fill="#757575" stroke="#757575" points="1141.96,-241.96 1150.52,-235.72 1139.93,-235.25 1141.96,-241.96"/>
</g>
<!-- components/MobileTextForm/MobileTextForm.jsx&#45;&gt;components/Common/Button/index.jsx -->
<g id="edge27" class="edge">
<title>components/MobileTextForm/MobileTextForm.jsx&#45;&gt;components/Common/Button/index.jsx</title>
<path fill="none" stroke="#757575" d="M918.98,-467.61C957.11,-460.1 1008.45,-450.39 1054,-443.16 1186.8,-422.1 1235.35,-467.41 1354,-404.16 1375.4,-392.76 1369.12,-375.49 1390,-363.16 1486.37,-306.26 1611.8,-281.98 1705.75,-271.67"/>
<polygon fill="#757575" stroke="#757575" points="1706.32,-275.13 1715.89,-270.6 1705.58,-268.17 1706.32,-275.13"/>
</g>
<!-- components/MobileTextForm/MobileTextForm.jsx&#45;&gt;components/MobileTextForm/MobileSchema.js -->
<g id="edge31" class="edge">
<title>components/MobileTextForm/MobileTextForm.jsx&#45;&gt;components/MobileTextForm/MobileSchema.js</title>
<path fill="none" stroke="#757575" d="M1013.06,-490.68C1023.21,-491.45 1033.46,-492.24 1043.65,-493.01"/>
<polygon fill="#757575" stroke="#757575" points="1043.59,-496.52 1053.82,-493.79 1044.12,-489.54 1043.59,-496.52"/>
</g>
<!-- components/MobileTextForm/options.js -->
<g id="node28" class="node">
<title>components/MobileTextForm/options.js</title>
<path fill="none" stroke="#cfffac" d="M1322.83,-475.66C1322.83,-475.66 1085.17,-475.66 1085.17,-475.66 1081.33,-475.66 1077.5,-471.83 1077.5,-468 1077.5,-468 1077.5,-460.33 1077.5,-460.33 1077.5,-456.5 1081.33,-452.66 1085.17,-452.66 1085.17,-452.66 1322.83,-452.66 1322.83,-452.66 1326.67,-452.66 1330.5,-456.5 1330.5,-460.33 1330.5,-460.33 1330.5,-468 1330.5,-468 1330.5,-471.83 1326.67,-475.66 1322.83,-475.66"/>
<text text-anchor="middle" x="1204" y="-460.46" font-family="Arial" font-size="14.00" fill="#cfffac">components/MobileTextForm/options.js</text>
</g>
<!-- components/MobileTextForm/MobileTextForm.jsx&#45;&gt;components/MobileTextForm/options.js -->
<g id="edge32" class="edge">
<title>components/MobileTextForm/MobileTextForm.jsx&#45;&gt;components/MobileTextForm/options.js</title>
<path fill="none" stroke="#757575" d="M1018.03,-472.3C1034.51,-471.57 1051.18,-470.84 1067.4,-470.13"/>
<polygon fill="#757575" stroke="#757575" points="1067.61,-473.62 1077.44,-469.69 1067.3,-466.63 1067.61,-473.62"/>
</g>
<!-- components/MobileTextForm/index.js&#45;&gt;components/MobileTextForm/MobileTextForm.jsx -->
<g id="edge33" class="edge">
<title>components/MobileTextForm/index.js&#45;&gt;components/MobileTextForm/MobileTextForm.jsx</title>
<path fill="none" stroke="#757575" d="M668.18,-466.87C676.57,-467.4 685.11,-467.95 693.69,-468.5"/>
<polygon fill="#757575" stroke="#757575" points="693.56,-472 703.77,-469.15 694.01,-465.02 693.56,-472"/>
</g>
<!-- components/OtherAmount/OtherAmount.jsx&#45;&gt;atoms.js -->
<g id="edge34" class="edge">
<title>components/OtherAmount/OtherAmount.jsx&#45;&gt;atoms.js</title>
<path fill="none" stroke="#757575" d="M1676.43,-425.16C1720.04,-425.16 1764.93,-425.16 1796.62,-425.16"/>
<polygon fill="#757575" stroke="#757575" points="1796.84,-428.66 1806.84,-425.16 1796.84,-421.66 1796.84,-428.66"/>
</g>
<!-- components/OtherAmount/OtherAmount.jsx&#45;&gt;components/Common/Input/index.js -->
<g id="edge36" class="edge">
<title>components/OtherAmount/OtherAmount.jsx&#45;&gt;components/Common/Input/index.js</title>
<path fill="none" stroke="#757575" d="M1547.92,-436.88C1594.36,-482.57 1763.5,-648.93 1820.84,-705.32"/>
<polygon fill="#757575" stroke="#757575" points="1818.58,-708.01 1828.17,-712.52 1823.49,-703.02 1818.58,-708.01"/>
</g>
<!-- components/OtherAmount/OtherAmount.jsx&#45;&gt;components/Common/Button/index.jsx -->
<g id="edge35" class="edge">
<title>components/OtherAmount/OtherAmount.jsx&#45;&gt;components/Common/Button/index.jsx</title>
<path fill="none" stroke="#757575" d="M1654.33,-413.62C1663.2,-411.03 1671.85,-407.92 1680,-404.16 1741.9,-375.64 1797.74,-315.43 1824.06,-284.08"/>
<polygon fill="#757575" stroke="#757575" points="1827.02,-286 1830.68,-276.06 1821.62,-281.54 1827.02,-286"/>
</g>
<!-- components/PrayerCard/PrayerCard.jsx -->
<g id="node31" class="node">
<title>components/PrayerCard/PrayerCard.jsx</title>
<path fill="none" stroke="#c6c5fe" d="M981.83,-157.66C981.83,-157.66 740.17,-157.66 740.17,-157.66 736.33,-157.66 732.5,-153.83 732.5,-150 732.5,-150 732.5,-142.33 732.5,-142.33 732.5,-138.5 736.33,-134.66 740.17,-134.66 740.17,-134.66 981.83,-134.66 981.83,-134.66 985.67,-134.66 989.5,-138.5 989.5,-142.33 989.5,-142.33 989.5,-150 989.5,-150 989.5,-153.83 985.67,-157.66 981.83,-157.66"/>
<text text-anchor="middle" x="861" y="-142.46" font-family="Arial" font-size="14.00" fill="#c6c5fe">components/PrayerCard/PrayerCard.jsx</text>
</g>
<!-- components/PrayerCard/PrayerCard.jsx&#45;&gt;components/Common/TitleText/index.js -->
<g id="edge40" class="edge">
<title>components/PrayerCard/PrayerCard.jsx&#45;&gt;components/Common/TitleText/index.js</title>
<path fill="none" stroke="#757575" d="M971.52,-157.72C987.2,-160.09 1003.06,-162.89 1018,-166.16 1068.71,-177.27 1125.46,-196.04 1162.57,-209.22"/>
<polygon fill="#757575" stroke="#757575" points="1161.43,-212.53 1172.03,-212.6 1163.79,-205.94 1161.43,-212.53"/>
</g>
<!-- components/PrayerCard/PrayerCard.jsx&#45;&gt;components/Common/BodyText/index.jsx -->
<g id="edge38" class="edge">
<title>components/PrayerCard/PrayerCard.jsx&#45;&gt;components/Common/BodyText/index.jsx</title>
<path fill="none" stroke="#757575" d="M960.17,-134.65C1002.34,-129.7 1051.75,-123.9 1094.95,-118.84"/>
<polygon fill="#757575" stroke="#757575" points="1095.4,-122.31 1104.93,-117.67 1094.59,-115.36 1095.4,-122.31"/>
</g>
<!-- components/PrayerCard/PrayerCard.jsx&#45;&gt;components/Common/Button/index.jsx -->
<g id="edge39" class="edge">
<title>components/PrayerCard/PrayerCard.jsx&#45;&gt;components/Common/Button/index.jsx</title>
<path fill="none" stroke="#757575" d="M889.02,-134.65C925.62,-119.75 993.34,-94.57 1054,-85.16 1191.47,-63.85 1553.02,-28.35 1680,-85.16 1753.66,-118.12 1807.41,-203.6 1829.24,-243.31"/>
<polygon fill="#757575" stroke="#757575" points="1826.29,-245.21 1834.1,-252.36 1832.46,-241.9 1826.29,-245.21"/>
</g>
<!-- components/PrayerCard/index.js&#45;&gt;components/PrayerCard/PrayerCard.jsx -->
<g id="edge41" class="edge">
<title>components/PrayerCard/index.js&#45;&gt;components/PrayerCard/PrayerCard.jsx</title>
<path fill="none" stroke="#757575" d="M653.63,-152.78C675.65,-152.07 699.17,-151.32 722.16,-150.58"/>
<polygon fill="#757575" stroke="#757575" points="722.44,-154.07 732.32,-150.26 722.22,-147.08 722.44,-154.07"/>
</g>
<!-- components/Reminder/reminder.jsx&#45;&gt;components/Common/Button/index.jsx -->
<g id="edge43" class="edge">
<title>components/Reminder/reminder.jsx&#45;&gt;components/Common/Button/index.jsx</title>
<path fill="none" stroke="#757575" d="M1565.15,-372.66C1620.16,-350.94 1739.31,-303.91 1801.09,-279.52"/>
<polygon fill="#757575" stroke="#757575" points="1802.48,-282.74 1810.49,-275.81 1799.91,-276.23 1802.48,-282.74"/>
</g>
<!-- components/ThankYou/ThankYou.jsx -->
<g id="node34" class="node">
<title>components/ThankYou/ThankYou.jsx</title>
<path fill="none" stroke="#c6c5fe" d="M974.33,-198.66C974.33,-198.66 747.67,-198.66 747.67,-198.66 743.83,-198.66 740,-194.83 740,-191 740,-191 740,-183.33 740,-183.33 740,-179.5 743.83,-175.66 747.67,-175.66 747.67,-175.66 974.33,-175.66 974.33,-175.66 978.17,-175.66 982,-179.5 982,-183.33 982,-183.33 982,-191 982,-191 982,-194.83 978.17,-198.66 974.33,-198.66"/>
<text text-anchor="middle" x="861" y="-183.46" font-family="Arial" font-size="14.00" fill="#c6c5fe">components/ThankYou/ThankYou.jsx</text>
</g>
<!-- components/ThankYou/ThankYou.jsx&#45;&gt;atoms.js -->
<g id="edge44" class="edge">
<title>components/ThankYou/ThankYou.jsx&#45;&gt;atoms.js</title>
<path fill="none" stroke="#757575" d="M982.08,-182.49C1195.4,-175.22 1623.46,-165.63 1680,-203.16 1712.82,-224.95 1694.75,-250.99 1716,-284.16 1746.76,-332.17 1793.37,-380.4 1819.81,-406.13"/>
<polygon fill="#757575" stroke="#757575" points="1817.7,-408.96 1827.33,-413.37 1822.56,-403.92 1817.7,-408.96"/>
</g>
<!-- components/ThankYou/ThankYou.jsx&#45;&gt;components/Common/TitleText/index.js -->
<g id="edge47" class="edge">
<title>components/ThankYou/ThankYou.jsx&#45;&gt;components/Common/TitleText/index.js</title>
<path fill="none" stroke="#757575" d="M968.03,-198.67C1005.62,-202.75 1048.13,-207.36 1086.55,-211.53"/>
<polygon fill="#757575" stroke="#757575" points="1086.43,-215.03 1096.75,-212.63 1087.18,-208.08 1086.43,-215.03"/>
</g>
<!-- components/ThankYou/ThankYou.jsx&#45;&gt;components/Common/BodyText/index.jsx -->
<g id="edge45" class="edge">
<title>components/ThankYou/ThankYou.jsx&#45;&gt;components/Common/BodyText/index.jsx</title>
<path fill="none" stroke="#757575" d="M982.21,-178.78C994.62,-175.63 1006.78,-171.52 1018,-166.16 1037.86,-156.68 1034.33,-142.03 1054,-132.16 1063.25,-127.52 1073.18,-123.7 1083.37,-120.54"/>
<polygon fill="#757575" stroke="#757575" points="1084.55,-123.85 1093.2,-117.72 1082.62,-117.12 1084.55,-123.85"/>
</g>
<!-- components/ThankYou/ThankYou.jsx&#45;&gt;components/Common/Button/index.jsx -->
<g id="edge46" class="edge">
<title>components/ThankYou/ThankYou.jsx&#45;&gt;components/Common/Button/index.jsx</title>
<path fill="none" stroke="#757575" d="M973.06,-175.65C999.55,-173.37 1027.76,-171.32 1054,-170.16 1331.95,-157.88 1411.53,-97.14 1680,-170.16 1734.33,-184.94 1789.04,-223.34 1818.3,-246.23"/>
<polygon fill="#757575" stroke="#757575" points="1816.19,-249.03 1826.19,-252.52 1820.55,-243.55 1816.19,-249.03"/>
</g>
<!-- components/ThankYou/index.js&#45;&gt;components/ThankYou/ThankYou.jsx -->
<g id="edge48" class="edge">
<title>components/ThankYou/index.js&#45;&gt;components/ThankYou/ThankYou.jsx</title>
<path fill="none" stroke="#757575" d="M623.13,-223.6C668.92,-216.56 727.55,-207.54 775.03,-200.24"/>
<polygon fill="#757575" stroke="#757575" points="775.63,-203.68 784.98,-198.7 774.57,-196.77 775.63,-203.68"/>
</g>
<!-- index.css -->
<g id="node36" class="node">
<title>index.css</title>
<path fill="none" stroke="#cfffac" d="M184.83,-354.66C184.83,-354.66 127.17,-354.66 127.17,-354.66 123.33,-354.66 119.5,-350.83 119.5,-347 119.5,-347 119.5,-339.33 119.5,-339.33 119.5,-335.5 123.33,-331.66 127.17,-331.66 127.17,-331.66 184.83,-331.66 184.83,-331.66 188.67,-331.66 192.5,-335.5 192.5,-339.33 192.5,-339.33 192.5,-347 192.5,-347 192.5,-350.83 188.67,-354.66 184.83,-354.66"/>
<text text-anchor="middle" x="156" y="-339.46" font-family="Arial" font-size="14.00" fill="#cfffac">index.css</text>
</g>
<!-- index.js -->
<g id="node37" class="node">
<title>index.js</title>
<path fill="none" stroke="#c6c5fe" d="M54.33,-354.66C54.33,-354.66 7.67,-354.66 7.67,-354.66 3.83,-354.66 0,-350.83 0,-347 0,-347 0,-339.33 0,-339.33 0,-335.5 3.83,-331.66 7.67,-331.66 7.67,-331.66 54.33,-331.66 54.33,-331.66 58.17,-331.66 62,-335.5 62,-339.33 62,-339.33 62,-347 62,-347 62,-350.83 58.17,-354.66 54.33,-354.66"/>
<text text-anchor="middle" x="31" y="-339.46" font-family="Arial" font-size="14.00" fill="#c6c5fe">index.js</text>
</g>
<!-- index.js&#45;&gt;App.js -->
<g id="edge62" class="edge">
<title>index.js&#45;&gt;App.js</title>
<path fill="none" stroke="#757575" d="M62.09,-353.19C79.37,-358.95 101.18,-366.22 119.32,-372.27"/>
<polygon fill="#757575" stroke="#757575" points="118.38,-375.64 128.97,-375.49 120.59,-369 118.38,-375.64"/>
</g>
<!-- index.js&#45;&gt;index.css -->
<g id="edge63" class="edge">
<title>index.js&#45;&gt;index.css</title>
<path fill="none" stroke="#757575" d="M62.09,-343.16C76.21,-343.16 93.35,-343.16 109.04,-343.16"/>
<polygon fill="#757575" stroke="#757575" points="109.1,-346.66 119.1,-343.16 109.1,-339.66 109.1,-346.66"/>
</g>
<!-- serviceWorker.js -->
<g id="node38" class="node">
<title>serviceWorker.js</title>
<path fill="none" stroke="#cfffac" d="M206.33,-313.66C206.33,-313.66 105.67,-313.66 105.67,-313.66 101.83,-313.66 98,-309.83 98,-306 98,-306 98,-298.33 98,-298.33 98,-294.5 101.83,-290.66 105.67,-290.66 105.67,-290.66 206.33,-290.66 206.33,-290.66 210.17,-290.66 214,-294.5 214,-298.33 214,-298.33 214,-306 214,-306 214,-309.83 210.17,-313.66 206.33,-313.66"/>
<text text-anchor="middle" x="156" y="-298.46" font-family="Arial" font-size="14.00" fill="#cfffac">serviceWorker.js</text>
</g>
<!-- index.js&#45;&gt;serviceWorker.js -->
<g id="edge64" class="edge">
<title>index.js&#45;&gt;serviceWorker.js</title>
<path fill="none" stroke="#757575" d="M62.09,-333.13C76.7,-328.26 94.53,-322.32 110.66,-316.94"/>
<polygon fill="#757575" stroke="#757575" points="112.06,-320.17 120.44,-313.68 109.84,-313.53 112.06,-320.17"/>
</g>
</g>
</svg>
