<?xml version="1.0" encoding="UTF-8" standalone="no"?>
<!DOCTYPE svg PUBLIC "-//W3C//DTD SVG 1.1//EN"
 "http://www.w3.org/Graphics/SVG/1.1/DTD/svg11.dtd">
<!-- Generated by graphviz version 2.43.0 (0)
 -->
<!-- Title: G Pages: 1 -->
<svg width="2678pt" height="1020pt"
 viewBox="0.00 0.00 2678.20 1019.86" xmlns="http://www.w3.org/2000/svg" xmlns:xlink="http://www.w3.org/1999/xlink">
<g id="graph0" class="graph" transform="scale(1 1) rotate(0) translate(21.6 998.26)">
<title>G</title>
<polygon fill="#111111" stroke="transparent" points="-21.6,21.6 -21.6,-998.26 2656.6,-998.26 2656.6,21.6 -21.6,21.6"/>
<!-- App.js -->
<g id="node1" class="node">
<title>App.js</title>
<path fill="none" stroke="#c6c5fe" d="M226.83,-555.66C226.83,-555.66 188.17,-555.66 188.17,-555.66 184.33,-555.66 180.5,-551.83 180.5,-548 180.5,-548 180.5,-540.33 180.5,-540.33 180.5,-536.5 184.33,-532.66 188.17,-532.66 188.17,-532.66 226.83,-532.66 226.83,-532.66 230.67,-532.66 234.5,-536.5 234.5,-540.33 234.5,-540.33 234.5,-548 234.5,-548 234.5,-551.83 230.67,-555.66 226.83,-555.66"/>
<text text-anchor="middle" x="207.5" y="-540.46" font-family="Arial" font-size="14.00" fill="#c6c5fe">App.js</text>
</g>
<!-- auth/protected&#45;route.js -->
<g id="node2" class="node">
<title>auth/protected&#45;route.js</title>
<path fill="none" stroke="#c6c5fe" d="M512.33,-575.66C512.33,-575.66 375.67,-575.66 375.67,-575.66 371.83,-575.66 368,-571.83 368,-568 368,-568 368,-560.33 368,-560.33 368,-556.5 371.83,-552.66 375.67,-552.66 375.67,-552.66 512.33,-552.66 512.33,-552.66 516.17,-552.66 520,-556.5 520,-560.33 520,-560.33 520,-568 520,-568 520,-571.83 516.17,-575.66 512.33,-575.66"/>
<text text-anchor="middle" x="444" y="-560.46" font-family="Arial" font-size="14.00" fill="#c6c5fe">auth/protected&#45;route.js</text>
</g>
<!-- App.js&#45;&gt;auth/protected&#45;route.js -->
<g id="edge1" class="edge">
<title>App.js&#45;&gt;auth/protected&#45;route.js</title>
<path fill="none" stroke="#757575" d="M234.94,-546.42C264.67,-548.95 314.46,-553.2 357.88,-556.9"/>
<polygon fill="#757575" stroke="#757575" points="357.64,-560.4 367.9,-557.76 358.23,-553.42 357.64,-560.4"/>
</g>
<!-- components/Authority/index.js -->
<g id="node3" class="node">
<title>components/Authority/index.js</title>
<path fill="none" stroke="#c6c5fe" d="M1013.83,-935.66C1013.83,-935.66 832.17,-935.66 832.17,-935.66 828.33,-935.66 824.5,-931.83 824.5,-928 824.5,-928 824.5,-920.33 824.5,-920.33 824.5,-916.5 828.33,-912.66 832.17,-912.66 832.17,-912.66 1013.83,-912.66 1013.83,-912.66 1017.67,-912.66 1021.5,-916.5 1021.5,-920.33 1021.5,-920.33 1021.5,-928 1021.5,-928 1021.5,-931.83 1017.67,-935.66 1013.83,-935.66"/>
<text text-anchor="middle" x="923" y="-920.46" font-family="Arial" font-size="14.00" fill="#c6c5fe">components/Authority/index.js</text>
</g>
<!-- App.js&#45;&gt;components/Authority/index.js -->
<g id="edge2" class="edge">
<title>App.js&#45;&gt;components/Authority/index.js</title>
<path fill="none" stroke="#757575" d="M223.57,-555.73C288.67,-605.12 553.66,-800.24 802,-898.16 814.17,-902.96 827.4,-906.95 840.48,-910.25"/>
<polygon fill="#757575" stroke="#757575" points="839.89,-913.71 850.43,-912.64 841.53,-906.9 839.89,-913.71"/>
</g>
<!-- components/Profile/index.js -->
<g id="node4" class="node">
<title>components/Profile/index.js</title>
<path fill="none" stroke="#c6c5fe" d="M527.33,-495.66C527.33,-495.66 360.67,-495.66 360.67,-495.66 356.83,-495.66 353,-491.83 353,-488 353,-488 353,-480.33 353,-480.33 353,-476.5 356.83,-472.66 360.67,-472.66 360.67,-472.66 527.33,-472.66 527.33,-472.66 531.17,-472.66 535,-476.5 535,-480.33 535,-480.33 535,-488 535,-488 535,-491.83 531.17,-495.66 527.33,-495.66"/>
<text text-anchor="middle" x="444" y="-480.46" font-family="Arial" font-size="14.00" fill="#c6c5fe">components/Profile/index.js</text>
</g>
<!-- App.js&#45;&gt;components/Profile/index.js -->
<g id="edge3" class="edge">
<title>App.js&#45;&gt;components/Profile/index.js</title>
<path fill="none" stroke="#757575" d="M234.69,-540.75C256.86,-537.53 289.36,-532.01 317,-524.16 333.51,-519.48 336.74,-515.66 353,-510.16 365.04,-506.09 378.11,-502.09 390.46,-498.48"/>
<polygon fill="#757575" stroke="#757575" points="391.54,-501.82 400.18,-495.69 389.6,-495.09 391.54,-501.82"/>
</g>
<!-- components/index.js -->
<g id="node5" class="node">
<title>components/index.js</title>
<path fill="none" stroke="#c6c5fe" d="M730.83,-536.66C730.83,-536.66 606.17,-536.66 606.17,-536.66 602.33,-536.66 598.5,-532.83 598.5,-529 598.5,-529 598.5,-521.33 598.5,-521.33 598.5,-517.5 602.33,-513.66 606.17,-513.66 606.17,-513.66 730.83,-513.66 730.83,-513.66 734.67,-513.66 738.5,-517.5 738.5,-521.33 738.5,-521.33 738.5,-529 738.5,-529 738.5,-532.83 734.67,-536.66 730.83,-536.66"/>
<text text-anchor="middle" x="668.5" y="-521.46" font-family="Arial" font-size="14.00" fill="#c6c5fe">components/index.js</text>
</g>
<!-- App.js&#45;&gt;components/index.js -->
<g id="edge4" class="edge">
<title>App.js&#45;&gt;components/index.js</title>
<path fill="none" stroke="#757575" d="M234.83,-543.07C302.12,-540.29 482.5,-532.82 587.9,-528.46"/>
<polygon fill="#757575" stroke="#757575" points="588.33,-531.94 598.18,-528.03 588.04,-524.95 588.33,-531.94"/>
</g>
<!-- auth/protected&#45;route.js&#45;&gt;components/index.js -->
<g id="edge5" class="edge">
<title>auth/protected&#45;route.js&#45;&gt;components/index.js</title>
<path fill="none" stroke="#757575" d="M510.85,-552.62C536.31,-548.16 565.59,-543.03 591.89,-538.42"/>
<polygon fill="#757575" stroke="#757575" points="592.57,-541.85 601.81,-536.68 591.36,-534.96 592.57,-541.85"/>
</g>
<!-- components/Authority/AuthButton.jsx -->
<g id="node18" class="node">
<title>components/Authority/AuthButton.jsx</title>
<path fill="none" stroke="#c6c5fe" d="M1691.83,-935.66C1691.83,-935.66 1468.17,-935.66 1468.17,-935.66 1464.33,-935.66 1460.5,-931.83 1460.5,-928 1460.5,-928 1460.5,-920.33 1460.5,-920.33 1460.5,-916.5 1464.33,-912.66 1468.17,-912.66 1468.17,-912.66 1691.83,-912.66 1691.83,-912.66 1695.67,-912.66 1699.5,-916.5 1699.5,-920.33 1699.5,-920.33 1699.5,-928 1699.5,-928 1699.5,-931.83 1695.67,-935.66 1691.83,-935.66"/>
<text text-anchor="middle" x="1580" y="-920.46" font-family="Arial" font-size="14.00" fill="#c6c5fe">components/Authority/AuthButton.jsx</text>
</g>
<!-- components/Authority/index.js&#45;&gt;components/Authority/AuthButton.jsx -->
<g id="edge20" class="edge">
<title>components/Authority/index.js&#45;&gt;components/Authority/AuthButton.jsx</title>
<path fill="none" stroke="#757575" d="M1021.71,-924.16C1135.68,-924.16 1324.51,-924.16 1450.34,-924.16"/>
<polygon fill="#757575" stroke="#757575" points="1450.42,-927.66 1460.42,-924.16 1450.42,-920.66 1450.42,-927.66"/>
</g>
<!-- components/Authority/Loading.jsx -->
<g id="node21" class="node">
<title>components/Authority/Loading.jsx</title>
<path fill="none" stroke="#cfffac" d="M1339.33,-975.66C1339.33,-975.66 1134.67,-975.66 1134.67,-975.66 1130.83,-975.66 1127,-971.83 1127,-968 1127,-968 1127,-960.33 1127,-960.33 1127,-956.5 1130.83,-952.66 1134.67,-952.66 1134.67,-952.66 1339.33,-952.66 1339.33,-952.66 1343.17,-952.66 1347,-956.5 1347,-960.33 1347,-960.33 1347,-968 1347,-968 1347,-971.83 1343.17,-975.66 1339.33,-975.66"/>
<text text-anchor="middle" x="1237" y="-960.46" font-family="Arial" font-size="14.00" fill="#cfffac">components/Authority/Loading.jsx</text>
</g>
<!-- components/Authority/index.js&#45;&gt;components/Authority/Loading.jsx -->
<g id="edge21" class="edge">
<title>components/Authority/index.js&#45;&gt;components/Authority/Loading.jsx</title>
<path fill="none" stroke="#757575" d="M1013.82,-935.68C1052.08,-940.58 1096.85,-946.32 1136.14,-951.36"/>
<polygon fill="#757575" stroke="#757575" points="1135.91,-954.86 1146.27,-952.66 1136.8,-947.92 1135.91,-954.86"/>
</g>
<!-- components/Profile/Profile.jsx -->
<g id="node41" class="node">
<title>components/Profile/Profile.jsx</title>
<path fill="none" stroke="#cfffac" d="M758.33,-495.66C758.33,-495.66 578.67,-495.66 578.67,-495.66 574.83,-495.66 571,-491.83 571,-488 571,-488 571,-480.33 571,-480.33 571,-476.5 574.83,-472.66 578.67,-472.66 578.67,-472.66 758.33,-472.66 758.33,-472.66 762.17,-472.66 766,-476.5 766,-480.33 766,-480.33 766,-488 766,-488 766,-491.83 762.17,-495.66 758.33,-495.66"/>
<text text-anchor="middle" x="668.5" y="-480.46" font-family="Arial" font-size="14.00" fill="#cfffac">components/Profile/Profile.jsx</text>
</g>
<!-- components/Profile/index.js&#45;&gt;components/Profile/Profile.jsx -->
<g id="edge52" class="edge">
<title>components/Profile/index.js&#45;&gt;components/Profile/Profile.jsx</title>
<path fill="none" stroke="#757575" d="M535.18,-484.16C543.49,-484.16 551.96,-484.16 560.39,-484.16"/>
<polygon fill="#757575" stroke="#757575" points="560.66,-487.66 570.66,-484.16 560.66,-480.66 560.66,-487.66"/>
</g>
<!-- components/index.js&#45;&gt;components/Authority/index.js -->
<g id="edge61" class="edge">
<title>components/index.js&#45;&gt;components/Authority/index.js</title>
<path fill="none" stroke="#757575" d="M675.46,-537.08C691.81,-570.18 738.03,-666.3 766,-750.16 787.42,-814.38 753.53,-850.9 802,-898.16 806.05,-902.12 810.56,-905.53 815.38,-908.47"/>
<polygon fill="#757575" stroke="#757575" points="813.89,-911.64 824.36,-913.27 817.19,-905.47 813.89,-911.64"/>
</g>
<!-- components/Common/Input/index.js -->
<g id="node11" class="node">
<title>components/Common/Input/index.js</title>
<path fill="none" stroke="#c6c5fe" d="M2326.33,-156.66C2326.33,-156.66 2107.67,-156.66 2107.67,-156.66 2103.83,-156.66 2100,-152.83 2100,-149 2100,-149 2100,-141.33 2100,-141.33 2100,-137.5 2103.83,-133.66 2107.67,-133.66 2107.67,-133.66 2326.33,-133.66 2326.33,-133.66 2330.17,-133.66 2334,-137.5 2334,-141.33 2334,-141.33 2334,-149 2334,-149 2334,-152.83 2330.17,-156.66 2326.33,-156.66"/>
<text text-anchor="middle" x="2217" y="-141.46" font-family="Arial" font-size="14.00" fill="#c6c5fe">components/Common/Input/index.js</text>
</g>
<!-- components/index.js&#45;&gt;components/Common/Input/index.js -->
<g id="edge64" class="edge">
<title>components/index.js&#45;&gt;components/Common/Input/index.js</title>
<path fill="none" stroke="#757575" d="M738.91,-521.74C749.16,-518.35 758.71,-513.1 766,-505.16 857.12,-405.92 722.32,-312.81 802,-204.16 927.17,-33.5 1024.35,-8.16 1236,-8.16 1236,-8.16 1236,-8.16 1581,-8.16 1792.65,-8.16 1855.21,24.76 2056,-42.16 2111.34,-60.61 2166.46,-102.61 2195.33,-126.9"/>
<polygon fill="#757575" stroke="#757575" points="2193.22,-129.69 2203.09,-133.53 2197.77,-124.37 2193.22,-129.69"/>
</g>
<!-- components/Common/Modal/index.js -->
<g id="node12" class="node">
<title>components/Common/Modal/index.js</title>
<path fill="none" stroke="#c6c5fe" d="M1693.33,-732.66C1693.33,-732.66 1466.67,-732.66 1466.67,-732.66 1462.83,-732.66 1459,-728.83 1459,-725 1459,-725 1459,-717.33 1459,-717.33 1459,-713.5 1462.83,-709.66 1466.67,-709.66 1466.67,-709.66 1693.33,-709.66 1693.33,-709.66 1697.17,-709.66 1701,-713.5 1701,-717.33 1701,-717.33 1701,-725 1701,-725 1701,-728.83 1697.17,-732.66 1693.33,-732.66"/>
<text text-anchor="middle" x="1580" y="-717.46" font-family="Arial" font-size="14.00" fill="#c6c5fe">components/Common/Modal/index.js</text>
</g>
<!-- components/index.js&#45;&gt;components/Common/Modal/index.js -->
<g id="edge65" class="edge">
<title>components/index.js&#45;&gt;components/Common/Modal/index.js</title>
<path fill="none" stroke="#757575" d="M675.17,-537.06C690.53,-567.79 736.27,-649.73 802,-683.16 911.46,-738.85 1257.56,-734.59 1448.81,-727.46"/>
<polygon fill="#757575" stroke="#757575" points="1449.07,-730.95 1458.93,-727.07 1448.8,-723.96 1449.07,-730.95"/>
</g>
<!-- components/Common/Select/index.js -->
<g id="node13" class="node">
<title>components/Common/Select/index.js</title>
<path fill="none" stroke="#c6c5fe" d="M1693.33,-614.66C1693.33,-614.66 1466.67,-614.66 1466.67,-614.66 1462.83,-614.66 1459,-610.83 1459,-607 1459,-607 1459,-599.33 1459,-599.33 1459,-595.5 1462.83,-591.66 1466.67,-591.66 1466.67,-591.66 1693.33,-591.66 1693.33,-591.66 1697.17,-591.66 1701,-595.5 1701,-599.33 1701,-599.33 1701,-607 1701,-607 1701,-610.83 1697.17,-614.66 1693.33,-614.66"/>
<text text-anchor="middle" x="1580" y="-599.46" font-family="Arial" font-size="14.00" fill="#c6c5fe">components/Common/Select/index.js</text>
</g>
<!-- components/index.js&#45;&gt;components/Common/Select/index.js -->
<g id="edge66" class="edge">
<title>components/index.js&#45;&gt;components/Common/Select/index.js</title>
<path fill="none" stroke="#757575" d="M735.06,-536.67C756.36,-540.11 780.14,-543.63 802,-546.16 1028.79,-572.41 1294.31,-588.82 1448.89,-596.96"/>
<polygon fill="#757575" stroke="#757575" points="1448.74,-600.46 1458.91,-597.49 1449.1,-593.47 1448.74,-600.46"/>
</g>
<!-- components/Common/TitleText/index.js -->
<g id="node14" class="node">
<title>components/Common/TitleText/index.js</title>
<path fill="none" stroke="#c6c5fe" d="M1699.33,-496.66C1699.33,-496.66 1460.67,-496.66 1460.67,-496.66 1456.83,-496.66 1453,-492.83 1453,-489 1453,-489 1453,-481.33 1453,-481.33 1453,-477.5 1456.83,-473.66 1460.67,-473.66 1460.67,-473.66 1699.33,-473.66 1699.33,-473.66 1703.17,-473.66 1707,-477.5 1707,-481.33 1707,-481.33 1707,-489 1707,-489 1707,-492.83 1703.17,-496.66 1699.33,-496.66"/>
<text text-anchor="middle" x="1580" y="-481.46" font-family="Arial" font-size="14.00" fill="#c6c5fe">components/Common/TitleText/index.js</text>
</g>
<!-- components/index.js&#45;&gt;components/Common/TitleText/index.js -->
<g id="edge67" class="edge">
<title>components/index.js&#45;&gt;components/Common/TitleText/index.js</title>
<path fill="none" stroke="#757575" d="M735.02,-513.63C756.31,-510.32 780.1,-507.09 802,-505.16 1025.94,-485.46 1287.46,-482.93 1442.82,-483.57"/>
<polygon fill="#757575" stroke="#757575" points="1442.88,-487.07 1452.9,-483.61 1442.91,-480.07 1442.88,-487.07"/>
</g>
<!-- components/Reminder/index.js -->
<g id="node15" class="node">
<title>components/Reminder/index.js</title>
<path fill="none" stroke="#c6c5fe" d="M1673.83,-855.66C1673.83,-855.66 1486.17,-855.66 1486.17,-855.66 1482.33,-855.66 1478.5,-851.83 1478.5,-848 1478.5,-848 1478.5,-840.33 1478.5,-840.33 1478.5,-836.5 1482.33,-832.66 1486.17,-832.66 1486.17,-832.66 1673.83,-832.66 1673.83,-832.66 1677.67,-832.66 1681.5,-836.5 1681.5,-840.33 1681.5,-840.33 1681.5,-848 1681.5,-848 1681.5,-851.83 1677.67,-855.66 1673.83,-855.66"/>
<text text-anchor="middle" x="1580" y="-840.46" font-family="Arial" font-size="14.00" fill="#c6c5fe">components/Reminder/index.js</text>
</g>
<!-- components/index.js&#45;&gt;components/Reminder/index.js -->
<g id="edge72" class="edge">
<title>components/index.js&#45;&gt;components/Reminder/index.js</title>
<path fill="none" stroke="#757575" d="M673.64,-536.68C686.58,-570.83 729.72,-672.02 802,-718.16 1008.82,-850.2 1307.77,-859.01 1467.86,-852.49"/>
<polygon fill="#757575" stroke="#757575" points="1468.36,-855.97 1478.2,-852.04 1468.06,-848.98 1468.36,-855.97"/>
</g>
<!-- components/AddressForm/index.js -->
<g id="node16" class="node">
<title>components/AddressForm/index.js</title>
<path fill="none" stroke="#c6c5fe" d="M1028.33,-673.66C1028.33,-673.66 817.67,-673.66 817.67,-673.66 813.83,-673.66 810,-669.83 810,-666 810,-666 810,-658.33 810,-658.33 810,-654.5 813.83,-650.66 817.67,-650.66 817.67,-650.66 1028.33,-650.66 1028.33,-650.66 1032.17,-650.66 1036,-654.5 1036,-658.33 1036,-658.33 1036,-666 1036,-666 1036,-669.83 1032.17,-673.66 1028.33,-673.66"/>
<text text-anchor="middle" x="923" y="-658.46" font-family="Arial" font-size="14.00" fill="#c6c5fe">components/AddressForm/index.js</text>
</g>
<!-- components/index.js&#45;&gt;components/AddressForm/index.js -->
<g id="edge60" class="edge">
<title>components/index.js&#45;&gt;components/AddressForm/index.js</title>
<path fill="none" stroke="#757575" d="M690.56,-536.88C716.66,-551.38 762.52,-576.76 802,-598.16 832.05,-614.45 866.49,-632.79 890.75,-645.65"/>
<polygon fill="#757575" stroke="#757575" points="889.36,-648.87 899.83,-650.46 892.64,-642.68 889.36,-648.87"/>
</g>
<!-- components/Common/Button/index.jsx -->
<g id="node22" class="node">
<title>components/Common/Button/index.jsx</title>
<path fill="none" stroke="#c6c5fe" d="M2334.33,-574.66C2334.33,-574.66 2099.67,-574.66 2099.67,-574.66 2095.83,-574.66 2092,-570.83 2092,-567 2092,-567 2092,-559.33 2092,-559.33 2092,-555.5 2095.83,-551.66 2099.67,-551.66 2099.67,-551.66 2334.33,-551.66 2334.33,-551.66 2338.17,-551.66 2342,-555.5 2342,-559.33 2342,-559.33 2342,-567 2342,-567 2342,-570.83 2338.17,-574.66 2334.33,-574.66"/>
<text text-anchor="middle" x="2217" y="-559.46" font-family="Arial" font-size="14.00" fill="#c6c5fe">components/Common/Button/index.jsx</text>
</g>
<!-- components/index.js&#45;&gt;components/Common/Button/index.jsx -->
<g id="edge63" class="edge">
<title>components/index.js&#45;&gt;components/Common/Button/index.jsx</title>
<path fill="none" stroke="#757575" d="M671.96,-536.69C681.19,-576.98 717.62,-712.73 802,-780.16 956.95,-903.99 1037.65,-884.16 1236,-884.16 1236,-884.16 1236,-884.16 1581,-884.16 1686.91,-884.16 1966.74,-902.17 2056,-845.16 2153.42,-782.95 2197.5,-639.09 2211.13,-584.6"/>
<polygon fill="#757575" stroke="#757575" points="2214.58,-585.21 2213.52,-574.67 2207.78,-583.57 2214.58,-585.21"/>
</g>
<!-- components/Common/BodyText/index.jsx -->
<g id="node24" class="node">
<title>components/Common/BodyText/index.jsx</title>
<path fill="none" stroke="#c6c5fe" d="M1705.33,-416.66C1705.33,-416.66 1454.67,-416.66 1454.67,-416.66 1450.83,-416.66 1447,-412.83 1447,-409 1447,-409 1447,-401.33 1447,-401.33 1447,-397.5 1450.83,-393.66 1454.67,-393.66 1454.67,-393.66 1705.33,-393.66 1705.33,-393.66 1709.17,-393.66 1713,-397.5 1713,-401.33 1713,-401.33 1713,-409 1713,-409 1713,-412.83 1709.17,-416.66 1705.33,-416.66"/>
<text text-anchor="middle" x="1580" y="-401.46" font-family="Arial" font-size="14.00" fill="#c6c5fe">components/Common/BodyText/index.jsx</text>
</g>
<!-- components/index.js&#45;&gt;components/Common/BodyText/index.jsx -->
<g id="edge62" class="edge">
<title>components/index.js&#45;&gt;components/Common/BodyText/index.jsx</title>
<path fill="none" stroke="#757575" d="M738.5,-519.24C748.44,-516.1 757.99,-511.59 766,-505.16 796.41,-480.76 769.53,-446.75 802,-425.16 853.3,-391.05 1226.87,-395.43 1436.77,-400.74"/>
<polygon fill="#757575" stroke="#757575" points="1436.86,-404.25 1446.95,-401.01 1437.04,-397.25 1436.86,-404.25"/>
</g>
<!-- components/OtherAmount/index.js -->
<g id="node31" class="node">
<title>components/OtherAmount/index.js</title>
<path fill="none" stroke="#c6c5fe" d="M1685.33,-256.66C1685.33,-256.66 1474.67,-256.66 1474.67,-256.66 1470.83,-256.66 1467,-252.83 1467,-249 1467,-249 1467,-241.33 1467,-241.33 1467,-237.5 1470.83,-233.66 1474.67,-233.66 1474.67,-233.66 1685.33,-233.66 1685.33,-233.66 1689.17,-233.66 1693,-237.5 1693,-241.33 1693,-241.33 1693,-249 1693,-249 1693,-252.83 1689.17,-256.66 1685.33,-256.66"/>
<text text-anchor="middle" x="1580" y="-241.46" font-family="Arial" font-size="14.00" fill="#c6c5fe">components/OtherAmount/index.js</text>
</g>
<!-- components/index.js&#45;&gt;components/OtherAmount/index.js -->
<g id="edge70" class="edge">
<title>components/index.js&#45;&gt;components/OtherAmount/index.js</title>
<path fill="none" stroke="#757575" d="M738.74,-520.94C748.88,-517.62 758.44,-512.61 766,-505.16 818.25,-453.72 747.79,-393.54 802,-344.16 895.33,-259.15 1262.03,-245.38 1456.45,-244.23"/>
<polygon fill="#757575" stroke="#757575" points="1456.73,-247.72 1466.72,-244.18 1456.7,-240.72 1456.73,-247.72"/>
</g>
<!-- components/Donations/index.js -->
<g id="node33" class="node">
<title>components/Donations/index.js</title>
<path fill="none" stroke="#c6c5fe" d="M1017.83,-376.66C1017.83,-376.66 828.17,-376.66 828.17,-376.66 824.33,-376.66 820.5,-372.83 820.5,-369 820.5,-369 820.5,-361.33 820.5,-361.33 820.5,-357.5 824.33,-353.66 828.17,-353.66 828.17,-353.66 1017.83,-353.66 1017.83,-353.66 1021.67,-353.66 1025.5,-357.5 1025.5,-361.33 1025.5,-361.33 1025.5,-369 1025.5,-369 1025.5,-372.83 1021.67,-376.66 1017.83,-376.66"/>
<text text-anchor="middle" x="923" y="-361.46" font-family="Arial" font-size="14.00" fill="#c6c5fe">components/Donations/index.js</text>
</g>
<!-- components/index.js&#45;&gt;components/Donations/index.js -->
<g id="edge68" class="edge">
<title>components/index.js&#45;&gt;components/Donations/index.js</title>
<path fill="none" stroke="#757575" d="M738.69,-520.21C748.72,-516.96 758.26,-512.16 766,-505.16 805.43,-469.55 762.73,-426.96 802,-391.16 805.98,-387.53 810.35,-384.36 814.99,-381.6"/>
<polygon fill="#757575" stroke="#757575" points="816.97,-384.52 824.21,-376.78 813.72,-378.32 816.97,-384.52"/>
</g>
<!-- components/MobileTextForm/index.js -->
<g id="node37" class="node">
<title>components/MobileTextForm/index.js</title>
<path fill="none" stroke="#c6c5fe" d="M1036.33,-236.66C1036.33,-236.66 809.67,-236.66 809.67,-236.66 805.83,-236.66 802,-232.83 802,-229 802,-229 802,-221.33 802,-221.33 802,-217.5 805.83,-213.66 809.67,-213.66 809.67,-213.66 1036.33,-213.66 1036.33,-213.66 1040.17,-213.66 1044,-217.5 1044,-221.33 1044,-221.33 1044,-229 1044,-229 1044,-232.83 1040.17,-236.66 1036.33,-236.66"/>
<text text-anchor="middle" x="923" y="-221.46" font-family="Arial" font-size="14.00" fill="#c6c5fe">components/MobileTextForm/index.js</text>
</g>
<!-- components/index.js&#45;&gt;components/MobileTextForm/index.js -->
<g id="edge69" class="edge">
<title>components/index.js&#45;&gt;components/MobileTextForm/index.js</title>
<path fill="none" stroke="#757575" d="M738.59,-521.44C748.88,-518.08 758.52,-512.93 766,-505.16 832.9,-435.69 746.17,-369.81 802,-291.16 819.15,-267.01 848.02,-250.73 873.15,-240.39"/>
<polygon fill="#757575" stroke="#757575" points="874.53,-243.61 882.57,-236.71 871.98,-237.09 874.53,-243.61"/>
</g>
<!-- components/PrayerCard/index.js -->
<g id="node40" class="node">
<title>components/PrayerCard/index.js</title>
<path fill="none" stroke="#c6c5fe" d="M1021.83,-456.66C1021.83,-456.66 824.17,-456.66 824.17,-456.66 820.33,-456.66 816.5,-452.83 816.5,-449 816.5,-449 816.5,-441.33 816.5,-441.33 816.5,-437.5 820.33,-433.66 824.17,-433.66 824.17,-433.66 1021.83,-433.66 1021.83,-433.66 1025.67,-433.66 1029.5,-437.5 1029.5,-441.33 1029.5,-441.33 1029.5,-449 1029.5,-449 1029.5,-452.83 1025.67,-456.66 1021.83,-456.66"/>
<text text-anchor="middle" x="923" y="-441.46" font-family="Arial" font-size="14.00" fill="#c6c5fe">components/PrayerCard/index.js</text>
</g>
<!-- components/index.js&#45;&gt;components/PrayerCard/index.js -->
<g id="edge71" class="edge">
<title>components/index.js&#45;&gt;components/PrayerCard/index.js</title>
<path fill="none" stroke="#757575" d="M738.61,-515.73C748.11,-513.04 757.5,-509.59 766,-505.16 785.51,-494.99 782.53,-481.43 802,-471.16 810.77,-466.54 820.31,-462.74 830.06,-459.62"/>
<polygon fill="#757575" stroke="#757575" points="831.26,-462.91 839.85,-456.71 829.27,-456.2 831.26,-462.91"/>
</g>
<!-- components/ThankYou/index.js -->
<g id="node44" class="node">
<title>components/ThankYou/index.js</title>
<path fill="none" stroke="#c6c5fe" d="M1018.33,-536.66C1018.33,-536.66 827.67,-536.66 827.67,-536.66 823.83,-536.66 820,-532.83 820,-529 820,-529 820,-521.33 820,-521.33 820,-517.5 823.83,-513.66 827.67,-513.66 827.67,-513.66 1018.33,-513.66 1018.33,-513.66 1022.17,-513.66 1026,-517.5 1026,-521.33 1026,-521.33 1026,-529 1026,-529 1026,-532.83 1022.17,-536.66 1018.33,-536.66"/>
<text text-anchor="middle" x="923" y="-521.46" font-family="Arial" font-size="14.00" fill="#c6c5fe">components/ThankYou/index.js</text>
</g>
<!-- components/index.js&#45;&gt;components/ThankYou/index.js -->
<g id="edge73" class="edge">
<title>components/index.js&#45;&gt;components/ThankYou/index.js</title>
<path fill="none" stroke="#757575" d="M738.83,-525.16C760.68,-525.16 785.4,-525.16 809.44,-525.16"/>
<polygon fill="#757575" stroke="#757575" points="809.7,-528.66 819.7,-525.16 809.7,-521.66 809.7,-528.66"/>
</g>
<!-- atoms.js -->
<g id="node6" class="node">
<title>atoms.js</title>
<path fill="none" stroke="#cfffac" d="M2243.33,-296.66C2243.33,-296.66 2190.67,-296.66 2190.67,-296.66 2186.83,-296.66 2183,-292.83 2183,-289 2183,-289 2183,-281.33 2183,-281.33 2183,-277.5 2186.83,-273.66 2190.67,-273.66 2190.67,-273.66 2243.33,-273.66 2243.33,-273.66 2247.17,-273.66 2251,-277.5 2251,-281.33 2251,-281.33 2251,-289 2251,-289 2251,-292.83 2247.17,-296.66 2243.33,-296.66"/>
<text text-anchor="middle" x="2217" y="-281.46" font-family="Arial" font-size="14.00" fill="#cfffac">atoms.js</text>
</g>
<!-- auth/auth0&#45;provider&#45;with&#45;history.js -->
<g id="node7" class="node">
<title>auth/auth0&#45;provider&#45;with&#45;history.js</title>
<path fill="none" stroke="#cfffac" d="M309.33,-514.66C309.33,-514.66 105.67,-514.66 105.67,-514.66 101.83,-514.66 98,-510.83 98,-507 98,-507 98,-499.33 98,-499.33 98,-495.5 101.83,-491.66 105.67,-491.66 105.67,-491.66 309.33,-491.66 309.33,-491.66 313.17,-491.66 317,-495.5 317,-499.33 317,-499.33 317,-507 317,-507 317,-510.83 313.17,-514.66 309.33,-514.66"/>
<text text-anchor="middle" x="207.5" y="-499.46" font-family="Arial" font-size="14.00" fill="#cfffac">auth/auth0&#45;provider&#45;with&#45;history.js</text>
</g>
<!-- components/AddressForm/AddressForm.jsx -->
<g id="node8" class="node">
<title>components/AddressForm/AddressForm.jsx</title>
<path fill="none" stroke="#c6c5fe" d="M1370.33,-692.66C1370.33,-692.66 1103.67,-692.66 1103.67,-692.66 1099.83,-692.66 1096,-688.83 1096,-685 1096,-685 1096,-677.33 1096,-677.33 1096,-673.5 1099.83,-669.66 1103.67,-669.66 1103.67,-669.66 1370.33,-669.66 1370.33,-669.66 1374.17,-669.66 1378,-673.5 1378,-677.33 1378,-677.33 1378,-685 1378,-685 1378,-688.83 1374.17,-692.66 1370.33,-692.66"/>
<text text-anchor="middle" x="1237" y="-677.46" font-family="Arial" font-size="14.00" fill="#c6c5fe">components/AddressForm/AddressForm.jsx</text>
</g>
<!-- components/AddressForm/AddressForm.jsx&#45;&gt;atoms.js -->
<g id="edge6" class="edge">
<title>components/AddressForm/AddressForm.jsx&#45;&gt;atoms.js</title>
<path fill="none" stroke="#757575" d="M1378.43,-685.76C1598.1,-691.65 2003.47,-696.86 2056,-657.16 2098.39,-625.13 2072.44,-592.57 2092,-543.16 2127.98,-452.28 2181.87,-348.76 2204.91,-305.66"/>
<polygon fill="#757575" stroke="#757575" points="2208.06,-307.19 2209.71,-296.73 2201.89,-303.88 2208.06,-307.19"/>
</g>
<!-- components/AddressForm/AddressSchema.js -->
<g id="node9" class="node">
<title>components/AddressForm/AddressSchema.js</title>
<path fill="none" stroke="#cfffac" d="M1718.83,-814.66C1718.83,-814.66 1441.17,-814.66 1441.17,-814.66 1437.33,-814.66 1433.5,-810.83 1433.5,-807 1433.5,-807 1433.5,-799.33 1433.5,-799.33 1433.5,-795.5 1437.33,-791.66 1441.17,-791.66 1441.17,-791.66 1718.83,-791.66 1718.83,-791.66 1722.67,-791.66 1726.5,-795.5 1726.5,-799.33 1726.5,-799.33 1726.5,-807 1726.5,-807 1726.5,-810.83 1722.67,-814.66 1718.83,-814.66"/>
<text text-anchor="middle" x="1580" y="-799.46" font-family="Arial" font-size="14.00" fill="#cfffac">components/AddressForm/AddressSchema.js</text>
</g>
<!-- components/AddressForm/AddressForm.jsx&#45;&gt;components/AddressForm/AddressSchema.js -->
<g id="edge7" class="edge">
<title>components/AddressForm/AddressForm.jsx&#45;&gt;components/AddressForm/AddressSchema.js</title>
<path fill="none" stroke="#757575" d="M1255.06,-692.94C1287.5,-714.7 1361,-760.99 1430,-783.16 1437.34,-785.52 1444.97,-787.6 1452.72,-789.44"/>
<polygon fill="#757575" stroke="#757575" points="1452.07,-792.88 1462.59,-791.63 1453.59,-786.04 1452.07,-792.88"/>
</g>
<!-- components/AddressForm/options.js -->
<g id="node10" class="node">
<title>components/AddressForm/options.js</title>
<path fill="none" stroke="#c6c5fe" d="M1690.83,-773.66C1690.83,-773.66 1469.17,-773.66 1469.17,-773.66 1465.33,-773.66 1461.5,-769.83 1461.5,-766 1461.5,-766 1461.5,-758.33 1461.5,-758.33 1461.5,-754.5 1465.33,-750.66 1469.17,-750.66 1469.17,-750.66 1690.83,-750.66 1690.83,-750.66 1694.67,-750.66 1698.5,-754.5 1698.5,-758.33 1698.5,-758.33 1698.5,-766 1698.5,-766 1698.5,-769.83 1694.67,-773.66 1690.83,-773.66"/>
<text text-anchor="middle" x="1580" y="-758.46" font-family="Arial" font-size="14.00" fill="#c6c5fe">components/AddressForm/options.js</text>
</g>
<!-- components/AddressForm/AddressForm.jsx&#45;&gt;components/AddressForm/options.js -->
<g id="edge8" class="edge">
<title>components/AddressForm/AddressForm.jsx&#45;&gt;components/AddressForm/options.js</title>
<path fill="none" stroke="#757575" d="M1268.47,-692.67C1305.97,-706.39 1371.81,-729.12 1430,-742.16 1441.44,-744.73 1453.45,-747.01 1465.49,-749.03"/>
<polygon fill="#757575" stroke="#757575" points="1465.16,-752.52 1475.59,-750.66 1466.27,-745.61 1465.16,-752.52"/>
</g>
<!-- components/AddressForm/AddressForm.jsx&#45;&gt;components/Common/Input/index.js -->
<g id="edge9" class="edge">
<title>components/AddressForm/AddressForm.jsx&#45;&gt;components/Common/Input/index.js</title>
<path fill="none" stroke="#757575" d="M1378.4,-673.68C1609.05,-661.06 2044,-635.8 2056,-624.16 2113.7,-568.17 2056.83,-336.46 2092,-264.16 2113.65,-219.67 2159.29,-182.88 2188.75,-162.49"/>
<polygon fill="#757575" stroke="#757575" points="2191,-165.19 2197.33,-156.7 2187.08,-159.39 2191,-165.19"/>
</g>
<!-- components/AddressForm/AddressForm.jsx&#45;&gt;components/Common/Modal/index.js -->
<g id="edge10" class="edge">
<title>components/AddressForm/AddressForm.jsx&#45;&gt;components/Common/Modal/index.js</title>
<path fill="none" stroke="#757575" d="M1336.17,-692.68C1378.34,-697.63 1427.75,-703.42 1470.95,-708.49"/>
<polygon fill="#757575" stroke="#757575" points="1470.59,-711.97 1480.93,-709.66 1471.4,-705.02 1470.59,-711.97"/>
</g>
<!-- components/AddressForm/AddressForm.jsx&#45;&gt;components/Common/Select/index.js -->
<g id="edge11" class="edge">
<title>components/AddressForm/AddressForm.jsx&#45;&gt;components/Common/Select/index.js</title>
<path fill="none" stroke="#757575" d="M1276.36,-669.66C1314.93,-658.36 1376.23,-641.11 1430,-629.16 1450.91,-624.52 1473.63,-620.19 1494.87,-616.45"/>
<polygon fill="#757575" stroke="#757575" points="1495.59,-619.88 1504.84,-614.72 1494.39,-612.99 1495.59,-619.88"/>
</g>
<!-- components/AddressForm/AddressForm.jsx&#45;&gt;components/Common/TitleText/index.js -->
<g id="edge12" class="edge">
<title>components/AddressForm/AddressForm.jsx&#45;&gt;components/Common/TitleText/index.js</title>
<path fill="none" stroke="#757575" d="M1258.31,-669.49C1316.24,-636.2 1482.41,-540.68 1549.94,-501.86"/>
<polygon fill="#757575" stroke="#757575" points="1551.87,-504.79 1558.8,-496.78 1548.38,-498.72 1551.87,-504.79"/>
</g>
<!-- components/AddressForm/AddressForm.jsx&#45;&gt;components/Reminder/index.js -->
<g id="edge13" class="edge">
<title>components/AddressForm/AddressForm.jsx&#45;&gt;components/Reminder/index.js</title>
<path fill="none" stroke="#757575" d="M1257.3,-692.78C1287.59,-711.37 1347.65,-749.65 1394,-788.16 1411.4,-802.62 1409.72,-814.13 1430,-824.16 1441.84,-830.02 1454.82,-834.34 1468.02,-837.51"/>
<polygon fill="#757575" stroke="#757575" points="1467.64,-841.01 1478.15,-839.71 1469.13,-834.17 1467.64,-841.01"/>
</g>
<!-- components/AddressForm/statesList.js -->
<g id="node17" class="node">
<title>components/AddressForm/statesList.js</title>
<path fill="none" stroke="#cfffac" d="M2028.83,-773.66C2028.83,-773.66 1793.17,-773.66 1793.17,-773.66 1789.33,-773.66 1785.5,-769.83 1785.5,-766 1785.5,-766 1785.5,-758.33 1785.5,-758.33 1785.5,-754.5 1789.33,-750.66 1793.17,-750.66 1793.17,-750.66 2028.83,-750.66 2028.83,-750.66 2032.67,-750.66 2036.5,-754.5 2036.5,-758.33 2036.5,-758.33 2036.5,-766 2036.5,-766 2036.5,-769.83 2032.67,-773.66 2028.83,-773.66"/>
<text text-anchor="middle" x="1911" y="-758.46" font-family="Arial" font-size="14.00" fill="#cfffac">components/AddressForm/statesList.js</text>
</g>
<!-- components/AddressForm/options.js&#45;&gt;components/AddressForm/statesList.js -->
<g id="edge15" class="edge">
<title>components/AddressForm/options.js&#45;&gt;components/AddressForm/statesList.js</title>
<path fill="none" stroke="#757575" d="M1698.85,-762.16C1723.67,-762.16 1750.04,-762.16 1775.42,-762.16"/>
<polygon fill="#757575" stroke="#757575" points="1775.47,-765.66 1785.47,-762.16 1775.47,-758.66 1775.47,-765.66"/>
</g>
<!-- components/Common/Input/Input.jsx -->
<g id="node26" class="node">
<title>components/Common/Input/Input.jsx</title>
<path fill="none" stroke="#cfffac" d="M2618.33,-156.66C2618.33,-156.66 2394.67,-156.66 2394.67,-156.66 2390.83,-156.66 2387,-152.83 2387,-149 2387,-149 2387,-141.33 2387,-141.33 2387,-137.5 2390.83,-133.66 2394.67,-133.66 2394.67,-133.66 2618.33,-133.66 2618.33,-133.66 2622.17,-133.66 2626,-137.5 2626,-141.33 2626,-141.33 2626,-149 2626,-149 2626,-152.83 2622.17,-156.66 2618.33,-156.66"/>
<text text-anchor="middle" x="2506.5" y="-141.46" font-family="Arial" font-size="14.00" fill="#cfffac">components/Common/Input/Input.jsx</text>
</g>
<!-- components/Common/Input/index.js&#45;&gt;components/Common/Input/Input.jsx -->
<g id="edge24" class="edge">
<title>components/Common/Input/index.js&#45;&gt;components/Common/Input/Input.jsx</title>
<path fill="none" stroke="#757575" d="M2334.11,-145.16C2348.03,-145.16 2362.31,-145.16 2376.4,-145.16"/>
<polygon fill="#757575" stroke="#757575" points="2376.62,-148.66 2386.62,-145.16 2376.62,-141.66 2376.62,-148.66"/>
</g>
<!-- components/Common/Modal/modal.jsx -->
<g id="node27" class="node">
<title>components/Common/Modal/modal.jsx</title>
<path fill="none" stroke="#cfffac" d="M2030.33,-732.66C2030.33,-732.66 1791.67,-732.66 1791.67,-732.66 1787.83,-732.66 1784,-728.83 1784,-725 1784,-725 1784,-717.33 1784,-717.33 1784,-713.5 1787.83,-709.66 1791.67,-709.66 1791.67,-709.66 2030.33,-709.66 2030.33,-709.66 2034.17,-709.66 2038,-713.5 2038,-717.33 2038,-717.33 2038,-725 2038,-725 2038,-728.83 2034.17,-732.66 2030.33,-732.66"/>
<text text-anchor="middle" x="1911" y="-717.46" font-family="Arial" font-size="14.00" fill="#cfffac">components/Common/Modal/modal.jsx</text>
</g>
<!-- components/Common/Modal/index.js&#45;&gt;components/Common/Modal/modal.jsx -->
<g id="edge25" class="edge">
<title>components/Common/Modal/index.js&#45;&gt;components/Common/Modal/modal.jsx</title>
<path fill="none" stroke="#757575" d="M1701.17,-721.16C1724.7,-721.16 1749.54,-721.16 1773.56,-721.16"/>
<polygon fill="#757575" stroke="#757575" points="1773.79,-724.66 1783.79,-721.16 1773.79,-717.66 1773.79,-724.66"/>
</g>
<!-- components/Common/Select/Select.jsx -->
<g id="node28" class="node">
<title>components/Common/Select/Select.jsx</title>
<path fill="none" stroke="#cfffac" d="M2030.33,-614.66C2030.33,-614.66 1791.67,-614.66 1791.67,-614.66 1787.83,-614.66 1784,-610.83 1784,-607 1784,-607 1784,-599.33 1784,-599.33 1784,-595.5 1787.83,-591.66 1791.67,-591.66 1791.67,-591.66 2030.33,-591.66 2030.33,-591.66 2034.17,-591.66 2038,-595.5 2038,-599.33 2038,-599.33 2038,-607 2038,-607 2038,-610.83 2034.17,-614.66 2030.33,-614.66"/>
<text text-anchor="middle" x="1911" y="-599.46" font-family="Arial" font-size="14.00" fill="#cfffac">components/Common/Select/Select.jsx</text>
</g>
<!-- components/Common/Select/index.js&#45;&gt;components/Common/Select/Select.jsx -->
<g id="edge26" class="edge">
<title>components/Common/Select/index.js&#45;&gt;components/Common/Select/Select.jsx</title>
<path fill="none" stroke="#757575" d="M1701.17,-603.16C1724.7,-603.16 1749.54,-603.16 1773.56,-603.16"/>
<polygon fill="#757575" stroke="#757575" points="1773.79,-606.66 1783.79,-603.16 1773.79,-599.66 1773.79,-606.66"/>
</g>
<!-- components/Common/TitleText/TitleText.jsx -->
<g id="node29" class="node">
<title>components/Common/TitleText/TitleText.jsx</title>
<path fill="none" stroke="#cfffac" d="M2042.83,-496.66C2042.83,-496.66 1779.17,-496.66 1779.17,-496.66 1775.33,-496.66 1771.5,-492.83 1771.5,-489 1771.5,-489 1771.5,-481.33 1771.5,-481.33 1771.5,-477.5 1775.33,-473.66 1779.17,-473.66 1779.17,-473.66 2042.83,-473.66 2042.83,-473.66 2046.67,-473.66 2050.5,-477.5 2050.5,-481.33 2050.5,-481.33 2050.5,-489 2050.5,-489 2050.5,-492.83 2046.67,-496.66 2042.83,-496.66"/>
<text text-anchor="middle" x="1911" y="-481.46" font-family="Arial" font-size="14.00" fill="#cfffac">components/Common/TitleText/TitleText.jsx</text>
</g>
<!-- components/Common/TitleText/index.js&#45;&gt;components/Common/TitleText/TitleText.jsx -->
<g id="edge27" class="edge">
<title>components/Common/TitleText/index.js&#45;&gt;components/Common/TitleText/TitleText.jsx</title>
<path fill="none" stroke="#757575" d="M1707.26,-485.16C1725,-485.16 1743.36,-485.16 1761.46,-485.16"/>
<polygon fill="#757575" stroke="#757575" points="1761.49,-488.66 1771.49,-485.16 1761.49,-481.66 1761.49,-488.66"/>
</g>
<!-- components/Reminder/reminder.jsx -->
<g id="node42" class="node">
<title>components/Reminder/reminder.jsx</title>
<path fill="none" stroke="#c6c5fe" d="M2019.33,-835.66C2019.33,-835.66 1802.67,-835.66 1802.67,-835.66 1798.83,-835.66 1795,-831.83 1795,-828 1795,-828 1795,-820.33 1795,-820.33 1795,-816.5 1798.83,-812.66 1802.67,-812.66 1802.67,-812.66 2019.33,-812.66 2019.33,-812.66 2023.17,-812.66 2027,-816.5 2027,-820.33 2027,-820.33 2027,-828 2027,-828 2027,-831.83 2023.17,-835.66 2019.33,-835.66"/>
<text text-anchor="middle" x="1911" y="-820.46" font-family="Arial" font-size="14.00" fill="#c6c5fe">components/Reminder/reminder.jsx</text>
</g>
<!-- components/Reminder/index.js&#45;&gt;components/Reminder/reminder.jsx -->
<g id="edge53" class="edge">
<title>components/Reminder/index.js&#45;&gt;components/Reminder/reminder.jsx</title>
<path fill="none" stroke="#757575" d="M1681.95,-838.03C1714.44,-836.05 1750.84,-833.84 1784.86,-831.77"/>
<polygon fill="#757575" stroke="#757575" points="1785.09,-835.26 1794.86,-831.16 1784.66,-828.28 1785.09,-835.26"/>
</g>
<!-- components/AddressForm/index.js&#45;&gt;components/AddressForm/AddressForm.jsx -->
<g id="edge14" class="edge">
<title>components/AddressForm/index.js&#45;&gt;components/AddressForm/AddressForm.jsx</title>
<path fill="none" stroke="#757575" d="M1036.2,-669C1052.26,-669.97 1068.99,-670.99 1085.64,-672.01"/>
<polygon fill="#757575" stroke="#757575" points="1085.79,-675.52 1095.98,-672.64 1086.22,-668.54 1085.79,-675.52"/>
</g>
<!-- components/Authority/LoginButton.jsx -->
<g id="node19" class="node">
<title>components/Authority/LoginButton.jsx</title>
<path fill="none" stroke="#c6c5fe" d="M2025.33,-935.66C2025.33,-935.66 1796.67,-935.66 1796.67,-935.66 1792.83,-935.66 1789,-931.83 1789,-928 1789,-928 1789,-920.33 1789,-920.33 1789,-916.5 1792.83,-912.66 1796.67,-912.66 1796.67,-912.66 2025.33,-912.66 2025.33,-912.66 2029.17,-912.66 2033,-916.5 2033,-920.33 2033,-920.33 2033,-928 2033,-928 2033,-931.83 2029.17,-935.66 2025.33,-935.66"/>
<text text-anchor="middle" x="1911" y="-920.46" font-family="Arial" font-size="14.00" fill="#c6c5fe">components/Authority/LoginButton.jsx</text>
</g>
<!-- components/Authority/AuthButton.jsx&#45;&gt;components/Authority/LoginButton.jsx -->
<g id="edge16" class="edge">
<title>components/Authority/AuthButton.jsx&#45;&gt;components/Authority/LoginButton.jsx</title>
<path fill="none" stroke="#757575" d="M1699.78,-924.16C1725.37,-924.16 1752.56,-924.16 1778.61,-924.16"/>
<polygon fill="#757575" stroke="#757575" points="1778.91,-927.66 1788.91,-924.16 1778.91,-920.66 1778.91,-927.66"/>
</g>
<!-- components/Authority/LogoutButton.jsx -->
<g id="node20" class="node">
<title>components/Authority/LogoutButton.jsx</title>
<path fill="none" stroke="#c6c5fe" d="M2029.33,-976.66C2029.33,-976.66 1792.67,-976.66 1792.67,-976.66 1788.83,-976.66 1785,-972.83 1785,-969 1785,-969 1785,-961.33 1785,-961.33 1785,-957.5 1788.83,-953.66 1792.67,-953.66 1792.67,-953.66 2029.33,-953.66 2029.33,-953.66 2033.17,-953.66 2037,-957.5 2037,-961.33 2037,-961.33 2037,-969 2037,-969 2037,-972.83 2033.17,-976.66 2029.33,-976.66"/>
<text text-anchor="middle" x="1911" y="-961.46" font-family="Arial" font-size="14.00" fill="#c6c5fe">components/Authority/LogoutButton.jsx</text>
</g>
<!-- components/Authority/AuthButton.jsx&#45;&gt;components/Authority/LogoutButton.jsx -->
<g id="edge17" class="edge">
<title>components/Authority/AuthButton.jsx&#45;&gt;components/Authority/LogoutButton.jsx</title>
<path fill="none" stroke="#757575" d="M1673.52,-935.69C1715.22,-940.89 1764.61,-947.04 1807.44,-952.38"/>
<polygon fill="#757575" stroke="#757575" points="1807.25,-955.89 1817.6,-953.65 1808.11,-948.94 1807.25,-955.89"/>
</g>
<!-- components/Authority/LoginButton.jsx&#45;&gt;components/Common/Button/index.jsx -->
<g id="edge18" class="edge">
<title>components/Authority/LoginButton.jsx&#45;&gt;components/Common/Button/index.jsx</title>
<path fill="none" stroke="#757575" d="M2030.37,-912.6C2039.53,-908.83 2048.23,-904.1 2056,-898.16 2163.08,-816.44 2201.96,-644.88 2212.63,-584.63"/>
<polygon fill="#757575" stroke="#757575" points="2216.09,-585.17 2214.3,-574.73 2209.18,-584 2216.09,-585.17"/>
</g>
<!-- components/Authority/LogoutButton.jsx&#45;&gt;components/Common/Button/index.jsx -->
<g id="edge19" class="edge">
<title>components/Authority/LogoutButton.jsx&#45;&gt;components/Common/Button/index.jsx</title>
<path fill="none" stroke="#757575" d="M2037.19,-956.41C2043.87,-953.34 2050.2,-949.63 2056,-945.16 2176.64,-852.29 2207.17,-651.7 2214.12,-585.13"/>
<polygon fill="#757575" stroke="#757575" points="2217.63,-585.26 2215.11,-574.97 2210.66,-584.59 2217.63,-585.26"/>
</g>
<!-- components/Common/Button/Button.jsx -->
<g id="node25" class="node">
<title>components/Common/Button/Button.jsx</title>
<path fill="none" stroke="#cfffac" d="M2627.33,-574.66C2627.33,-574.66 2385.67,-574.66 2385.67,-574.66 2381.83,-574.66 2378,-570.83 2378,-567 2378,-567 2378,-559.33 2378,-559.33 2378,-555.5 2381.83,-551.66 2385.67,-551.66 2385.67,-551.66 2627.33,-551.66 2627.33,-551.66 2631.17,-551.66 2635,-555.5 2635,-559.33 2635,-559.33 2635,-567 2635,-567 2635,-570.83 2631.17,-574.66 2627.33,-574.66"/>
<text text-anchor="middle" x="2506.5" y="-559.46" font-family="Arial" font-size="14.00" fill="#cfffac">components/Common/Button/Button.jsx</text>
</g>
<!-- components/Common/Button/index.jsx&#45;&gt;components/Common/Button/Button.jsx -->
<g id="edge23" class="edge">
<title>components/Common/Button/index.jsx&#45;&gt;components/Common/Button/Button.jsx</title>
<path fill="none" stroke="#757575" d="M2342.01,-563.16C2350.53,-563.16 2359.15,-563.16 2367.73,-563.16"/>
<polygon fill="#757575" stroke="#757575" points="2367.79,-566.66 2377.79,-563.16 2367.79,-559.66 2367.79,-566.66"/>
</g>
<!-- components/Common/BodyText/BodyText.jsx -->
<g id="node23" class="node">
<title>components/Common/BodyText/BodyText.jsx</title>
<path fill="none" stroke="#cfffac" d="M2048.33,-416.66C2048.33,-416.66 1773.67,-416.66 1773.67,-416.66 1769.83,-416.66 1766,-412.83 1766,-409 1766,-409 1766,-401.33 1766,-401.33 1766,-397.5 1769.83,-393.66 1773.67,-393.66 1773.67,-393.66 2048.33,-393.66 2048.33,-393.66 2052.17,-393.66 2056,-397.5 2056,-401.33 2056,-401.33 2056,-409 2056,-409 2056,-412.83 2052.17,-416.66 2048.33,-416.66"/>
<text text-anchor="middle" x="1911" y="-401.46" font-family="Arial" font-size="14.00" fill="#cfffac">components/Common/BodyText/BodyText.jsx</text>
</g>
<!-- components/Common/BodyText/index.jsx&#45;&gt;components/Common/BodyText/BodyText.jsx -->
<g id="edge22" class="edge">
<title>components/Common/BodyText/index.jsx&#45;&gt;components/Common/BodyText/BodyText.jsx</title>
<path fill="none" stroke="#757575" d="M1713.39,-405.16C1727.26,-405.16 1741.44,-405.16 1755.53,-405.16"/>
<polygon fill="#757575" stroke="#757575" points="1755.76,-408.66 1765.76,-405.16 1755.76,-401.66 1755.76,-408.66"/>
</g>
<!-- components/Donations/Donations.jsx -->
<g id="node30" class="node">
<title>components/Donations/Donations.jsx</title>
<path fill="none" stroke="#c6c5fe" d="M1349.33,-376.66C1349.33,-376.66 1124.67,-376.66 1124.67,-376.66 1120.83,-376.66 1117,-372.83 1117,-369 1117,-369 1117,-361.33 1117,-361.33 1117,-357.5 1120.83,-353.66 1124.67,-353.66 1124.67,-353.66 1349.33,-353.66 1349.33,-353.66 1353.17,-353.66 1357,-357.5 1357,-361.33 1357,-361.33 1357,-369 1357,-369 1357,-372.83 1353.17,-376.66 1349.33,-376.66"/>
<text text-anchor="middle" x="1237" y="-361.46" font-family="Arial" font-size="14.00" fill="#c6c5fe">components/Donations/Donations.jsx</text>
</g>
<!-- components/Donations/Donations.jsx&#45;&gt;atoms.js -->
<g id="edge28" class="edge">
<title>components/Donations/Donations.jsx&#45;&gt;atoms.js</title>
<path fill="none" stroke="#757575" d="M1281.78,-353.62C1313.27,-344.98 1356.61,-332.42 1394,-319.16 1410.34,-313.37 1413.05,-307.77 1430,-304.16 1707.67,-245.13 2052.93,-269.47 2172.71,-280.69"/>
<polygon fill="#757575" stroke="#757575" points="2172.64,-284.19 2182.93,-281.66 2173.31,-277.23 2172.64,-284.19"/>
</g>
<!-- components/Donations/Donations.jsx&#45;&gt;components/Common/Modal/index.js -->
<g id="edge31" class="edge">
<title>components/Donations/Donations.jsx&#45;&gt;components/Common/Modal/index.js</title>
<path fill="none" stroke="#757575" d="M1310.08,-376.77C1340.25,-385.25 1373.1,-399.9 1394,-425.16 1451.3,-494.41 1380.27,-549.3 1430,-624.16 1455.99,-663.29 1503.74,-690.18 1538.19,-705.55"/>
<polygon fill="#757575" stroke="#757575" points="1536.96,-708.83 1547.53,-709.58 1539.73,-702.4 1536.96,-708.83"/>
</g>
<!-- components/Donations/Donations.jsx&#45;&gt;components/Common/TitleText/index.js -->
<g id="edge32" class="edge">
<title>components/Donations/Donations.jsx&#45;&gt;components/Common/TitleText/index.js</title>
<path fill="none" stroke="#757575" d="M1270.7,-376.67C1332.74,-398.5 1467.5,-445.93 1536.47,-470.2"/>
<polygon fill="#757575" stroke="#757575" points="1535.56,-473.59 1546.15,-473.6 1537.88,-466.98 1535.56,-473.59"/>
</g>
<!-- components/Donations/Donations.jsx&#45;&gt;components/Common/Button/index.jsx -->
<g id="edge30" class="edge">
<title>components/Donations/Donations.jsx&#45;&gt;components/Common/Button/index.jsx</title>
<path fill="none" stroke="#757575" d="M1357.1,-362.73C1568.82,-359.16 1994.37,-355.73 2056,-384.16 2129.27,-417.97 2183.22,-503.01 2205.17,-542.46"/>
<polygon fill="#757575" stroke="#757575" points="2202.21,-544.34 2210.06,-551.45 2208.36,-541 2202.21,-544.34"/>
</g>
<!-- components/Donations/Donations.jsx&#45;&gt;components/Common/BodyText/index.jsx -->
<g id="edge29" class="edge">
<title>components/Donations/Donations.jsx&#45;&gt;components/Common/BodyText/index.jsx</title>
<path fill="none" stroke="#757575" d="M1336.17,-376.68C1378.34,-381.63 1427.75,-387.42 1470.95,-392.49"/>
<polygon fill="#757575" stroke="#757575" points="1470.59,-395.97 1480.93,-393.66 1471.4,-389.02 1470.59,-395.97"/>
</g>
<!-- components/Donations/Donations.jsx&#45;&gt;components/OtherAmount/index.js -->
<g id="edge33" class="edge">
<title>components/Donations/Donations.jsx&#45;&gt;components/OtherAmount/index.js</title>
<path fill="none" stroke="#757575" d="M1311.78,-353.58C1339.32,-346.75 1369.76,-335.99 1394,-319.16 1415.9,-303.95 1407.27,-285.1 1430,-271.16 1438.48,-265.96 1447.71,-261.74 1457.29,-258.3"/>
<polygon fill="#757575" stroke="#757575" points="1458.55,-261.57 1466.96,-255.13 1456.37,-254.92 1458.55,-261.57"/>
</g>
<!-- integrations/donationAPI.js -->
<g id="node32" class="node">
<title>integrations/donationAPI.js</title>
<path fill="none" stroke="#cfffac" d="M1660.83,-336.66C1660.83,-336.66 1499.17,-336.66 1499.17,-336.66 1495.33,-336.66 1491.5,-332.83 1491.5,-329 1491.5,-329 1491.5,-321.33 1491.5,-321.33 1491.5,-317.5 1495.33,-313.66 1499.17,-313.66 1499.17,-313.66 1660.83,-313.66 1660.83,-313.66 1664.67,-313.66 1668.5,-317.5 1668.5,-321.33 1668.5,-321.33 1668.5,-329 1668.5,-329 1668.5,-332.83 1664.67,-336.66 1660.83,-336.66"/>
<text text-anchor="middle" x="1580" y="-321.46" font-family="Arial" font-size="14.00" fill="#cfffac">integrations/donationAPI.js</text>
</g>
<!-- components/Donations/Donations.jsx&#45;&gt;integrations/donationAPI.js -->
<g id="edge34" class="edge">
<title>components/Donations/Donations.jsx&#45;&gt;integrations/donationAPI.js</title>
<path fill="none" stroke="#757575" d="M1336.17,-353.65C1381.72,-348.3 1435.72,-341.97 1481.22,-336.63"/>
<polygon fill="#757575" stroke="#757575" points="1481.86,-340.08 1491.39,-335.44 1481.05,-333.13 1481.86,-340.08"/>
</g>
<!-- components/OtherAmount/OtherAmount.jsx -->
<g id="node38" class="node">
<title>components/OtherAmount/OtherAmount.jsx</title>
<path fill="none" stroke="#c6c5fe" d="M2044.33,-256.66C2044.33,-256.66 1777.67,-256.66 1777.67,-256.66 1773.83,-256.66 1770,-252.83 1770,-249 1770,-249 1770,-241.33 1770,-241.33 1770,-237.5 1773.83,-233.66 1777.67,-233.66 1777.67,-233.66 2044.33,-233.66 2044.33,-233.66 2048.17,-233.66 2052,-237.5 2052,-241.33 2052,-241.33 2052,-249 2052,-249 2052,-252.83 2048.17,-256.66 2044.33,-256.66"/>
<text text-anchor="middle" x="1911" y="-241.46" font-family="Arial" font-size="14.00" fill="#c6c5fe">components/OtherAmount/OtherAmount.jsx</text>
</g>
<!-- components/OtherAmount/index.js&#45;&gt;components/OtherAmount/OtherAmount.jsx -->
<g id="edge47" class="edge">
<title>components/OtherAmount/index.js&#45;&gt;components/OtherAmount/OtherAmount.jsx</title>
<path fill="none" stroke="#757575" d="M1693.3,-245.16C1714.69,-245.16 1737.39,-245.16 1759.74,-245.16"/>
<polygon fill="#757575" stroke="#757575" points="1759.98,-248.66 1769.98,-245.16 1759.98,-241.66 1759.98,-248.66"/>
</g>
<!-- components/Donations/index.js&#45;&gt;components/Donations/Donations.jsx -->
<g id="edge35" class="edge">
<title>components/Donations/index.js&#45;&gt;components/Donations/Donations.jsx</title>
<path fill="none" stroke="#757575" d="M1025.73,-365.16C1051.51,-365.16 1079.55,-365.16 1106.5,-365.16"/>
<polygon fill="#757575" stroke="#757575" points="1106.77,-368.66 1116.77,-365.16 1106.77,-361.66 1106.77,-368.66"/>
</g>
<!-- components/MobileTextForm/MobileSchema.js -->
<g id="node34" class="node">
<title>components/MobileTextForm/MobileSchema.js</title>
<path fill="none" stroke="#cfffac" d="M1722.33,-176.66C1722.33,-176.66 1437.67,-176.66 1437.67,-176.66 1433.83,-176.66 1430,-172.83 1430,-169 1430,-169 1430,-161.33 1430,-161.33 1430,-157.5 1433.83,-153.66 1437.67,-153.66 1437.67,-153.66 1722.33,-153.66 1722.33,-153.66 1726.17,-153.66 1730,-157.5 1730,-161.33 1730,-161.33 1730,-169 1730,-169 1730,-172.83 1726.17,-176.66 1722.33,-176.66"/>
<text text-anchor="middle" x="1580" y="-161.46" font-family="Arial" font-size="14.00" fill="#cfffac">components/MobileTextForm/MobileSchema.js</text>
</g>
<!-- components/MobileTextForm/MobileTextForm.jsx -->
<g id="node35" class="node">
<title>components/MobileTextForm/MobileTextForm.jsx</title>
<path fill="none" stroke="#c6c5fe" d="M1386.33,-196.66C1386.33,-196.66 1087.67,-196.66 1087.67,-196.66 1083.83,-196.66 1080,-192.83 1080,-189 1080,-189 1080,-181.33 1080,-181.33 1080,-177.5 1083.83,-173.66 1087.67,-173.66 1087.67,-173.66 1386.33,-173.66 1386.33,-173.66 1390.17,-173.66 1394,-177.5 1394,-181.33 1394,-181.33 1394,-189 1394,-189 1394,-192.83 1390.17,-196.66 1386.33,-196.66"/>
<text text-anchor="middle" x="1237" y="-181.46" font-family="Arial" font-size="14.00" fill="#c6c5fe">components/MobileTextForm/MobileTextForm.jsx</text>
</g>
<!-- components/MobileTextForm/MobileTextForm.jsx&#45;&gt;atoms.js -->
<g id="edge36" class="edge">
<title>components/MobileTextForm/MobileTextForm.jsx&#45;&gt;atoms.js</title>
<path fill="none" stroke="#757575" d="M1257.58,-173.62C1291.37,-154.44 1363.42,-116.79 1430,-103.16 1560.63,-76.44 1598.77,-79.59 1730,-103.16 1909.86,-135.47 2109.79,-230.83 2185.09,-269.05"/>
<polygon fill="#757575" stroke="#757575" points="2183.55,-272.2 2194.05,-273.63 2186.74,-265.96 2183.55,-272.2"/>
</g>
<!-- components/MobileTextForm/MobileTextForm.jsx&#45;&gt;components/Common/Input/index.js -->
<g id="edge38" class="edge">
<title>components/MobileTextForm/MobileTextForm.jsx&#45;&gt;components/Common/Input/index.js</title>
<path fill="none" stroke="#757575" d="M1251.68,-173.29C1281.55,-148.25 1355.85,-90.67 1430,-70.16 1564.08,-33.08 1920.22,-39.92 2056,-70.16 2105.93,-81.29 2158.7,-109.74 2189.43,-128.23"/>
<polygon fill="#757575" stroke="#757575" points="2187.87,-131.38 2198.23,-133.61 2191.52,-125.41 2187.87,-131.38"/>
</g>
<!-- components/MobileTextForm/MobileTextForm.jsx&#45;&gt;components/Common/Select/index.js -->
<g id="edge39" class="edge">
<title>components/MobileTextForm/MobileTextForm.jsx&#45;&gt;components/Common/Select/index.js</title>
<path fill="none" stroke="#757575" d="M1254.72,-197.02C1287.08,-220.91 1358.21,-278.23 1394,-344.16 1429.18,-408.99 1387.98,-445.55 1430,-506.16 1456.93,-545 1504.94,-572.08 1539.19,-587.57"/>
<polygon fill="#757575" stroke="#757575" points="1537.89,-590.82 1548.45,-591.63 1540.7,-584.41 1537.89,-590.82"/>
</g>
<!-- components/MobileTextForm/MobileTextForm.jsx&#45;&gt;components/Common/TitleText/index.js -->
<g id="edge40" class="edge">
<title>components/MobileTextForm/MobileTextForm.jsx&#45;&gt;components/Common/TitleText/index.js</title>
<path fill="none" stroke="#757575" d="M1252.69,-196.93C1282.65,-221.53 1351.53,-281.38 1394,-344.16 1416.3,-377.13 1401.34,-398.54 1430,-426.16 1452.4,-447.75 1483.66,-461.74 1511.76,-470.65"/>
<polygon fill="#757575" stroke="#757575" points="1510.97,-474.06 1521.55,-473.59 1512.98,-467.36 1510.97,-474.06"/>
</g>
<!-- components/MobileTextForm/MobileTextForm.jsx&#45;&gt;components/Common/Button/index.jsx -->
<g id="edge37" class="edge">
<title>components/MobileTextForm/MobileTextForm.jsx&#45;&gt;components/Common/Button/index.jsx</title>
<path fill="none" stroke="#757575" d="M1394.1,-184.92C1515.63,-187.04 1672.93,-195.56 1730,-224.16 1751.68,-235.03 1745.72,-251.87 1766,-265.16 1879.2,-339.37 1944.99,-280.71 2056,-358.16 2128.33,-408.63 2183.43,-501.44 2205.49,-542.59"/>
<polygon fill="#757575" stroke="#757575" points="2202.39,-544.22 2210.15,-551.44 2208.59,-540.96 2202.39,-544.22"/>
</g>
<!-- components/MobileTextForm/MobileTextForm.jsx&#45;&gt;components/MobileTextForm/MobileSchema.js -->
<g id="edge41" class="edge">
<title>components/MobileTextForm/MobileTextForm.jsx&#45;&gt;components/MobileTextForm/MobileSchema.js</title>
<path fill="none" stroke="#757575" d="M1394.03,-176.01C1402.6,-175.51 1411.22,-175 1419.8,-174.5"/>
<polygon fill="#757575" stroke="#757575" points="1420.08,-177.99 1429.85,-173.91 1419.67,-171 1420.08,-177.99"/>
</g>
<!-- components/MobileTextForm/options.js -->
<g id="node36" class="node">
<title>components/MobileTextForm/options.js</title>
<path fill="none" stroke="#cfffac" d="M1698.83,-135.66C1698.83,-135.66 1461.17,-135.66 1461.17,-135.66 1457.33,-135.66 1453.5,-131.83 1453.5,-128 1453.5,-128 1453.5,-120.33 1453.5,-120.33 1453.5,-116.5 1457.33,-112.66 1461.17,-112.66 1461.17,-112.66 1698.83,-112.66 1698.83,-112.66 1702.67,-112.66 1706.5,-116.5 1706.5,-120.33 1706.5,-120.33 1706.5,-128 1706.5,-128 1706.5,-131.83 1702.67,-135.66 1698.83,-135.66"/>
<text text-anchor="middle" x="1580" y="-120.46" font-family="Arial" font-size="14.00" fill="#cfffac">components/MobileTextForm/options.js</text>
</g>
<!-- components/MobileTextForm/MobileTextForm.jsx&#45;&gt;components/MobileTextForm/options.js -->
<g id="edge42" class="edge">
<title>components/MobileTextForm/MobileTextForm.jsx&#45;&gt;components/MobileTextForm/options.js</title>
<path fill="none" stroke="#757575" d="M1287.12,-173.58C1325.8,-164.73 1381.14,-152.65 1430,-144.16 1444.31,-141.68 1459.44,-139.33 1474.36,-137.17"/>
<polygon fill="#757575" stroke="#757575" points="1475.24,-140.58 1484.64,-135.71 1474.25,-133.65 1475.24,-140.58"/>
</g>
<!-- components/MobileTextForm/index.js&#45;&gt;components/MobileTextForm/MobileTextForm.jsx -->
<g id="edge43" class="edge">
<title>components/MobileTextForm/index.js&#45;&gt;components/MobileTextForm/MobileTextForm.jsx</title>
<path fill="none" stroke="#757575" d="M1013.82,-213.65C1052.08,-208.74 1096.85,-203 1136.14,-197.97"/>
<polygon fill="#757575" stroke="#757575" points="1136.8,-201.41 1146.27,-196.67 1135.91,-194.47 1136.8,-201.41"/>
</g>
<!-- components/OtherAmount/OtherAmount.jsx&#45;&gt;atoms.js -->
<g id="edge44" class="edge">
<title>components/OtherAmount/OtherAmount.jsx&#45;&gt;atoms.js</title>
<path fill="none" stroke="#757575" d="M1999.52,-256.68C2056.31,-264.15 2127.85,-273.56 2172.77,-279.47"/>
<polygon fill="#757575" stroke="#757575" points="2172.39,-282.96 2182.76,-280.79 2173.3,-276.02 2172.39,-282.96"/>
</g>
<!-- components/OtherAmount/OtherAmount.jsx&#45;&gt;components/Common/Input/index.js -->
<g id="edge46" class="edge">
<title>components/OtherAmount/OtherAmount.jsx&#45;&gt;components/Common/Input/index.js</title>
<path fill="none" stroke="#757575" d="M1947.17,-233.59C2002.54,-215.38 2110,-180.03 2170.95,-159.98"/>
<polygon fill="#757575" stroke="#757575" points="2172.27,-163.23 2180.68,-156.78 2170.09,-156.58 2172.27,-163.23"/>
</g>
<!-- components/OtherAmount/OtherAmount.jsx&#45;&gt;components/Common/Button/index.jsx -->
<g id="edge45" class="edge">
<title>components/OtherAmount/OtherAmount.jsx&#45;&gt;components/Common/Button/index.jsx</title>
<path fill="none" stroke="#757575" d="M1954.44,-256.7C1985.24,-266.71 2026.52,-283.65 2056,-309.16 2134.95,-377.5 2188.32,-494.44 2207.8,-542.06"/>
<polygon fill="#757575" stroke="#757575" points="2204.66,-543.64 2211.63,-551.62 2211.16,-541.04 2204.66,-543.64"/>
</g>
<!-- components/PrayerCard/PrayerCard.jsx -->
<g id="node39" class="node">
<title>components/PrayerCard/PrayerCard.jsx</title>
<path fill="none" stroke="#c6c5fe" d="M1357.83,-456.66C1357.83,-456.66 1116.17,-456.66 1116.17,-456.66 1112.33,-456.66 1108.5,-452.83 1108.5,-449 1108.5,-449 1108.5,-441.33 1108.5,-441.33 1108.5,-437.5 1112.33,-433.66 1116.17,-433.66 1116.17,-433.66 1357.83,-433.66 1357.83,-433.66 1361.67,-433.66 1365.5,-437.5 1365.5,-441.33 1365.5,-441.33 1365.5,-449 1365.5,-449 1365.5,-452.83 1361.67,-456.66 1357.83,-456.66"/>
<text text-anchor="middle" x="1237" y="-441.46" font-family="Arial" font-size="14.00" fill="#c6c5fe">components/PrayerCard/PrayerCard.jsx</text>
</g>
<!-- components/PrayerCard/PrayerCard.jsx&#45;&gt;components/Common/TitleText/index.js -->
<g id="edge50" class="edge">
<title>components/PrayerCard/PrayerCard.jsx&#45;&gt;components/Common/TitleText/index.js</title>
<path fill="none" stroke="#757575" d="M1336.17,-456.68C1378.34,-461.63 1427.75,-467.42 1470.95,-472.49"/>
<polygon fill="#757575" stroke="#757575" points="1470.59,-475.97 1480.93,-473.66 1471.4,-469.02 1470.59,-475.97"/>
</g>
<!-- components/PrayerCard/PrayerCard.jsx&#45;&gt;components/Common/Button/index.jsx -->
<g id="edge49" class="edge">
<title>components/PrayerCard/PrayerCard.jsx&#45;&gt;components/Common/Button/index.jsx</title>
<path fill="none" stroke="#757575" d="M1365.57,-440.25C1562.41,-434.03 1930.57,-428.14 2056,-465.16 2110.88,-481.36 2165.78,-521.47 2194.83,-545.05"/>
<polygon fill="#757575" stroke="#757575" points="2192.72,-547.84 2202.65,-551.51 2197.17,-542.45 2192.72,-547.84"/>
</g>
<!-- components/PrayerCard/PrayerCard.jsx&#45;&gt;components/Common/BodyText/index.jsx -->
<g id="edge48" class="edge">
<title>components/PrayerCard/PrayerCard.jsx&#45;&gt;components/Common/BodyText/index.jsx</title>
<path fill="none" stroke="#757575" d="M1336.17,-433.65C1378.34,-428.7 1427.75,-422.91 1470.95,-417.84"/>
<polygon fill="#757575" stroke="#757575" points="1471.4,-421.31 1480.93,-416.67 1470.59,-414.36 1471.4,-421.31"/>
</g>
<!-- components/PrayerCard/index.js&#45;&gt;components/PrayerCard/PrayerCard.jsx -->
<g id="edge51" class="edge">
<title>components/PrayerCard/index.js&#45;&gt;components/PrayerCard/PrayerCard.jsx</title>
<path fill="none" stroke="#757575" d="M1029.63,-445.16C1051.65,-445.16 1075.17,-445.16 1098.16,-445.16"/>
<polygon fill="#757575" stroke="#757575" points="1098.32,-448.66 1108.32,-445.16 1098.32,-441.66 1098.32,-448.66"/>
</g>
<!-- components/Reminder/reminder.jsx&#45;&gt;components/Common/Button/index.jsx -->
<g id="edge54" class="edge">
<title>components/Reminder/reminder.jsx&#45;&gt;components/Common/Button/index.jsx</title>
<path fill="none" stroke="#757575" d="M1987.58,-812.59C2010.97,-806.5 2035.86,-797.23 2056,-783.16 2132.51,-729.72 2186.24,-627.7 2206.77,-583.94"/>
<polygon fill="#757575" stroke="#757575" points="2209.96,-585.37 2210.95,-574.82 2203.6,-582.45 2209.96,-585.37"/>
</g>
<!-- components/ThankYou/ThankYou.jsx -->
<g id="node43" class="node">
<title>components/ThankYou/ThankYou.jsx</title>
<path fill="none" stroke="#c6c5fe" d="M1350.33,-536.66C1350.33,-536.66 1123.67,-536.66 1123.67,-536.66 1119.83,-536.66 1116,-532.83 1116,-529 1116,-529 1116,-521.33 1116,-521.33 1116,-517.5 1119.83,-513.66 1123.67,-513.66 1123.67,-513.66 1350.33,-513.66 1350.33,-513.66 1354.17,-513.66 1358,-517.5 1358,-521.33 1358,-521.33 1358,-529 1358,-529 1358,-532.83 1354.17,-536.66 1350.33,-536.66"/>
<text text-anchor="middle" x="1237" y="-521.46" font-family="Arial" font-size="14.00" fill="#c6c5fe">components/ThankYou/ThankYou.jsx</text>
</g>
<!-- components/ThankYou/ThankYou.jsx&#45;&gt;atoms.js -->
<g id="edge55" class="edge">
<title>components/ThankYou/ThankYou.jsx&#45;&gt;atoms.js</title>
<path fill="none" stroke="#757575" d="M1358.23,-528.22C1570.72,-532.76 1995.99,-537.69 2056,-506.16 2139.64,-462.22 2190.08,-352.59 2208.27,-306.31"/>
<polygon fill="#757575" stroke="#757575" points="2211.64,-307.3 2211.94,-296.71 2205.1,-304.8 2211.64,-307.3"/>
</g>
<!-- components/ThankYou/ThankYou.jsx&#45;&gt;components/Common/TitleText/index.js -->
<g id="edge58" class="edge">
<title>components/ThankYou/ThankYou.jsx&#45;&gt;components/Common/TitleText/index.js</title>
<path fill="none" stroke="#757575" d="M1336.17,-513.65C1378.34,-508.7 1427.75,-502.91 1470.95,-497.84"/>
<polygon fill="#757575" stroke="#757575" points="1471.4,-501.31 1480.93,-496.67 1470.59,-494.36 1471.4,-501.31"/>
</g>
<!-- components/ThankYou/ThankYou.jsx&#45;&gt;components/Common/Button/index.jsx -->
<g id="edge57" class="edge">
<title>components/ThankYou/ThankYou.jsx&#45;&gt;components/Common/Button/index.jsx</title>
<path fill="none" stroke="#757575" d="M1358.04,-534.7C1381.87,-536.37 1406.72,-537.96 1430,-539.16 1658.63,-550.98 1925,-557.62 2081.56,-560.79"/>
<polygon fill="#757575" stroke="#757575" points="2081.64,-564.29 2091.71,-560.99 2081.78,-557.29 2081.64,-564.29"/>
</g>
<!-- components/ThankYou/ThankYou.jsx&#45;&gt;components/Common/BodyText/index.jsx -->
<g id="edge56" class="edge">
<title>components/ThankYou/ThankYou.jsx&#45;&gt;components/Common/BodyText/index.jsx</title>
<path fill="none" stroke="#757575" d="M1270.7,-513.66C1332.74,-491.82 1467.5,-444.4 1536.47,-420.13"/>
<polygon fill="#757575" stroke="#757575" points="1537.88,-423.34 1546.15,-416.72 1535.56,-416.74 1537.88,-423.34"/>
</g>
<!-- components/ThankYou/index.js&#45;&gt;components/ThankYou/ThankYou.jsx -->
<g id="edge59" class="edge">
<title>components/ThankYou/index.js&#45;&gt;components/ThankYou/ThankYou.jsx</title>
<path fill="none" stroke="#757575" d="M1026.16,-525.16C1051.61,-525.16 1079.24,-525.16 1105.84,-525.16"/>
<polygon fill="#757575" stroke="#757575" points="1105.98,-528.66 1115.98,-525.16 1105.98,-521.66 1105.98,-528.66"/>
</g>
<!-- index.css -->
<g id="node45" class="node">
<title>index.css</title>
<path fill="none" stroke="#cfffac" d="M236.33,-473.66C236.33,-473.66 178.67,-473.66 178.67,-473.66 174.83,-473.66 171,-469.83 171,-466 171,-466 171,-458.33 171,-458.33 171,-454.5 174.83,-450.66 178.67,-450.66 178.67,-450.66 236.33,-450.66 236.33,-450.66 240.17,-450.66 244,-454.5 244,-458.33 244,-458.33 244,-466 244,-466 244,-469.83 240.17,-473.66 236.33,-473.66"/>
<text text-anchor="middle" x="207.5" y="-458.46" font-family="Arial" font-size="14.00" fill="#cfffac">index.css</text>
</g>
<!-- index.js -->
<g id="node46" class="node">
<title>index.js</title>
<path fill="none" stroke="#c6c5fe" d="M54.33,-493.66C54.33,-493.66 7.67,-493.66 7.67,-493.66 3.83,-493.66 0,-489.83 0,-486 0,-486 0,-478.33 0,-478.33 0,-474.5 3.83,-470.66 7.67,-470.66 7.67,-470.66 54.33,-470.66 54.33,-470.66 58.17,-470.66 62,-474.5 62,-478.33 62,-478.33 62,-486 62,-486 62,-489.83 58.17,-493.66 54.33,-493.66"/>
<text text-anchor="middle" x="31" y="-478.46" font-family="Arial" font-size="14.00" fill="#c6c5fe">index.js</text>
</g>
<!-- index.js&#45;&gt;App.js -->
<g id="edge74" class="edge">
<title>index.js&#45;&gt;App.js</title>
<path fill="none" stroke="#757575" d="M46.57,-493.78C59.38,-503.4 78.91,-516.66 98,-524.16 121.13,-533.26 148.69,-538.27 170.25,-541"/>
<polygon fill="#757575" stroke="#757575" points="169.96,-544.49 180.3,-542.17 170.77,-537.54 169.96,-544.49"/>
</g>
<!-- index.js&#45;&gt;auth/auth0&#45;provider&#45;with&#45;history.js -->
<g id="edge75" class="edge">
<title>index.js&#45;&gt;auth/auth0&#45;provider&#45;with&#45;history.js</title>
<path fill="none" stroke="#757575" d="M62.4,-485.82C73.47,-487.15 86.72,-488.75 100.63,-490.42"/>
<polygon fill="#757575" stroke="#757575" points="100.5,-493.93 110.85,-491.65 101.34,-486.98 100.5,-493.93"/>
</g>
<!-- index.js&#45;&gt;index.css -->
<g id="edge76" class="edge">
<title>index.js&#45;&gt;index.css</title>
<path fill="none" stroke="#757575" d="M62.4,-478.68C89.5,-475.57 129.58,-470.98 160.6,-467.42"/>
<polygon fill="#757575" stroke="#757575" points="161.2,-470.88 170.73,-466.26 160.4,-463.92 161.2,-470.88"/>
</g>
<!-- serviceWorker.js -->
<g id="node47" class="node">
<title>serviceWorker.js</title>
<path fill="none" stroke="#cfffac" d="M257.83,-432.66C257.83,-432.66 157.17,-432.66 157.17,-432.66 153.33,-432.66 149.5,-428.83 149.5,-425 149.5,-425 149.5,-417.33 149.5,-417.33 149.5,-413.5 153.33,-409.66 157.17,-409.66 157.17,-409.66 257.83,-409.66 257.83,-409.66 261.67,-409.66 265.5,-413.5 265.5,-417.33 265.5,-417.33 265.5,-425 265.5,-425 265.5,-428.83 261.67,-432.66 257.83,-432.66"/>
<text text-anchor="middle" x="207.5" y="-417.46" font-family="Arial" font-size="14.00" fill="#cfffac">serviceWorker.js</text>
</g>
<!-- index.js&#45;&gt;serviceWorker.js -->
<g id="edge77" class="edge">
<title>index.js&#45;&gt;serviceWorker.js</title>
<path fill="none" stroke="#757575" d="M47.45,-470.62C60.33,-461.55 79.5,-449.3 98,-442.16 111.04,-437.14 125.44,-433.27 139.37,-430.31"/>
<polygon fill="#757575" stroke="#757575" points="140.28,-433.7 149.4,-428.31 138.91,-426.83 140.28,-433.7"/>
</g>
</g>
</svg>
