<?xml version="1.0" encoding="UTF-8" standalone="no"?>
<!DOCTYPE svg PUBLIC "-//W3C//DTD SVG 1.1//EN"
 "http://www.w3.org/Graphics/SVG/1.1/DTD/svg11.dtd">
<!-- Generated by graphviz version 2.43.0 (0)
 -->
<!-- Title: G Pages: 1 -->
<svg width="2678pt" height="1225pt"
 viewBox="0.00 0.00 2678.20 1225.20" xmlns="http://www.w3.org/2000/svg" xmlns:xlink="http://www.w3.org/1999/xlink">
<g id="graph0" class="graph" transform="scale(1 1) rotate(0) translate(21.6 1203.6)">
<title>G</title>
<polygon fill="#111111" stroke="transparent" points="-21.6,21.6 -21.6,-1203.6 2656.6,-1203.6 2656.6,21.6 -21.6,21.6"/>
<!-- App.js -->
<g id="node1" class="node">
<title>App.js</title>
<path fill="none" stroke="#c6c5fe" d="M226.83,-521C226.83,-521 188.17,-521 188.17,-521 184.33,-521 180.5,-517.17 180.5,-513.33 180.5,-513.33 180.5,-505.67 180.5,-505.67 180.5,-501.83 184.33,-498 188.17,-498 188.17,-498 226.83,-498 226.83,-498 230.67,-498 234.5,-501.83 234.5,-505.67 234.5,-505.67 234.5,-513.33 234.5,-513.33 234.5,-517.17 230.67,-521 226.83,-521"/>
<text text-anchor="middle" x="207.5" y="-505.8" font-family="Arial" font-size="14.00" fill="#c6c5fe">App.js</text>
</g>
<!-- auth/protected&#45;route.js -->
<g id="node2" class="node">
<title>auth/protected&#45;route.js</title>
<path fill="none" stroke="#c6c5fe" d="M512.33,-521C512.33,-521 375.67,-521 375.67,-521 371.83,-521 368,-517.17 368,-513.33 368,-513.33 368,-505.67 368,-505.67 368,-501.83 371.83,-498 375.67,-498 375.67,-498 512.33,-498 512.33,-498 516.17,-498 520,-501.83 520,-505.67 520,-505.67 520,-513.33 520,-513.33 520,-517.17 516.17,-521 512.33,-521"/>
<text text-anchor="middle" x="444" y="-505.8" font-family="Arial" font-size="14.00" fill="#c6c5fe">auth/protected&#45;route.js</text>
</g>
<!-- App.js&#45;&gt;auth/protected&#45;route.js -->
<g id="edge1" class="edge">
<title>App.js&#45;&gt;auth/protected&#45;route.js</title>
<path fill="none" stroke="#757575" d="M234.94,-509.5C264.67,-509.5 314.46,-509.5 357.88,-509.5"/>
<polygon fill="#757575" stroke="#757575" points="357.9,-513 367.9,-509.5 357.9,-506 357.9,-513"/>
</g>
<!-- components/Profile/index.js -->
<g id="node3" class="node">
<title>components/Profile/index.js</title>
<path fill="none" stroke="#c6c5fe" d="M527.33,-480C527.33,-480 360.67,-480 360.67,-480 356.83,-480 353,-476.17 353,-472.33 353,-472.33 353,-464.67 353,-464.67 353,-460.83 356.83,-457 360.67,-457 360.67,-457 527.33,-457 527.33,-457 531.17,-457 535,-460.83 535,-464.67 535,-464.67 535,-472.33 535,-472.33 535,-476.17 531.17,-480 527.33,-480"/>
<text text-anchor="middle" x="444" y="-464.8" font-family="Arial" font-size="14.00" fill="#c6c5fe">components/Profile/index.js</text>
</g>
<!-- App.js&#45;&gt;components/Profile/index.js -->
<g id="edge2" class="edge">
<title>App.js&#45;&gt;components/Profile/index.js</title>
<path fill="none" stroke="#757575" d="M234.94,-504.88C266.79,-499.31 321.67,-489.71 367.07,-481.77"/>
<polygon fill="#757575" stroke="#757575" points="367.95,-485.17 377.2,-480 366.75,-478.28 367.95,-485.17"/>
</g>
<!-- components/index.js -->
<g id="node4" class="node">
<title>components/index.js</title>
<path fill="none" stroke="#c6c5fe" d="M730.83,-541C730.83,-541 606.17,-541 606.17,-541 602.33,-541 598.5,-537.17 598.5,-533.33 598.5,-533.33 598.5,-525.67 598.5,-525.67 598.5,-521.83 602.33,-518 606.17,-518 606.17,-518 730.83,-518 730.83,-518 734.67,-518 738.5,-521.83 738.5,-525.67 738.5,-525.67 738.5,-533.33 738.5,-533.33 738.5,-537.17 734.67,-541 730.83,-541"/>
<text text-anchor="middle" x="668.5" y="-525.8" font-family="Arial" font-size="14.00" fill="#c6c5fe">components/index.js</text>
</g>
<!-- App.js&#45;&gt;components/index.js -->
<g id="edge3" class="edge">
<title>App.js&#45;&gt;components/index.js</title>
<path fill="none" stroke="#757575" d="M234.74,-514.48C263.6,-519.68 311.41,-527.49 353,-530.5 433.68,-536.33 454.11,-530.81 535,-530.5 552.21,-530.44 570.68,-530.32 588.2,-530.2"/>
<polygon fill="#757575" stroke="#757575" points="588.41,-533.69 598.39,-530.12 588.36,-526.69 588.41,-533.69"/>
</g>
<!-- auth/protected&#45;route.js&#45;&gt;components/index.js -->
<g id="edge4" class="edge">
<title>auth/protected&#45;route.js&#45;&gt;components/index.js</title>
<path fill="none" stroke="#757575" d="M520.02,-516.24C542.01,-518.22 566.12,-520.39 588.36,-522.39"/>
<polygon fill="#757575" stroke="#757575" points="588.16,-525.88 598.43,-523.29 588.78,-518.91 588.16,-525.88"/>
</g>
<!-- components/Profile/Profile.jsx -->
<g id="node44" class="node">
<title>components/Profile/Profile.jsx</title>
<path fill="none" stroke="#cfffac" d="M758.33,-480C758.33,-480 578.67,-480 578.67,-480 574.83,-480 571,-476.17 571,-472.33 571,-472.33 571,-464.67 571,-464.67 571,-460.83 574.83,-457 578.67,-457 578.67,-457 758.33,-457 758.33,-457 762.17,-457 766,-460.83 766,-464.67 766,-464.67 766,-472.33 766,-472.33 766,-476.17 762.17,-480 758.33,-480"/>
<text text-anchor="middle" x="668.5" y="-464.8" font-family="Arial" font-size="14.00" fill="#cfffac">components/Profile/Profile.jsx</text>
</g>
<!-- components/Profile/index.js&#45;&gt;components/Profile/Profile.jsx -->
<g id="edge57" class="edge">
<title>components/Profile/index.js&#45;&gt;components/Profile/Profile.jsx</title>
<path fill="none" stroke="#757575" d="M535.18,-468.5C543.49,-468.5 551.96,-468.5 560.39,-468.5"/>
<polygon fill="#757575" stroke="#757575" points="560.66,-472 570.66,-468.5 560.66,-465 560.66,-472"/>
</g>
<!-- components/Common/Input/index.js -->
<g id="node10" class="node">
<title>components/Common/Input/index.js</title>
<path fill="none" stroke="#c6c5fe" d="M2326.33,-742C2326.33,-742 2107.67,-742 2107.67,-742 2103.83,-742 2100,-738.17 2100,-734.33 2100,-734.33 2100,-726.67 2100,-726.67 2100,-722.83 2103.83,-719 2107.67,-719 2107.67,-719 2326.33,-719 2326.33,-719 2330.17,-719 2334,-722.83 2334,-726.67 2334,-726.67 2334,-734.33 2334,-734.33 2334,-738.17 2330.17,-742 2326.33,-742"/>
<text text-anchor="middle" x="2217" y="-726.8" font-family="Arial" font-size="14.00" fill="#c6c5fe">components/Common/Input/index.js</text>
</g>
<!-- components/index.js&#45;&gt;components/Common/Input/index.js -->
<g id="edge80" class="edge">
<title>components/index.js&#45;&gt;components/Common/Input/index.js</title>
<path fill="none" stroke="#757575" d="M677.67,-541.35C696.52,-567.81 745.75,-632.16 802,-667.5 973.85,-775.47 1033.05,-809.5 1236,-809.5 1236,-809.5 1236,-809.5 1581,-809.5 1607.46,-809.5 1946.44,-765.72 2117.97,-743.34"/>
<polygon fill="#757575" stroke="#757575" points="2118.56,-746.79 2128.02,-742.03 2117.65,-739.85 2118.56,-746.79"/>
</g>
<!-- components/Common/Modal/index.js -->
<g id="node11" class="node">
<title>components/Common/Modal/index.js</title>
<path fill="none" stroke="#c6c5fe" d="M1693.33,-1020C1693.33,-1020 1466.67,-1020 1466.67,-1020 1462.83,-1020 1459,-1016.17 1459,-1012.33 1459,-1012.33 1459,-1004.67 1459,-1004.67 1459,-1000.83 1462.83,-997 1466.67,-997 1466.67,-997 1693.33,-997 1693.33,-997 1697.17,-997 1701,-1000.83 1701,-1004.67 1701,-1004.67 1701,-1012.33 1701,-1012.33 1701,-1016.17 1697.17,-1020 1693.33,-1020"/>
<text text-anchor="middle" x="1580" y="-1004.8" font-family="Arial" font-size="14.00" fill="#c6c5fe">components/Common/Modal/index.js</text>
</g>
<!-- components/index.js&#45;&gt;components/Common/Modal/index.js -->
<g id="edge81" class="edge">
<title>components/index.js&#45;&gt;components/Common/Modal/index.js</title>
<path fill="none" stroke="#757575" d="M670.13,-541.21C673.43,-590.27 693.11,-780.93 802,-870.5 898.79,-950.11 1254.05,-986.41 1448.93,-1000.65"/>
<polygon fill="#757575" stroke="#757575" points="1448.72,-1004.14 1458.95,-1001.37 1449.22,-997.16 1448.72,-1004.14"/>
</g>
<!-- components/Common/Select/index.js -->
<g id="node12" class="node">
<title>components/Common/Select/index.js</title>
<path fill="none" stroke="#c6c5fe" d="M1693.33,-740C1693.33,-740 1466.67,-740 1466.67,-740 1462.83,-740 1459,-736.17 1459,-732.33 1459,-732.33 1459,-724.67 1459,-724.67 1459,-720.83 1462.83,-717 1466.67,-717 1466.67,-717 1693.33,-717 1693.33,-717 1697.17,-717 1701,-720.83 1701,-724.67 1701,-724.67 1701,-732.33 1701,-732.33 1701,-736.17 1697.17,-740 1693.33,-740"/>
<text text-anchor="middle" x="1580" y="-724.8" font-family="Arial" font-size="14.00" fill="#c6c5fe">components/Common/Select/index.js</text>
</g>
<!-- components/index.js&#45;&gt;components/Common/Select/index.js -->
<g id="edge82" class="edge">
<title>components/index.js&#45;&gt;components/Common/Select/index.js</title>
<path fill="none" stroke="#757575" d="M703.01,-541.07C729.65,-550.03 767.96,-562.41 802,-571.5 1078.01,-645.18 1148.64,-659.01 1430,-708.5 1444.2,-711 1459.21,-713.35 1474.03,-715.5"/>
<polygon fill="#757575" stroke="#757575" points="1473.84,-719.01 1484.23,-716.96 1474.83,-712.08 1473.84,-719.01"/>
</g>
<!-- components/Common/TitleText/index.js -->
<g id="node13" class="node">
<title>components/Common/TitleText/index.js</title>
<path fill="none" stroke="#c6c5fe" d="M1699.33,-342C1699.33,-342 1460.67,-342 1460.67,-342 1456.83,-342 1453,-338.17 1453,-334.33 1453,-334.33 1453,-326.67 1453,-326.67 1453,-322.83 1456.83,-319 1460.67,-319 1460.67,-319 1699.33,-319 1699.33,-319 1703.17,-319 1707,-322.83 1707,-326.67 1707,-326.67 1707,-334.33 1707,-334.33 1707,-338.17 1703.17,-342 1699.33,-342"/>
<text text-anchor="middle" x="1580" y="-326.8" font-family="Arial" font-size="14.00" fill="#c6c5fe">components/Common/TitleText/index.js</text>
</g>
<!-- components/index.js&#45;&gt;components/Common/TitleText/index.js -->
<g id="edge83" class="edge">
<title>components/index.js&#45;&gt;components/Common/TitleText/index.js</title>
<path fill="none" stroke="#757575" d="M712.34,-517.84C730.24,-511.5 750.45,-502.28 766,-489.5 788.29,-471.19 777.54,-450.79 802,-435.5 906.05,-370.48 1248.87,-344.96 1442.57,-335.56"/>
<polygon fill="#757575" stroke="#757575" points="1443,-339.04 1452.83,-335.07 1442.67,-332.05 1443,-339.04"/>
</g>
<!-- components/Reminder/index.js -->
<g id="node14" class="node">
<title>components/Reminder/index.js</title>
<path fill="none" stroke="#c6c5fe" d="M1673.83,-781C1673.83,-781 1486.17,-781 1486.17,-781 1482.33,-781 1478.5,-777.17 1478.5,-773.33 1478.5,-773.33 1478.5,-765.67 1478.5,-765.67 1478.5,-761.83 1482.33,-758 1486.17,-758 1486.17,-758 1673.83,-758 1673.83,-758 1677.67,-758 1681.5,-761.83 1681.5,-765.67 1681.5,-765.67 1681.5,-773.33 1681.5,-773.33 1681.5,-777.17 1677.67,-781 1673.83,-781"/>
<text text-anchor="middle" x="1580" y="-765.8" font-family="Arial" font-size="14.00" fill="#c6c5fe">components/Reminder/index.js</text>
</g>
<!-- components/index.js&#45;&gt;components/Reminder/index.js -->
<g id="edge88" class="edge">
<title>components/index.js&#45;&gt;components/Reminder/index.js</title>
<path fill="none" stroke="#757575" d="M683.68,-541.01C706.99,-559.38 755.46,-595.3 802,-615.5 1026.2,-712.81 1313.58,-749.23 1468.37,-762.4"/>
<polygon fill="#757575" stroke="#757575" points="1468.12,-765.9 1478.37,-763.24 1468.7,-758.92 1468.12,-765.9"/>
</g>
<!-- components/AddressForm/index.js -->
<g id="node16" class="node">
<title>components/AddressForm/index.js</title>
<path fill="none" stroke="#c6c5fe" d="M1028.33,-861C1028.33,-861 817.67,-861 817.67,-861 813.83,-861 810,-857.17 810,-853.33 810,-853.33 810,-845.67 810,-845.67 810,-841.83 813.83,-838 817.67,-838 817.67,-838 1028.33,-838 1028.33,-838 1032.17,-838 1036,-841.83 1036,-845.67 1036,-845.67 1036,-853.33 1036,-853.33 1036,-857.17 1032.17,-861 1028.33,-861"/>
<text text-anchor="middle" x="923" y="-845.8" font-family="Arial" font-size="14.00" fill="#c6c5fe">components/AddressForm/index.js</text>
</g>
<!-- components/index.js&#45;&gt;components/AddressForm/index.js -->
<g id="edge75" class="edge">
<title>components/index.js&#45;&gt;components/AddressForm/index.js</title>
<path fill="none" stroke="#757575" d="M670.99,-541.01C677.35,-585.31 706.47,-746.19 802,-823.5 806.89,-827.46 812.25,-830.85 817.91,-833.76"/>
<polygon fill="#757575" stroke="#757575" points="816.47,-836.94 827.02,-837.93 819.38,-830.58 816.47,-836.94"/>
</g>
<!-- components/Common/Button/index.jsx -->
<g id="node22" class="node">
<title>components/Common/Button/index.jsx</title>
<path fill="none" stroke="#c6c5fe" d="M2334.33,-342C2334.33,-342 2099.67,-342 2099.67,-342 2095.83,-342 2092,-338.17 2092,-334.33 2092,-334.33 2092,-326.67 2092,-326.67 2092,-322.83 2095.83,-319 2099.67,-319 2099.67,-319 2334.33,-319 2334.33,-319 2338.17,-319 2342,-322.83 2342,-326.67 2342,-326.67 2342,-334.33 2342,-334.33 2342,-338.17 2338.17,-342 2334.33,-342"/>
<text text-anchor="middle" x="2217" y="-326.8" font-family="Arial" font-size="14.00" fill="#c6c5fe">components/Common/Button/index.jsx</text>
</g>
<!-- components/index.js&#45;&gt;components/Common/Button/index.jsx -->
<g id="edge79" class="edge">
<title>components/index.js&#45;&gt;components/Common/Button/index.jsx</title>
<path fill="none" stroke="#757575" d="M722.6,-517.99C738.71,-512.02 755.02,-503.02 766,-489.5 820.46,-422.44 738.5,-357.07 802,-298.5 873.29,-232.74 1139.02,-252.5 1236,-252.5 1236,-252.5 1236,-252.5 1581,-252.5 1793.01,-252.5 1846.39,-264.63 2056,-296.5 2090.43,-301.73 2128.59,-309.76 2159.01,-316.69"/>
<polygon fill="#757575" stroke="#757575" points="2158.48,-320.16 2169.01,-319 2160.05,-313.34 2158.48,-320.16"/>
</g>
<!-- components/Authority/index.js -->
<g id="node23" class="node">
<title>components/Authority/index.js</title>
<path fill="none" stroke="#c6c5fe" d="M1327.83,-124C1327.83,-124 1146.17,-124 1146.17,-124 1142.33,-124 1138.5,-120.17 1138.5,-116.33 1138.5,-116.33 1138.5,-108.67 1138.5,-108.67 1138.5,-104.83 1142.33,-101 1146.17,-101 1146.17,-101 1327.83,-101 1327.83,-101 1331.67,-101 1335.5,-104.83 1335.5,-108.67 1335.5,-108.67 1335.5,-116.33 1335.5,-116.33 1335.5,-120.17 1331.67,-124 1327.83,-124"/>
<text text-anchor="middle" x="1237" y="-108.8" font-family="Arial" font-size="14.00" fill="#c6c5fe">components/Authority/index.js</text>
</g>
<!-- components/index.js&#45;&gt;components/Authority/index.js -->
<g id="edge76" class="edge">
<title>components/index.js&#45;&gt;components/Authority/index.js</title>
<path fill="none" stroke="#757575" d="M724.76,-517.93C740.4,-511.98 755.9,-503.01 766,-489.5 810.98,-429.37 748.57,-206.27 802,-153.5 903.6,-53.16 1091.19,-78.46 1182.82,-98.7"/>
<polygon fill="#757575" stroke="#757575" points="1182.19,-102.14 1192.71,-100.95 1183.74,-95.32 1182.19,-102.14"/>
</g>
<!-- components/Checkout/index.js -->
<g id="node26" class="node">
<title>components/Checkout/index.js</title>
<path fill="none" stroke="#c6c5fe" d="M1015.83,-1000C1015.83,-1000 830.17,-1000 830.17,-1000 826.33,-1000 822.5,-996.17 822.5,-992.33 822.5,-992.33 822.5,-984.67 822.5,-984.67 822.5,-980.83 826.33,-977 830.17,-977 830.17,-977 1015.83,-977 1015.83,-977 1019.67,-977 1023.5,-980.83 1023.5,-984.67 1023.5,-984.67 1023.5,-992.33 1023.5,-992.33 1023.5,-996.17 1019.67,-1000 1015.83,-1000"/>
<text text-anchor="middle" x="923" y="-984.8" font-family="Arial" font-size="14.00" fill="#c6c5fe">components/Checkout/index.js</text>
</g>
<!-- components/index.js&#45;&gt;components/Checkout/index.js -->
<g id="edge77" class="edge">
<title>components/index.js&#45;&gt;components/Checkout/index.js</title>
<path fill="none" stroke="#757575" d="M669.75,-541.14C671.51,-594.66 685.83,-819.69 802,-942.5 815.58,-956.86 834.12,-966.78 852.57,-973.63"/>
<polygon fill="#757575" stroke="#757575" points="851.59,-976.99 862.19,-976.94 853.87,-970.37 851.59,-976.99"/>
</g>
<!-- components/Common/BodyText/index.jsx -->
<g id="node28" class="node">
<title>components/Common/BodyText/index.jsx</title>
<path fill="none" stroke="#c6c5fe" d="M1705.33,-224C1705.33,-224 1454.67,-224 1454.67,-224 1450.83,-224 1447,-220.17 1447,-216.33 1447,-216.33 1447,-208.67 1447,-208.67 1447,-204.83 1450.83,-201 1454.67,-201 1454.67,-201 1705.33,-201 1705.33,-201 1709.17,-201 1713,-204.83 1713,-208.67 1713,-208.67 1713,-216.33 1713,-216.33 1713,-220.17 1709.17,-224 1705.33,-224"/>
<text text-anchor="middle" x="1580" y="-208.8" font-family="Arial" font-size="14.00" fill="#c6c5fe">components/Common/BodyText/index.jsx</text>
</g>
<!-- components/index.js&#45;&gt;components/Common/BodyText/index.jsx -->
<g id="edge78" class="edge">
<title>components/index.js&#45;&gt;components/Common/BodyText/index.jsx</title>
<path fill="none" stroke="#757575" d="M723.71,-517.99C739.59,-512.03 755.49,-503.04 766,-489.5 835.11,-400.48 718.09,-313.73 802,-238.5 847.98,-197.28 1225.28,-201.71 1436.72,-207.58"/>
<polygon fill="#757575" stroke="#757575" points="1436.87,-211.09 1446.97,-207.87 1437.07,-204.09 1436.87,-211.09"/>
</g>
<!-- components/OtherAmount/index.js -->
<g id="node35" class="node">
<title>components/OtherAmount/index.js</title>
<path fill="none" stroke="#c6c5fe" d="M1685.33,-581C1685.33,-581 1474.67,-581 1474.67,-581 1470.83,-581 1467,-577.17 1467,-573.33 1467,-573.33 1467,-565.67 1467,-565.67 1467,-561.83 1470.83,-558 1474.67,-558 1474.67,-558 1685.33,-558 1685.33,-558 1689.17,-558 1693,-561.83 1693,-565.67 1693,-565.67 1693,-573.33 1693,-573.33 1693,-577.17 1689.17,-581 1685.33,-581"/>
<text text-anchor="middle" x="1580" y="-565.8" font-family="Arial" font-size="14.00" fill="#c6c5fe">components/OtherAmount/index.js</text>
</g>
<!-- components/index.js&#45;&gt;components/OtherAmount/index.js -->
<g id="edge86" class="edge">
<title>components/index.js&#45;&gt;components/OtherAmount/index.js</title>
<path fill="none" stroke="#757575" d="M731.3,-541.04C753.51,-544.72 778.81,-548.39 802,-550.5 1032.54,-571.49 1303.04,-572.88 1456.4,-571.51"/>
<polygon fill="#757575" stroke="#757575" points="1456.82,-575.01 1466.79,-571.42 1456.75,-568.01 1456.82,-575.01"/>
</g>
<!-- components/Donations/index.js -->
<g id="node36" class="node">
<title>components/Donations/index.js</title>
<path fill="none" stroke="#c6c5fe" d="M1017.83,-467C1017.83,-467 828.17,-467 828.17,-467 824.33,-467 820.5,-463.17 820.5,-459.33 820.5,-459.33 820.5,-451.67 820.5,-451.67 820.5,-447.83 824.33,-444 828.17,-444 828.17,-444 1017.83,-444 1017.83,-444 1021.67,-444 1025.5,-447.83 1025.5,-451.67 1025.5,-451.67 1025.5,-459.33 1025.5,-459.33 1025.5,-463.17 1021.67,-467 1017.83,-467"/>
<text text-anchor="middle" x="923" y="-451.8" font-family="Arial" font-size="14.00" fill="#c6c5fe">components/Donations/index.js</text>
</g>
<!-- components/index.js&#45;&gt;components/Donations/index.js -->
<g id="edge84" class="edge">
<title>components/index.js&#45;&gt;components/Donations/index.js</title>
<path fill="none" stroke="#757575" d="M708.95,-517.94C753.11,-505 824.72,-484.01 872.58,-469.98"/>
<polygon fill="#757575" stroke="#757575" points="873.8,-473.27 882.41,-467.1 871.83,-466.56 873.8,-473.27"/>
</g>
<!-- components/MobileTextForm/index.js -->
<g id="node40" class="node">
<title>components/MobileTextForm/index.js</title>
<path fill="none" stroke="#c6c5fe" d="M1036.33,-541C1036.33,-541 809.67,-541 809.67,-541 805.83,-541 802,-537.17 802,-533.33 802,-533.33 802,-525.67 802,-525.67 802,-521.83 805.83,-518 809.67,-518 809.67,-518 1036.33,-518 1036.33,-518 1040.17,-518 1044,-521.83 1044,-525.67 1044,-525.67 1044,-533.33 1044,-533.33 1044,-537.17 1040.17,-541 1036.33,-541"/>
<text text-anchor="middle" x="923" y="-525.8" font-family="Arial" font-size="14.00" fill="#c6c5fe">components/MobileTextForm/index.js</text>
</g>
<!-- components/index.js&#45;&gt;components/MobileTextForm/index.js -->
<g id="edge85" class="edge">
<title>components/index.js&#45;&gt;components/MobileTextForm/index.js</title>
<path fill="none" stroke="#757575" d="M738.83,-529.5C755.34,-529.5 773.49,-529.5 791.75,-529.5"/>
<polygon fill="#757575" stroke="#757575" points="791.89,-533 801.89,-529.5 791.89,-526 791.89,-533"/>
</g>
<!-- components/PrayerCard/index.js -->
<g id="node43" class="node">
<title>components/PrayerCard/index.js</title>
<path fill="none" stroke="#c6c5fe" d="M1021.83,-331C1021.83,-331 824.17,-331 824.17,-331 820.33,-331 816.5,-327.17 816.5,-323.33 816.5,-323.33 816.5,-315.67 816.5,-315.67 816.5,-311.83 820.33,-308 824.17,-308 824.17,-308 1021.83,-308 1021.83,-308 1025.67,-308 1029.5,-311.83 1029.5,-315.67 1029.5,-315.67 1029.5,-323.33 1029.5,-323.33 1029.5,-327.17 1025.67,-331 1021.83,-331"/>
<text text-anchor="middle" x="923" y="-315.8" font-family="Arial" font-size="14.00" fill="#c6c5fe">components/PrayerCard/index.js</text>
</g>
<!-- components/index.js&#45;&gt;components/PrayerCard/index.js -->
<g id="edge87" class="edge">
<title>components/index.js&#45;&gt;components/PrayerCard/index.js</title>
<path fill="none" stroke="#757575" d="M721.08,-517.93C737.46,-511.92 754.34,-502.91 766,-489.5 807.87,-441.34 756.86,-395.61 802,-350.5 808.13,-344.38 815.29,-339.41 823.02,-335.4"/>
<polygon fill="#757575" stroke="#757575" points="824.71,-338.47 832.32,-331.1 821.77,-332.12 824.71,-338.47"/>
</g>
<!-- components/ThankYou/index.js -->
<g id="node52" class="node">
<title>components/ThankYou/index.js</title>
<path fill="none" stroke="#c6c5fe" d="M1018.33,-186C1018.33,-186 827.67,-186 827.67,-186 823.83,-186 820,-182.17 820,-178.33 820,-178.33 820,-170.67 820,-170.67 820,-166.83 823.83,-163 827.67,-163 827.67,-163 1018.33,-163 1018.33,-163 1022.17,-163 1026,-166.83 1026,-170.67 1026,-170.67 1026,-178.33 1026,-178.33 1026,-182.17 1022.17,-186 1018.33,-186"/>
<text text-anchor="middle" x="923" y="-170.8" font-family="Arial" font-size="14.00" fill="#c6c5fe">components/ThankYou/index.js</text>
</g>
<!-- components/index.js&#45;&gt;components/ThankYou/index.js -->
<g id="edge89" class="edge">
<title>components/index.js&#45;&gt;components/ThankYou/index.js</title>
<path fill="none" stroke="#757575" d="M724.37,-517.92C740.08,-511.96 755.73,-502.99 766,-489.5 844.43,-386.53 714.66,-296.03 802,-200.5 805.12,-197.09 808.57,-194.07 812.27,-191.4"/>
<polygon fill="#757575" stroke="#757575" points="814.13,-194.36 820.76,-186.1 810.42,-188.43 814.13,-194.36"/>
</g>
<!-- atoms.js -->
<g id="node5" class="node">
<title>atoms.js</title>
<path fill="none" stroke="#cfffac" d="M2532.83,-661C2532.83,-661 2480.17,-661 2480.17,-661 2476.33,-661 2472.5,-657.17 2472.5,-653.33 2472.5,-653.33 2472.5,-645.67 2472.5,-645.67 2472.5,-641.83 2476.33,-638 2480.17,-638 2480.17,-638 2532.83,-638 2532.83,-638 2536.67,-638 2540.5,-641.83 2540.5,-645.67 2540.5,-645.67 2540.5,-653.33 2540.5,-653.33 2540.5,-657.17 2536.67,-661 2532.83,-661"/>
<text text-anchor="middle" x="2506.5" y="-645.8" font-family="Arial" font-size="14.00" fill="#cfffac">atoms.js</text>
</g>
<!-- auth/auth0&#45;provider&#45;with&#45;history.js -->
<g id="node6" class="node">
<title>auth/auth0&#45;provider&#45;with&#45;history.js</title>
<path fill="none" stroke="#cfffac" d="M309.33,-480C309.33,-480 105.67,-480 105.67,-480 101.83,-480 98,-476.17 98,-472.33 98,-472.33 98,-464.67 98,-464.67 98,-460.83 101.83,-457 105.67,-457 105.67,-457 309.33,-457 309.33,-457 313.17,-457 317,-460.83 317,-464.67 317,-464.67 317,-472.33 317,-472.33 317,-476.17 313.17,-480 309.33,-480"/>
<text text-anchor="middle" x="207.5" y="-464.8" font-family="Arial" font-size="14.00" fill="#cfffac">auth/auth0&#45;provider&#45;with&#45;history.js</text>
</g>
<!-- components/AddressForm/AddressForm.jsx -->
<g id="node7" class="node">
<title>components/AddressForm/AddressForm.jsx</title>
<path fill="none" stroke="#c6c5fe" d="M1370.33,-861C1370.33,-861 1103.67,-861 1103.67,-861 1099.83,-861 1096,-857.17 1096,-853.33 1096,-853.33 1096,-845.67 1096,-845.67 1096,-841.83 1099.83,-838 1103.67,-838 1103.67,-838 1370.33,-838 1370.33,-838 1374.17,-838 1378,-841.83 1378,-845.67 1378,-845.67 1378,-853.33 1378,-853.33 1378,-857.17 1374.17,-861 1370.33,-861"/>
<text text-anchor="middle" x="1237" y="-845.8" font-family="Arial" font-size="14.00" fill="#c6c5fe">components/AddressForm/AddressForm.jsx</text>
</g>
<!-- components/AddressForm/AddressForm.jsx&#45;&gt;atoms.js -->
<g id="edge5" class="edge">
<title>components/AddressForm/AddressForm.jsx&#45;&gt;atoms.js</title>
<path fill="none" stroke="#757575" d="M1253.87,-861.2C1285.43,-883.67 1359.18,-932.16 1430,-949.5 1700.82,-1015.8 1790.78,-994.5 2056,-908.5 2193.93,-863.77 2228.9,-842.24 2342,-751.5 2360.91,-736.32 2358.67,-725.14 2378,-710.5 2403.76,-690.99 2436.75,-675.41 2462.72,-664.88"/>
<polygon fill="#757575" stroke="#757575" points="2464.29,-668.03 2472.3,-661.1 2461.71,-661.52 2464.29,-668.03"/>
</g>
<!-- components/AddressForm/AddressSchema.js -->
<g id="node8" class="node">
<title>components/AddressForm/AddressSchema.js</title>
<path fill="none" stroke="#cfffac" d="M1718.83,-940C1718.83,-940 1441.17,-940 1441.17,-940 1437.33,-940 1433.5,-936.17 1433.5,-932.33 1433.5,-932.33 1433.5,-924.67 1433.5,-924.67 1433.5,-920.83 1437.33,-917 1441.17,-917 1441.17,-917 1718.83,-917 1718.83,-917 1722.67,-917 1726.5,-920.83 1726.5,-924.67 1726.5,-924.67 1726.5,-932.33 1726.5,-932.33 1726.5,-936.17 1722.67,-940 1718.83,-940"/>
<text text-anchor="middle" x="1580" y="-924.8" font-family="Arial" font-size="14.00" fill="#cfffac">components/AddressForm/AddressSchema.js</text>
</g>
<!-- components/AddressForm/AddressForm.jsx&#45;&gt;components/AddressForm/AddressSchema.js -->
<g id="edge6" class="edge">
<title>components/AddressForm/AddressForm.jsx&#45;&gt;components/AddressForm/AddressSchema.js</title>
<path fill="none" stroke="#757575" d="M1269.84,-861.06C1307.58,-874.34 1372.6,-895.92 1430,-908.5 1441.77,-911.08 1454.14,-913.38 1466.51,-915.42"/>
<polygon fill="#757575" stroke="#757575" points="1465.99,-918.88 1476.42,-916.99 1467.09,-911.96 1465.99,-918.88"/>
</g>
<!-- components/AddressForm/options.js -->
<g id="node9" class="node">
<title>components/AddressForm/options.js</title>
<path fill="none" stroke="#c6c5fe" d="M1690.83,-899C1690.83,-899 1469.17,-899 1469.17,-899 1465.33,-899 1461.5,-895.17 1461.5,-891.33 1461.5,-891.33 1461.5,-883.67 1461.5,-883.67 1461.5,-879.83 1465.33,-876 1469.17,-876 1469.17,-876 1690.83,-876 1690.83,-876 1694.67,-876 1698.5,-879.83 1698.5,-883.67 1698.5,-883.67 1698.5,-891.33 1698.5,-891.33 1698.5,-895.17 1694.67,-899 1690.83,-899"/>
<text text-anchor="middle" x="1580" y="-883.8" font-family="Arial" font-size="14.00" fill="#c6c5fe">components/AddressForm/options.js</text>
</g>
<!-- components/AddressForm/AddressForm.jsx&#45;&gt;components/AddressForm/options.js -->
<g id="edge7" class="edge">
<title>components/AddressForm/AddressForm.jsx&#45;&gt;components/AddressForm/options.js</title>
<path fill="none" stroke="#757575" d="M1341.24,-861C1380.45,-865.37 1425.32,-870.37 1465.44,-874.84"/>
<polygon fill="#757575" stroke="#757575" points="1465.2,-878.34 1475.53,-875.97 1465.98,-871.38 1465.2,-878.34"/>
</g>
<!-- components/AddressForm/AddressForm.jsx&#45;&gt;components/Common/Input/index.js -->
<g id="edge8" class="edge">
<title>components/AddressForm/AddressForm.jsx&#45;&gt;components/Common/Input/index.js</title>
<path fill="none" stroke="#757575" d="M1378.14,-853.29C1577.62,-857.27 1932.9,-858.78 2056,-823.5 2109.69,-808.11 2164.24,-770.74 2193.73,-748.33"/>
<polygon fill="#757575" stroke="#757575" points="2195.93,-751.06 2201.7,-742.17 2191.65,-745.52 2195.93,-751.06"/>
</g>
<!-- components/AddressForm/AddressForm.jsx&#45;&gt;components/Common/Modal/index.js -->
<g id="edge9" class="edge">
<title>components/AddressForm/AddressForm.jsx&#45;&gt;components/Common/Modal/index.js</title>
<path fill="none" stroke="#757575" d="M1288.53,-861.02C1321.71,-870.7 1364.3,-887.42 1394,-914.5 1419.27,-937.54 1402.33,-962.4 1430,-982.5 1435.99,-986.85 1442.46,-990.56 1449.25,-993.71"/>
<polygon fill="#757575" stroke="#757575" points="1448.1,-997.03 1458.67,-997.68 1450.81,-990.57 1448.1,-997.03"/>
</g>
<!-- components/AddressForm/AddressForm.jsx&#45;&gt;components/Common/Select/index.js -->
<g id="edge10" class="edge">
<title>components/AddressForm/AddressForm.jsx&#45;&gt;components/Common/Select/index.js</title>
<path fill="none" stroke="#757575" d="M1255.37,-837.84C1288.02,-816.52 1361.46,-771.46 1430,-749.5 1438.68,-746.72 1447.76,-744.31 1456.97,-742.21"/>
<polygon fill="#757575" stroke="#757575" points="1457.96,-745.58 1467,-740.06 1456.49,-738.74 1457.96,-745.58"/>
</g>
<!-- components/AddressForm/AddressForm.jsx&#45;&gt;components/Common/TitleText/index.js -->
<g id="edge11" class="edge">
<title>components/AddressForm/AddressForm.jsx&#45;&gt;components/Common/TitleText/index.js</title>
<path fill="none" stroke="#757575" d="M1245.09,-837.93C1268.86,-798.78 1346.85,-667.22 1394,-550.5 1415.17,-498.08 1396.33,-473.91 1430,-428.5 1458.57,-389.97 1507.13,-362.18 1541.03,-346.24"/>
<polygon fill="#757575" stroke="#757575" points="1542.53,-349.41 1550.17,-342.07 1539.62,-343.04 1542.53,-349.41"/>
</g>
<!-- components/AddressForm/AddressForm.jsx&#45;&gt;components/Reminder/index.js -->
<g id="edge12" class="edge">
<title>components/AddressForm/AddressForm.jsx&#45;&gt;components/Reminder/index.js</title>
<path fill="none" stroke="#757575" d="M1287.22,-837.95C1348.8,-823.51 1454.13,-798.79 1519.98,-783.35"/>
<polygon fill="#757575" stroke="#757575" points="1520.86,-786.74 1529.79,-781.04 1519.26,-779.92 1520.86,-786.74"/>
</g>
<!-- integrations/donationAPI.js -->
<g id="node15" class="node">
<title>integrations/donationAPI.js</title>
<path fill="none" stroke="#cfffac" d="M1660.83,-699C1660.83,-699 1499.17,-699 1499.17,-699 1495.33,-699 1491.5,-695.17 1491.5,-691.33 1491.5,-691.33 1491.5,-683.67 1491.5,-683.67 1491.5,-679.83 1495.33,-676 1499.17,-676 1499.17,-676 1660.83,-676 1660.83,-676 1664.67,-676 1668.5,-679.83 1668.5,-683.67 1668.5,-683.67 1668.5,-691.33 1668.5,-691.33 1668.5,-695.17 1664.67,-699 1660.83,-699"/>
<text text-anchor="middle" x="1580" y="-683.8" font-family="Arial" font-size="14.00" fill="#cfffac">integrations/donationAPI.js</text>
</g>
<!-- components/AddressForm/AddressForm.jsx&#45;&gt;integrations/donationAPI.js -->
<g id="edge13" class="edge">
<title>components/AddressForm/AddressForm.jsx&#45;&gt;integrations/donationAPI.js</title>
<path fill="none" stroke="#757575" d="M1249.28,-837.94C1277.08,-810.27 1352.25,-740.16 1430,-708.5 1445.98,-701.99 1463.63,-697.45 1481.02,-694.28"/>
<polygon fill="#757575" stroke="#757575" points="1481.94,-697.68 1491.22,-692.57 1480.78,-690.77 1481.94,-697.68"/>
</g>
<!-- components/AddressForm/statesList.js -->
<g id="node17" class="node">
<title>components/AddressForm/statesList.js</title>
<path fill="none" stroke="#cfffac" d="M2028.83,-899C2028.83,-899 1793.17,-899 1793.17,-899 1789.33,-899 1785.5,-895.17 1785.5,-891.33 1785.5,-891.33 1785.5,-883.67 1785.5,-883.67 1785.5,-879.83 1789.33,-876 1793.17,-876 1793.17,-876 2028.83,-876 2028.83,-876 2032.67,-876 2036.5,-879.83 2036.5,-883.67 2036.5,-883.67 2036.5,-891.33 2036.5,-891.33 2036.5,-895.17 2032.67,-899 2028.83,-899"/>
<text text-anchor="middle" x="1911" y="-883.8" font-family="Arial" font-size="14.00" fill="#cfffac">components/AddressForm/statesList.js</text>
</g>
<!-- components/AddressForm/options.js&#45;&gt;components/AddressForm/statesList.js -->
<g id="edge15" class="edge">
<title>components/AddressForm/options.js&#45;&gt;components/AddressForm/statesList.js</title>
<path fill="none" stroke="#757575" d="M1698.85,-887.5C1723.67,-887.5 1750.04,-887.5 1775.42,-887.5"/>
<polygon fill="#757575" stroke="#757575" points="1775.47,-891 1785.47,-887.5 1775.47,-884 1775.47,-891"/>
</g>
<!-- components/Common/Input/Input.jsx -->
<g id="node30" class="node">
<title>components/Common/Input/Input.jsx</title>
<path fill="none" stroke="#cfffac" d="M2618.33,-742C2618.33,-742 2394.67,-742 2394.67,-742 2390.83,-742 2387,-738.17 2387,-734.33 2387,-734.33 2387,-726.67 2387,-726.67 2387,-722.83 2390.83,-719 2394.67,-719 2394.67,-719 2618.33,-719 2618.33,-719 2622.17,-719 2626,-722.83 2626,-726.67 2626,-726.67 2626,-734.33 2626,-734.33 2626,-738.17 2622.17,-742 2618.33,-742"/>
<text text-anchor="middle" x="2506.5" y="-726.8" font-family="Arial" font-size="14.00" fill="#cfffac">components/Common/Input/Input.jsx</text>
</g>
<!-- components/Common/Input/index.js&#45;&gt;components/Common/Input/Input.jsx -->
<g id="edge28" class="edge">
<title>components/Common/Input/index.js&#45;&gt;components/Common/Input/Input.jsx</title>
<path fill="none" stroke="#757575" d="M2334.11,-730.5C2348.03,-730.5 2362.31,-730.5 2376.4,-730.5"/>
<polygon fill="#757575" stroke="#757575" points="2376.62,-734 2386.62,-730.5 2376.62,-727 2376.62,-734"/>
</g>
<!-- components/Common/Modal/modal.jsx -->
<g id="node31" class="node">
<title>components/Common/Modal/modal.jsx</title>
<path fill="none" stroke="#cfffac" d="M2030.33,-1020C2030.33,-1020 1791.67,-1020 1791.67,-1020 1787.83,-1020 1784,-1016.17 1784,-1012.33 1784,-1012.33 1784,-1004.67 1784,-1004.67 1784,-1000.83 1787.83,-997 1791.67,-997 1791.67,-997 2030.33,-997 2030.33,-997 2034.17,-997 2038,-1000.83 2038,-1004.67 2038,-1004.67 2038,-1012.33 2038,-1012.33 2038,-1016.17 2034.17,-1020 2030.33,-1020"/>
<text text-anchor="middle" x="1911" y="-1004.8" font-family="Arial" font-size="14.00" fill="#cfffac">components/Common/Modal/modal.jsx</text>
</g>
<!-- components/Common/Modal/index.js&#45;&gt;components/Common/Modal/modal.jsx -->
<g id="edge29" class="edge">
<title>components/Common/Modal/index.js&#45;&gt;components/Common/Modal/modal.jsx</title>
<path fill="none" stroke="#757575" d="M1701.17,-1008.5C1724.7,-1008.5 1749.54,-1008.5 1773.56,-1008.5"/>
<polygon fill="#757575" stroke="#757575" points="1773.79,-1012 1783.79,-1008.5 1773.79,-1005 1773.79,-1012"/>
</g>
<!-- components/Common/Select/Select.jsx -->
<g id="node32" class="node">
<title>components/Common/Select/Select.jsx</title>
<path fill="none" stroke="#cfffac" d="M2030.33,-740C2030.33,-740 1791.67,-740 1791.67,-740 1787.83,-740 1784,-736.17 1784,-732.33 1784,-732.33 1784,-724.67 1784,-724.67 1784,-720.83 1787.83,-717 1791.67,-717 1791.67,-717 2030.33,-717 2030.33,-717 2034.17,-717 2038,-720.83 2038,-724.67 2038,-724.67 2038,-732.33 2038,-732.33 2038,-736.17 2034.17,-740 2030.33,-740"/>
<text text-anchor="middle" x="1911" y="-724.8" font-family="Arial" font-size="14.00" fill="#cfffac">components/Common/Select/Select.jsx</text>
</g>
<!-- components/Common/Select/index.js&#45;&gt;components/Common/Select/Select.jsx -->
<g id="edge30" class="edge">
<title>components/Common/Select/index.js&#45;&gt;components/Common/Select/Select.jsx</title>
<path fill="none" stroke="#757575" d="M1701.17,-728.5C1724.7,-728.5 1749.54,-728.5 1773.56,-728.5"/>
<polygon fill="#757575" stroke="#757575" points="1773.79,-732 1783.79,-728.5 1773.79,-725 1773.79,-732"/>
</g>
<!-- components/Common/TitleText/TitleText.jsx -->
<g id="node33" class="node">
<title>components/Common/TitleText/TitleText.jsx</title>
<path fill="none" stroke="#cfffac" d="M2042.83,-342C2042.83,-342 1779.17,-342 1779.17,-342 1775.33,-342 1771.5,-338.17 1771.5,-334.33 1771.5,-334.33 1771.5,-326.67 1771.5,-326.67 1771.5,-322.83 1775.33,-319 1779.17,-319 1779.17,-319 2042.83,-319 2042.83,-319 2046.67,-319 2050.5,-322.83 2050.5,-326.67 2050.5,-326.67 2050.5,-334.33 2050.5,-334.33 2050.5,-338.17 2046.67,-342 2042.83,-342"/>
<text text-anchor="middle" x="1911" y="-326.8" font-family="Arial" font-size="14.00" fill="#cfffac">components/Common/TitleText/TitleText.jsx</text>
</g>
<!-- components/Common/TitleText/index.js&#45;&gt;components/Common/TitleText/TitleText.jsx -->
<g id="edge31" class="edge">
<title>components/Common/TitleText/index.js&#45;&gt;components/Common/TitleText/TitleText.jsx</title>
<path fill="none" stroke="#757575" d="M1707.26,-330.5C1725,-330.5 1743.36,-330.5 1761.46,-330.5"/>
<polygon fill="#757575" stroke="#757575" points="1761.49,-334 1771.49,-330.5 1761.49,-327 1761.49,-334"/>
</g>
<!-- components/Reminder/reminder.jsx -->
<g id="node45" class="node">
<title>components/Reminder/reminder.jsx</title>
<path fill="none" stroke="#c6c5fe" d="M2019.33,-481C2019.33,-481 1802.67,-481 1802.67,-481 1798.83,-481 1795,-477.17 1795,-473.33 1795,-473.33 1795,-465.67 1795,-465.67 1795,-461.83 1798.83,-458 1802.67,-458 1802.67,-458 2019.33,-458 2019.33,-458 2023.17,-458 2027,-461.83 2027,-465.67 2027,-465.67 2027,-473.33 2027,-473.33 2027,-477.17 2023.17,-481 2019.33,-481"/>
<text text-anchor="middle" x="1911" y="-465.8" font-family="Arial" font-size="14.00" fill="#c6c5fe">components/Reminder/reminder.jsx</text>
</g>
<!-- components/Reminder/index.js&#45;&gt;components/Reminder/reminder.jsx -->
<g id="edge58" class="edge">
<title>components/Reminder/index.js&#45;&gt;components/Reminder/reminder.jsx</title>
<path fill="none" stroke="#757575" d="M1681.76,-773.17C1699.67,-769.34 1716.8,-762.13 1730,-749.5 1795.27,-687.08 1713.46,-622.96 1766,-549.5 1788.77,-517.67 1828.34,-497.01 1860.25,-484.67"/>
<polygon fill="#757575" stroke="#757575" points="1861.71,-487.86 1869.88,-481.11 1859.28,-481.3 1861.71,-487.86"/>
</g>
<!-- components/AddressForm/index.js&#45;&gt;components/AddressForm/AddressForm.jsx -->
<g id="edge14" class="edge">
<title>components/AddressForm/index.js&#45;&gt;components/AddressForm/AddressForm.jsx</title>
<path fill="none" stroke="#757575" d="M1036.2,-849.5C1052.26,-849.5 1068.99,-849.5 1085.64,-849.5"/>
<polygon fill="#757575" stroke="#757575" points="1085.98,-853 1095.98,-849.5 1085.98,-846 1085.98,-853"/>
</g>
<!-- components/Authority/AuthButton.jsx -->
<g id="node18" class="node">
<title>components/Authority/AuthButton.jsx</title>
<path fill="none" stroke="#c6c5fe" d="M1691.83,-124C1691.83,-124 1468.17,-124 1468.17,-124 1464.33,-124 1460.5,-120.17 1460.5,-116.33 1460.5,-116.33 1460.5,-108.67 1460.5,-108.67 1460.5,-104.83 1464.33,-101 1468.17,-101 1468.17,-101 1691.83,-101 1691.83,-101 1695.67,-101 1699.5,-104.83 1699.5,-108.67 1699.5,-108.67 1699.5,-116.33 1699.5,-116.33 1699.5,-120.17 1695.67,-124 1691.83,-124"/>
<text text-anchor="middle" x="1580" y="-108.8" font-family="Arial" font-size="14.00" fill="#c6c5fe">components/Authority/AuthButton.jsx</text>
</g>
<!-- components/Authority/LoginButton.jsx -->
<g id="node19" class="node">
<title>components/Authority/LoginButton.jsx</title>
<path fill="none" stroke="#c6c5fe" d="M2025.33,-103C2025.33,-103 1796.67,-103 1796.67,-103 1792.83,-103 1789,-99.17 1789,-95.33 1789,-95.33 1789,-87.67 1789,-87.67 1789,-83.83 1792.83,-80 1796.67,-80 1796.67,-80 2025.33,-80 2025.33,-80 2029.17,-80 2033,-83.83 2033,-87.67 2033,-87.67 2033,-95.33 2033,-95.33 2033,-99.17 2029.17,-103 2025.33,-103"/>
<text text-anchor="middle" x="1911" y="-87.8" font-family="Arial" font-size="14.00" fill="#c6c5fe">components/Authority/LoginButton.jsx</text>
</g>
<!-- components/Authority/AuthButton.jsx&#45;&gt;components/Authority/LoginButton.jsx -->
<g id="edge16" class="edge">
<title>components/Authority/AuthButton.jsx&#45;&gt;components/Authority/LoginButton.jsx</title>
<path fill="none" stroke="#757575" d="M1699.78,-104.92C1725.37,-103.28 1752.56,-101.55 1778.61,-99.89"/>
<polygon fill="#757575" stroke="#757575" points="1779.15,-103.36 1788.91,-99.23 1778.71,-96.37 1779.15,-103.36"/>
</g>
<!-- components/Authority/LogoutButton.jsx -->
<g id="node20" class="node">
<title>components/Authority/LogoutButton.jsx</title>
<path fill="none" stroke="#c6c5fe" d="M2029.33,-144C2029.33,-144 1792.67,-144 1792.67,-144 1788.83,-144 1785,-140.17 1785,-136.33 1785,-136.33 1785,-128.67 1785,-128.67 1785,-124.83 1788.83,-121 1792.67,-121 1792.67,-121 2029.33,-121 2029.33,-121 2033.17,-121 2037,-124.83 2037,-128.67 2037,-128.67 2037,-136.33 2037,-136.33 2037,-140.17 2033.17,-144 2029.33,-144"/>
<text text-anchor="middle" x="1911" y="-128.8" font-family="Arial" font-size="14.00" fill="#c6c5fe">components/Authority/LogoutButton.jsx</text>
</g>
<!-- components/Authority/AuthButton.jsx&#45;&gt;components/Authority/LogoutButton.jsx -->
<g id="edge17" class="edge">
<title>components/Authority/AuthButton.jsx&#45;&gt;components/Authority/LogoutButton.jsx</title>
<path fill="none" stroke="#757575" d="M1699.78,-119.72C1724.04,-121.2 1749.75,-122.76 1774.55,-124.27"/>
<polygon fill="#757575" stroke="#757575" points="1774.55,-127.77 1784.74,-124.89 1774.97,-120.78 1774.55,-127.77"/>
</g>
<!-- components/Authority/LoginButton.jsx&#45;&gt;components/Common/Button/index.jsx -->
<g id="edge18" class="edge">
<title>components/Authority/LoginButton.jsx&#45;&gt;components/Common/Button/index.jsx</title>
<path fill="none" stroke="#757575" d="M2033.17,-100.86C2041.15,-103.72 2048.85,-107.23 2056,-111.5 2136.23,-159.48 2188.25,-264.76 2207.56,-309.6"/>
<polygon fill="#757575" stroke="#757575" points="2204.38,-311.06 2211.48,-318.93 2210.83,-308.35 2204.38,-311.06"/>
</g>
<!-- components/Authority/LogoutButton.jsx&#45;&gt;components/Common/Button/index.jsx -->
<g id="edge19" class="edge">
<title>components/Authority/LogoutButton.jsx&#45;&gt;components/Common/Button/index.jsx</title>
<path fill="none" stroke="#757575" d="M2020.01,-144.08C2032.57,-147.71 2044.85,-152.41 2056,-158.5 2124.34,-195.84 2179.74,-273.16 2203.49,-310.05"/>
<polygon fill="#757575" stroke="#757575" points="2200.79,-312.33 2209.09,-318.92 2206.71,-308.59 2200.79,-312.33"/>
</g>
<!-- components/Authority/Loading.jsx -->
<g id="node21" class="node">
<title>components/Authority/Loading.jsx</title>
<path fill="none" stroke="#cfffac" d="M1682.33,-23C1682.33,-23 1477.67,-23 1477.67,-23 1473.83,-23 1470,-19.17 1470,-15.33 1470,-15.33 1470,-7.67 1470,-7.67 1470,-3.83 1473.83,0 1477.67,0 1477.67,0 1682.33,0 1682.33,0 1686.17,0 1690,-3.83 1690,-7.67 1690,-7.67 1690,-15.33 1690,-15.33 1690,-19.17 1686.17,-23 1682.33,-23"/>
<text text-anchor="middle" x="1580" y="-7.8" font-family="Arial" font-size="14.00" fill="#cfffac">components/Authority/Loading.jsx</text>
</g>
<!-- components/Common/Button/Button.jsx -->
<g id="node29" class="node">
<title>components/Common/Button/Button.jsx</title>
<path fill="none" stroke="#cfffac" d="M2627.33,-342C2627.33,-342 2385.67,-342 2385.67,-342 2381.83,-342 2378,-338.17 2378,-334.33 2378,-334.33 2378,-326.67 2378,-326.67 2378,-322.83 2381.83,-319 2385.67,-319 2385.67,-319 2627.33,-319 2627.33,-319 2631.17,-319 2635,-322.83 2635,-326.67 2635,-326.67 2635,-334.33 2635,-334.33 2635,-338.17 2631.17,-342 2627.33,-342"/>
<text text-anchor="middle" x="2506.5" y="-326.8" font-family="Arial" font-size="14.00" fill="#cfffac">components/Common/Button/Button.jsx</text>
</g>
<!-- components/Common/Button/index.jsx&#45;&gt;components/Common/Button/Button.jsx -->
<g id="edge27" class="edge">
<title>components/Common/Button/index.jsx&#45;&gt;components/Common/Button/Button.jsx</title>
<path fill="none" stroke="#757575" d="M2342.01,-330.5C2350.53,-330.5 2359.15,-330.5 2367.73,-330.5"/>
<polygon fill="#757575" stroke="#757575" points="2367.79,-334 2377.79,-330.5 2367.79,-327 2367.79,-334"/>
</g>
<!-- components/Authority/index.js&#45;&gt;components/Authority/AuthButton.jsx -->
<g id="edge20" class="edge">
<title>components/Authority/index.js&#45;&gt;components/Authority/AuthButton.jsx</title>
<path fill="none" stroke="#757575" d="M1335.72,-112.5C1371.4,-112.5 1412.31,-112.5 1450.28,-112.5"/>
<polygon fill="#757575" stroke="#757575" points="1450.39,-116 1460.39,-112.5 1450.39,-109 1450.39,-116"/>
</g>
<!-- components/Authority/index.js&#45;&gt;components/Authority/Loading.jsx -->
<g id="edge21" class="edge">
<title>components/Authority/index.js&#45;&gt;components/Authority/Loading.jsx</title>
<path fill="none" stroke="#757575" d="M1262.92,-100.91C1299.02,-84.54 1368.31,-54.75 1430,-37.5 1447.79,-32.53 1467.06,-28.32 1485.65,-24.84"/>
<polygon fill="#757575" stroke="#757575" points="1486.38,-28.27 1495.59,-23.03 1485.12,-21.38 1486.38,-28.27"/>
</g>
<!-- components/Checkout/Checkout.jsx -->
<g id="node24" class="node">
<title>components/Checkout/Checkout.jsx</title>
<path fill="none" stroke="#c6c5fe" d="M1345.83,-1040C1345.83,-1040 1128.17,-1040 1128.17,-1040 1124.33,-1040 1120.5,-1036.17 1120.5,-1032.33 1120.5,-1032.33 1120.5,-1024.67 1120.5,-1024.67 1120.5,-1020.83 1124.33,-1017 1128.17,-1017 1128.17,-1017 1345.83,-1017 1345.83,-1017 1349.67,-1017 1353.5,-1020.83 1353.5,-1024.67 1353.5,-1024.67 1353.5,-1032.33 1353.5,-1032.33 1353.5,-1036.17 1349.67,-1040 1345.83,-1040"/>
<text text-anchor="middle" x="1237" y="-1024.8" font-family="Arial" font-size="14.00" fill="#c6c5fe">components/Checkout/Checkout.jsx</text>
</g>
<!-- components/Checkout/Checkout.jsx&#45;&gt;atoms.js -->
<g id="edge22" class="edge">
<title>components/Checkout/Checkout.jsx&#45;&gt;atoms.js</title>
<path fill="none" stroke="#757575" d="M1353.84,-1036.93C1547.51,-1049.65 1928.38,-1068.36 2056,-1029.5 2202.46,-984.9 2252.06,-961.4 2342,-837.5 2376.46,-790.02 2340.19,-755.36 2378,-710.5 2399.62,-684.85 2434.51,-669.2 2462.33,-660.18"/>
<polygon fill="#757575" stroke="#757575" points="2463.69,-663.43 2472.22,-657.16 2461.64,-656.74 2463.69,-663.43"/>
</g>
<!-- components/Checkout/Checkout.jsx&#45;&gt;components/Common/Modal/index.js -->
<g id="edge23" class="edge">
<title>components/Checkout/Checkout.jsx&#45;&gt;components/Common/Modal/index.js</title>
<path fill="none" stroke="#757575" d="M1353.92,-1021.7C1384.41,-1019.91 1417.5,-1017.97 1448.69,-1016.14"/>
<polygon fill="#757575" stroke="#757575" points="1448.97,-1019.63 1458.75,-1015.55 1448.56,-1012.64 1448.97,-1019.63"/>
</g>
<!-- components/Stripe/index.js -->
<g id="node25" class="node">
<title>components/Stripe/index.js</title>
<path fill="none" stroke="#c6c5fe" d="M1661.83,-1141C1661.83,-1141 1498.17,-1141 1498.17,-1141 1494.33,-1141 1490.5,-1137.17 1490.5,-1133.33 1490.5,-1133.33 1490.5,-1125.67 1490.5,-1125.67 1490.5,-1121.83 1494.33,-1118 1498.17,-1118 1498.17,-1118 1661.83,-1118 1661.83,-1118 1665.67,-1118 1669.5,-1121.83 1669.5,-1125.67 1669.5,-1125.67 1669.5,-1133.33 1669.5,-1133.33 1669.5,-1137.17 1665.67,-1141 1661.83,-1141"/>
<text text-anchor="middle" x="1580" y="-1125.8" font-family="Arial" font-size="14.00" fill="#c6c5fe">components/Stripe/index.js</text>
</g>
<!-- components/Checkout/Checkout.jsx&#45;&gt;components/Stripe/index.js -->
<g id="edge24" class="edge">
<title>components/Checkout/Checkout.jsx&#45;&gt;components/Stripe/index.js</title>
<path fill="none" stroke="#757575" d="M1277.12,-1040.09C1339.73,-1058.63 1462.32,-1094.94 1530.44,-1115.12"/>
<polygon fill="#757575" stroke="#757575" points="1529.5,-1118.49 1540.08,-1117.97 1531.48,-1111.78 1529.5,-1118.49"/>
</g>
<!-- components/Stripe/BillingDetails.jsx -->
<g id="node46" class="node">
<title>components/Stripe/BillingDetails.jsx</title>
<path fill="none" stroke="#c6c5fe" d="M2324.83,-1182C2324.83,-1182 2109.17,-1182 2109.17,-1182 2105.33,-1182 2101.5,-1178.17 2101.5,-1174.33 2101.5,-1174.33 2101.5,-1166.67 2101.5,-1166.67 2101.5,-1162.83 2105.33,-1159 2109.17,-1159 2109.17,-1159 2324.83,-1159 2324.83,-1159 2328.67,-1159 2332.5,-1162.83 2332.5,-1166.67 2332.5,-1166.67 2332.5,-1174.33 2332.5,-1174.33 2332.5,-1178.17 2328.67,-1182 2324.83,-1182"/>
<text text-anchor="middle" x="2217" y="-1166.8" font-family="Arial" font-size="14.00" fill="#c6c5fe">components/Stripe/BillingDetails.jsx</text>
</g>
<!-- components/Stripe/index.js&#45;&gt;components/Stripe/BillingDetails.jsx -->
<g id="edge66" class="edge">
<title>components/Stripe/index.js&#45;&gt;components/Stripe/BillingDetails.jsx</title>
<path fill="none" stroke="#757575" d="M1626.25,-1141.03C1663.48,-1149.92 1717.78,-1161.51 1766,-1166.5 1875.55,-1177.84 2000.9,-1177.9 2091.43,-1175.67"/>
<polygon fill="#757575" stroke="#757575" points="2091.56,-1179.17 2101.46,-1175.41 2091.37,-1172.17 2091.56,-1179.17"/>
</g>
<!-- components/Stripe/CheckoutError.jsx -->
<g id="node48" class="node">
<title>components/Stripe/CheckoutError.jsx</title>
<path fill="none" stroke="#cfffac" d="M2329.83,-1141C2329.83,-1141 2104.17,-1141 2104.17,-1141 2100.33,-1141 2096.5,-1137.17 2096.5,-1133.33 2096.5,-1133.33 2096.5,-1125.67 2096.5,-1125.67 2096.5,-1121.83 2100.33,-1118 2104.17,-1118 2104.17,-1118 2329.83,-1118 2329.83,-1118 2333.67,-1118 2337.5,-1121.83 2337.5,-1125.67 2337.5,-1125.67 2337.5,-1133.33 2337.5,-1133.33 2337.5,-1137.17 2333.67,-1141 2329.83,-1141"/>
<text text-anchor="middle" x="2217" y="-1125.8" font-family="Arial" font-size="14.00" fill="#cfffac">components/Stripe/CheckoutError.jsx</text>
</g>
<!-- components/Stripe/index.js&#45;&gt;components/Stripe/CheckoutError.jsx -->
<g id="edge67" class="edge">
<title>components/Stripe/index.js&#45;&gt;components/Stripe/CheckoutError.jsx</title>
<path fill="none" stroke="#757575" d="M1664.63,-1141.02C1696.32,-1144.85 1732.76,-1148.62 1766,-1150.5 1894.68,-1157.78 1927.39,-1158.9 2056,-1150.5 2081.31,-1148.85 2108.73,-1145.74 2133.59,-1142.41"/>
<polygon fill="#757575" stroke="#757575" points="2134.28,-1145.84 2143.72,-1141.02 2133.33,-1138.91 2134.28,-1145.84"/>
</g>
<!-- components/Stripe/CheckoutForm.jsx -->
<g id="node49" class="node">
<title>components/Stripe/CheckoutForm.jsx</title>
<path fill="none" stroke="#c6c5fe" d="M2024.83,-1141C2024.83,-1141 1797.17,-1141 1797.17,-1141 1793.33,-1141 1789.5,-1137.17 1789.5,-1133.33 1789.5,-1133.33 1789.5,-1125.67 1789.5,-1125.67 1789.5,-1121.83 1793.33,-1118 1797.17,-1118 1797.17,-1118 2024.83,-1118 2024.83,-1118 2028.67,-1118 2032.5,-1121.83 2032.5,-1125.67 2032.5,-1125.67 2032.5,-1133.33 2032.5,-1133.33 2032.5,-1137.17 2028.67,-1141 2024.83,-1141"/>
<text text-anchor="middle" x="1911" y="-1125.8" font-family="Arial" font-size="14.00" fill="#c6c5fe">components/Stripe/CheckoutForm.jsx</text>
</g>
<!-- components/Stripe/index.js&#45;&gt;components/Stripe/CheckoutForm.jsx -->
<g id="edge68" class="edge">
<title>components/Stripe/index.js&#45;&gt;components/Stripe/CheckoutForm.jsx</title>
<path fill="none" stroke="#757575" d="M1669.6,-1129.5C1703.26,-1129.5 1742.35,-1129.5 1779.11,-1129.5"/>
<polygon fill="#757575" stroke="#757575" points="1779.41,-1133 1789.41,-1129.5 1779.41,-1126 1779.41,-1133"/>
</g>
<!-- components/Stripe/Layout.jsx -->
<g id="node50" class="node">
<title>components/Stripe/Layout.jsx</title>
<path fill="none" stroke="#cfffac" d="M2000.33,-1100C2000.33,-1100 1821.67,-1100 1821.67,-1100 1817.83,-1100 1814,-1096.17 1814,-1092.33 1814,-1092.33 1814,-1084.67 1814,-1084.67 1814,-1080.83 1817.83,-1077 1821.67,-1077 1821.67,-1077 2000.33,-1077 2000.33,-1077 2004.17,-1077 2008,-1080.83 2008,-1084.67 2008,-1084.67 2008,-1092.33 2008,-1092.33 2008,-1096.17 2004.17,-1100 2000.33,-1100"/>
<text text-anchor="middle" x="1911" y="-1084.8" font-family="Arial" font-size="14.00" fill="#cfffac">components/Stripe/Layout.jsx</text>
</g>
<!-- components/Stripe/index.js&#45;&gt;components/Stripe/Layout.jsx -->
<g id="edge69" class="edge">
<title>components/Stripe/index.js&#45;&gt;components/Stripe/Layout.jsx</title>
<path fill="none" stroke="#757575" d="M1669.6,-1118.46C1712.06,-1113.17 1763.17,-1106.8 1807.32,-1101.3"/>
<polygon fill="#757575" stroke="#757575" points="1808.02,-1104.74 1817.51,-1100.03 1807.15,-1097.79 1808.02,-1104.74"/>
</g>
<!-- components/Checkout/index.js&#45;&gt;components/Checkout/Checkout.jsx -->
<g id="edge25" class="edge">
<title>components/Checkout/index.js&#45;&gt;components/Checkout/Checkout.jsx</title>
<path fill="none" stroke="#757575" d="M1013.82,-1000.02C1052.08,-1004.92 1096.85,-1010.66 1136.14,-1015.7"/>
<polygon fill="#757575" stroke="#757575" points="1135.91,-1019.2 1146.27,-1017 1136.8,-1012.25 1135.91,-1019.2"/>
</g>
<!-- components/Common/BodyText/BodyText.jsx -->
<g id="node27" class="node">
<title>components/Common/BodyText/BodyText.jsx</title>
<path fill="none" stroke="#cfffac" d="M2048.33,-224C2048.33,-224 1773.67,-224 1773.67,-224 1769.83,-224 1766,-220.17 1766,-216.33 1766,-216.33 1766,-208.67 1766,-208.67 1766,-204.83 1769.83,-201 1773.67,-201 1773.67,-201 2048.33,-201 2048.33,-201 2052.17,-201 2056,-204.83 2056,-208.67 2056,-208.67 2056,-216.33 2056,-216.33 2056,-220.17 2052.17,-224 2048.33,-224"/>
<text text-anchor="middle" x="1911" y="-208.8" font-family="Arial" font-size="14.00" fill="#cfffac">components/Common/BodyText/BodyText.jsx</text>
</g>
<!-- components/Common/BodyText/index.jsx&#45;&gt;components/Common/BodyText/BodyText.jsx -->
<g id="edge26" class="edge">
<title>components/Common/BodyText/index.jsx&#45;&gt;components/Common/BodyText/BodyText.jsx</title>
<path fill="none" stroke="#757575" d="M1713.39,-212.5C1727.26,-212.5 1741.44,-212.5 1755.53,-212.5"/>
<polygon fill="#757575" stroke="#757575" points="1755.76,-216 1765.76,-212.5 1755.76,-209 1755.76,-216"/>
</g>
<!-- components/Donations/Donations.jsx -->
<g id="node34" class="node">
<title>components/Donations/Donations.jsx</title>
<path fill="none" stroke="#c6c5fe" d="M1349.33,-434C1349.33,-434 1124.67,-434 1124.67,-434 1120.83,-434 1117,-430.17 1117,-426.33 1117,-426.33 1117,-418.67 1117,-418.67 1117,-414.83 1120.83,-411 1124.67,-411 1124.67,-411 1349.33,-411 1349.33,-411 1353.17,-411 1357,-414.83 1357,-418.67 1357,-418.67 1357,-426.33 1357,-426.33 1357,-430.17 1353.17,-434 1349.33,-434"/>
<text text-anchor="middle" x="1237" y="-418.8" font-family="Arial" font-size="14.00" fill="#c6c5fe">components/Donations/Donations.jsx</text>
</g>
<!-- components/Donations/Donations.jsx&#45;&gt;atoms.js -->
<g id="edge32" class="edge">
<title>components/Donations/Donations.jsx&#45;&gt;atoms.js</title>
<path fill="none" stroke="#757575" d="M1354.4,-410.99C1479.51,-400.87 1668.68,-392.7 1730,-428.5 1757.52,-444.57 1739.47,-472.85 1766,-490.5 1873.47,-562 2218.76,-527.1 2342,-565.5 2393.3,-581.48 2447.85,-612.78 2479.18,-632.33"/>
<polygon fill="#757575" stroke="#757575" points="2477.43,-635.37 2487.75,-637.75 2481.17,-629.45 2477.43,-635.37"/>
</g>
<!-- components/Donations/Donations.jsx&#45;&gt;components/Common/Modal/index.js -->
<g id="edge35" class="edge">
<title>components/Donations/Donations.jsx&#45;&gt;components/Common/Modal/index.js</title>
<path fill="none" stroke="#757575" d="M1280.97,-434.04C1317.62,-446.32 1368.32,-469.6 1394,-509.5 1447.09,-592 1371.59,-870.68 1430,-949.5 1446.23,-971.4 1471.86,-985.18 1497.32,-993.85"/>
<polygon fill="#757575" stroke="#757575" points="1496.46,-997.25 1507.05,-996.93 1498.58,-990.57 1496.46,-997.25"/>
</g>
<!-- components/Donations/Donations.jsx&#45;&gt;components/Common/TitleText/index.js -->
<g id="edge36" class="edge">
<title>components/Donations/Donations.jsx&#45;&gt;components/Common/TitleText/index.js</title>
<path fill="none" stroke="#757575" d="M1292.69,-410.96C1323.21,-403.57 1361.51,-392.69 1394,-378.5 1411.18,-371 1412.46,-363.12 1430,-356.5 1443.28,-351.49 1457.58,-347.44 1471.9,-344.17"/>
<polygon fill="#757575" stroke="#757575" points="1472.77,-347.56 1481.8,-342.02 1471.28,-340.72 1472.77,-347.56"/>
</g>
<!-- components/Donations/Donations.jsx&#45;&gt;integrations/donationAPI.js -->
<g id="edge38" class="edge">
<title>components/Donations/Donations.jsx&#45;&gt;integrations/donationAPI.js</title>
<path fill="none" stroke="#757575" d="M1271.95,-434.07C1306.65,-447.42 1360.12,-472.41 1394,-509.5 1420.57,-538.59 1404.44,-560.52 1430,-590.5 1461.26,-627.16 1509.79,-655.18 1542.91,-671.46"/>
<polygon fill="#757575" stroke="#757575" points="1541.71,-674.77 1552.24,-675.94 1544.74,-668.46 1541.71,-674.77"/>
</g>
<!-- components/Donations/Donations.jsx&#45;&gt;components/Common/Button/index.jsx -->
<g id="edge34" class="edge">
<title>components/Donations/Donations.jsx&#45;&gt;components/Common/Button/index.jsx</title>
<path fill="none" stroke="#757575" d="M1308.51,-410.93C1344.74,-405.31 1389.64,-398.85 1430,-394.5 1707.3,-364.58 1778.41,-377.58 2056,-350.5 2076.93,-348.46 2099.34,-345.89 2120.58,-343.29"/>
<polygon fill="#757575" stroke="#757575" points="2121.08,-346.75 2130.57,-342.05 2120.21,-339.81 2121.08,-346.75"/>
</g>
<!-- components/Donations/Donations.jsx&#45;&gt;components/Common/BodyText/index.jsx -->
<g id="edge33" class="edge">
<title>components/Donations/Donations.jsx&#45;&gt;components/Common/BodyText/index.jsx</title>
<path fill="none" stroke="#757575" d="M1260.69,-410.91C1291.49,-394.95 1347.97,-364.82 1394,-335.5 1410.65,-324.9 1413.73,-320.66 1430,-309.5 1471.98,-280.7 1521.72,-248.75 1551.79,-229.66"/>
<polygon fill="#757575" stroke="#757575" points="1553.89,-232.47 1560.46,-224.16 1550.14,-226.56 1553.89,-232.47"/>
</g>
<!-- components/Donations/Donations.jsx&#45;&gt;components/OtherAmount/index.js -->
<g id="edge37" class="edge">
<title>components/Donations/Donations.jsx&#45;&gt;components/OtherAmount/index.js</title>
<path fill="none" stroke="#757575" d="M1262.06,-434.03C1298.25,-451.24 1368.96,-484.45 1430,-510.5 1466.55,-526.1 1508.71,-542.66 1538.83,-554.25"/>
<polygon fill="#757575" stroke="#757575" points="1537.97,-557.67 1548.56,-557.99 1540.48,-551.14 1537.97,-557.67"/>
</g>
<!-- components/OtherAmount/OtherAmount.jsx -->
<g id="node41" class="node">
<title>components/OtherAmount/OtherAmount.jsx</title>
<path fill="none" stroke="#c6c5fe" d="M2044.33,-581C2044.33,-581 1777.67,-581 1777.67,-581 1773.83,-581 1770,-577.17 1770,-573.33 1770,-573.33 1770,-565.67 1770,-565.67 1770,-561.83 1773.83,-558 1777.67,-558 1777.67,-558 2044.33,-558 2044.33,-558 2048.17,-558 2052,-561.83 2052,-565.67 2052,-565.67 2052,-573.33 2052,-573.33 2052,-577.17 2048.17,-581 2044.33,-581"/>
<text text-anchor="middle" x="1911" y="-565.8" font-family="Arial" font-size="14.00" fill="#c6c5fe">components/OtherAmount/OtherAmount.jsx</text>
</g>
<!-- components/OtherAmount/index.js&#45;&gt;components/OtherAmount/OtherAmount.jsx -->
<g id="edge52" class="edge">
<title>components/OtherAmount/index.js&#45;&gt;components/OtherAmount/OtherAmount.jsx</title>
<path fill="none" stroke="#757575" d="M1693.3,-569.5C1714.69,-569.5 1737.39,-569.5 1759.74,-569.5"/>
<polygon fill="#757575" stroke="#757575" points="1759.98,-573 1769.98,-569.5 1759.98,-566 1759.98,-573"/>
</g>
<!-- components/Donations/index.js&#45;&gt;components/Donations/Donations.jsx -->
<g id="edge39" class="edge">
<title>components/Donations/index.js&#45;&gt;components/Donations/Donations.jsx</title>
<path fill="none" stroke="#757575" d="M1025.73,-444.74C1054.89,-441.66 1086.93,-438.27 1117.03,-435.08"/>
<polygon fill="#757575" stroke="#757575" points="1117.58,-438.55 1127.15,-434.01 1116.84,-431.58 1117.58,-438.55"/>
</g>
<!-- components/MobileTextForm/MobileSchema.js -->
<g id="node37" class="node">
<title>components/MobileTextForm/MobileSchema.js</title>
<path fill="none" stroke="#cfffac" d="M1722.33,-501C1722.33,-501 1437.67,-501 1437.67,-501 1433.83,-501 1430,-497.17 1430,-493.33 1430,-493.33 1430,-485.67 1430,-485.67 1430,-481.83 1433.83,-478 1437.67,-478 1437.67,-478 1722.33,-478 1722.33,-478 1726.17,-478 1730,-481.83 1730,-485.67 1730,-485.67 1730,-493.33 1730,-493.33 1730,-497.17 1726.17,-501 1722.33,-501"/>
<text text-anchor="middle" x="1580" y="-485.8" font-family="Arial" font-size="14.00" fill="#cfffac">components/MobileTextForm/MobileSchema.js</text>
</g>
<!-- components/MobileTextForm/MobileTextForm.jsx -->
<g id="node38" class="node">
<title>components/MobileTextForm/MobileTextForm.jsx</title>
<path fill="none" stroke="#c6c5fe" d="M1386.33,-541C1386.33,-541 1087.67,-541 1087.67,-541 1083.83,-541 1080,-537.17 1080,-533.33 1080,-533.33 1080,-525.67 1080,-525.67 1080,-521.83 1083.83,-518 1087.67,-518 1087.67,-518 1386.33,-518 1386.33,-518 1390.17,-518 1394,-521.83 1394,-525.67 1394,-525.67 1394,-533.33 1394,-533.33 1394,-537.17 1390.17,-541 1386.33,-541"/>
<text text-anchor="middle" x="1237" y="-525.8" font-family="Arial" font-size="14.00" fill="#c6c5fe">components/MobileTextForm/MobileTextForm.jsx</text>
</g>
<!-- components/MobileTextForm/MobileTextForm.jsx&#45;&gt;atoms.js -->
<g id="edge40" class="edge">
<title>components/MobileTextForm/MobileTextForm.jsx&#45;&gt;atoms.js</title>
<path fill="none" stroke="#757575" d="M1266.37,-541.01C1303.34,-555.43 1370.31,-579.56 1430,-590.5 1633.35,-627.76 2287.74,-644.67 2462.34,-648.59"/>
<polygon fill="#757575" stroke="#757575" points="2462.36,-652.09 2472.43,-648.81 2462.51,-645.09 2462.36,-652.09"/>
</g>
<!-- components/MobileTextForm/MobileTextForm.jsx&#45;&gt;components/Common/Input/index.js -->
<g id="edge42" class="edge">
<title>components/MobileTextForm/MobileTextForm.jsx&#45;&gt;components/Common/Input/index.js</title>
<path fill="none" stroke="#757575" d="M1256.51,-541.09C1289.83,-561.37 1362.71,-603.04 1430,-623.5 1463.58,-633.71 2021.23,-703.75 2056,-708.5 2077.56,-711.45 2100.76,-714.63 2122.61,-717.63"/>
<polygon fill="#757575" stroke="#757575" points="2122.16,-721.1 2132.55,-719 2123.12,-714.17 2122.16,-721.1"/>
</g>
<!-- components/MobileTextForm/MobileTextForm.jsx&#45;&gt;components/Common/Select/index.js -->
<g id="edge43" class="edge">
<title>components/MobileTextForm/MobileTextForm.jsx&#45;&gt;components/Common/Select/index.js</title>
<path fill="none" stroke="#757575" d="M1255.84,-541.09C1286.45,-561.53 1349.93,-606.39 1394,-654.5 1413.48,-675.77 1405.53,-693.22 1430,-708.5 1435.95,-712.21 1442.29,-715.37 1448.88,-718.04"/>
<polygon fill="#757575" stroke="#757575" points="1448.1,-721.48 1458.69,-721.62 1450.5,-714.91 1448.1,-721.48"/>
</g>
<!-- components/MobileTextForm/MobileTextForm.jsx&#45;&gt;components/Common/TitleText/index.js -->
<g id="edge44" class="edge">
<title>components/MobileTextForm/MobileTextForm.jsx&#45;&gt;components/Common/TitleText/index.js</title>
<path fill="none" stroke="#757575" d="M1259.62,-517.98C1289.89,-501.75 1346.53,-471.06 1394,-443.5 1450.62,-410.62 1515.71,-370.25 1551.62,-347.75"/>
<polygon fill="#757575" stroke="#757575" points="1553.91,-350.44 1560.52,-342.16 1550.19,-344.52 1553.91,-350.44"/>
</g>
<!-- components/MobileTextForm/MobileTextForm.jsx&#45;&gt;integrations/donationAPI.js -->
<g id="edge47" class="edge">
<title>components/MobileTextForm/MobileTextForm.jsx&#45;&gt;integrations/donationAPI.js</title>
<path fill="none" stroke="#757575" d="M1250.79,-541.3C1280.04,-567.56 1355.1,-630.93 1430,-661.5 1446.06,-668.05 1463.74,-672.96 1481.15,-676.62"/>
<polygon fill="#757575" stroke="#757575" points="1480.87,-680.13 1491.35,-678.64 1482.22,-673.27 1480.87,-680.13"/>
</g>
<!-- components/MobileTextForm/MobileTextForm.jsx&#45;&gt;components/Common/Button/index.jsx -->
<g id="edge41" class="edge">
<title>components/MobileTextForm/MobileTextForm.jsx&#45;&gt;components/Common/Button/index.jsx</title>
<path fill="none" stroke="#757575" d="M1394.12,-539.37C1516.56,-544.23 1675.13,-543.25 1730,-510.5 1757.03,-494.37 1740.85,-468.43 1766,-449.5 1872.36,-369.42 1927.37,-408.82 2056,-374.5 2092.42,-364.78 2133.41,-353.51 2164.78,-344.8"/>
<polygon fill="#757575" stroke="#757575" points="2165.91,-348.12 2174.61,-342.07 2164.04,-341.37 2165.91,-348.12"/>
</g>
<!-- components/MobileTextForm/MobileTextForm.jsx&#45;&gt;components/MobileTextForm/MobileSchema.js -->
<g id="edge45" class="edge">
<title>components/MobileTextForm/MobileTextForm.jsx&#45;&gt;components/MobileTextForm/MobileSchema.js</title>
<path fill="none" stroke="#757575" d="M1336.17,-517.98C1378.34,-513.04 1427.75,-507.24 1470.95,-502.17"/>
<polygon fill="#757575" stroke="#757575" points="1471.4,-505.65 1480.93,-501 1470.59,-498.69 1471.4,-505.65"/>
</g>
<!-- components/MobileTextForm/options.js -->
<g id="node39" class="node">
<title>components/MobileTextForm/options.js</title>
<path fill="none" stroke="#cfffac" d="M1698.83,-460C1698.83,-460 1461.17,-460 1461.17,-460 1457.33,-460 1453.5,-456.17 1453.5,-452.33 1453.5,-452.33 1453.5,-444.67 1453.5,-444.67 1453.5,-440.83 1457.33,-437 1461.17,-437 1461.17,-437 1698.83,-437 1698.83,-437 1702.67,-437 1706.5,-440.83 1706.5,-444.67 1706.5,-444.67 1706.5,-452.33 1706.5,-452.33 1706.5,-456.17 1702.67,-460 1698.83,-460"/>
<text text-anchor="middle" x="1580" y="-444.8" font-family="Arial" font-size="14.00" fill="#cfffac">components/MobileTextForm/options.js</text>
</g>
<!-- components/MobileTextForm/MobileTextForm.jsx&#45;&gt;components/MobileTextForm/options.js -->
<g id="edge46" class="edge">
<title>components/MobileTextForm/MobileTextForm.jsx&#45;&gt;components/MobileTextForm/options.js</title>
<path fill="none" stroke="#757575" d="M1269.5,-517.91C1307.19,-504.46 1372.42,-482.46 1430,-469.5 1443.13,-466.54 1457,-463.93 1470.79,-461.64"/>
<polygon fill="#757575" stroke="#757575" points="1471.49,-465.07 1480.81,-460.02 1470.38,-458.16 1471.49,-465.07"/>
</g>
<!-- components/MobileTextForm/index.js&#45;&gt;components/MobileTextForm/MobileTextForm.jsx -->
<g id="edge48" class="edge">
<title>components/MobileTextForm/index.js&#45;&gt;components/MobileTextForm/MobileTextForm.jsx</title>
<path fill="none" stroke="#757575" d="M1044.18,-529.5C1052.57,-529.5 1061.11,-529.5 1069.69,-529.5"/>
<polygon fill="#757575" stroke="#757575" points="1069.77,-533 1079.77,-529.5 1069.77,-526 1069.77,-533"/>
</g>
<!-- components/OtherAmount/OtherAmount.jsx&#45;&gt;atoms.js -->
<g id="edge49" class="edge">
<title>components/OtherAmount/OtherAmount.jsx&#45;&gt;atoms.js</title>
<path fill="none" stroke="#757575" d="M2052.08,-568.86C2136.7,-570.72 2246.33,-577.13 2342,-595.5 2386.56,-604.06 2435.76,-621.45 2468.44,-634.2"/>
<polygon fill="#757575" stroke="#757575" points="2467.43,-637.56 2478.02,-637.99 2470.01,-631.05 2467.43,-637.56"/>
</g>
<!-- components/OtherAmount/OtherAmount.jsx&#45;&gt;components/Common/Input/index.js -->
<g id="edge51" class="edge">
<title>components/OtherAmount/OtherAmount.jsx&#45;&gt;components/Common/Input/index.js</title>
<path fill="none" stroke="#757575" d="M1940.92,-581.08C1970.36,-593.17 2017.09,-613.16 2056,-633.5 2104.74,-658.97 2158.98,-693.17 2190.14,-713.42"/>
<polygon fill="#757575" stroke="#757575" points="2188.38,-716.45 2198.66,-718.99 2192.2,-710.59 2188.38,-716.45"/>
</g>
<!-- components/OtherAmount/OtherAmount.jsx&#45;&gt;components/Common/Button/index.jsx -->
<g id="edge50" class="edge">
<title>components/OtherAmount/OtherAmount.jsx&#45;&gt;components/Common/Button/index.jsx</title>
<path fill="none" stroke="#757575" d="M1938.03,-557.98C1967.94,-544.14 2017.79,-519.16 2056,-490.5 2114.56,-446.57 2172.64,-381.82 2199.92,-349.83"/>
<polygon fill="#757575" stroke="#757575" points="2202.69,-351.98 2206.47,-342.08 2197.34,-347.46 2202.69,-351.98"/>
</g>
<!-- components/PrayerCard/PrayerCard.jsx -->
<g id="node42" class="node">
<title>components/PrayerCard/PrayerCard.jsx</title>
<path fill="none" stroke="#c6c5fe" d="M1357.83,-327C1357.83,-327 1116.17,-327 1116.17,-327 1112.33,-327 1108.5,-323.17 1108.5,-319.33 1108.5,-319.33 1108.5,-311.67 1108.5,-311.67 1108.5,-307.83 1112.33,-304 1116.17,-304 1116.17,-304 1357.83,-304 1357.83,-304 1361.67,-304 1365.5,-307.83 1365.5,-311.67 1365.5,-311.67 1365.5,-319.33 1365.5,-319.33 1365.5,-323.17 1361.67,-327 1357.83,-327"/>
<text text-anchor="middle" x="1237" y="-311.8" font-family="Arial" font-size="14.00" fill="#c6c5fe">components/PrayerCard/PrayerCard.jsx</text>
</g>
<!-- components/PrayerCard/PrayerCard.jsx&#45;&gt;components/Common/TitleText/index.js -->
<g id="edge55" class="edge">
<title>components/PrayerCard/PrayerCard.jsx&#45;&gt;components/Common/TitleText/index.js</title>
<path fill="none" stroke="#757575" d="M1365.95,-321.13C1391.06,-322.23 1417.48,-323.39 1442.85,-324.51"/>
<polygon fill="#757575" stroke="#757575" points="1442.74,-328.01 1452.89,-324.95 1443.05,-321.02 1442.74,-328.01"/>
</g>
<!-- components/PrayerCard/PrayerCard.jsx&#45;&gt;components/Common/Button/index.jsx -->
<g id="edge54" class="edge">
<title>components/PrayerCard/PrayerCard.jsx&#45;&gt;components/Common/Button/index.jsx</title>
<path fill="none" stroke="#757575" d="M1365.53,-310.96C1387.05,-310.35 1409.16,-309.83 1430,-309.5 1708.19,-305.15 1778.37,-291.36 2056,-309.5 2081.31,-311.15 2108.73,-314.26 2133.59,-317.59"/>
<polygon fill="#757575" stroke="#757575" points="2133.33,-321.09 2143.72,-318.98 2134.28,-314.16 2133.33,-321.09"/>
</g>
<!-- components/PrayerCard/PrayerCard.jsx&#45;&gt;components/Common/BodyText/index.jsx -->
<g id="edge53" class="edge">
<title>components/PrayerCard/PrayerCard.jsx&#45;&gt;components/Common/BodyText/index.jsx</title>
<path fill="none" stroke="#757575" d="M1276.12,-303.98C1338.66,-285.1 1462.88,-247.58 1531.2,-226.94"/>
<polygon fill="#757575" stroke="#757575" points="1532.3,-230.26 1540.86,-224.02 1530.28,-223.56 1532.3,-230.26"/>
</g>
<!-- components/PrayerCard/index.js&#45;&gt;components/PrayerCard/PrayerCard.jsx -->
<g id="edge56" class="edge">
<title>components/PrayerCard/index.js&#45;&gt;components/PrayerCard/PrayerCard.jsx</title>
<path fill="none" stroke="#757575" d="M1029.63,-318.15C1051.65,-317.86 1075.17,-317.56 1098.16,-317.27"/>
<polygon fill="#757575" stroke="#757575" points="1098.37,-320.76 1108.32,-317.14 1098.28,-313.77 1098.37,-320.76"/>
</g>
<!-- components/Reminder/reminder.jsx&#45;&gt;components/Common/Button/index.jsx -->
<g id="edge59" class="edge">
<title>components/Reminder/reminder.jsx&#45;&gt;components/Common/Button/index.jsx</title>
<path fill="none" stroke="#757575" d="M2008.96,-457.99C2025.02,-454.4 2041.24,-449.68 2056,-443.5 2111.67,-420.18 2167.05,-374.88 2195.79,-349.29"/>
<polygon fill="#757575" stroke="#757575" points="2198.42,-351.63 2203.49,-342.33 2193.73,-346.43 2198.42,-351.63"/>
</g>
<!-- components/Stripe/BillingDetails.jsx&#45;&gt;atoms.js -->
<g id="edge60" class="edge">
<title>components/Stripe/BillingDetails.jsx&#45;&gt;atoms.js</title>
<path fill="none" stroke="#757575" d="M2332.56,-1158.82C2335.95,-1156.38 2339.11,-1153.62 2342,-1150.5 2408.6,-1078.47 2322.36,-791.3 2378,-710.5 2397.42,-682.3 2433.56,-666.72 2462.41,-658.38"/>
<polygon fill="#757575" stroke="#757575" points="2463.53,-661.7 2472.27,-655.72 2461.71,-654.94 2463.53,-661.7"/>
</g>
<!-- components/Stripe/FormField.jsx -->
<g id="node47" class="node">
<title>components/Stripe/FormField.jsx</title>
<path fill="none" stroke="#cfffac" d="M2606.33,-1182C2606.33,-1182 2406.67,-1182 2406.67,-1182 2402.83,-1182 2399,-1178.17 2399,-1174.33 2399,-1174.33 2399,-1166.67 2399,-1166.67 2399,-1162.83 2402.83,-1159 2406.67,-1159 2406.67,-1159 2606.33,-1159 2606.33,-1159 2610.17,-1159 2614,-1162.83 2614,-1166.67 2614,-1166.67 2614,-1174.33 2614,-1174.33 2614,-1178.17 2610.17,-1182 2606.33,-1182"/>
<text text-anchor="middle" x="2506.5" y="-1166.8" font-family="Arial" font-size="14.00" fill="#cfffac">components/Stripe/FormField.jsx</text>
</g>
<!-- components/Stripe/BillingDetails.jsx&#45;&gt;components/Stripe/FormField.jsx -->
<g id="edge61" class="edge">
<title>components/Stripe/BillingDetails.jsx&#45;&gt;components/Stripe/FormField.jsx</title>
<path fill="none" stroke="#757575" d="M2332.87,-1170.5C2351.21,-1170.5 2370.21,-1170.5 2388.6,-1170.5"/>
<polygon fill="#757575" stroke="#757575" points="2388.74,-1174 2398.74,-1170.5 2388.74,-1167 2388.74,-1174"/>
</g>
<!-- components/Stripe/CheckoutForm.jsx&#45;&gt;atoms.js -->
<g id="edge62" class="edge">
<title>components/Stripe/CheckoutForm.jsx&#45;&gt;atoms.js</title>
<path fill="none" stroke="#757575" d="M2004.74,-1117.97C2127.66,-1102.28 2330.5,-1074.73 2342,-1062.5 2395.88,-1005.23 2332.75,-774.8 2378,-710.5 2397.71,-682.5 2433.81,-666.9 2462.59,-658.5"/>
<polygon fill="#757575" stroke="#757575" points="2463.69,-661.83 2472.42,-655.82 2461.85,-655.07 2463.69,-661.83"/>
</g>
<!-- components/Stripe/CheckoutForm.jsx&#45;&gt;components/Common/Button/index.jsx -->
<g id="edge63" class="edge">
<title>components/Stripe/CheckoutForm.jsx&#45;&gt;components/Common/Button/index.jsx</title>
<path fill="none" stroke="#757575" d="M2032.69,-1125.95C2041.35,-1121.91 2049.3,-1116.53 2056,-1109.5 2117.42,-1045.06 2074.08,-797.7 2092,-710.5 2120.93,-569.72 2184.21,-408.01 2207.33,-351.38"/>
<polygon fill="#757575" stroke="#757575" points="2210.59,-352.64 2211.16,-342.06 2204.12,-349.98 2210.59,-352.64"/>
</g>
<!-- components/Stripe/CheckoutForm.jsx&#45;&gt;components/Stripe/BillingDetails.jsx -->
<g id="edge64" class="edge">
<title>components/Stripe/CheckoutForm.jsx&#45;&gt;components/Stripe/BillingDetails.jsx</title>
<path fill="none" stroke="#757575" d="M1997.49,-1141.03C2035.78,-1146.19 2081.08,-1152.3 2120.48,-1157.62"/>
<polygon fill="#757575" stroke="#757575" points="2120.25,-1161.12 2130.63,-1158.99 2121.18,-1154.18 2120.25,-1161.12"/>
</g>
<!-- components/Stripe/CheckoutForm.jsx&#45;&gt;components/Stripe/CheckoutError.jsx -->
<g id="edge65" class="edge">
<title>components/Stripe/CheckoutForm.jsx&#45;&gt;components/Stripe/CheckoutError.jsx</title>
<path fill="none" stroke="#757575" d="M2032.59,-1129.5C2050.05,-1129.5 2068.08,-1129.5 2085.72,-1129.5"/>
<polygon fill="#757575" stroke="#757575" points="2086.06,-1133 2096.06,-1129.5 2086.06,-1126 2086.06,-1133"/>
</g>
<!-- components/ThankYou/ThankYou.jsx -->
<g id="node51" class="node">
<title>components/ThankYou/ThankYou.jsx</title>
<path fill="none" stroke="#c6c5fe" d="M1350.33,-186C1350.33,-186 1123.67,-186 1123.67,-186 1119.83,-186 1116,-182.17 1116,-178.33 1116,-178.33 1116,-170.67 1116,-170.67 1116,-166.83 1119.83,-163 1123.67,-163 1123.67,-163 1350.33,-163 1350.33,-163 1354.17,-163 1358,-166.83 1358,-170.67 1358,-170.67 1358,-178.33 1358,-178.33 1358,-182.17 1354.17,-186 1350.33,-186"/>
<text text-anchor="middle" x="1237" y="-170.8" font-family="Arial" font-size="14.00" fill="#c6c5fe">components/ThankYou/ThankYou.jsx</text>
</g>
<!-- components/ThankYou/ThankYou.jsx&#45;&gt;atoms.js -->
<g id="edge70" class="edge">
<title>components/ThankYou/ThankYou.jsx&#45;&gt;atoms.js</title>
<path fill="none" stroke="#757575" d="M1315.85,-162.94C1342.04,-156.68 1370.54,-147.1 1394,-132.5 1414.59,-119.69 1408.23,-102.19 1430,-91.5 1554.95,-30.17 1925.16,-23.03 2056,-70.5 2211.72,-127 2240.25,-178.79 2342,-309.5 2425.15,-416.32 2480.61,-572.27 2498.89,-628.4"/>
<polygon fill="#757575" stroke="#757575" points="2495.57,-629.51 2501.96,-637.97 2502.24,-627.37 2495.57,-629.51"/>
</g>
<!-- components/ThankYou/ThankYou.jsx&#45;&gt;components/Common/TitleText/index.js -->
<g id="edge73" class="edge">
<title>components/ThankYou/ThankYou.jsx&#45;&gt;components/Common/TitleText/index.js</title>
<path fill="none" stroke="#757575" d="M1263.35,-186.1C1323.65,-213.68 1475.67,-283.23 1544.36,-314.65"/>
<polygon fill="#757575" stroke="#757575" points="1542.93,-317.85 1553.48,-318.83 1545.84,-311.48 1542.93,-317.85"/>
</g>
<!-- components/ThankYou/ThankYou.jsx&#45;&gt;components/Common/Button/index.jsx -->
<g id="edge72" class="edge">
<title>components/ThankYou/ThankYou.jsx&#45;&gt;components/Common/Button/index.jsx</title>
<path fill="none" stroke="#757575" d="M1358.02,-167.08C1553.74,-156.64 1932.25,-143.78 2056,-191.5 2120.02,-216.19 2175.66,-278.66 2201.17,-310.77"/>
<polygon fill="#757575" stroke="#757575" points="2198.64,-313.22 2207.55,-318.97 2204.17,-308.93 2198.64,-313.22"/>
</g>
<!-- components/ThankYou/ThankYou.jsx&#45;&gt;components/Common/BodyText/index.jsx -->
<g id="edge71" class="edge">
<title>components/ThankYou/ThankYou.jsx&#45;&gt;components/Common/BodyText/index.jsx</title>
<path fill="none" stroke="#757575" d="M1341.24,-186C1380.45,-190.37 1425.32,-195.37 1465.44,-199.84"/>
<polygon fill="#757575" stroke="#757575" points="1465.2,-203.34 1475.53,-200.97 1465.98,-196.38 1465.2,-203.34"/>
</g>
<!-- components/ThankYou/index.js&#45;&gt;components/ThankYou/ThankYou.jsx -->
<g id="edge74" class="edge">
<title>components/ThankYou/index.js&#45;&gt;components/ThankYou/ThankYou.jsx</title>
<path fill="none" stroke="#757575" d="M1026.16,-174.5C1051.61,-174.5 1079.24,-174.5 1105.84,-174.5"/>
<polygon fill="#757575" stroke="#757575" points="1105.98,-178 1115.98,-174.5 1105.98,-171 1105.98,-178"/>
</g>
<!-- index.css -->
<g id="node53" class="node">
<title>index.css</title>
<path fill="none" stroke="#cfffac" d="M236.33,-439C236.33,-439 178.67,-439 178.67,-439 174.83,-439 171,-435.17 171,-431.33 171,-431.33 171,-423.67 171,-423.67 171,-419.83 174.83,-416 178.67,-416 178.67,-416 236.33,-416 236.33,-416 240.17,-416 244,-419.83 244,-423.67 244,-423.67 244,-431.33 244,-431.33 244,-435.17 240.17,-439 236.33,-439"/>
<text text-anchor="middle" x="207.5" y="-423.8" font-family="Arial" font-size="14.00" fill="#cfffac">index.css</text>
</g>
<!-- index.js -->
<g id="node54" class="node">
<title>index.js</title>
<path fill="none" stroke="#c6c5fe" d="M54.33,-459C54.33,-459 7.67,-459 7.67,-459 3.83,-459 0,-455.17 0,-451.33 0,-451.33 0,-443.67 0,-443.67 0,-439.83 3.83,-436 7.67,-436 7.67,-436 54.33,-436 54.33,-436 58.17,-436 62,-439.83 62,-443.67 62,-443.67 62,-451.33 62,-451.33 62,-455.17 58.17,-459 54.33,-459"/>
<text text-anchor="middle" x="31" y="-443.8" font-family="Arial" font-size="14.00" fill="#c6c5fe">index.js</text>
</g>
<!-- index.js&#45;&gt;App.js -->
<g id="edge90" class="edge">
<title>index.js&#45;&gt;App.js</title>
<path fill="none" stroke="#757575" d="M46.57,-459.11C59.38,-468.73 78.91,-482 98,-489.5 121.13,-498.59 148.69,-503.61 170.25,-506.34"/>
<polygon fill="#757575" stroke="#757575" points="169.96,-509.83 180.3,-507.51 170.77,-502.88 169.96,-509.83"/>
</g>
<!-- index.js&#45;&gt;auth/auth0&#45;provider&#45;with&#45;history.js -->
<g id="edge91" class="edge">
<title>index.js&#45;&gt;auth/auth0&#45;provider&#45;with&#45;history.js</title>
<path fill="none" stroke="#757575" d="M62.4,-451.16C73.47,-452.49 86.72,-454.09 100.63,-455.76"/>
<polygon fill="#757575" stroke="#757575" points="100.5,-459.27 110.85,-456.99 101.34,-452.32 100.5,-459.27"/>
</g>
<!-- index.js&#45;&gt;index.css -->
<g id="edge92" class="edge">
<title>index.js&#45;&gt;index.css</title>
<path fill="none" stroke="#757575" d="M62.4,-444.02C89.5,-440.91 129.58,-436.32 160.6,-432.76"/>
<polygon fill="#757575" stroke="#757575" points="161.2,-436.22 170.73,-431.6 160.4,-429.26 161.2,-436.22"/>
</g>
<!-- serviceWorker.js -->
<g id="node55" class="node">
<title>serviceWorker.js</title>
<path fill="none" stroke="#cfffac" d="M257.83,-398C257.83,-398 157.17,-398 157.17,-398 153.33,-398 149.5,-394.17 149.5,-390.33 149.5,-390.33 149.5,-382.67 149.5,-382.67 149.5,-378.83 153.33,-375 157.17,-375 157.17,-375 257.83,-375 257.83,-375 261.67,-375 265.5,-378.83 265.5,-382.67 265.5,-382.67 265.5,-390.33 265.5,-390.33 265.5,-394.17 261.67,-398 257.83,-398"/>
<text text-anchor="middle" x="207.5" y="-382.8" font-family="Arial" font-size="14.00" fill="#cfffac">serviceWorker.js</text>
</g>
<!-- index.js&#45;&gt;serviceWorker.js -->
<g id="edge93" class="edge">
<title>index.js&#45;&gt;serviceWorker.js</title>
<path fill="none" stroke="#757575" d="M46.87,-435.99C59.71,-426.62 79.13,-413.8 98,-406.5 111.01,-401.47 125.4,-397.68 139.33,-394.84"/>
<polygon fill="#757575" stroke="#757575" points="140.19,-398.23 149.36,-392.93 138.88,-391.36 140.19,-398.23"/>
</g>
</g>
</svg>
