<?xml version="1.0" encoding="UTF-8" standalone="no"?>
<!DOCTYPE svg PUBLIC "-//W3C//DTD SVG 1.1//EN"
 "http://www.w3.org/Graphics/SVG/1.1/DTD/svg11.dtd">
<!-- Generated by graphviz version 2.43.0 (0)
 -->
<!-- Title: G Pages: 1 -->
<svg width="2302pt" height="721pt"
 viewBox="0.00 0.00 2302.20 721.15" xmlns="http://www.w3.org/2000/svg" xmlns:xlink="http://www.w3.org/1999/xlink">
<g id="graph0" class="graph" transform="scale(1 1) rotate(0) translate(21.6 699.55)">
<title>G</title>
<polygon fill="#111111" stroke="transparent" points="-21.6,21.6 -21.6,-699.55 2280.6,-699.55 2280.6,21.6 -21.6,21.6"/>
<!-- App.js -->
<g id="node1" class="node">
<title>App.js</title>
<path fill="none" stroke="#c6c5fe" d="M175.33,-291.95C175.33,-291.95 136.67,-291.95 136.67,-291.95 132.83,-291.95 129,-288.11 129,-284.28 129,-284.28 129,-276.61 129,-276.61 129,-272.78 132.83,-268.95 136.67,-268.95 136.67,-268.95 175.33,-268.95 175.33,-268.95 179.17,-268.95 183,-272.78 183,-276.61 183,-276.61 183,-284.28 183,-284.28 183,-288.11 179.17,-291.95 175.33,-291.95"/>
<text text-anchor="middle" x="156" y="-276.75" font-family="Arial" font-size="14.00" fill="#c6c5fe">App.js</text>
</g>
<!-- components/index.js -->
<g id="node2" class="node">
<title>components/index.js</title>
<path fill="none" stroke="#c6c5fe" d="M382.33,-291.95C382.33,-291.95 257.67,-291.95 257.67,-291.95 253.83,-291.95 250,-288.11 250,-284.28 250,-284.28 250,-276.61 250,-276.61 250,-272.78 253.83,-268.95 257.67,-268.95 257.67,-268.95 382.33,-268.95 382.33,-268.95 386.17,-268.95 390,-272.78 390,-276.61 390,-276.61 390,-284.28 390,-284.28 390,-288.11 386.17,-291.95 382.33,-291.95"/>
<text text-anchor="middle" x="320" y="-276.75" font-family="Arial" font-size="14.00" fill="#c6c5fe">components/index.js</text>
</g>
<!-- App.js&#45;&gt;components/index.js -->
<g id="edge1" class="edge">
<title>App.js&#45;&gt;components/index.js</title>
<path fill="none" stroke="#757575" d="M183.03,-280.45C198.55,-280.45 219.18,-280.45 239.67,-280.45"/>
<polygon fill="#757575" stroke="#757575" points="239.69,-283.95 249.69,-280.45 239.69,-276.95 239.69,-283.95"/>
</g>
<!-- components/Common/Input/index.js -->
<g id="node7" class="node">
<title>components/Common/Input/index.js</title>
<path fill="none" stroke="#c6c5fe" d="M1313.33,-636.95C1313.33,-636.95 1094.67,-636.95 1094.67,-636.95 1090.83,-636.95 1087,-633.11 1087,-629.28 1087,-629.28 1087,-621.61 1087,-621.61 1087,-617.78 1090.83,-613.95 1094.67,-613.95 1094.67,-613.95 1313.33,-613.95 1313.33,-613.95 1317.17,-613.95 1321,-617.78 1321,-621.61 1321,-621.61 1321,-629.28 1321,-629.28 1321,-633.11 1317.17,-636.95 1313.33,-636.95"/>
<text text-anchor="middle" x="1204" y="-621.75" font-family="Arial" font-size="14.00" fill="#c6c5fe">components/Common/Input/index.js</text>
</g>
<!-- components/index.js&#45;&gt;components/Common/Input/index.js -->
<g id="edge46" class="edge">
<title>components/index.js&#45;&gt;components/Common/Input/index.js</title>
<path fill="none" stroke="#757575" d="M321.86,-292.22C325.56,-333.33 343.89,-471.33 426,-533.45 525.64,-608.83 883.3,-623.38 1076.71,-625.6"/>
<polygon fill="#757575" stroke="#757575" points="1076.89,-629.1 1086.93,-625.71 1076.97,-622.1 1076.89,-629.1"/>
</g>
<!-- components/Common/Modal/index.js -->
<g id="node8" class="node">
<title>components/Common/Modal/index.js</title>
<path fill="none" stroke="#c6c5fe" d="M1317.33,-351.95C1317.33,-351.95 1090.67,-351.95 1090.67,-351.95 1086.83,-351.95 1083,-348.11 1083,-344.28 1083,-344.28 1083,-336.61 1083,-336.61 1083,-332.78 1086.83,-328.95 1090.67,-328.95 1090.67,-328.95 1317.33,-328.95 1317.33,-328.95 1321.17,-328.95 1325,-332.78 1325,-336.61 1325,-336.61 1325,-344.28 1325,-344.28 1325,-348.11 1321.17,-351.95 1317.33,-351.95"/>
<text text-anchor="middle" x="1204" y="-336.75" font-family="Arial" font-size="14.00" fill="#c6c5fe">components/Common/Modal/index.js</text>
</g>
<!-- components/index.js&#45;&gt;components/Common/Modal/index.js -->
<g id="edge47" class="edge">
<title>components/index.js&#45;&gt;components/Common/Modal/index.js</title>
<path fill="none" stroke="#757575" d="M390.27,-284.8C515.55,-292.71 788.16,-310.17 1018,-326.45 1035.62,-327.7 1054.18,-329.05 1072.47,-330.41"/>
<polygon fill="#757575" stroke="#757575" points="1072.37,-333.91 1082.6,-331.17 1072.89,-326.93 1072.37,-333.91"/>
</g>
<!-- components/Common/Select/index.js -->
<g id="node9" class="node">
<title>components/Common/Select/index.js</title>
<path fill="none" stroke="#c6c5fe" d="M1317.33,-515.95C1317.33,-515.95 1090.67,-515.95 1090.67,-515.95 1086.83,-515.95 1083,-512.11 1083,-508.28 1083,-508.28 1083,-500.61 1083,-500.61 1083,-496.78 1086.83,-492.95 1090.67,-492.95 1090.67,-492.95 1317.33,-492.95 1317.33,-492.95 1321.17,-492.95 1325,-496.78 1325,-500.61 1325,-500.61 1325,-508.28 1325,-508.28 1325,-512.11 1321.17,-515.95 1317.33,-515.95"/>
<text text-anchor="middle" x="1204" y="-500.75" font-family="Arial" font-size="14.00" fill="#c6c5fe">components/Common/Select/index.js</text>
</g>
<!-- components/index.js&#45;&gt;components/Common/Select/index.js -->
<g id="edge48" class="edge">
<title>components/index.js&#45;&gt;components/Common/Select/index.js</title>
<path fill="none" stroke="#757575" d="M327.26,-292.25C341.22,-317.23 377.51,-375.34 426,-401.45 534.95,-460.11 881.26,-487.41 1072.69,-498.3"/>
<polygon fill="#757575" stroke="#757575" points="1072.63,-501.8 1082.81,-498.87 1073.02,-494.81 1072.63,-501.8"/>
</g>
<!-- components/Common/TitleText/index.js -->
<g id="node10" class="node">
<title>components/Common/TitleText/index.js</title>
<path fill="none" stroke="#c6c5fe" d="M1323.33,-230.95C1323.33,-230.95 1084.67,-230.95 1084.67,-230.95 1080.83,-230.95 1077,-227.11 1077,-223.28 1077,-223.28 1077,-215.61 1077,-215.61 1077,-211.78 1080.83,-207.95 1084.67,-207.95 1084.67,-207.95 1323.33,-207.95 1323.33,-207.95 1327.17,-207.95 1331,-211.78 1331,-215.61 1331,-215.61 1331,-223.28 1331,-223.28 1331,-227.11 1327.17,-230.95 1323.33,-230.95"/>
<text text-anchor="middle" x="1204" y="-215.75" font-family="Arial" font-size="14.00" fill="#c6c5fe">components/Common/TitleText/index.js</text>
</g>
<!-- components/index.js&#45;&gt;components/Common/TitleText/index.js -->
<g id="edge49" class="edge">
<title>components/index.js&#45;&gt;components/Common/TitleText/index.js</title>
<path fill="none" stroke="#757575" d="M343.65,-268.95C364.46,-259.03 396.46,-245.41 426,-239.45 646.85,-194.91 910.12,-199.96 1066.55,-208.86"/>
<polygon fill="#757575" stroke="#757575" points="1066.51,-212.36 1076.69,-209.45 1066.91,-205.37 1066.51,-212.36"/>
</g>
<!-- components/Reminder/index.js -->
<g id="node11" class="node">
<title>components/Reminder/index.js</title>
<path fill="none" stroke="#c6c5fe" d="M1297.83,-392.95C1297.83,-392.95 1110.17,-392.95 1110.17,-392.95 1106.33,-392.95 1102.5,-389.11 1102.5,-385.28 1102.5,-385.28 1102.5,-377.61 1102.5,-377.61 1102.5,-373.78 1106.33,-369.95 1110.17,-369.95 1110.17,-369.95 1297.83,-369.95 1297.83,-369.95 1301.67,-369.95 1305.5,-373.78 1305.5,-377.61 1305.5,-377.61 1305.5,-385.28 1305.5,-385.28 1305.5,-389.11 1301.67,-392.95 1297.83,-392.95"/>
<text text-anchor="middle" x="1204" y="-377.75" font-family="Arial" font-size="14.00" fill="#c6c5fe">components/Reminder/index.js</text>
</g>
<!-- components/index.js&#45;&gt;components/Reminder/index.js -->
<g id="edge53" class="edge">
<title>components/index.js&#45;&gt;components/Reminder/index.js</title>
<path fill="none" stroke="#757575" d="M356.59,-292.03C376.74,-298.14 402.55,-305.24 426,-309.45 685.93,-356.13 755.22,-334.22 1018,-360.45 1043.27,-362.97 1070.46,-365.92 1096,-368.8"/>
<polygon fill="#757575" stroke="#757575" points="1095.75,-372.3 1106.08,-369.95 1096.54,-365.34 1095.75,-372.3"/>
</g>
<!-- components/AddressForm/index.js -->
<g id="node12" class="node">
<title>components/AddressForm/index.js</title>
<path fill="none" stroke="#c6c5fe" d="M652.33,-392.95C652.33,-392.95 441.67,-392.95 441.67,-392.95 437.83,-392.95 434,-389.11 434,-385.28 434,-385.28 434,-377.61 434,-377.61 434,-373.78 437.83,-369.95 441.67,-369.95 441.67,-369.95 652.33,-369.95 652.33,-369.95 656.17,-369.95 660,-373.78 660,-377.61 660,-377.61 660,-385.28 660,-385.28 660,-389.11 656.17,-392.95 652.33,-392.95"/>
<text text-anchor="middle" x="547" y="-377.75" font-family="Arial" font-size="14.00" fill="#c6c5fe">components/AddressForm/index.js</text>
</g>
<!-- components/index.js&#45;&gt;components/AddressForm/index.js -->
<g id="edge43" class="edge">
<title>components/index.js&#45;&gt;components/AddressForm/index.js</title>
<path fill="none" stroke="#757575" d="M333.88,-292.11C352.71,-308.53 389.51,-338.26 426,-354.45 437.82,-359.69 450.77,-363.97 463.64,-367.44"/>
<polygon fill="#757575" stroke="#757575" points="462.9,-370.86 473.45,-369.94 464.62,-364.08 462.9,-370.86"/>
</g>
<!-- components/Common/BodyText/index.jsx -->
<g id="node15" class="node">
<title>components/Common/BodyText/index.jsx</title>
<path fill="none" stroke="#c6c5fe" d="M1329.33,-109.95C1329.33,-109.95 1078.67,-109.95 1078.67,-109.95 1074.83,-109.95 1071,-106.11 1071,-102.28 1071,-102.28 1071,-94.61 1071,-94.61 1071,-90.78 1074.83,-86.95 1078.67,-86.95 1078.67,-86.95 1329.33,-86.95 1329.33,-86.95 1333.17,-86.95 1337,-90.78 1337,-94.61 1337,-94.61 1337,-102.28 1337,-102.28 1337,-106.11 1333.17,-109.95 1329.33,-109.95"/>
<text text-anchor="middle" x="1204" y="-94.75" font-family="Arial" font-size="14.00" fill="#c6c5fe">components/Common/BodyText/index.jsx</text>
</g>
<!-- components/index.js&#45;&gt;components/Common/BodyText/index.jsx -->
<g id="edge44" class="edge">
<title>components/index.js&#45;&gt;components/Common/BodyText/index.jsx</title>
<path fill="none" stroke="#757575" d="M326.9,-268.7C340.4,-243.25 376.26,-183.33 426,-158.45 543.93,-99.46 886.65,-129.98 1018,-118.45 1042.32,-116.31 1068.41,-113.69 1093.1,-111.06"/>
<polygon fill="#757575" stroke="#757575" points="1093.65,-114.53 1103.22,-109.98 1092.9,-107.57 1093.65,-114.53"/>
</g>
<!-- components/Common/Button/index.jsx -->
<g id="node17" class="node">
<title>components/Common/Button/index.jsx</title>
<path fill="none" stroke="#c6c5fe" d="M1958.33,-230.95C1958.33,-230.95 1723.67,-230.95 1723.67,-230.95 1719.83,-230.95 1716,-227.11 1716,-223.28 1716,-223.28 1716,-215.61 1716,-215.61 1716,-211.78 1719.83,-207.95 1723.67,-207.95 1723.67,-207.95 1958.33,-207.95 1958.33,-207.95 1962.17,-207.95 1966,-211.78 1966,-215.61 1966,-215.61 1966,-223.28 1966,-223.28 1966,-227.11 1962.17,-230.95 1958.33,-230.95"/>
<text text-anchor="middle" x="1841" y="-215.75" font-family="Arial" font-size="14.00" fill="#c6c5fe">components/Common/Button/index.jsx</text>
</g>
<!-- components/index.js&#45;&gt;components/Common/Button/index.jsx -->
<g id="edge45" class="edge">
<title>components/index.js&#45;&gt;components/Common/Button/index.jsx</title>
<path fill="none" stroke="#757575" d="M323.16,-268.86C330.42,-233.53 357.42,-126.6 426,-78.45 585.27,33.38 665.4,-20.45 860,-20.45 860,-20.45 860,-20.45 1205,-20.45 1416.5,-20.45 1488.49,40.32 1680,-49.45 1750.37,-82.43 1805.09,-161.38 1828.12,-198.93"/>
<polygon fill="#757575" stroke="#757575" points="1825.14,-200.76 1833.29,-207.53 1831.14,-197.16 1825.14,-200.76"/>
</g>
<!-- components/Donations/index.js -->
<g id="node24" class="node">
<title>components/Donations/index.js</title>
<path fill="none" stroke="#c6c5fe" d="M641.83,-190.95C641.83,-190.95 452.17,-190.95 452.17,-190.95 448.33,-190.95 444.5,-187.11 444.5,-183.28 444.5,-183.28 444.5,-175.61 444.5,-175.61 444.5,-171.78 448.33,-167.95 452.17,-167.95 452.17,-167.95 641.83,-167.95 641.83,-167.95 645.67,-167.95 649.5,-171.78 649.5,-175.61 649.5,-175.61 649.5,-183.28 649.5,-183.28 649.5,-187.11 645.67,-190.95 641.83,-190.95"/>
<text text-anchor="middle" x="547" y="-175.75" font-family="Arial" font-size="14.00" fill="#c6c5fe">components/Donations/index.js</text>
</g>
<!-- components/index.js&#45;&gt;components/Donations/index.js -->
<g id="edge50" class="edge">
<title>components/index.js&#45;&gt;components/Donations/index.js</title>
<path fill="none" stroke="#757575" d="M333.52,-268.86C352.2,-252.22 389.13,-221.77 426,-205.45 436.81,-200.66 448.57,-196.73 460.36,-193.5"/>
<polygon fill="#757575" stroke="#757575" points="461.44,-196.84 470.25,-190.96 459.7,-190.06 461.44,-196.84"/>
</g>
<!-- components/MobileTextForm/index.js -->
<g id="node28" class="node">
<title>components/MobileTextForm/index.js</title>
<path fill="none" stroke="#c6c5fe" d="M660.33,-524.95C660.33,-524.95 433.67,-524.95 433.67,-524.95 429.83,-524.95 426,-521.11 426,-517.28 426,-517.28 426,-509.61 426,-509.61 426,-505.78 429.83,-501.95 433.67,-501.95 433.67,-501.95 660.33,-501.95 660.33,-501.95 664.17,-501.95 668,-505.78 668,-509.61 668,-509.61 668,-517.28 668,-517.28 668,-521.11 664.17,-524.95 660.33,-524.95"/>
<text text-anchor="middle" x="547" y="-509.75" font-family="Arial" font-size="14.00" fill="#c6c5fe">components/MobileTextForm/index.js</text>
</g>
<!-- components/index.js&#45;&gt;components/MobileTextForm/index.js -->
<g id="edge51" class="edge">
<title>components/index.js&#45;&gt;components/MobileTextForm/index.js</title>
<path fill="none" stroke="#757575" d="M326.79,-292.09C340.85,-319.54 379.13,-389.47 426,-435.45 452.06,-461.02 487.75,-482.94 513.42,-496.97"/>
<polygon fill="#757575" stroke="#757575" points="511.92,-500.13 522.38,-501.77 515.22,-493.96 511.92,-500.13"/>
</g>
<!-- components/PrayerCard/index.js -->
<g id="node30" class="node">
<title>components/PrayerCard/index.js</title>
<path fill="none" stroke="#c6c5fe" d="M645.83,-110.95C645.83,-110.95 448.17,-110.95 448.17,-110.95 444.33,-110.95 440.5,-107.11 440.5,-103.28 440.5,-103.28 440.5,-95.61 440.5,-95.61 440.5,-91.78 444.33,-87.95 448.17,-87.95 448.17,-87.95 645.83,-87.95 645.83,-87.95 649.67,-87.95 653.5,-91.78 653.5,-95.61 653.5,-95.61 653.5,-103.28 653.5,-103.28 653.5,-107.11 649.67,-110.95 645.83,-110.95"/>
<text text-anchor="middle" x="547" y="-95.75" font-family="Arial" font-size="14.00" fill="#c6c5fe">components/PrayerCard/index.js</text>
</g>
<!-- components/index.js&#45;&gt;components/PrayerCard/index.js -->
<g id="edge52" class="edge">
<title>components/index.js&#45;&gt;components/PrayerCard/index.js</title>
<path fill="none" stroke="#757575" d="M325.27,-268.89C336.67,-239.71 370.8,-162.76 426,-125.45 432.19,-121.26 438.94,-117.74 445.97,-114.77"/>
<polygon fill="#757575" stroke="#757575" points="447.62,-117.88 455.72,-111.05 445.13,-111.34 447.62,-117.88"/>
</g>
<!-- components/ThankYou/index.js -->
<g id="node33" class="node">
<title>components/ThankYou/index.js</title>
<path fill="none" stroke="#c6c5fe" d="M642.33,-271.95C642.33,-271.95 451.67,-271.95 451.67,-271.95 447.83,-271.95 444,-268.11 444,-264.28 444,-264.28 444,-256.61 444,-256.61 444,-252.78 447.83,-248.95 451.67,-248.95 451.67,-248.95 642.33,-248.95 642.33,-248.95 646.17,-248.95 650,-252.78 650,-256.61 650,-256.61 650,-264.28 650,-264.28 650,-268.11 646.17,-271.95 642.33,-271.95"/>
<text text-anchor="middle" x="547" y="-256.75" font-family="Arial" font-size="14.00" fill="#c6c5fe">components/ThankYou/index.js</text>
</g>
<!-- components/index.js&#45;&gt;components/ThankYou/index.js -->
<g id="edge54" class="edge">
<title>components/index.js&#45;&gt;components/ThankYou/index.js</title>
<path fill="none" stroke="#757575" d="M390.04,-274.31C403.89,-273.08 418.78,-271.76 433.67,-270.43"/>
<polygon fill="#757575" stroke="#757575" points="434.32,-273.89 443.97,-269.52 433.7,-266.92 434.32,-273.89"/>
</g>
<!-- atoms.js -->
<g id="node3" class="node">
<title>atoms.js</title>
<path fill="none" stroke="#cfffac" d="M1230.33,-310.95C1230.33,-310.95 1177.67,-310.95 1177.67,-310.95 1173.83,-310.95 1170,-307.11 1170,-303.28 1170,-303.28 1170,-295.61 1170,-295.61 1170,-291.78 1173.83,-287.95 1177.67,-287.95 1177.67,-287.95 1230.33,-287.95 1230.33,-287.95 1234.17,-287.95 1238,-291.78 1238,-295.61 1238,-295.61 1238,-303.28 1238,-303.28 1238,-307.11 1234.17,-310.95 1230.33,-310.95"/>
<text text-anchor="middle" x="1204" y="-295.75" font-family="Arial" font-size="14.00" fill="#cfffac">atoms.js</text>
</g>
<!-- components/AddressForm/AddressForm.jsx -->
<g id="node4" class="node">
<title>components/AddressForm/AddressForm.jsx</title>
<path fill="none" stroke="#c6c5fe" d="M994.33,-392.95C994.33,-392.95 727.67,-392.95 727.67,-392.95 723.83,-392.95 720,-389.11 720,-385.28 720,-385.28 720,-377.61 720,-377.61 720,-373.78 723.83,-369.95 727.67,-369.95 727.67,-369.95 994.33,-369.95 994.33,-369.95 998.17,-369.95 1002,-373.78 1002,-377.61 1002,-377.61 1002,-385.28 1002,-385.28 1002,-389.11 998.17,-392.95 994.33,-392.95"/>
<text text-anchor="middle" x="861" y="-377.75" font-family="Arial" font-size="14.00" fill="#c6c5fe">components/AddressForm/AddressForm.jsx</text>
</g>
<!-- components/AddressForm/AddressForm.jsx&#45;&gt;atoms.js -->
<g id="edge2" class="edge">
<title>components/AddressForm/AddressForm.jsx&#45;&gt;atoms.js</title>
<path fill="none" stroke="#757575" d="M892.12,-369.86C929.54,-355.9 995.58,-332.69 1054,-319.45 1089.18,-311.47 1129.8,-306.28 1159.74,-303.19"/>
<polygon fill="#757575" stroke="#757575" points="1160.25,-306.66 1169.85,-302.18 1159.55,-299.69 1160.25,-306.66"/>
</g>
<!-- components/AddressForm/AddressSchema.js -->
<g id="node5" class="node">
<title>components/AddressForm/AddressSchema.js</title>
<path fill="none" stroke="#cfffac" d="M1342.83,-433.95C1342.83,-433.95 1065.17,-433.95 1065.17,-433.95 1061.33,-433.95 1057.5,-430.11 1057.5,-426.28 1057.5,-426.28 1057.5,-418.61 1057.5,-418.61 1057.5,-414.78 1061.33,-410.95 1065.17,-410.95 1065.17,-410.95 1342.83,-410.95 1342.83,-410.95 1346.67,-410.95 1350.5,-414.78 1350.5,-418.61 1350.5,-418.61 1350.5,-426.28 1350.5,-426.28 1350.5,-430.11 1346.67,-433.95 1342.83,-433.95"/>
<text text-anchor="middle" x="1204" y="-418.75" font-family="Arial" font-size="14.00" fill="#cfffac">components/AddressForm/AddressSchema.js</text>
</g>
<!-- components/AddressForm/AddressForm.jsx&#45;&gt;components/AddressForm/AddressSchema.js -->
<g id="edge3" class="edge">
<title>components/AddressForm/AddressForm.jsx&#45;&gt;components/AddressForm/AddressSchema.js</title>
<path fill="none" stroke="#757575" d="M957.89,-392.98C1001.3,-398.2 1052.74,-404.38 1097.26,-409.73"/>
<polygon fill="#757575" stroke="#757575" points="1096.89,-413.21 1107.23,-410.93 1097.72,-406.26 1096.89,-413.21"/>
</g>
<!-- components/AddressForm/options.js -->
<g id="node6" class="node">
<title>components/AddressForm/options.js</title>
<path fill="none" stroke="#c6c5fe" d="M1314.83,-474.95C1314.83,-474.95 1093.17,-474.95 1093.17,-474.95 1089.33,-474.95 1085.5,-471.11 1085.5,-467.28 1085.5,-467.28 1085.5,-459.61 1085.5,-459.61 1085.5,-455.78 1089.33,-451.95 1093.17,-451.95 1093.17,-451.95 1314.83,-451.95 1314.83,-451.95 1318.67,-451.95 1322.5,-455.78 1322.5,-459.61 1322.5,-459.61 1322.5,-467.28 1322.5,-467.28 1322.5,-471.11 1318.67,-474.95 1314.83,-474.95"/>
<text text-anchor="middle" x="1204" y="-459.75" font-family="Arial" font-size="14.00" fill="#c6c5fe">components/AddressForm/options.js</text>
</g>
<!-- components/AddressForm/AddressForm.jsx&#45;&gt;components/AddressForm/options.js -->
<g id="edge4" class="edge">
<title>components/AddressForm/AddressForm.jsx&#45;&gt;components/AddressForm/options.js</title>
<path fill="none" stroke="#757575" d="M979.49,-393.04C992.87,-396.68 1005.99,-401.38 1018,-407.45 1037.91,-417.52 1033.96,-432.63 1054,-442.45 1060.93,-445.84 1068.24,-448.73 1075.76,-451.19"/>
<polygon fill="#757575" stroke="#757575" points="1074.79,-454.56 1085.37,-454.08 1076.8,-447.85 1074.79,-454.56"/>
</g>
<!-- components/AddressForm/AddressForm.jsx&#45;&gt;components/Common/Input/index.js -->
<g id="edge5" class="edge">
<title>components/AddressForm/AddressForm.jsx&#45;&gt;components/Common/Input/index.js</title>
<path fill="none" stroke="#757575" d="M881.19,-393.01C912.68,-412.67 976,-455.23 1018,-503.45 1038.93,-527.47 1029.91,-544.59 1054,-565.45 1079.09,-587.18 1113.07,-601.68 1142.24,-610.97"/>
<polygon fill="#757575" stroke="#757575" points="1141.34,-614.35 1151.93,-613.92 1143.38,-607.65 1141.34,-614.35"/>
</g>
<!-- components/AddressForm/AddressForm.jsx&#45;&gt;components/Common/Modal/index.js -->
<g id="edge6" class="edge">
<title>components/AddressForm/AddressForm.jsx&#45;&gt;components/Common/Modal/index.js</title>
<path fill="none" stroke="#757575" d="M957.89,-369.92C1001.3,-364.7 1052.74,-358.51 1097.26,-353.16"/>
<polygon fill="#757575" stroke="#757575" points="1097.72,-356.63 1107.23,-351.96 1096.89,-349.68 1097.72,-356.63"/>
</g>
<!-- components/AddressForm/AddressForm.jsx&#45;&gt;components/Common/Select/index.js -->
<g id="edge7" class="edge">
<title>components/AddressForm/AddressForm.jsx&#45;&gt;components/Common/Select/index.js</title>
<path fill="none" stroke="#757575" d="M992.52,-393.01C1001.6,-396.83 1010.22,-401.57 1018,-407.45 1047.83,-429.97 1023.89,-461.3 1054,-483.45 1060,-487.86 1066.52,-491.56 1073.36,-494.63"/>
<polygon fill="#757575" stroke="#757575" points="1072.29,-497.97 1082.87,-498.45 1074.9,-491.48 1072.29,-497.97"/>
</g>
<!-- components/AddressForm/AddressForm.jsx&#45;&gt;components/Common/TitleText/index.js -->
<g id="edge8" class="edge">
<title>components/AddressForm/AddressForm.jsx&#45;&gt;components/Common/TitleText/index.js</title>
<path fill="none" stroke="#757575" d="M881.79,-369.85C916.19,-349.91 989.5,-308.4 1054,-278.45 1089.37,-262.03 1130.67,-245.9 1160.81,-234.67"/>
<polygon fill="#757575" stroke="#757575" points="1162.41,-237.81 1170.58,-231.05 1159.98,-231.24 1162.41,-237.81"/>
</g>
<!-- components/AddressForm/AddressForm.jsx&#45;&gt;components/Reminder/index.js -->
<g id="edge9" class="edge">
<title>components/AddressForm/AddressForm.jsx&#45;&gt;components/Reminder/index.js</title>
<path fill="none" stroke="#757575" d="M1002.17,-381.45C1032.24,-381.45 1063.62,-381.45 1092.38,-381.45"/>
<polygon fill="#757575" stroke="#757575" points="1092.44,-384.95 1102.44,-381.45 1092.44,-377.95 1092.44,-384.95"/>
</g>
<!-- components/AddressForm/statesList.js -->
<g id="node13" class="node">
<title>components/AddressForm/statesList.js</title>
<path fill="none" stroke="#cfffac" d="M1652.83,-474.95C1652.83,-474.95 1417.17,-474.95 1417.17,-474.95 1413.33,-474.95 1409.5,-471.11 1409.5,-467.28 1409.5,-467.28 1409.5,-459.61 1409.5,-459.61 1409.5,-455.78 1413.33,-451.95 1417.17,-451.95 1417.17,-451.95 1652.83,-451.95 1652.83,-451.95 1656.67,-451.95 1660.5,-455.78 1660.5,-459.61 1660.5,-459.61 1660.5,-467.28 1660.5,-467.28 1660.5,-471.11 1656.67,-474.95 1652.83,-474.95"/>
<text text-anchor="middle" x="1535" y="-459.75" font-family="Arial" font-size="14.00" fill="#cfffac">components/AddressForm/statesList.js</text>
</g>
<!-- components/AddressForm/options.js&#45;&gt;components/AddressForm/statesList.js -->
<g id="edge11" class="edge">
<title>components/AddressForm/options.js&#45;&gt;components/AddressForm/statesList.js</title>
<path fill="none" stroke="#757575" d="M1322.85,-463.45C1347.67,-463.45 1374.04,-463.45 1399.42,-463.45"/>
<polygon fill="#757575" stroke="#757575" points="1399.47,-466.95 1409.47,-463.45 1399.47,-459.95 1399.47,-466.95"/>
</g>
<!-- components/Common/Input/Input.jsx -->
<g id="node18" class="node">
<title>components/Common/Input/Input.jsx</title>
<path fill="none" stroke="#cfffac" d="M1646.83,-636.95C1646.83,-636.95 1423.17,-636.95 1423.17,-636.95 1419.33,-636.95 1415.5,-633.11 1415.5,-629.28 1415.5,-629.28 1415.5,-621.61 1415.5,-621.61 1415.5,-617.78 1419.33,-613.95 1423.17,-613.95 1423.17,-613.95 1646.83,-613.95 1646.83,-613.95 1650.67,-613.95 1654.5,-617.78 1654.5,-621.61 1654.5,-621.61 1654.5,-629.28 1654.5,-629.28 1654.5,-633.11 1650.67,-636.95 1646.83,-636.95"/>
<text text-anchor="middle" x="1535" y="-621.75" font-family="Arial" font-size="14.00" fill="#cfffac">components/Common/Input/Input.jsx</text>
</g>
<!-- components/Common/Input/index.js&#45;&gt;components/Common/Input/Input.jsx -->
<g id="edge14" class="edge">
<title>components/Common/Input/index.js&#45;&gt;components/Common/Input/Input.jsx</title>
<path fill="none" stroke="#757575" d="M1321.46,-625.45C1348.62,-625.45 1377.7,-625.45 1405.36,-625.45"/>
<polygon fill="#757575" stroke="#757575" points="1405.48,-628.95 1415.48,-625.45 1405.48,-621.95 1405.48,-628.95"/>
</g>
<!-- components/Common/Modal/modal.jsx -->
<g id="node19" class="node">
<title>components/Common/Modal/modal.jsx</title>
<path fill="none" stroke="#cfffac" d="M1654.33,-351.95C1654.33,-351.95 1415.67,-351.95 1415.67,-351.95 1411.83,-351.95 1408,-348.11 1408,-344.28 1408,-344.28 1408,-336.61 1408,-336.61 1408,-332.78 1411.83,-328.95 1415.67,-328.95 1415.67,-328.95 1654.33,-328.95 1654.33,-328.95 1658.17,-328.95 1662,-332.78 1662,-336.61 1662,-336.61 1662,-344.28 1662,-344.28 1662,-348.11 1658.17,-351.95 1654.33,-351.95"/>
<text text-anchor="middle" x="1535" y="-336.75" font-family="Arial" font-size="14.00" fill="#cfffac">components/Common/Modal/modal.jsx</text>
</g>
<!-- components/Common/Modal/index.js&#45;&gt;components/Common/Modal/modal.jsx -->
<g id="edge15" class="edge">
<title>components/Common/Modal/index.js&#45;&gt;components/Common/Modal/modal.jsx</title>
<path fill="none" stroke="#757575" d="M1325.17,-340.45C1348.7,-340.45 1373.54,-340.45 1397.56,-340.45"/>
<polygon fill="#757575" stroke="#757575" points="1397.79,-343.95 1407.79,-340.45 1397.79,-336.95 1397.79,-343.95"/>
</g>
<!-- components/Common/Select/Select.jsx -->
<g id="node20" class="node">
<title>components/Common/Select/Select.jsx</title>
<path fill="none" stroke="#cfffac" d="M1654.33,-515.95C1654.33,-515.95 1415.67,-515.95 1415.67,-515.95 1411.83,-515.95 1408,-512.11 1408,-508.28 1408,-508.28 1408,-500.61 1408,-500.61 1408,-496.78 1411.83,-492.95 1415.67,-492.95 1415.67,-492.95 1654.33,-492.95 1654.33,-492.95 1658.17,-492.95 1662,-496.78 1662,-500.61 1662,-500.61 1662,-508.28 1662,-508.28 1662,-512.11 1658.17,-515.95 1654.33,-515.95"/>
<text text-anchor="middle" x="1535" y="-500.75" font-family="Arial" font-size="14.00" fill="#cfffac">components/Common/Select/Select.jsx</text>
</g>
<!-- components/Common/Select/index.js&#45;&gt;components/Common/Select/Select.jsx -->
<g id="edge16" class="edge">
<title>components/Common/Select/index.js&#45;&gt;components/Common/Select/Select.jsx</title>
<path fill="none" stroke="#757575" d="M1325.17,-504.45C1348.7,-504.45 1373.54,-504.45 1397.56,-504.45"/>
<polygon fill="#757575" stroke="#757575" points="1397.79,-507.95 1407.79,-504.45 1397.79,-500.95 1397.79,-507.95"/>
</g>
<!-- components/Common/TitleText/TitleText.jsx -->
<g id="node21" class="node">
<title>components/Common/TitleText/TitleText.jsx</title>
<path fill="none" stroke="#cfffac" d="M1666.83,-230.95C1666.83,-230.95 1403.17,-230.95 1403.17,-230.95 1399.33,-230.95 1395.5,-227.11 1395.5,-223.28 1395.5,-223.28 1395.5,-215.61 1395.5,-215.61 1395.5,-211.78 1399.33,-207.95 1403.17,-207.95 1403.17,-207.95 1666.83,-207.95 1666.83,-207.95 1670.67,-207.95 1674.5,-211.78 1674.5,-215.61 1674.5,-215.61 1674.5,-223.28 1674.5,-223.28 1674.5,-227.11 1670.67,-230.95 1666.83,-230.95"/>
<text text-anchor="middle" x="1535" y="-215.75" font-family="Arial" font-size="14.00" fill="#cfffac">components/Common/TitleText/TitleText.jsx</text>
</g>
<!-- components/Common/TitleText/index.js&#45;&gt;components/Common/TitleText/TitleText.jsx -->
<g id="edge17" class="edge">
<title>components/Common/TitleText/index.js&#45;&gt;components/Common/TitleText/TitleText.jsx</title>
<path fill="none" stroke="#757575" d="M1331.26,-219.45C1349,-219.45 1367.36,-219.45 1385.46,-219.45"/>
<polygon fill="#757575" stroke="#757575" points="1385.49,-222.95 1395.49,-219.45 1385.49,-215.95 1385.49,-222.95"/>
</g>
<!-- components/Reminder/reminder.jsx -->
<g id="node31" class="node">
<title>components/Reminder/reminder.jsx</title>
<path fill="none" stroke="#c6c5fe" d="M1643.33,-392.95C1643.33,-392.95 1426.67,-392.95 1426.67,-392.95 1422.83,-392.95 1419,-389.11 1419,-385.28 1419,-385.28 1419,-377.61 1419,-377.61 1419,-373.78 1422.83,-369.95 1426.67,-369.95 1426.67,-369.95 1643.33,-369.95 1643.33,-369.95 1647.17,-369.95 1651,-373.78 1651,-377.61 1651,-377.61 1651,-385.28 1651,-385.28 1651,-389.11 1647.17,-392.95 1643.33,-392.95"/>
<text text-anchor="middle" x="1535" y="-377.75" font-family="Arial" font-size="14.00" fill="#c6c5fe">components/Reminder/reminder.jsx</text>
</g>
<!-- components/Reminder/index.js&#45;&gt;components/Reminder/reminder.jsx -->
<g id="edge36" class="edge">
<title>components/Reminder/index.js&#45;&gt;components/Reminder/reminder.jsx</title>
<path fill="none" stroke="#757575" d="M1305.95,-381.45C1338.3,-381.45 1374.53,-381.45 1408.42,-381.45"/>
<polygon fill="#757575" stroke="#757575" points="1408.86,-384.95 1418.86,-381.45 1408.86,-377.95 1408.86,-384.95"/>
</g>
<!-- components/AddressForm/index.js&#45;&gt;components/AddressForm/AddressForm.jsx -->
<g id="edge10" class="edge">
<title>components/AddressForm/index.js&#45;&gt;components/AddressForm/AddressForm.jsx</title>
<path fill="none" stroke="#757575" d="M660.2,-381.45C676.26,-381.45 692.99,-381.45 709.64,-381.45"/>
<polygon fill="#757575" stroke="#757575" points="709.98,-384.95 719.98,-381.45 709.98,-377.95 709.98,-384.95"/>
</g>
<!-- components/Common/BodyText/BodyText.jsx -->
<g id="node14" class="node">
<title>components/Common/BodyText/BodyText.jsx</title>
<path fill="none" stroke="#cfffac" d="M1672.33,-109.95C1672.33,-109.95 1397.67,-109.95 1397.67,-109.95 1393.83,-109.95 1390,-106.11 1390,-102.28 1390,-102.28 1390,-94.61 1390,-94.61 1390,-90.78 1393.83,-86.95 1397.67,-86.95 1397.67,-86.95 1672.33,-86.95 1672.33,-86.95 1676.17,-86.95 1680,-90.78 1680,-94.61 1680,-94.61 1680,-102.28 1680,-102.28 1680,-106.11 1676.17,-109.95 1672.33,-109.95"/>
<text text-anchor="middle" x="1535" y="-94.75" font-family="Arial" font-size="14.00" fill="#cfffac">components/Common/BodyText/BodyText.jsx</text>
</g>
<!-- components/Common/BodyText/index.jsx&#45;&gt;components/Common/BodyText/BodyText.jsx -->
<g id="edge12" class="edge">
<title>components/Common/BodyText/index.jsx&#45;&gt;components/Common/BodyText/BodyText.jsx</title>
<path fill="none" stroke="#757575" d="M1337.39,-98.45C1351.26,-98.45 1365.44,-98.45 1379.53,-98.45"/>
<polygon fill="#757575" stroke="#757575" points="1379.76,-101.95 1389.76,-98.45 1379.76,-94.95 1379.76,-101.95"/>
</g>
<!-- components/Common/Button/Button.jsx -->
<g id="node16" class="node">
<title>components/Common/Button/Button.jsx</title>
<path fill="none" stroke="#cfffac" d="M2251.33,-230.95C2251.33,-230.95 2009.67,-230.95 2009.67,-230.95 2005.83,-230.95 2002,-227.11 2002,-223.28 2002,-223.28 2002,-215.61 2002,-215.61 2002,-211.78 2005.83,-207.95 2009.67,-207.95 2009.67,-207.95 2251.33,-207.95 2251.33,-207.95 2255.17,-207.95 2259,-211.78 2259,-215.61 2259,-215.61 2259,-223.28 2259,-223.28 2259,-227.11 2255.17,-230.95 2251.33,-230.95"/>
<text text-anchor="middle" x="2130.5" y="-215.75" font-family="Arial" font-size="14.00" fill="#cfffac">components/Common/Button/Button.jsx</text>
</g>
<!-- components/Common/Button/index.jsx&#45;&gt;components/Common/Button/Button.jsx -->
<g id="edge13" class="edge">
<title>components/Common/Button/index.jsx&#45;&gt;components/Common/Button/Button.jsx</title>
<path fill="none" stroke="#757575" d="M1966.01,-219.45C1974.53,-219.45 1983.15,-219.45 1991.73,-219.45"/>
<polygon fill="#757575" stroke="#757575" points="1991.79,-222.95 2001.79,-219.45 1991.79,-215.95 1991.79,-222.95"/>
</g>
<!-- components/Donations/Donations.jsx -->
<g id="node22" class="node">
<title>components/Donations/Donations.jsx</title>
<path fill="none" stroke="#c6c5fe" d="M973.33,-190.95C973.33,-190.95 748.67,-190.95 748.67,-190.95 744.83,-190.95 741,-187.11 741,-183.28 741,-183.28 741,-175.61 741,-175.61 741,-171.78 744.83,-167.95 748.67,-167.95 748.67,-167.95 973.33,-167.95 973.33,-167.95 977.17,-167.95 981,-171.78 981,-175.61 981,-175.61 981,-183.28 981,-183.28 981,-187.11 977.17,-190.95 973.33,-190.95"/>
<text text-anchor="middle" x="861" y="-175.75" font-family="Arial" font-size="14.00" fill="#c6c5fe">components/Donations/Donations.jsx</text>
</g>
<!-- components/Donations/Donations.jsx&#45;&gt;atoms.js -->
<g id="edge18" class="edge">
<title>components/Donations/Donations.jsx&#45;&gt;atoms.js</title>
<path fill="none" stroke="#757575" d="M894.7,-190.95C956.74,-212.79 1091.5,-260.21 1160.47,-284.48"/>
<polygon fill="#757575" stroke="#757575" points="1159.56,-287.87 1170.15,-287.89 1161.88,-281.27 1159.56,-287.87"/>
</g>
<!-- components/Donations/Donations.jsx&#45;&gt;components/Common/TitleText/index.js -->
<g id="edge21" class="edge">
<title>components/Donations/Donations.jsx&#45;&gt;components/Common/TitleText/index.js</title>
<path fill="none" stroke="#757575" d="M960.17,-190.96C1002.34,-195.91 1051.75,-201.71 1094.95,-206.77"/>
<polygon fill="#757575" stroke="#757575" points="1094.59,-210.25 1104.93,-207.94 1095.4,-203.3 1094.59,-210.25"/>
</g>
<!-- components/Donations/Donations.jsx&#45;&gt;components/Common/BodyText/index.jsx -->
<g id="edge19" class="edge">
<title>components/Donations/Donations.jsx&#45;&gt;components/Common/BodyText/index.jsx</title>
<path fill="none" stroke="#757575" d="M979.49,-167.85C992.87,-164.22 1005.99,-159.52 1018,-153.45 1037.91,-143.38 1033.93,-128.2 1054,-118.45 1057.66,-116.67 1061.42,-115.03 1065.27,-113.53"/>
<polygon fill="#757575" stroke="#757575" points="1066.74,-116.72 1074.98,-110.06 1064.39,-110.13 1066.74,-116.72"/>
</g>
<!-- components/Donations/Donations.jsx&#45;&gt;components/Common/Button/index.jsx -->
<g id="edge20" class="edge">
<title>components/Donations/Donations.jsx&#45;&gt;components/Common/Button/index.jsx</title>
<path fill="none" stroke="#757575" d="M981.07,-178.22C1140.48,-177.49 1431.97,-179.35 1680,-198.45 1704.32,-200.32 1730.6,-203.35 1754.7,-206.53"/>
<polygon fill="#757575" stroke="#757575" points="1754.51,-210.03 1764.88,-207.9 1755.44,-203.1 1754.51,-210.03"/>
</g>
<!-- integrations/donationAPI.js -->
<g id="node23" class="node">
<title>integrations/donationAPI.js</title>
<path fill="none" stroke="#cfffac" d="M1284.83,-150.95C1284.83,-150.95 1123.17,-150.95 1123.17,-150.95 1119.33,-150.95 1115.5,-147.11 1115.5,-143.28 1115.5,-143.28 1115.5,-135.61 1115.5,-135.61 1115.5,-131.78 1119.33,-127.95 1123.17,-127.95 1123.17,-127.95 1284.83,-127.95 1284.83,-127.95 1288.67,-127.95 1292.5,-131.78 1292.5,-135.61 1292.5,-135.61 1292.5,-143.28 1292.5,-143.28 1292.5,-147.11 1288.67,-150.95 1284.83,-150.95"/>
<text text-anchor="middle" x="1204" y="-135.75" font-family="Arial" font-size="14.00" fill="#cfffac">integrations/donationAPI.js</text>
</g>
<!-- components/Donations/Donations.jsx&#45;&gt;integrations/donationAPI.js -->
<g id="edge22" class="edge">
<title>components/Donations/Donations.jsx&#45;&gt;integrations/donationAPI.js</title>
<path fill="none" stroke="#757575" d="M960.17,-167.93C1005.72,-162.59 1059.72,-156.25 1105.22,-150.92"/>
<polygon fill="#757575" stroke="#757575" points="1105.86,-154.37 1115.39,-149.72 1105.05,-147.41 1105.86,-154.37"/>
</g>
<!-- components/Donations/index.js&#45;&gt;components/Donations/Donations.jsx -->
<g id="edge23" class="edge">
<title>components/Donations/index.js&#45;&gt;components/Donations/Donations.jsx</title>
<path fill="none" stroke="#757575" d="M649.73,-179.45C675.51,-179.45 703.55,-179.45 730.5,-179.45"/>
<polygon fill="#757575" stroke="#757575" points="730.77,-182.95 740.77,-179.45 730.77,-175.95 730.77,-182.95"/>
</g>
<!-- components/MobileTextForm/MobileSchema.js -->
<g id="node25" class="node">
<title>components/MobileTextForm/MobileSchema.js</title>
<path fill="none" stroke="#cfffac" d="M1346.33,-556.95C1346.33,-556.95 1061.67,-556.95 1061.67,-556.95 1057.83,-556.95 1054,-553.11 1054,-549.28 1054,-549.28 1054,-541.61 1054,-541.61 1054,-537.78 1057.83,-533.95 1061.67,-533.95 1061.67,-533.95 1346.33,-533.95 1346.33,-533.95 1350.17,-533.95 1354,-537.78 1354,-541.61 1354,-541.61 1354,-549.28 1354,-549.28 1354,-553.11 1350.17,-556.95 1346.33,-556.95"/>
<text text-anchor="middle" x="1204" y="-541.75" font-family="Arial" font-size="14.00" fill="#cfffac">components/MobileTextForm/MobileSchema.js</text>
</g>
<!-- components/MobileTextForm/MobileTextForm.jsx -->
<g id="node26" class="node">
<title>components/MobileTextForm/MobileTextForm.jsx</title>
<path fill="none" stroke="#c6c5fe" d="M1010.33,-535.95C1010.33,-535.95 711.67,-535.95 711.67,-535.95 707.83,-535.95 704,-532.11 704,-528.28 704,-528.28 704,-520.61 704,-520.61 704,-516.78 707.83,-512.95 711.67,-512.95 711.67,-512.95 1010.33,-512.95 1010.33,-512.95 1014.17,-512.95 1018,-516.78 1018,-520.61 1018,-520.61 1018,-528.28 1018,-528.28 1018,-532.11 1014.17,-535.95 1010.33,-535.95"/>
<text text-anchor="middle" x="861" y="-520.75" font-family="Arial" font-size="14.00" fill="#c6c5fe">components/MobileTextForm/MobileTextForm.jsx</text>
</g>
<!-- components/MobileTextForm/MobileTextForm.jsx&#45;&gt;atoms.js -->
<g id="edge24" class="edge">
<title>components/MobileTextForm/MobileTextForm.jsx&#45;&gt;atoms.js</title>
<path fill="none" stroke="#757575" d="M882.6,-512.8C915.22,-493.45 979.07,-451.78 1018,-401.45 1042.35,-369.97 1022.2,-343.39 1054,-319.45 1084.11,-296.79 1127.64,-293.32 1159.89,-294.61"/>
<polygon fill="#757575" stroke="#757575" points="1159.75,-298.11 1169.93,-295.18 1160.14,-291.12 1159.75,-298.11"/>
</g>
<!-- components/MobileTextForm/MobileTextForm.jsx&#45;&gt;components/Common/Input/index.js -->
<g id="edge26" class="edge">
<title>components/MobileTextForm/MobileTextForm.jsx&#45;&gt;components/Common/Input/index.js</title>
<path fill="none" stroke="#757575" d="M953.33,-535.97C975.48,-541.29 998.41,-549.07 1018,-560.45 1038.4,-572.29 1033.29,-588.16 1054,-599.45 1062.3,-603.97 1071.21,-607.74 1080.4,-610.87"/>
<polygon fill="#757575" stroke="#757575" points="1079.47,-614.25 1090.06,-613.91 1081.57,-607.57 1079.47,-614.25"/>
</g>
<!-- components/MobileTextForm/MobileTextForm.jsx&#45;&gt;components/Common/Select/index.js -->
<g id="edge27" class="edge">
<title>components/MobileTextForm/MobileTextForm.jsx&#45;&gt;components/Common/Select/index.js</title>
<path fill="none" stroke="#757575" d="M1018.03,-515.3C1036.21,-514.23 1054.61,-513.15 1072.39,-512.11"/>
<polygon fill="#757575" stroke="#757575" points="1073.01,-515.58 1082.79,-511.5 1072.6,-508.59 1073.01,-515.58"/>
</g>
<!-- components/MobileTextForm/MobileTextForm.jsx&#45;&gt;components/Common/TitleText/index.js -->
<g id="edge28" class="edge">
<title>components/MobileTextForm/MobileTextForm.jsx&#45;&gt;components/Common/TitleText/index.js</title>
<path fill="none" stroke="#757575" d="M884.2,-512.91C918.14,-494.13 982.68,-453.75 1018,-401.45 1049.88,-354.24 1015.62,-320.54 1054,-278.45 1073.87,-256.66 1102.82,-242.8 1129.93,-234.04"/>
<polygon fill="#757575" stroke="#757575" points="1131.27,-237.29 1139.82,-231.03 1129.23,-230.59 1131.27,-237.29"/>
</g>
<!-- components/MobileTextForm/MobileTextForm.jsx&#45;&gt;components/Common/Button/index.jsx -->
<g id="edge25" class="edge">
<title>components/MobileTextForm/MobileTextForm.jsx&#45;&gt;components/Common/Button/index.jsx</title>
<path fill="none" stroke="#757575" d="M910.42,-536.01C957.81,-547.09 1026.71,-562.57 1054,-565.45 1192.64,-580.09 1565.45,-603.9 1680,-524.45 1781.57,-454 1823.43,-298.45 1835.79,-241.17"/>
<polygon fill="#757575" stroke="#757575" points="1839.28,-241.58 1837.87,-231.08 1832.42,-240.17 1839.28,-241.58"/>
</g>
<!-- components/MobileTextForm/MobileTextForm.jsx&#45;&gt;components/MobileTextForm/MobileSchema.js -->
<g id="edge29" class="edge">
<title>components/MobileTextForm/MobileTextForm.jsx&#45;&gt;components/MobileTextForm/MobileSchema.js</title>
<path fill="none" stroke="#757575" d="M1018.03,-534.06C1026.6,-534.58 1035.22,-535.12 1043.8,-535.64"/>
<polygon fill="#757575" stroke="#757575" points="1043.66,-539.14 1053.85,-536.26 1044.09,-532.15 1043.66,-539.14"/>
</g>
<!-- components/MobileTextForm/options.js -->
<g id="node27" class="node">
<title>components/MobileTextForm/options.js</title>
<path fill="none" stroke="#cfffac" d="M1322.83,-677.95C1322.83,-677.95 1085.17,-677.95 1085.17,-677.95 1081.33,-677.95 1077.5,-674.11 1077.5,-670.28 1077.5,-670.28 1077.5,-662.61 1077.5,-662.61 1077.5,-658.78 1081.33,-654.95 1085.17,-654.95 1085.17,-654.95 1322.83,-654.95 1322.83,-654.95 1326.67,-654.95 1330.5,-658.78 1330.5,-662.61 1330.5,-662.61 1330.5,-670.28 1330.5,-670.28 1330.5,-674.11 1326.67,-677.95 1322.83,-677.95"/>
<text text-anchor="middle" x="1204" y="-662.75" font-family="Arial" font-size="14.00" fill="#cfffac">components/MobileTextForm/options.js</text>
</g>
<!-- components/MobileTextForm/MobileTextForm.jsx&#45;&gt;components/MobileTextForm/options.js -->
<g id="edge30" class="edge">
<title>components/MobileTextForm/MobileTextForm.jsx&#45;&gt;components/MobileTextForm/options.js</title>
<path fill="none" stroke="#757575" d="M875.79,-536.27C905.86,-561.33 980.54,-619.65 1054,-646.45 1060.03,-648.65 1066.29,-650.61 1072.66,-652.36"/>
<polygon fill="#757575" stroke="#757575" points="1072.2,-655.86 1082.75,-654.94 1073.93,-649.07 1072.2,-655.86"/>
</g>
<!-- components/MobileTextForm/index.js&#45;&gt;components/MobileTextForm/MobileTextForm.jsx -->
<g id="edge31" class="edge">
<title>components/MobileTextForm/index.js&#45;&gt;components/MobileTextForm/MobileTextForm.jsx</title>
<path fill="none" stroke="#757575" d="M668.18,-517.68C676.57,-517.98 685.11,-518.28 693.69,-518.58"/>
<polygon fill="#757575" stroke="#757575" points="693.65,-522.08 703.77,-518.94 693.9,-515.09 693.65,-522.08"/>
</g>
<!-- components/PrayerCard/PrayerCard.jsx -->
<g id="node29" class="node">
<title>components/PrayerCard/PrayerCard.jsx</title>
<path fill="none" stroke="#c6c5fe" d="M981.83,-109.95C981.83,-109.95 740.17,-109.95 740.17,-109.95 736.33,-109.95 732.5,-106.11 732.5,-102.28 732.5,-102.28 732.5,-94.61 732.5,-94.61 732.5,-90.78 736.33,-86.95 740.17,-86.95 740.17,-86.95 981.83,-86.95 981.83,-86.95 985.67,-86.95 989.5,-90.78 989.5,-94.61 989.5,-94.61 989.5,-102.28 989.5,-102.28 989.5,-106.11 985.67,-109.95 981.83,-109.95"/>
<text text-anchor="middle" x="861" y="-94.75" font-family="Arial" font-size="14.00" fill="#c6c5fe">components/PrayerCard/PrayerCard.jsx</text>
</g>
<!-- components/PrayerCard/PrayerCard.jsx&#45;&gt;components/Common/TitleText/index.js -->
<g id="edge34" class="edge">
<title>components/PrayerCard/PrayerCard.jsx&#45;&gt;components/Common/TitleText/index.js</title>
<path fill="none" stroke="#757575" d="M894.7,-110.05C956.82,-132.09 1091.85,-180.01 1160.74,-204.45"/>
<polygon fill="#757575" stroke="#757575" points="1159.81,-207.84 1170.4,-207.88 1162.15,-201.24 1159.81,-207.84"/>
</g>
<!-- components/PrayerCard/PrayerCard.jsx&#45;&gt;components/Common/BodyText/index.jsx -->
<g id="edge32" class="edge">
<title>components/PrayerCard/PrayerCard.jsx&#45;&gt;components/Common/BodyText/index.jsx</title>
<path fill="none" stroke="#757575" d="M989.95,-98.45C1013.1,-98.45 1037.37,-98.45 1060.89,-98.45"/>
<polygon fill="#757575" stroke="#757575" points="1060.92,-101.95 1070.92,-98.45 1060.92,-94.95 1060.92,-101.95"/>
</g>
<!-- components/PrayerCard/PrayerCard.jsx&#45;&gt;components/Common/Button/index.jsx -->
<g id="edge33" class="edge">
<title>components/PrayerCard/PrayerCard.jsx&#45;&gt;components/Common/Button/index.jsx</title>
<path fill="none" stroke="#757575" d="M958.22,-86.94C1145.24,-66.05 1550.76,-28.37 1680,-77.45 1744.74,-102.03 1800.06,-166.14 1825.33,-199.15"/>
<polygon fill="#757575" stroke="#757575" points="1822.85,-201.68 1831.64,-207.58 1828.45,-197.48 1822.85,-201.68"/>
</g>
<!-- components/PrayerCard/index.js&#45;&gt;components/PrayerCard/PrayerCard.jsx -->
<g id="edge35" class="edge">
<title>components/PrayerCard/index.js&#45;&gt;components/PrayerCard/PrayerCard.jsx</title>
<path fill="none" stroke="#757575" d="M653.63,-99.11C675.65,-99.04 699.17,-98.96 722.16,-98.89"/>
<polygon fill="#757575" stroke="#757575" points="722.34,-102.39 732.32,-98.86 722.31,-95.39 722.34,-102.39"/>
</g>
<!-- components/Reminder/reminder.jsx&#45;&gt;components/Common/Button/index.jsx -->
<g id="edge37" class="edge">
<title>components/Reminder/reminder.jsx&#45;&gt;components/Common/Button/index.jsx</title>
<path fill="none" stroke="#757575" d="M1651.34,-370.79C1661.25,-368.04 1670.94,-364.64 1680,-360.45 1742.34,-331.58 1798.37,-270.49 1824.48,-239.05"/>
<polygon fill="#757575" stroke="#757575" points="1827.43,-240.98 1831.04,-231.02 1822,-236.55 1827.43,-240.98"/>
</g>
<!-- components/ThankYou/ThankYou.jsx -->
<g id="node32" class="node">
<title>components/ThankYou/ThankYou.jsx</title>
<path fill="none" stroke="#c6c5fe" d="M974.33,-270.95C974.33,-270.95 747.67,-270.95 747.67,-270.95 743.83,-270.95 740,-267.11 740,-263.28 740,-263.28 740,-255.61 740,-255.61 740,-251.78 743.83,-247.95 747.67,-247.95 747.67,-247.95 974.33,-247.95 974.33,-247.95 978.17,-247.95 982,-251.78 982,-255.61 982,-255.61 982,-263.28 982,-263.28 982,-267.11 978.17,-270.95 974.33,-270.95"/>
<text text-anchor="middle" x="861" y="-255.75" font-family="Arial" font-size="14.00" fill="#c6c5fe">components/ThankYou/ThankYou.jsx</text>
</g>
<!-- components/ThankYou/ThankYou.jsx&#45;&gt;atoms.js -->
<g id="edge38" class="edge">
<title>components/ThankYou/ThankYou.jsx&#45;&gt;atoms.js</title>
<path fill="none" stroke="#757575" d="M960.17,-270.96C1026.12,-278.7 1109.78,-288.51 1159.71,-294.37"/>
<polygon fill="#757575" stroke="#757575" points="1159.49,-297.87 1169.83,-295.56 1160.31,-290.92 1159.49,-297.87"/>
</g>
<!-- components/ThankYou/ThankYou.jsx&#45;&gt;components/Common/TitleText/index.js -->
<g id="edge41" class="edge">
<title>components/ThankYou/ThankYou.jsx&#45;&gt;components/Common/TitleText/index.js</title>
<path fill="none" stroke="#757575" d="M960.17,-247.93C1002.34,-242.99 1051.75,-237.19 1094.95,-232.12"/>
<polygon fill="#757575" stroke="#757575" points="1095.4,-235.59 1104.93,-230.95 1094.59,-228.64 1095.4,-235.59"/>
</g>
<!-- components/ThankYou/ThankYou.jsx&#45;&gt;components/Common/BodyText/index.jsx -->
<g id="edge39" class="edge">
<title>components/ThankYou/ThankYou.jsx&#45;&gt;components/Common/BodyText/index.jsx</title>
<path fill="none" stroke="#757575" d="M922.47,-247.92C954.2,-239.2 991.81,-224.33 1018,-199.45 1046.56,-172.31 1022.47,-142.07 1054,-118.45 1056.53,-116.55 1059.15,-114.79 1061.86,-113.16"/>
<polygon fill="#757575" stroke="#757575" points="1063.61,-116.19 1070.74,-108.36 1060.28,-110.03 1063.61,-116.19"/>
</g>
<!-- components/ThankYou/ThankYou.jsx&#45;&gt;components/Common/Button/index.jsx -->
<g id="edge40" class="edge">
<title>components/ThankYou/ThankYou.jsx&#45;&gt;components/Common/Button/index.jsx</title>
<path fill="none" stroke="#757575" d="M982.08,-260.26C1141.7,-260.48 1432.44,-257.9 1680,-239.45 1702.86,-237.74 1727.46,-235.08 1750.36,-232.25"/>
<polygon fill="#757575" stroke="#757575" points="1750.92,-235.71 1760.4,-230.99 1750.04,-228.77 1750.92,-235.71"/>
</g>
<!-- components/ThankYou/index.js&#45;&gt;components/ThankYou/ThankYou.jsx -->
<g id="edge42" class="edge">
<title>components/ThankYou/index.js&#45;&gt;components/ThankYou/ThankYou.jsx</title>
<path fill="none" stroke="#757575" d="M650.16,-260.12C675.61,-260.04 703.24,-259.95 729.84,-259.86"/>
<polygon fill="#757575" stroke="#757575" points="729.99,-263.36 739.98,-259.83 729.96,-256.36 729.99,-263.36"/>
</g>
<!-- index.css -->
<g id="node34" class="node">
<title>index.css</title>
<path fill="none" stroke="#cfffac" d="M184.83,-250.95C184.83,-250.95 127.17,-250.95 127.17,-250.95 123.33,-250.95 119.5,-247.11 119.5,-243.28 119.5,-243.28 119.5,-235.61 119.5,-235.61 119.5,-231.78 123.33,-227.95 127.17,-227.95 127.17,-227.95 184.83,-227.95 184.83,-227.95 188.67,-227.95 192.5,-231.78 192.5,-235.61 192.5,-235.61 192.5,-243.28 192.5,-243.28 192.5,-247.11 188.67,-250.95 184.83,-250.95"/>
<text text-anchor="middle" x="156" y="-235.75" font-family="Arial" font-size="14.00" fill="#cfffac">index.css</text>
</g>
<!-- index.js -->
<g id="node35" class="node">
<title>index.js</title>
<path fill="none" stroke="#c6c5fe" d="M54.33,-250.95C54.33,-250.95 7.67,-250.95 7.67,-250.95 3.83,-250.95 0,-247.11 0,-243.28 0,-243.28 0,-235.61 0,-235.61 0,-231.78 3.83,-227.95 7.67,-227.95 7.67,-227.95 54.33,-227.95 54.33,-227.95 58.17,-227.95 62,-231.78 62,-235.61 62,-235.61 62,-243.28 62,-243.28 62,-247.11 58.17,-250.95 54.33,-250.95"/>
<text text-anchor="middle" x="31" y="-235.75" font-family="Arial" font-size="14.00" fill="#c6c5fe">index.js</text>
</g>
<!-- index.js&#45;&gt;App.js -->
<g id="edge55" class="edge">
<title>index.js&#45;&gt;App.js</title>
<path fill="none" stroke="#757575" d="M62.09,-249.48C79.37,-255.24 101.18,-262.51 119.32,-268.55"/>
<polygon fill="#757575" stroke="#757575" points="118.38,-271.93 128.97,-271.77 120.59,-265.29 118.38,-271.93"/>
</g>
<!-- index.js&#45;&gt;index.css -->
<g id="edge56" class="edge">
<title>index.js&#45;&gt;index.css</title>
<path fill="none" stroke="#757575" d="M62.09,-239.45C76.21,-239.45 93.35,-239.45 109.04,-239.45"/>
<polygon fill="#757575" stroke="#757575" points="109.1,-242.95 119.1,-239.45 109.1,-235.95 109.1,-242.95"/>
</g>
<!-- serviceWorker.js -->
<g id="node36" class="node">
<title>serviceWorker.js</title>
<path fill="none" stroke="#cfffac" d="M206.33,-209.95C206.33,-209.95 105.67,-209.95 105.67,-209.95 101.83,-209.95 98,-206.11 98,-202.28 98,-202.28 98,-194.61 98,-194.61 98,-190.78 101.83,-186.95 105.67,-186.95 105.67,-186.95 206.33,-186.95 206.33,-186.95 210.17,-186.95 214,-190.78 214,-194.61 214,-194.61 214,-202.28 214,-202.28 214,-206.11 210.17,-209.95 206.33,-209.95"/>
<text text-anchor="middle" x="156" y="-194.75" font-family="Arial" font-size="14.00" fill="#cfffac">serviceWorker.js</text>
</g>
<!-- index.js&#45;&gt;serviceWorker.js -->
<g id="edge57" class="edge">
<title>index.js&#45;&gt;serviceWorker.js</title>
<path fill="none" stroke="#757575" d="M62.09,-229.42C76.7,-224.55 94.53,-218.6 110.66,-213.23"/>
<polygon fill="#757575" stroke="#757575" points="112.06,-216.45 120.44,-209.97 109.84,-209.81 112.06,-216.45"/>
</g>
</g>
</svg>
