<?xml version="1.0" encoding="UTF-8" standalone="no"?>
<!DOCTYPE svg PUBLIC "-//W3C//DTD SVG 1.1//EN"
 "http://www.w3.org/Graphics/SVG/1.1/DTD/svg11.dtd">
<!-- Generated by graphviz version 2.43.0 (0)
 -->
<!-- Title: G Pages: 1 -->
<svg width="2678pt" height="1270pt"
 viewBox="0.00 0.00 2678.20 1269.66" xmlns="http://www.w3.org/2000/svg" xmlns:xlink="http://www.w3.org/1999/xlink">
<g id="graph0" class="graph" transform="scale(1 1) rotate(0) translate(21.6 1248.06)">
<title>G</title>
<polygon fill="#111111" stroke="transparent" points="-21.6,21.6 -21.6,-1248.06 2656.6,-1248.06 2656.6,21.6 -21.6,21.6"/>
<!-- App.js -->
<g id="node1" class="node">
<title>App.js</title>
<path fill="none" stroke="#c6c5fe" d="M226.83,-379.46C226.83,-379.46 188.17,-379.46 188.17,-379.46 184.33,-379.46 180.5,-375.63 180.5,-371.8 180.5,-371.8 180.5,-364.13 180.5,-364.13 180.5,-360.3 184.33,-356.46 188.17,-356.46 188.17,-356.46 226.83,-356.46 226.83,-356.46 230.67,-356.46 234.5,-360.3 234.5,-364.13 234.5,-364.13 234.5,-371.8 234.5,-371.8 234.5,-375.63 230.67,-379.46 226.83,-379.46"/>
<text text-anchor="middle" x="207.5" y="-364.26" font-family="Arial" font-size="14.00" fill="#c6c5fe">App.js</text>
</g>
<!-- auth/protected&#45;route.js -->
<g id="node2" class="node">
<title>auth/protected&#45;route.js</title>
<path fill="none" stroke="#c6c5fe" d="M512.33,-379.46C512.33,-379.46 375.67,-379.46 375.67,-379.46 371.83,-379.46 368,-375.63 368,-371.8 368,-371.8 368,-364.13 368,-364.13 368,-360.3 371.83,-356.46 375.67,-356.46 375.67,-356.46 512.33,-356.46 512.33,-356.46 516.17,-356.46 520,-360.3 520,-364.13 520,-364.13 520,-371.8 520,-371.8 520,-375.63 516.17,-379.46 512.33,-379.46"/>
<text text-anchor="middle" x="444" y="-364.26" font-family="Arial" font-size="14.00" fill="#c6c5fe">auth/protected&#45;route.js</text>
</g>
<!-- App.js&#45;&gt;auth/protected&#45;route.js -->
<g id="edge1" class="edge">
<title>App.js&#45;&gt;auth/protected&#45;route.js</title>
<path fill="none" stroke="#757575" d="M234.94,-367.96C264.67,-367.96 314.46,-367.96 357.88,-367.96"/>
<polygon fill="#757575" stroke="#757575" points="357.9,-371.46 367.9,-367.96 357.9,-364.46 357.9,-371.46"/>
</g>
<!-- components/Profile/index.js -->
<g id="node3" class="node">
<title>components/Profile/index.js</title>
<path fill="none" stroke="#c6c5fe" d="M527.33,-338.46C527.33,-338.46 360.67,-338.46 360.67,-338.46 356.83,-338.46 353,-334.63 353,-330.8 353,-330.8 353,-323.13 353,-323.13 353,-319.3 356.83,-315.46 360.67,-315.46 360.67,-315.46 527.33,-315.46 527.33,-315.46 531.17,-315.46 535,-319.3 535,-323.13 535,-323.13 535,-330.8 535,-330.8 535,-334.63 531.17,-338.46 527.33,-338.46"/>
<text text-anchor="middle" x="444" y="-323.26" font-family="Arial" font-size="14.00" fill="#c6c5fe">components/Profile/index.js</text>
</g>
<!-- App.js&#45;&gt;components/Profile/index.js -->
<g id="edge2" class="edge">
<title>App.js&#45;&gt;components/Profile/index.js</title>
<path fill="none" stroke="#757575" d="M234.94,-363.34C266.79,-357.77 321.67,-348.18 367.07,-340.24"/>
<polygon fill="#757575" stroke="#757575" points="367.95,-343.64 377.2,-338.47 366.75,-336.74 367.95,-343.64"/>
</g>
<!-- components/index.js -->
<g id="node4" class="node">
<title>components/index.js</title>
<path fill="none" stroke="#c6c5fe" d="M730.83,-399.46C730.83,-399.46 606.17,-399.46 606.17,-399.46 602.33,-399.46 598.5,-395.63 598.5,-391.8 598.5,-391.8 598.5,-384.13 598.5,-384.13 598.5,-380.3 602.33,-376.46 606.17,-376.46 606.17,-376.46 730.83,-376.46 730.83,-376.46 734.67,-376.46 738.5,-380.3 738.5,-384.13 738.5,-384.13 738.5,-391.8 738.5,-391.8 738.5,-395.63 734.67,-399.46 730.83,-399.46"/>
<text text-anchor="middle" x="668.5" y="-384.26" font-family="Arial" font-size="14.00" fill="#c6c5fe">components/index.js</text>
</g>
<!-- App.js&#45;&gt;components/index.js -->
<g id="edge3" class="edge">
<title>App.js&#45;&gt;components/index.js</title>
<path fill="none" stroke="#757575" d="M234.74,-372.94C263.6,-378.14 311.41,-385.96 353,-388.96 433.68,-394.8 454.11,-389.27 535,-388.96 552.21,-388.9 570.68,-388.79 588.2,-388.66"/>
<polygon fill="#757575" stroke="#757575" points="588.41,-392.16 598.39,-388.58 588.36,-385.16 588.41,-392.16"/>
</g>
<!-- auth/protected&#45;route.js&#45;&gt;components/index.js -->
<g id="edge4" class="edge">
<title>auth/protected&#45;route.js&#45;&gt;components/index.js</title>
<path fill="none" stroke="#757575" d="M520.02,-374.71C542.01,-376.68 566.12,-378.85 588.36,-380.85"/>
<polygon fill="#757575" stroke="#757575" points="588.16,-384.35 598.43,-381.75 588.78,-377.37 588.16,-384.35"/>
</g>
<!-- components/Profile/Profile.jsx -->
<g id="node44" class="node">
<title>components/Profile/Profile.jsx</title>
<path fill="none" stroke="#cfffac" d="M758.33,-338.46C758.33,-338.46 578.67,-338.46 578.67,-338.46 574.83,-338.46 571,-334.63 571,-330.8 571,-330.8 571,-323.13 571,-323.13 571,-319.3 574.83,-315.46 578.67,-315.46 578.67,-315.46 758.33,-315.46 758.33,-315.46 762.17,-315.46 766,-319.3 766,-323.13 766,-323.13 766,-330.8 766,-330.8 766,-334.63 762.17,-338.46 758.33,-338.46"/>
<text text-anchor="middle" x="668.5" y="-323.26" font-family="Arial" font-size="14.00" fill="#cfffac">components/Profile/Profile.jsx</text>
</g>
<!-- components/Profile/index.js&#45;&gt;components/Profile/Profile.jsx -->
<g id="edge57" class="edge">
<title>components/Profile/index.js&#45;&gt;components/Profile/Profile.jsx</title>
<path fill="none" stroke="#757575" d="M535.18,-326.96C543.49,-326.96 551.96,-326.96 560.39,-326.96"/>
<polygon fill="#757575" stroke="#757575" points="560.66,-330.46 570.66,-326.96 560.66,-323.46 560.66,-330.46"/>
</g>
<!-- components/Common/Input/index.js -->
<g id="node10" class="node">
<title>components/Common/Input/index.js</title>
<path fill="none" stroke="#c6c5fe" d="M2326.33,-645.46C2326.33,-645.46 2107.67,-645.46 2107.67,-645.46 2103.83,-645.46 2100,-641.63 2100,-637.8 2100,-637.8 2100,-630.13 2100,-630.13 2100,-626.3 2103.83,-622.46 2107.67,-622.46 2107.67,-622.46 2326.33,-622.46 2326.33,-622.46 2330.17,-622.46 2334,-626.3 2334,-630.13 2334,-630.13 2334,-637.8 2334,-637.8 2334,-641.63 2330.17,-645.46 2326.33,-645.46"/>
<text text-anchor="middle" x="2217" y="-630.26" font-family="Arial" font-size="14.00" fill="#c6c5fe">components/Common/Input/index.js</text>
</g>
<!-- components/index.js&#45;&gt;components/Common/Input/index.js -->
<g id="edge81" class="edge">
<title>components/index.js&#45;&gt;components/Common/Input/index.js</title>
<path fill="none" stroke="#757575" d="M674.74,-399.68C689.67,-431.72 735.71,-521.43 802,-566.96 907.68,-639.55 953.36,-623.98 1080,-643.96 1454.31,-703.03 1906.65,-667.8 2109.05,-646.55"/>
<polygon fill="#757575" stroke="#757575" points="2109.51,-650.02 2119.09,-645.49 2108.77,-643.06 2109.51,-650.02"/>
</g>
<!-- components/Common/Modal/index.js -->
<g id="node11" class="node">
<title>components/Common/Modal/index.js</title>
<path fill="none" stroke="#c6c5fe" d="M1693.33,-1067.46C1693.33,-1067.46 1466.67,-1067.46 1466.67,-1067.46 1462.83,-1067.46 1459,-1063.63 1459,-1059.8 1459,-1059.8 1459,-1052.13 1459,-1052.13 1459,-1048.3 1462.83,-1044.46 1466.67,-1044.46 1466.67,-1044.46 1693.33,-1044.46 1693.33,-1044.46 1697.17,-1044.46 1701,-1048.3 1701,-1052.13 1701,-1052.13 1701,-1059.8 1701,-1059.8 1701,-1063.63 1697.17,-1067.46 1693.33,-1067.46"/>
<text text-anchor="middle" x="1580" y="-1052.26" font-family="Arial" font-size="14.00" fill="#c6c5fe">components/Common/Modal/index.js</text>
</g>
<!-- components/index.js&#45;&gt;components/Common/Modal/index.js -->
<g id="edge82" class="edge">
<title>components/index.js&#45;&gt;components/Common/Modal/index.js</title>
<path fill="none" stroke="#757575" d="M670.96,-399.72C679.74,-468.3 727.49,-816.13 802,-887.96 893.07,-975.76 1252.12,-1023.96 1448.68,-1044.26"/>
<polygon fill="#757575" stroke="#757575" points="1448.47,-1047.75 1458.78,-1045.29 1449.19,-1040.79 1448.47,-1047.75"/>
</g>
<!-- components/Common/Select/index.js -->
<g id="node12" class="node">
<title>components/Common/Select/index.js</title>
<path fill="none" stroke="#c6c5fe" d="M1693.33,-828.46C1693.33,-828.46 1466.67,-828.46 1466.67,-828.46 1462.83,-828.46 1459,-824.63 1459,-820.8 1459,-820.8 1459,-813.13 1459,-813.13 1459,-809.3 1462.83,-805.46 1466.67,-805.46 1466.67,-805.46 1693.33,-805.46 1693.33,-805.46 1697.17,-805.46 1701,-809.3 1701,-813.13 1701,-813.13 1701,-820.8 1701,-820.8 1701,-824.63 1697.17,-828.46 1693.33,-828.46"/>
<text text-anchor="middle" x="1580" y="-813.26" font-family="Arial" font-size="14.00" fill="#c6c5fe">components/Common/Select/index.js</text>
</g>
<!-- components/index.js&#45;&gt;components/Common/Select/index.js -->
<g id="edge83" class="edge">
<title>components/index.js&#45;&gt;components/Common/Select/index.js</title>
<path fill="none" stroke="#757575" d="M669.58,-399.7C670.61,-451.53 682.27,-661.49 802,-752.96 900.32,-828.08 1254.48,-828.55 1448.93,-822.68"/>
<polygon fill="#757575" stroke="#757575" points="1449.04,-826.18 1458.92,-822.37 1448.82,-819.18 1449.04,-826.18"/>
</g>
<!-- components/Common/TitleText/index.js -->
<g id="node13" class="node">
<title>components/Common/TitleText/index.js</title>
<path fill="none" stroke="#c6c5fe" d="M1699.33,-317.46C1699.33,-317.46 1460.67,-317.46 1460.67,-317.46 1456.83,-317.46 1453,-313.63 1453,-309.8 1453,-309.8 1453,-302.13 1453,-302.13 1453,-298.3 1456.83,-294.46 1460.67,-294.46 1460.67,-294.46 1699.33,-294.46 1699.33,-294.46 1703.17,-294.46 1707,-298.3 1707,-302.13 1707,-302.13 1707,-309.8 1707,-309.8 1707,-313.63 1703.17,-317.46 1699.33,-317.46"/>
<text text-anchor="middle" x="1580" y="-302.26" font-family="Arial" font-size="14.00" fill="#c6c5fe">components/Common/TitleText/index.js</text>
</g>
<!-- components/index.js&#45;&gt;components/Common/TitleText/index.js -->
<g id="edge84" class="edge">
<title>components/index.js&#45;&gt;components/Common/TitleText/index.js</title>
<path fill="none" stroke="#757575" d="M735.75,-376.41C756.87,-373.01 780.37,-369.52 802,-366.96 1025.86,-340.48 1287.4,-322.63 1442.79,-313.4"/>
<polygon fill="#757575" stroke="#757575" points="1443.09,-316.88 1452.87,-312.8 1442.68,-309.9 1443.09,-316.88"/>
</g>
<!-- components/Reminder/index.js -->
<g id="node14" class="node">
<title>components/Reminder/index.js</title>
<path fill="none" stroke="#c6c5fe" d="M1673.83,-358.46C1673.83,-358.46 1486.17,-358.46 1486.17,-358.46 1482.33,-358.46 1478.5,-354.63 1478.5,-350.8 1478.5,-350.8 1478.5,-343.13 1478.5,-343.13 1478.5,-339.3 1482.33,-335.46 1486.17,-335.46 1486.17,-335.46 1673.83,-335.46 1673.83,-335.46 1677.67,-335.46 1681.5,-339.3 1681.5,-343.13 1681.5,-343.13 1681.5,-350.8 1681.5,-350.8 1681.5,-354.63 1677.67,-358.46 1673.83,-358.46"/>
<text text-anchor="middle" x="1580" y="-343.26" font-family="Arial" font-size="14.00" fill="#c6c5fe">components/Reminder/index.js</text>
</g>
<!-- components/index.js&#45;&gt;components/Reminder/index.js -->
<g id="edge89" class="edge">
<title>components/index.js&#45;&gt;components/Reminder/index.js</title>
<path fill="none" stroke="#757575" d="M738.61,-384.85C895.2,-377.79 1278.17,-360.52 1468.25,-351.96"/>
<polygon fill="#757575" stroke="#757575" points="1468.43,-355.45 1478.26,-351.5 1468.12,-348.46 1468.43,-355.45"/>
</g>
<!-- components/AddressForm/index.js -->
<g id="node16" class="node">
<title>components/AddressForm/index.js</title>
<path fill="none" stroke="#c6c5fe" d="M1028.33,-878.46C1028.33,-878.46 817.67,-878.46 817.67,-878.46 813.83,-878.46 810,-874.63 810,-870.8 810,-870.8 810,-863.13 810,-863.13 810,-859.3 813.83,-855.46 817.67,-855.46 817.67,-855.46 1028.33,-855.46 1028.33,-855.46 1032.17,-855.46 1036,-859.3 1036,-863.13 1036,-863.13 1036,-870.8 1036,-870.8 1036,-874.63 1032.17,-878.46 1028.33,-878.46"/>
<text text-anchor="middle" x="923" y="-863.26" font-family="Arial" font-size="14.00" fill="#c6c5fe">components/AddressForm/index.js</text>
</g>
<!-- components/index.js&#45;&gt;components/AddressForm/index.js -->
<g id="edge76" class="edge">
<title>components/index.js&#45;&gt;components/AddressForm/index.js</title>
<path fill="none" stroke="#757575" d="M669.55,-399.78C670.42,-455.16 681.32,-691.64 802,-820.96 815.42,-835.34 833.82,-845.27 852.18,-852.11"/>
<polygon fill="#757575" stroke="#757575" points="851.16,-855.46 861.76,-855.41 853.44,-848.84 851.16,-855.46"/>
</g>
<!-- components/Common/Button/index.jsx -->
<g id="node22" class="node">
<title>components/Common/Button/index.jsx</title>
<path fill="none" stroke="#c6c5fe" d="M2334.33,-237.46C2334.33,-237.46 2099.67,-237.46 2099.67,-237.46 2095.83,-237.46 2092,-233.63 2092,-229.8 2092,-229.8 2092,-222.13 2092,-222.13 2092,-218.3 2095.83,-214.46 2099.67,-214.46 2099.67,-214.46 2334.33,-214.46 2334.33,-214.46 2338.17,-214.46 2342,-218.3 2342,-222.13 2342,-222.13 2342,-229.8 2342,-229.8 2342,-233.63 2338.17,-237.46 2334.33,-237.46"/>
<text text-anchor="middle" x="2217" y="-222.26" font-family="Arial" font-size="14.00" fill="#c6c5fe">components/Common/Button/index.jsx</text>
</g>
<!-- components/index.js&#45;&gt;components/Common/Button/index.jsx -->
<g id="edge80" class="edge">
<title>components/index.js&#45;&gt;components/Common/Button/index.jsx</title>
<path fill="none" stroke="#757575" d="M724,-376.39C739.8,-370.43 755.58,-361.45 766,-347.96 837.31,-255.64 719.6,-170.54 802,-87.96 939.59,49.91 1041.22,-26.96 1236,-26.96 1236,-26.96 1236,-26.96 1581,-26.96 1792.28,-26.96 1865.03,44.42 2056,-45.96 2129.16,-80.59 2183.17,-165.78 2205.15,-205.26"/>
<polygon fill="#757575" stroke="#757575" points="2202.19,-207.14 2210.05,-214.26 2208.34,-203.8 2202.19,-207.14"/>
</g>
<!-- components/Authority/index.js -->
<g id="node23" class="node">
<title>components/Authority/index.js</title>
<path fill="none" stroke="#c6c5fe" d="M1327.83,-119.46C1327.83,-119.46 1146.17,-119.46 1146.17,-119.46 1142.33,-119.46 1138.5,-115.63 1138.5,-111.8 1138.5,-111.8 1138.5,-104.13 1138.5,-104.13 1138.5,-100.3 1142.33,-96.46 1146.17,-96.46 1146.17,-96.46 1327.83,-96.46 1327.83,-96.46 1331.67,-96.46 1335.5,-100.3 1335.5,-104.13 1335.5,-104.13 1335.5,-111.8 1335.5,-111.8 1335.5,-115.63 1331.67,-119.46 1327.83,-119.46"/>
<text text-anchor="middle" x="1237" y="-104.26" font-family="Arial" font-size="14.00" fill="#c6c5fe">components/Authority/index.js</text>
</g>
<!-- components/index.js&#45;&gt;components/Authority/index.js -->
<g id="edge77" class="edge">
<title>components/index.js&#45;&gt;components/Authority/index.js</title>
<path fill="none" stroke="#757575" d="M722.21,-376.44C738.39,-370.45 754.85,-361.45 766,-347.96 816.32,-287.1 744.7,-228.3 802,-173.96 896.54,-84.31 1058.35,-84.97 1155.43,-95.29"/>
<polygon fill="#757575" stroke="#757575" points="1155.16,-98.78 1165.48,-96.42 1155.94,-91.83 1155.16,-98.78"/>
</g>
<!-- components/Checkout/index.js -->
<g id="node26" class="node">
<title>components/Checkout/index.js</title>
<path fill="none" stroke="#c6c5fe" d="M1015.83,-1017.46C1015.83,-1017.46 830.17,-1017.46 830.17,-1017.46 826.33,-1017.46 822.5,-1013.63 822.5,-1009.8 822.5,-1009.8 822.5,-1002.13 822.5,-1002.13 822.5,-998.3 826.33,-994.46 830.17,-994.46 830.17,-994.46 1015.83,-994.46 1015.83,-994.46 1019.67,-994.46 1023.5,-998.3 1023.5,-1002.13 1023.5,-1002.13 1023.5,-1009.8 1023.5,-1009.8 1023.5,-1013.63 1019.67,-1017.46 1015.83,-1017.46"/>
<text text-anchor="middle" x="923" y="-1002.26" font-family="Arial" font-size="14.00" fill="#c6c5fe">components/Checkout/index.js</text>
</g>
<!-- components/index.js&#45;&gt;components/Checkout/index.js -->
<g id="edge78" class="edge">
<title>components/index.js&#45;&gt;components/Checkout/index.js</title>
<path fill="none" stroke="#757575" d="M669.51,-399.65C670.12,-460.14 679.68,-741.82 802,-920.96 823.12,-951.89 859.44,-975.29 886.61,-989.63"/>
<polygon fill="#757575" stroke="#757575" points="885.29,-992.89 895.79,-994.32 888.48,-986.65 885.29,-992.89"/>
</g>
<!-- components/Common/BodyText/index.jsx -->
<g id="node28" class="node">
<title>components/Common/BodyText/index.jsx</title>
<path fill="none" stroke="#c6c5fe" d="M1705.33,-199.46C1705.33,-199.46 1454.67,-199.46 1454.67,-199.46 1450.83,-199.46 1447,-195.63 1447,-191.8 1447,-191.8 1447,-184.13 1447,-184.13 1447,-180.3 1450.83,-176.46 1454.67,-176.46 1454.67,-176.46 1705.33,-176.46 1705.33,-176.46 1709.17,-176.46 1713,-180.3 1713,-184.13 1713,-184.13 1713,-191.8 1713,-191.8 1713,-195.63 1709.17,-199.46 1705.33,-199.46"/>
<text text-anchor="middle" x="1580" y="-184.26" font-family="Arial" font-size="14.00" fill="#c6c5fe">components/Common/BodyText/index.jsx</text>
</g>
<!-- components/index.js&#45;&gt;components/Common/BodyText/index.jsx -->
<g id="edge79" class="edge">
<title>components/index.js&#45;&gt;components/Common/BodyText/index.jsx</title>
<path fill="none" stroke="#757575" d="M721.1,-376.41C737.49,-370.41 754.36,-361.4 766,-347.96 808.35,-299.08 751.41,-247.26 802,-206.96 902.59,-126.84 1284.18,-155.5 1472.53,-175.37"/>
<polygon fill="#757575" stroke="#757575" points="1472.41,-178.88 1482.72,-176.46 1473.15,-171.92 1472.41,-178.88"/>
</g>
<!-- components/OtherAmount/index.js -->
<g id="node35" class="node">
<title>components/OtherAmount/index.js</title>
<path fill="none" stroke="#c6c5fe" d="M1685.33,-399.46C1685.33,-399.46 1474.67,-399.46 1474.67,-399.46 1470.83,-399.46 1467,-395.63 1467,-391.8 1467,-391.8 1467,-384.13 1467,-384.13 1467,-380.3 1470.83,-376.46 1474.67,-376.46 1474.67,-376.46 1685.33,-376.46 1685.33,-376.46 1689.17,-376.46 1693,-380.3 1693,-384.13 1693,-384.13 1693,-391.8 1693,-391.8 1693,-395.63 1689.17,-399.46 1685.33,-399.46"/>
<text text-anchor="middle" x="1580" y="-384.26" font-family="Arial" font-size="14.00" fill="#c6c5fe">components/OtherAmount/index.js</text>
</g>
<!-- components/index.js&#45;&gt;components/OtherAmount/index.js -->
<g id="edge87" class="edge">
<title>components/index.js&#45;&gt;components/OtherAmount/index.js</title>
<path fill="none" stroke="#757575" d="M738.61,-387.96C892.04,-387.96 1262.82,-387.96 1456.52,-387.96"/>
<polygon fill="#757575" stroke="#757575" points="1456.75,-391.46 1466.75,-387.96 1456.75,-384.46 1456.75,-391.46"/>
</g>
<!-- components/Donations/index.js -->
<g id="node36" class="node">
<title>components/Donations/index.js</title>
<path fill="none" stroke="#c6c5fe" d="M1017.83,-439.46C1017.83,-439.46 828.17,-439.46 828.17,-439.46 824.33,-439.46 820.5,-435.63 820.5,-431.8 820.5,-431.8 820.5,-424.13 820.5,-424.13 820.5,-420.3 824.33,-416.46 828.17,-416.46 828.17,-416.46 1017.83,-416.46 1017.83,-416.46 1021.67,-416.46 1025.5,-420.3 1025.5,-424.13 1025.5,-424.13 1025.5,-431.8 1025.5,-431.8 1025.5,-435.63 1021.67,-439.46 1017.83,-439.46"/>
<text text-anchor="middle" x="923" y="-424.26" font-family="Arial" font-size="14.00" fill="#c6c5fe">components/Donations/index.js</text>
</g>
<!-- components/index.js&#45;&gt;components/Donations/index.js -->
<g id="edge85" class="edge">
<title>components/index.js&#45;&gt;components/Donations/index.js</title>
<path fill="none" stroke="#757575" d="M738.83,-398.95C769.92,-403.87 806.84,-409.72 839.36,-414.87"/>
<polygon fill="#757575" stroke="#757575" points="838.87,-418.34 849.3,-416.45 839.97,-411.42 838.87,-418.34"/>
</g>
<!-- components/MobileTextForm/index.js -->
<g id="node40" class="node">
<title>components/MobileTextForm/index.js</title>
<path fill="none" stroke="#c6c5fe" d="M1036.33,-557.46C1036.33,-557.46 809.67,-557.46 809.67,-557.46 805.83,-557.46 802,-553.63 802,-549.8 802,-549.8 802,-542.13 802,-542.13 802,-538.3 805.83,-534.46 809.67,-534.46 809.67,-534.46 1036.33,-534.46 1036.33,-534.46 1040.17,-534.46 1044,-538.3 1044,-542.13 1044,-542.13 1044,-549.8 1044,-549.8 1044,-553.63 1040.17,-557.46 1036.33,-557.46"/>
<text text-anchor="middle" x="923" y="-542.26" font-family="Arial" font-size="14.00" fill="#c6c5fe">components/MobileTextForm/index.js</text>
</g>
<!-- components/index.js&#45;&gt;components/MobileTextForm/index.js -->
<g id="edge86" class="edge">
<title>components/index.js&#45;&gt;components/MobileTextForm/index.js</title>
<path fill="none" stroke="#757575" d="M688.07,-399.58C732.12,-427.15 843.11,-496.6 894.77,-528.92"/>
<polygon fill="#757575" stroke="#757575" points="893.07,-531.99 903.41,-534.33 896.79,-526.06 893.07,-531.99"/>
</g>
<!-- components/PrayerCard/index.js -->
<g id="node43" class="node">
<title>components/PrayerCard/index.js</title>
<path fill="none" stroke="#c6c5fe" d="M1021.83,-239.46C1021.83,-239.46 824.17,-239.46 824.17,-239.46 820.33,-239.46 816.5,-235.63 816.5,-231.8 816.5,-231.8 816.5,-224.13 816.5,-224.13 816.5,-220.3 820.33,-216.46 824.17,-216.46 824.17,-216.46 1021.83,-216.46 1021.83,-216.46 1025.67,-216.46 1029.5,-220.3 1029.5,-224.13 1029.5,-224.13 1029.5,-231.8 1029.5,-231.8 1029.5,-235.63 1025.67,-239.46 1021.83,-239.46"/>
<text text-anchor="middle" x="923" y="-224.26" font-family="Arial" font-size="14.00" fill="#c6c5fe">components/PrayerCard/index.js</text>
</g>
<!-- components/index.js&#45;&gt;components/PrayerCard/index.js -->
<g id="edge88" class="edge">
<title>components/index.js&#45;&gt;components/PrayerCard/index.js</title>
<path fill="none" stroke="#757575" d="M718.89,-376.31C735.67,-370.24 753.36,-361.22 766,-347.96 798.6,-313.78 765.73,-278.22 802,-247.96 803.78,-246.48 805.63,-245.09 807.53,-243.78"/>
<polygon fill="#757575" stroke="#757575" points="809.45,-246.71 816.24,-238.57 805.86,-240.7 809.45,-246.71"/>
</g>
<!-- components/ThankYou/index.js -->
<g id="node52" class="node">
<title>components/ThankYou/index.js</title>
<path fill="none" stroke="#c6c5fe" d="M1018.33,-280.46C1018.33,-280.46 827.67,-280.46 827.67,-280.46 823.83,-280.46 820,-276.63 820,-272.8 820,-272.8 820,-265.13 820,-265.13 820,-261.3 823.83,-257.46 827.67,-257.46 827.67,-257.46 1018.33,-257.46 1018.33,-257.46 1022.17,-257.46 1026,-261.3 1026,-265.13 1026,-265.13 1026,-272.8 1026,-272.8 1026,-276.63 1022.17,-280.46 1018.33,-280.46"/>
<text text-anchor="middle" x="923" y="-265.26" font-family="Arial" font-size="14.00" fill="#c6c5fe">components/ThankYou/index.js</text>
</g>
<!-- components/index.js&#45;&gt;components/ThankYou/index.js -->
<g id="edge90" class="edge">
<title>components/index.js&#45;&gt;components/ThankYou/index.js</title>
<path fill="none" stroke="#757575" d="M711.75,-376.34C729.75,-369.97 750.19,-360.72 766,-347.96 787.87,-330.31 778.69,-311.68 802,-295.96 809.06,-291.2 816.84,-287.27 824.93,-284.02"/>
<polygon fill="#757575" stroke="#757575" points="826.36,-287.22 834.56,-280.51 823.96,-280.65 826.36,-287.22"/>
</g>
<!-- atoms.js -->
<g id="node5" class="node">
<title>atoms.js</title>
<path fill="none" stroke="#cfffac" d="M2532.83,-869.46C2532.83,-869.46 2480.17,-869.46 2480.17,-869.46 2476.33,-869.46 2472.5,-865.63 2472.5,-861.8 2472.5,-861.8 2472.5,-854.13 2472.5,-854.13 2472.5,-850.3 2476.33,-846.46 2480.17,-846.46 2480.17,-846.46 2532.83,-846.46 2532.83,-846.46 2536.67,-846.46 2540.5,-850.3 2540.5,-854.13 2540.5,-854.13 2540.5,-861.8 2540.5,-861.8 2540.5,-865.63 2536.67,-869.46 2532.83,-869.46"/>
<text text-anchor="middle" x="2506.5" y="-854.26" font-family="Arial" font-size="14.00" fill="#cfffac">atoms.js</text>
</g>
<!-- auth/auth0&#45;provider&#45;with&#45;history.js -->
<g id="node6" class="node">
<title>auth/auth0&#45;provider&#45;with&#45;history.js</title>
<path fill="none" stroke="#cfffac" d="M309.33,-338.46C309.33,-338.46 105.67,-338.46 105.67,-338.46 101.83,-338.46 98,-334.63 98,-330.8 98,-330.8 98,-323.13 98,-323.13 98,-319.3 101.83,-315.46 105.67,-315.46 105.67,-315.46 309.33,-315.46 309.33,-315.46 313.17,-315.46 317,-319.3 317,-323.13 317,-323.13 317,-330.8 317,-330.8 317,-334.63 313.17,-338.46 309.33,-338.46"/>
<text text-anchor="middle" x="207.5" y="-323.26" font-family="Arial" font-size="14.00" fill="#cfffac">auth/auth0&#45;provider&#45;with&#45;history.js</text>
</g>
<!-- components/AddressForm/AddressForm.jsx -->
<g id="node7" class="node">
<title>components/AddressForm/AddressForm.jsx</title>
<path fill="none" stroke="#c6c5fe" d="M1370.33,-878.46C1370.33,-878.46 1103.67,-878.46 1103.67,-878.46 1099.83,-878.46 1096,-874.63 1096,-870.8 1096,-870.8 1096,-863.13 1096,-863.13 1096,-859.3 1099.83,-855.46 1103.67,-855.46 1103.67,-855.46 1370.33,-855.46 1370.33,-855.46 1374.17,-855.46 1378,-859.3 1378,-863.13 1378,-863.13 1378,-870.8 1378,-870.8 1378,-874.63 1374.17,-878.46 1370.33,-878.46"/>
<text text-anchor="middle" x="1237" y="-863.26" font-family="Arial" font-size="14.00" fill="#c6c5fe">components/AddressForm/AddressForm.jsx</text>
</g>
<!-- components/AddressForm/AddressForm.jsx&#45;&gt;atoms.js -->
<g id="edge5" class="edge">
<title>components/AddressForm/AddressForm.jsx&#45;&gt;atoms.js</title>
<path fill="none" stroke="#757575" d="M1249.65,-878.69C1277.66,-905.96 1352.26,-973.12 1430,-996.96 1696.56,-1078.72 1781.2,-1003.1 2056,-955.96 2206.3,-930.18 2382.44,-888.35 2462.27,-868.74"/>
<polygon fill="#757575" stroke="#757575" points="2463.56,-872.03 2472.43,-866.24 2461.88,-865.23 2463.56,-872.03"/>
</g>
<!-- components/AddressForm/AddressSchema.js -->
<g id="node8" class="node">
<title>components/AddressForm/AddressSchema.js</title>
<path fill="none" stroke="#cfffac" d="M1718.83,-987.46C1718.83,-987.46 1441.17,-987.46 1441.17,-987.46 1437.33,-987.46 1433.5,-983.63 1433.5,-979.8 1433.5,-979.8 1433.5,-972.13 1433.5,-972.13 1433.5,-968.3 1437.33,-964.46 1441.17,-964.46 1441.17,-964.46 1718.83,-964.46 1718.83,-964.46 1722.67,-964.46 1726.5,-968.3 1726.5,-972.13 1726.5,-972.13 1726.5,-979.8 1726.5,-979.8 1726.5,-983.63 1722.67,-987.46 1718.83,-987.46"/>
<text text-anchor="middle" x="1580" y="-972.26" font-family="Arial" font-size="14.00" fill="#cfffac">components/AddressForm/AddressSchema.js</text>
</g>
<!-- components/AddressForm/AddressForm.jsx&#45;&gt;components/AddressForm/AddressSchema.js -->
<g id="edge6" class="edge">
<title>components/AddressForm/AddressForm.jsx&#45;&gt;components/AddressForm/AddressSchema.js</title>
<path fill="none" stroke="#757575" d="M1366.47,-878.59C1376.23,-882.36 1385.55,-887.08 1394,-892.96 1420.46,-911.4 1403.25,-937.95 1430,-955.96 1431.94,-957.27 1433.92,-958.5 1435.94,-959.67"/>
<polygon fill="#757575" stroke="#757575" points="1434.56,-962.91 1445.05,-964.42 1437.8,-956.7 1434.56,-962.91"/>
</g>
<!-- components/AddressForm/options.js -->
<g id="node9" class="node">
<title>components/AddressForm/options.js</title>
<path fill="none" stroke="#c6c5fe" d="M1690.83,-946.46C1690.83,-946.46 1469.17,-946.46 1469.17,-946.46 1465.33,-946.46 1461.5,-942.63 1461.5,-938.8 1461.5,-938.8 1461.5,-931.13 1461.5,-931.13 1461.5,-927.3 1465.33,-923.46 1469.17,-923.46 1469.17,-923.46 1690.83,-923.46 1690.83,-923.46 1694.67,-923.46 1698.5,-927.3 1698.5,-931.13 1698.5,-931.13 1698.5,-938.8 1698.5,-938.8 1698.5,-942.63 1694.67,-946.46 1690.83,-946.46"/>
<text text-anchor="middle" x="1580" y="-931.26" font-family="Arial" font-size="14.00" fill="#c6c5fe">components/AddressForm/options.js</text>
</g>
<!-- components/AddressForm/AddressForm.jsx&#45;&gt;components/AddressForm/options.js -->
<g id="edge7" class="edge">
<title>components/AddressForm/AddressForm.jsx&#45;&gt;components/AddressForm/options.js</title>
<path fill="none" stroke="#757575" d="M1330.86,-878.48C1351.86,-882.17 1373.88,-886.92 1394,-892.96 1410.77,-898 1413.25,-903.86 1430,-908.96 1446.48,-913.98 1464.31,-918.14 1481.7,-921.54"/>
<polygon fill="#757575" stroke="#757575" points="1481.4,-925.04 1491.88,-923.46 1482.7,-918.16 1481.4,-925.04"/>
</g>
<!-- components/AddressForm/AddressForm.jsx&#45;&gt;components/Common/Input/index.js -->
<g id="edge8" class="edge">
<title>components/AddressForm/AddressForm.jsx&#45;&gt;components/Common/Input/index.js</title>
<path fill="none" stroke="#757575" d="M1378.34,-868.38C1596.32,-869.64 1997.42,-867.76 2056,-837.96 2135.11,-797.72 2187.28,-698.44 2207.07,-654.94"/>
<polygon fill="#757575" stroke="#757575" points="2210.35,-656.18 2211.21,-645.62 2203.95,-653.34 2210.35,-656.18"/>
</g>
<!-- components/AddressForm/AddressForm.jsx&#45;&gt;components/Common/Modal/index.js -->
<g id="edge9" class="edge">
<title>components/AddressForm/AddressForm.jsx&#45;&gt;components/Common/Modal/index.js</title>
<path fill="none" stroke="#757575" d="M1373.12,-878.62C1380.66,-882.5 1387.71,-887.23 1394,-892.96 1440.51,-935.39 1383.65,-987.36 1430,-1029.96 1435.91,-1035.4 1442.54,-1039.91 1449.63,-1043.63"/>
<polygon fill="#757575" stroke="#757575" points="1448.29,-1046.87 1458.83,-1047.94 1451.26,-1040.53 1448.29,-1046.87"/>
</g>
<!-- components/AddressForm/AddressForm.jsx&#45;&gt;components/Common/Select/index.js -->
<g id="edge10" class="edge">
<title>components/AddressForm/AddressForm.jsx&#45;&gt;components/Common/Select/index.js</title>
<path fill="none" stroke="#757575" d="M1316.66,-855.43C1368.49,-847.83 1436.46,-837.86 1490.23,-829.98"/>
<polygon fill="#757575" stroke="#757575" points="1491.05,-833.4 1500.44,-828.48 1490.04,-826.47 1491.05,-833.4"/>
</g>
<!-- components/AddressForm/AddressForm.jsx&#45;&gt;components/Common/TitleText/index.js -->
<g id="edge11" class="edge">
<title>components/AddressForm/AddressForm.jsx&#45;&gt;components/Common/TitleText/index.js</title>
<path fill="none" stroke="#757575" d="M1249.59,-855.18C1279.53,-823.92 1359.55,-734.99 1394,-643.96 1419.09,-577.65 1380.55,-377.77 1430,-326.96 1434.26,-322.59 1438.99,-318.83 1444.06,-315.63"/>
<polygon fill="#757575" stroke="#757575" points="1445.84,-318.64 1452.89,-310.73 1442.45,-312.52 1445.84,-318.64"/>
</g>
<!-- components/AddressForm/AddressForm.jsx&#45;&gt;components/Reminder/index.js -->
<g id="edge12" class="edge">
<title>components/AddressForm/AddressForm.jsx&#45;&gt;components/Reminder/index.js</title>
<path fill="none" stroke="#757575" d="M1249.5,-855.15C1279.24,-823.81 1358.8,-734.71 1394,-643.96 1416.37,-586.3 1386.49,-411.92 1430,-367.96 1440.6,-357.25 1453.99,-350.3 1468.37,-345.96"/>
<polygon fill="#757575" stroke="#757575" points="1469.66,-349.25 1478.47,-343.36 1467.91,-342.47 1469.66,-349.25"/>
</g>
<!-- integrations/donationAPI.js -->
<g id="node15" class="node">
<title>integrations/donationAPI.js</title>
<path fill="none" stroke="#cfffac" d="M2297.83,-847.46C2297.83,-847.46 2136.17,-847.46 2136.17,-847.46 2132.33,-847.46 2128.5,-843.63 2128.5,-839.8 2128.5,-839.8 2128.5,-832.13 2128.5,-832.13 2128.5,-828.3 2132.33,-824.46 2136.17,-824.46 2136.17,-824.46 2297.83,-824.46 2297.83,-824.46 2301.67,-824.46 2305.5,-828.3 2305.5,-832.13 2305.5,-832.13 2305.5,-839.8 2305.5,-839.8 2305.5,-843.63 2301.67,-847.46 2297.83,-847.46"/>
<text text-anchor="middle" x="2217" y="-832.26" font-family="Arial" font-size="14.00" fill="#cfffac">integrations/donationAPI.js</text>
</g>
<!-- components/AddressForm/AddressForm.jsx&#45;&gt;integrations/donationAPI.js -->
<g id="edge13" class="edge">
<title>components/AddressForm/AddressForm.jsx&#45;&gt;integrations/donationAPI.js</title>
<path fill="none" stroke="#757575" d="M1378.25,-870.22C1395.67,-870.53 1413.25,-870.79 1430,-870.96 1708.21,-873.86 1779.39,-900.86 2056,-870.96 2092.99,-866.96 2133.96,-857.91 2165.19,-850.01"/>
<polygon fill="#757575" stroke="#757575" points="2166.15,-853.38 2174.96,-847.5 2164.41,-846.6 2166.15,-853.38"/>
</g>
<!-- components/AddressForm/statesList.js -->
<g id="node17" class="node">
<title>components/AddressForm/statesList.js</title>
<path fill="none" stroke="#cfffac" d="M2028.83,-946.46C2028.83,-946.46 1793.17,-946.46 1793.17,-946.46 1789.33,-946.46 1785.5,-942.63 1785.5,-938.8 1785.5,-938.8 1785.5,-931.13 1785.5,-931.13 1785.5,-927.3 1789.33,-923.46 1793.17,-923.46 1793.17,-923.46 2028.83,-923.46 2028.83,-923.46 2032.67,-923.46 2036.5,-927.3 2036.5,-931.13 2036.5,-931.13 2036.5,-938.8 2036.5,-938.8 2036.5,-942.63 2032.67,-946.46 2028.83,-946.46"/>
<text text-anchor="middle" x="1911" y="-931.26" font-family="Arial" font-size="14.00" fill="#cfffac">components/AddressForm/statesList.js</text>
</g>
<!-- components/AddressForm/options.js&#45;&gt;components/AddressForm/statesList.js -->
<g id="edge15" class="edge">
<title>components/AddressForm/options.js&#45;&gt;components/AddressForm/statesList.js</title>
<path fill="none" stroke="#757575" d="M1698.85,-934.96C1723.67,-934.96 1750.04,-934.96 1775.42,-934.96"/>
<polygon fill="#757575" stroke="#757575" points="1775.47,-938.46 1785.47,-934.96 1775.47,-931.46 1775.47,-938.46"/>
</g>
<!-- components/Common/Input/Input.jsx -->
<g id="node30" class="node">
<title>components/Common/Input/Input.jsx</title>
<path fill="none" stroke="#cfffac" d="M2618.33,-645.46C2618.33,-645.46 2394.67,-645.46 2394.67,-645.46 2390.83,-645.46 2387,-641.63 2387,-637.8 2387,-637.8 2387,-630.13 2387,-630.13 2387,-626.3 2390.83,-622.46 2394.67,-622.46 2394.67,-622.46 2618.33,-622.46 2618.33,-622.46 2622.17,-622.46 2626,-626.3 2626,-630.13 2626,-630.13 2626,-637.8 2626,-637.8 2626,-641.63 2622.17,-645.46 2618.33,-645.46"/>
<text text-anchor="middle" x="2506.5" y="-630.26" font-family="Arial" font-size="14.00" fill="#cfffac">components/Common/Input/Input.jsx</text>
</g>
<!-- components/Common/Input/index.js&#45;&gt;components/Common/Input/Input.jsx -->
<g id="edge28" class="edge">
<title>components/Common/Input/index.js&#45;&gt;components/Common/Input/Input.jsx</title>
<path fill="none" stroke="#757575" d="M2334.11,-633.96C2348.03,-633.96 2362.31,-633.96 2376.4,-633.96"/>
<polygon fill="#757575" stroke="#757575" points="2376.62,-637.46 2386.62,-633.96 2376.62,-630.46 2376.62,-637.46"/>
</g>
<!-- components/Common/Modal/modal.jsx -->
<g id="node31" class="node">
<title>components/Common/Modal/modal.jsx</title>
<path fill="none" stroke="#cfffac" d="M2030.33,-1067.46C2030.33,-1067.46 1791.67,-1067.46 1791.67,-1067.46 1787.83,-1067.46 1784,-1063.63 1784,-1059.8 1784,-1059.8 1784,-1052.13 1784,-1052.13 1784,-1048.3 1787.83,-1044.46 1791.67,-1044.46 1791.67,-1044.46 2030.33,-1044.46 2030.33,-1044.46 2034.17,-1044.46 2038,-1048.3 2038,-1052.13 2038,-1052.13 2038,-1059.8 2038,-1059.8 2038,-1063.63 2034.17,-1067.46 2030.33,-1067.46"/>
<text text-anchor="middle" x="1911" y="-1052.26" font-family="Arial" font-size="14.00" fill="#cfffac">components/Common/Modal/modal.jsx</text>
</g>
<!-- components/Common/Modal/index.js&#45;&gt;components/Common/Modal/modal.jsx -->
<g id="edge29" class="edge">
<title>components/Common/Modal/index.js&#45;&gt;components/Common/Modal/modal.jsx</title>
<path fill="none" stroke="#757575" d="M1701.17,-1055.96C1724.7,-1055.96 1749.54,-1055.96 1773.56,-1055.96"/>
<polygon fill="#757575" stroke="#757575" points="1773.79,-1059.46 1783.79,-1055.96 1773.79,-1052.46 1773.79,-1059.46"/>
</g>
<!-- components/Common/Select/Select.jsx -->
<g id="node32" class="node">
<title>components/Common/Select/Select.jsx</title>
<path fill="none" stroke="#cfffac" d="M2030.33,-828.46C2030.33,-828.46 1791.67,-828.46 1791.67,-828.46 1787.83,-828.46 1784,-824.63 1784,-820.8 1784,-820.8 1784,-813.13 1784,-813.13 1784,-809.3 1787.83,-805.46 1791.67,-805.46 1791.67,-805.46 2030.33,-805.46 2030.33,-805.46 2034.17,-805.46 2038,-809.3 2038,-813.13 2038,-813.13 2038,-820.8 2038,-820.8 2038,-824.63 2034.17,-828.46 2030.33,-828.46"/>
<text text-anchor="middle" x="1911" y="-813.26" font-family="Arial" font-size="14.00" fill="#cfffac">components/Common/Select/Select.jsx</text>
</g>
<!-- components/Common/Select/index.js&#45;&gt;components/Common/Select/Select.jsx -->
<g id="edge30" class="edge">
<title>components/Common/Select/index.js&#45;&gt;components/Common/Select/Select.jsx</title>
<path fill="none" stroke="#757575" d="M1701.17,-816.96C1724.7,-816.96 1749.54,-816.96 1773.56,-816.96"/>
<polygon fill="#757575" stroke="#757575" points="1773.79,-820.46 1783.79,-816.96 1773.79,-813.46 1773.79,-820.46"/>
</g>
<!-- components/Common/TitleText/TitleText.jsx -->
<g id="node33" class="node">
<title>components/Common/TitleText/TitleText.jsx</title>
<path fill="none" stroke="#cfffac" d="M2042.83,-317.46C2042.83,-317.46 1779.17,-317.46 1779.17,-317.46 1775.33,-317.46 1771.5,-313.63 1771.5,-309.8 1771.5,-309.8 1771.5,-302.13 1771.5,-302.13 1771.5,-298.3 1775.33,-294.46 1779.17,-294.46 1779.17,-294.46 2042.83,-294.46 2042.83,-294.46 2046.67,-294.46 2050.5,-298.3 2050.5,-302.13 2050.5,-302.13 2050.5,-309.8 2050.5,-309.8 2050.5,-313.63 2046.67,-317.46 2042.83,-317.46"/>
<text text-anchor="middle" x="1911" y="-302.26" font-family="Arial" font-size="14.00" fill="#cfffac">components/Common/TitleText/TitleText.jsx</text>
</g>
<!-- components/Common/TitleText/index.js&#45;&gt;components/Common/TitleText/TitleText.jsx -->
<g id="edge31" class="edge">
<title>components/Common/TitleText/index.js&#45;&gt;components/Common/TitleText/TitleText.jsx</title>
<path fill="none" stroke="#757575" d="M1707.26,-305.96C1725,-305.96 1743.36,-305.96 1761.46,-305.96"/>
<polygon fill="#757575" stroke="#757575" points="1761.49,-309.46 1771.49,-305.96 1761.49,-302.46 1761.49,-309.46"/>
</g>
<!-- components/Reminder/reminder.jsx -->
<g id="node45" class="node">
<title>components/Reminder/reminder.jsx</title>
<path fill="none" stroke="#c6c5fe" d="M2019.33,-358.46C2019.33,-358.46 1802.67,-358.46 1802.67,-358.46 1798.83,-358.46 1795,-354.63 1795,-350.8 1795,-350.8 1795,-343.13 1795,-343.13 1795,-339.3 1798.83,-335.46 1802.67,-335.46 1802.67,-335.46 2019.33,-335.46 2019.33,-335.46 2023.17,-335.46 2027,-339.3 2027,-343.13 2027,-343.13 2027,-350.8 2027,-350.8 2027,-354.63 2023.17,-358.46 2019.33,-358.46"/>
<text text-anchor="middle" x="1911" y="-343.26" font-family="Arial" font-size="14.00" fill="#c6c5fe">components/Reminder/reminder.jsx</text>
</g>
<!-- components/Reminder/index.js&#45;&gt;components/Reminder/reminder.jsx -->
<g id="edge58" class="edge">
<title>components/Reminder/index.js&#45;&gt;components/Reminder/reminder.jsx</title>
<path fill="none" stroke="#757575" d="M1681.95,-346.96C1714.3,-346.96 1750.53,-346.96 1784.42,-346.96"/>
<polygon fill="#757575" stroke="#757575" points="1784.86,-350.46 1794.86,-346.96 1784.86,-343.46 1784.86,-350.46"/>
</g>
<!-- components/AddressForm/index.js&#45;&gt;components/AddressForm/AddressForm.jsx -->
<g id="edge14" class="edge">
<title>components/AddressForm/index.js&#45;&gt;components/AddressForm/AddressForm.jsx</title>
<path fill="none" stroke="#757575" d="M1036.2,-866.96C1052.26,-866.96 1068.99,-866.96 1085.64,-866.96"/>
<polygon fill="#757575" stroke="#757575" points="1085.98,-870.46 1095.98,-866.96 1085.98,-863.46 1085.98,-870.46"/>
</g>
<!-- components/Authority/AuthButton.jsx -->
<g id="node18" class="node">
<title>components/Authority/AuthButton.jsx</title>
<path fill="none" stroke="#c6c5fe" d="M1691.83,-119.46C1691.83,-119.46 1468.17,-119.46 1468.17,-119.46 1464.33,-119.46 1460.5,-115.63 1460.5,-111.8 1460.5,-111.8 1460.5,-104.13 1460.5,-104.13 1460.5,-100.3 1464.33,-96.46 1468.17,-96.46 1468.17,-96.46 1691.83,-96.46 1691.83,-96.46 1695.67,-96.46 1699.5,-100.3 1699.5,-104.13 1699.5,-104.13 1699.5,-111.8 1699.5,-111.8 1699.5,-115.63 1695.67,-119.46 1691.83,-119.46"/>
<text text-anchor="middle" x="1580" y="-104.26" font-family="Arial" font-size="14.00" fill="#c6c5fe">components/Authority/AuthButton.jsx</text>
</g>
<!-- components/Authority/LoginButton.jsx -->
<g id="node19" class="node">
<title>components/Authority/LoginButton.jsx</title>
<path fill="none" stroke="#c6c5fe" d="M2025.33,-119.46C2025.33,-119.46 1796.67,-119.46 1796.67,-119.46 1792.83,-119.46 1789,-115.63 1789,-111.8 1789,-111.8 1789,-104.13 1789,-104.13 1789,-100.3 1792.83,-96.46 1796.67,-96.46 1796.67,-96.46 2025.33,-96.46 2025.33,-96.46 2029.17,-96.46 2033,-100.3 2033,-104.13 2033,-104.13 2033,-111.8 2033,-111.8 2033,-115.63 2029.17,-119.46 2025.33,-119.46"/>
<text text-anchor="middle" x="1911" y="-104.26" font-family="Arial" font-size="14.00" fill="#c6c5fe">components/Authority/LoginButton.jsx</text>
</g>
<!-- components/Authority/AuthButton.jsx&#45;&gt;components/Authority/LoginButton.jsx -->
<g id="edge16" class="edge">
<title>components/Authority/AuthButton.jsx&#45;&gt;components/Authority/LoginButton.jsx</title>
<path fill="none" stroke="#757575" d="M1699.78,-107.96C1725.37,-107.96 1752.56,-107.96 1778.61,-107.96"/>
<polygon fill="#757575" stroke="#757575" points="1778.91,-111.46 1788.91,-107.96 1778.91,-104.46 1778.91,-111.46"/>
</g>
<!-- components/Authority/LogoutButton.jsx -->
<g id="node20" class="node">
<title>components/Authority/LogoutButton.jsx</title>
<path fill="none" stroke="#c6c5fe" d="M2029.33,-78.46C2029.33,-78.46 1792.67,-78.46 1792.67,-78.46 1788.83,-78.46 1785,-74.63 1785,-70.8 1785,-70.8 1785,-63.13 1785,-63.13 1785,-59.3 1788.83,-55.46 1792.67,-55.46 1792.67,-55.46 2029.33,-55.46 2029.33,-55.46 2033.17,-55.46 2037,-59.3 2037,-63.13 2037,-63.13 2037,-70.8 2037,-70.8 2037,-74.63 2033.17,-78.46 2029.33,-78.46"/>
<text text-anchor="middle" x="1911" y="-63.26" font-family="Arial" font-size="14.00" fill="#c6c5fe">components/Authority/LogoutButton.jsx</text>
</g>
<!-- components/Authority/AuthButton.jsx&#45;&gt;components/Authority/LogoutButton.jsx -->
<g id="edge17" class="edge">
<title>components/Authority/AuthButton.jsx&#45;&gt;components/Authority/LogoutButton.jsx</title>
<path fill="none" stroke="#757575" d="M1673.52,-96.43C1715.22,-91.24 1764.61,-85.08 1807.44,-79.74"/>
<polygon fill="#757575" stroke="#757575" points="1808.11,-83.19 1817.6,-78.48 1807.25,-76.24 1808.11,-83.19"/>
</g>
<!-- components/Authority/LoginButton.jsx&#45;&gt;components/Common/Button/index.jsx -->
<g id="edge18" class="edge">
<title>components/Authority/LoginButton.jsx&#45;&gt;components/Common/Button/index.jsx</title>
<path fill="none" stroke="#757575" d="M2003.14,-119.53C2020.96,-123.15 2039.3,-127.86 2056,-133.96 2107.5,-152.78 2161.64,-187.54 2191.88,-208.53"/>
<polygon fill="#757575" stroke="#757575" points="2189.91,-211.43 2200.11,-214.31 2193.94,-205.7 2189.91,-211.43"/>
</g>
<!-- components/Authority/LogoutButton.jsx&#45;&gt;components/Common/Button/index.jsx -->
<g id="edge19" class="edge">
<title>components/Authority/LogoutButton.jsx&#45;&gt;components/Common/Button/index.jsx</title>
<path fill="none" stroke="#757575" d="M2033.3,-78.54C2041.13,-80.89 2048.76,-83.67 2056,-86.96 2117.85,-115.08 2173.71,-174.95 2200.05,-206.14"/>
<polygon fill="#757575" stroke="#757575" points="2197.6,-208.66 2206.68,-214.12 2202.99,-204.19 2197.6,-208.66"/>
</g>
<!-- components/Authority/Loading.jsx -->
<g id="node21" class="node">
<title>components/Authority/Loading.jsx</title>
<path fill="none" stroke="#cfffac" d="M1682.33,-78.46C1682.33,-78.46 1477.67,-78.46 1477.67,-78.46 1473.83,-78.46 1470,-74.63 1470,-70.8 1470,-70.8 1470,-63.13 1470,-63.13 1470,-59.3 1473.83,-55.46 1477.67,-55.46 1477.67,-55.46 1682.33,-55.46 1682.33,-55.46 1686.17,-55.46 1690,-59.3 1690,-63.13 1690,-63.13 1690,-70.8 1690,-70.8 1690,-74.63 1686.17,-78.46 1682.33,-78.46"/>
<text text-anchor="middle" x="1580" y="-63.26" font-family="Arial" font-size="14.00" fill="#cfffac">components/Authority/Loading.jsx</text>
</g>
<!-- components/Common/Button/Button.jsx -->
<g id="node29" class="node">
<title>components/Common/Button/Button.jsx</title>
<path fill="none" stroke="#cfffac" d="M2627.33,-237.46C2627.33,-237.46 2385.67,-237.46 2385.67,-237.46 2381.83,-237.46 2378,-233.63 2378,-229.8 2378,-229.8 2378,-222.13 2378,-222.13 2378,-218.3 2381.83,-214.46 2385.67,-214.46 2385.67,-214.46 2627.33,-214.46 2627.33,-214.46 2631.17,-214.46 2635,-218.3 2635,-222.13 2635,-222.13 2635,-229.8 2635,-229.8 2635,-233.63 2631.17,-237.46 2627.33,-237.46"/>
<text text-anchor="middle" x="2506.5" y="-222.26" font-family="Arial" font-size="14.00" fill="#cfffac">components/Common/Button/Button.jsx</text>
</g>
<!-- components/Common/Button/index.jsx&#45;&gt;components/Common/Button/Button.jsx -->
<g id="edge27" class="edge">
<title>components/Common/Button/index.jsx&#45;&gt;components/Common/Button/Button.jsx</title>
<path fill="none" stroke="#757575" d="M2342.01,-225.96C2350.53,-225.96 2359.15,-225.96 2367.73,-225.96"/>
<polygon fill="#757575" stroke="#757575" points="2367.79,-229.46 2377.79,-225.96 2367.79,-222.46 2367.79,-229.46"/>
</g>
<!-- components/Authority/index.js&#45;&gt;components/Authority/AuthButton.jsx -->
<g id="edge20" class="edge">
<title>components/Authority/index.js&#45;&gt;components/Authority/AuthButton.jsx</title>
<path fill="none" stroke="#757575" d="M1335.72,-107.96C1371.4,-107.96 1412.31,-107.96 1450.28,-107.96"/>
<polygon fill="#757575" stroke="#757575" points="1450.39,-111.46 1460.39,-107.96 1450.39,-104.46 1450.39,-111.46"/>
</g>
<!-- components/Authority/index.js&#45;&gt;components/Authority/Loading.jsx -->
<g id="edge21" class="edge">
<title>components/Authority/index.js&#45;&gt;components/Authority/Loading.jsx</title>
<path fill="none" stroke="#757575" d="M1333.89,-96.43C1377.3,-91.21 1428.74,-85.03 1473.26,-79.68"/>
<polygon fill="#757575" stroke="#757575" points="1473.72,-83.15 1483.23,-78.48 1472.89,-76.2 1473.72,-83.15"/>
</g>
<!-- components/Checkout/Checkout.jsx -->
<g id="node24" class="node">
<title>components/Checkout/Checkout.jsx</title>
<path fill="none" stroke="#c6c5fe" d="M1345.83,-1087.46C1345.83,-1087.46 1128.17,-1087.46 1128.17,-1087.46 1124.33,-1087.46 1120.5,-1083.63 1120.5,-1079.8 1120.5,-1079.8 1120.5,-1072.13 1120.5,-1072.13 1120.5,-1068.3 1124.33,-1064.46 1128.17,-1064.46 1128.17,-1064.46 1345.83,-1064.46 1345.83,-1064.46 1349.67,-1064.46 1353.5,-1068.3 1353.5,-1072.13 1353.5,-1072.13 1353.5,-1079.8 1353.5,-1079.8 1353.5,-1083.63 1349.67,-1087.46 1345.83,-1087.46"/>
<text text-anchor="middle" x="1237" y="-1072.26" font-family="Arial" font-size="14.00" fill="#c6c5fe">components/Checkout/Checkout.jsx</text>
</g>
<!-- components/Checkout/Checkout.jsx&#45;&gt;atoms.js -->
<g id="edge22" class="edge">
<title>components/Checkout/Checkout.jsx&#45;&gt;atoms.js</title>
<path fill="none" stroke="#757575" d="M1315.14,-1087.5C1461.75,-1106.92 1789.79,-1138.36 2056,-1076.96 2230.1,-1036.81 2414.8,-919.66 2480.53,-875.28"/>
<polygon fill="#757575" stroke="#757575" points="2482.7,-878.04 2489,-869.52 2478.76,-872.25 2482.7,-878.04"/>
</g>
<!-- components/Checkout/Checkout.jsx&#45;&gt;components/Common/Modal/index.js -->
<g id="edge23" class="edge">
<title>components/Checkout/Checkout.jsx&#45;&gt;components/Common/Modal/index.js</title>
<path fill="none" stroke="#757575" d="M1353.92,-1069.16C1384.41,-1067.38 1417.5,-1065.44 1448.69,-1063.61"/>
<polygon fill="#757575" stroke="#757575" points="1448.97,-1067.1 1458.75,-1063.02 1448.56,-1060.11 1448.97,-1067.1"/>
</g>
<!-- components/Stripe/index.js -->
<g id="node25" class="node">
<title>components/Stripe/index.js</title>
<path fill="none" stroke="#c6c5fe" d="M1661.83,-1188.46C1661.83,-1188.46 1498.17,-1188.46 1498.17,-1188.46 1494.33,-1188.46 1490.5,-1184.63 1490.5,-1180.8 1490.5,-1180.8 1490.5,-1173.13 1490.5,-1173.13 1490.5,-1169.3 1494.33,-1165.46 1498.17,-1165.46 1498.17,-1165.46 1661.83,-1165.46 1661.83,-1165.46 1665.67,-1165.46 1669.5,-1169.3 1669.5,-1173.13 1669.5,-1173.13 1669.5,-1180.8 1669.5,-1180.8 1669.5,-1184.63 1665.67,-1188.46 1661.83,-1188.46"/>
<text text-anchor="middle" x="1580" y="-1173.26" font-family="Arial" font-size="14.00" fill="#c6c5fe">components/Stripe/index.js</text>
</g>
<!-- components/Checkout/Checkout.jsx&#45;&gt;components/Stripe/index.js -->
<g id="edge24" class="edge">
<title>components/Checkout/Checkout.jsx&#45;&gt;components/Stripe/index.js</title>
<path fill="none" stroke="#757575" d="M1277.12,-1087.55C1339.73,-1106.09 1462.32,-1142.4 1530.44,-1162.58"/>
<polygon fill="#757575" stroke="#757575" points="1529.5,-1165.95 1540.08,-1165.43 1531.48,-1159.24 1529.5,-1165.95"/>
</g>
<!-- components/Stripe/BillingDetails.jsx -->
<g id="node46" class="node">
<title>components/Stripe/BillingDetails.jsx</title>
<path fill="none" stroke="#c6c5fe" d="M2324.83,-1226.46C2324.83,-1226.46 2109.17,-1226.46 2109.17,-1226.46 2105.33,-1226.46 2101.5,-1222.63 2101.5,-1218.8 2101.5,-1218.8 2101.5,-1211.13 2101.5,-1211.13 2101.5,-1207.3 2105.33,-1203.46 2109.17,-1203.46 2109.17,-1203.46 2324.83,-1203.46 2324.83,-1203.46 2328.67,-1203.46 2332.5,-1207.3 2332.5,-1211.13 2332.5,-1211.13 2332.5,-1218.8 2332.5,-1218.8 2332.5,-1222.63 2328.67,-1226.46 2324.83,-1226.46"/>
<text text-anchor="middle" x="2217" y="-1211.26" font-family="Arial" font-size="14.00" fill="#c6c5fe">components/Stripe/BillingDetails.jsx</text>
</g>
<!-- components/Stripe/index.js&#45;&gt;components/Stripe/BillingDetails.jsx -->
<g id="edge67" class="edge">
<title>components/Stripe/index.js&#45;&gt;components/Stripe/BillingDetails.jsx</title>
<path fill="none" stroke="#757575" d="M1624.72,-1188.56C1661.96,-1197.8 1717.07,-1209.99 1766,-1214.96 1875.56,-1226.1 2000.91,-1224.97 2091.44,-1221.71"/>
<polygon fill="#757575" stroke="#757575" points="2091.61,-1225.21 2101.47,-1221.33 2091.35,-1218.21 2091.61,-1225.21"/>
</g>
<!-- components/Stripe/CheckoutError.jsx -->
<g id="node48" class="node">
<title>components/Stripe/CheckoutError.jsx</title>
<path fill="none" stroke="#cfffac" d="M2329.83,-1185.46C2329.83,-1185.46 2104.17,-1185.46 2104.17,-1185.46 2100.33,-1185.46 2096.5,-1181.63 2096.5,-1177.8 2096.5,-1177.8 2096.5,-1170.13 2096.5,-1170.13 2096.5,-1166.3 2100.33,-1162.46 2104.17,-1162.46 2104.17,-1162.46 2329.83,-1162.46 2329.83,-1162.46 2333.67,-1162.46 2337.5,-1166.3 2337.5,-1170.13 2337.5,-1170.13 2337.5,-1177.8 2337.5,-1177.8 2337.5,-1181.63 2333.67,-1185.46 2329.83,-1185.46"/>
<text text-anchor="middle" x="2217" y="-1170.26" font-family="Arial" font-size="14.00" fill="#cfffac">components/Stripe/CheckoutError.jsx</text>
</g>
<!-- components/Stripe/index.js&#45;&gt;components/Stripe/CheckoutError.jsx -->
<g id="edge68" class="edge">
<title>components/Stripe/index.js&#45;&gt;components/Stripe/CheckoutError.jsx</title>
<path fill="none" stroke="#757575" d="M1664.63,-1188.49C1696.32,-1192.32 1732.76,-1196.08 1766,-1197.96 1894.68,-1205.24 1927.47,-1207.55 2056,-1197.96 2084.94,-1195.8 2116.58,-1191.48 2144.03,-1187.09"/>
<polygon fill="#757575" stroke="#757575" points="2144.63,-1190.54 2153.94,-1185.47 2143.5,-1183.63 2144.63,-1190.54"/>
</g>
<!-- components/Stripe/CheckoutForm.jsx -->
<g id="node49" class="node">
<title>components/Stripe/CheckoutForm.jsx</title>
<path fill="none" stroke="#c6c5fe" d="M2024.83,-1147.46C2024.83,-1147.46 1797.17,-1147.46 1797.17,-1147.46 1793.33,-1147.46 1789.5,-1143.63 1789.5,-1139.8 1789.5,-1139.8 1789.5,-1132.13 1789.5,-1132.13 1789.5,-1128.3 1793.33,-1124.46 1797.17,-1124.46 1797.17,-1124.46 2024.83,-1124.46 2024.83,-1124.46 2028.67,-1124.46 2032.5,-1128.3 2032.5,-1132.13 2032.5,-1132.13 2032.5,-1139.8 2032.5,-1139.8 2032.5,-1143.63 2028.67,-1147.46 2024.83,-1147.46"/>
<text text-anchor="middle" x="1911" y="-1132.26" font-family="Arial" font-size="14.00" fill="#c6c5fe">components/Stripe/CheckoutForm.jsx</text>
</g>
<!-- components/Stripe/index.js&#45;&gt;components/Stripe/CheckoutForm.jsx -->
<g id="edge69" class="edge">
<title>components/Stripe/index.js&#45;&gt;components/Stripe/CheckoutForm.jsx</title>
<path fill="none" stroke="#757575" d="M1669.6,-1165.92C1712.06,-1160.63 1763.17,-1154.26 1807.32,-1148.76"/>
<polygon fill="#757575" stroke="#757575" points="1808.02,-1152.2 1817.51,-1147.49 1807.15,-1145.25 1808.02,-1152.2"/>
</g>
<!-- components/Stripe/Layout.jsx -->
<g id="node50" class="node">
<title>components/Stripe/Layout.jsx</title>
<path fill="none" stroke="#cfffac" d="M2000.33,-1188.46C2000.33,-1188.46 1821.67,-1188.46 1821.67,-1188.46 1817.83,-1188.46 1814,-1184.63 1814,-1180.8 1814,-1180.8 1814,-1173.13 1814,-1173.13 1814,-1169.3 1817.83,-1165.46 1821.67,-1165.46 1821.67,-1165.46 2000.33,-1165.46 2000.33,-1165.46 2004.17,-1165.46 2008,-1169.3 2008,-1173.13 2008,-1173.13 2008,-1180.8 2008,-1180.8 2008,-1184.63 2004.17,-1188.46 2000.33,-1188.46"/>
<text text-anchor="middle" x="1911" y="-1173.26" font-family="Arial" font-size="14.00" fill="#cfffac">components/Stripe/Layout.jsx</text>
</g>
<!-- components/Stripe/index.js&#45;&gt;components/Stripe/Layout.jsx -->
<g id="edge70" class="edge">
<title>components/Stripe/index.js&#45;&gt;components/Stripe/Layout.jsx</title>
<path fill="none" stroke="#757575" d="M1669.6,-1176.96C1710.92,-1176.96 1760.41,-1176.96 1803.73,-1176.96"/>
<polygon fill="#757575" stroke="#757575" points="1803.73,-1180.46 1813.73,-1176.96 1803.73,-1173.46 1803.73,-1180.46"/>
</g>
<!-- components/Checkout/index.js&#45;&gt;components/Checkout/Checkout.jsx -->
<g id="edge25" class="edge">
<title>components/Checkout/index.js&#45;&gt;components/Checkout/Checkout.jsx</title>
<path fill="none" stroke="#757575" d="M975.52,-1017.52C1030.25,-1029.8 1116.73,-1049.2 1174.87,-1062.25"/>
<polygon fill="#757575" stroke="#757575" points="1174.14,-1065.67 1184.66,-1064.45 1175.67,-1058.84 1174.14,-1065.67"/>
</g>
<!-- components/Common/BodyText/BodyText.jsx -->
<g id="node27" class="node">
<title>components/Common/BodyText/BodyText.jsx</title>
<path fill="none" stroke="#cfffac" d="M2048.33,-199.46C2048.33,-199.46 1773.67,-199.46 1773.67,-199.46 1769.83,-199.46 1766,-195.63 1766,-191.8 1766,-191.8 1766,-184.13 1766,-184.13 1766,-180.3 1769.83,-176.46 1773.67,-176.46 1773.67,-176.46 2048.33,-176.46 2048.33,-176.46 2052.17,-176.46 2056,-180.3 2056,-184.13 2056,-184.13 2056,-191.8 2056,-191.8 2056,-195.63 2052.17,-199.46 2048.33,-199.46"/>
<text text-anchor="middle" x="1911" y="-184.26" font-family="Arial" font-size="14.00" fill="#cfffac">components/Common/BodyText/BodyText.jsx</text>
</g>
<!-- components/Common/BodyText/index.jsx&#45;&gt;components/Common/BodyText/BodyText.jsx -->
<g id="edge26" class="edge">
<title>components/Common/BodyText/index.jsx&#45;&gt;components/Common/BodyText/BodyText.jsx</title>
<path fill="none" stroke="#757575" d="M1713.39,-187.96C1727.26,-187.96 1741.44,-187.96 1755.53,-187.96"/>
<polygon fill="#757575" stroke="#757575" points="1755.76,-191.46 1765.76,-187.96 1755.76,-184.46 1755.76,-191.46"/>
</g>
<!-- components/Donations/Donations.jsx -->
<g id="node34" class="node">
<title>components/Donations/Donations.jsx</title>
<path fill="none" stroke="#c6c5fe" d="M1349.33,-439.46C1349.33,-439.46 1124.67,-439.46 1124.67,-439.46 1120.83,-439.46 1117,-435.63 1117,-431.8 1117,-431.8 1117,-424.13 1117,-424.13 1117,-420.3 1120.83,-416.46 1124.67,-416.46 1124.67,-416.46 1349.33,-416.46 1349.33,-416.46 1353.17,-416.46 1357,-420.3 1357,-424.13 1357,-424.13 1357,-431.8 1357,-431.8 1357,-435.63 1353.17,-439.46 1349.33,-439.46"/>
<text text-anchor="middle" x="1237" y="-424.26" font-family="Arial" font-size="14.00" fill="#c6c5fe">components/Donations/Donations.jsx</text>
</g>
<!-- components/Donations/Donations.jsx&#45;&gt;atoms.js -->
<g id="edge32" class="edge">
<title>components/Donations/Donations.jsx&#45;&gt;atoms.js</title>
<path fill="none" stroke="#757575" d="M1357.24,-434.4C1493.14,-442.7 1700.38,-458.63 1730,-479.96 1761.31,-502.52 1734.58,-536.57 1766,-558.96 1975.42,-708.22 2121.14,-482.23 2342,-613.96 2364.87,-627.61 2459.3,-781.48 2493.26,-837.62"/>
<polygon fill="#757575" stroke="#757575" points="2490.36,-839.58 2498.52,-846.34 2496.35,-835.97 2490.36,-839.58"/>
</g>
<!-- components/Donations/Donations.jsx&#45;&gt;components/Common/Modal/index.js -->
<g id="edge35" class="edge">
<title>components/Donations/Donations.jsx&#45;&gt;components/Common/Modal/index.js</title>
<path fill="none" stroke="#757575" d="M1253.95,-439.84C1286.9,-465.43 1362.07,-529.41 1394,-602.96 1429.01,-683.61 1377.32,-926.57 1430,-996.96 1446.41,-1018.89 1472.22,-1032.68 1497.79,-1041.34"/>
<polygon fill="#757575" stroke="#757575" points="1496.96,-1044.75 1507.55,-1044.42 1499.07,-1038.07 1496.96,-1044.75"/>
</g>
<!-- components/Donations/Donations.jsx&#45;&gt;components/Common/TitleText/index.js -->
<g id="edge36" class="edge">
<title>components/Donations/Donations.jsx&#45;&gt;components/Common/TitleText/index.js</title>
<path fill="none" stroke="#757575" d="M1255.1,-416.35C1287.59,-394.88 1361.18,-349.17 1430,-326.96 1438.67,-324.16 1447.75,-321.74 1456.96,-319.64"/>
<polygon fill="#757575" stroke="#757575" points="1457.95,-323 1466.99,-317.48 1456.47,-316.16 1457.95,-323"/>
</g>
<!-- components/Donations/Donations.jsx&#45;&gt;integrations/donationAPI.js -->
<g id="edge38" class="edge">
<title>components/Donations/Donations.jsx&#45;&gt;integrations/donationAPI.js</title>
<path fill="none" stroke="#757575" d="M1280.55,-439.49C1399.57,-471.74 1727.43,-560.62 1730,-561.96 1748.47,-571.59 1748.76,-580.28 1766,-591.96 1912.73,-691.44 2104,-784.03 2181.33,-820.08"/>
<polygon fill="#757575" stroke="#757575" points="2180.06,-823.35 2190.61,-824.39 2183.01,-817 2180.06,-823.35"/>
</g>
<!-- components/Donations/Donations.jsx&#45;&gt;components/Common/Button/index.jsx -->
<g id="edge34" class="edge">
<title>components/Donations/Donations.jsx&#45;&gt;components/Common/Button/index.jsx</title>
<path fill="none" stroke="#757575" d="M1357.03,-429.21C1553.14,-429.62 1934.57,-422.99 2056,-367.96 2118.77,-339.52 2174.6,-277.71 2200.58,-245.84"/>
<polygon fill="#757575" stroke="#757575" points="2203.58,-247.7 2207.1,-237.7 2198.11,-243.32 2203.58,-247.7"/>
</g>
<!-- components/Donations/Donations.jsx&#45;&gt;components/Common/BodyText/index.jsx -->
<g id="edge33" class="edge">
<title>components/Donations/Donations.jsx&#45;&gt;components/Common/BodyText/index.jsx</title>
<path fill="none" stroke="#757575" d="M1253.19,-416.14C1285.34,-391.22 1362.82,-331.78 1430,-284.96 1471.77,-255.86 1521.57,-223.99 1551.71,-205"/>
<polygon fill="#757575" stroke="#757575" points="1553.8,-207.83 1560.4,-199.54 1550.07,-201.9 1553.8,-207.83"/>
</g>
<!-- components/Donations/Donations.jsx&#45;&gt;components/OtherAmount/index.js -->
<g id="edge37" class="edge">
<title>components/Donations/Donations.jsx&#45;&gt;components/OtherAmount/index.js</title>
<path fill="none" stroke="#757575" d="M1336.17,-416.45C1378.34,-411.5 1427.75,-405.71 1470.95,-400.64"/>
<polygon fill="#757575" stroke="#757575" points="1471.4,-404.11 1480.93,-399.47 1470.59,-397.16 1471.4,-404.11"/>
</g>
<!-- components/OtherAmount/OtherAmount.jsx -->
<g id="node41" class="node">
<title>components/OtherAmount/OtherAmount.jsx</title>
<path fill="none" stroke="#c6c5fe" d="M2044.33,-549.46C2044.33,-549.46 1777.67,-549.46 1777.67,-549.46 1773.83,-549.46 1770,-545.63 1770,-541.8 1770,-541.8 1770,-534.13 1770,-534.13 1770,-530.3 1773.83,-526.46 1777.67,-526.46 1777.67,-526.46 2044.33,-526.46 2044.33,-526.46 2048.17,-526.46 2052,-530.3 2052,-534.13 2052,-534.13 2052,-541.8 2052,-541.8 2052,-545.63 2048.17,-549.46 2044.33,-549.46"/>
<text text-anchor="middle" x="1911" y="-534.26" font-family="Arial" font-size="14.00" fill="#c6c5fe">components/OtherAmount/OtherAmount.jsx</text>
</g>
<!-- components/OtherAmount/index.js&#45;&gt;components/OtherAmount/OtherAmount.jsx -->
<g id="edge52" class="edge">
<title>components/OtherAmount/index.js&#45;&gt;components/OtherAmount/OtherAmount.jsx</title>
<path fill="none" stroke="#757575" d="M1608.88,-399.55C1638.93,-412.12 1688.08,-432.95 1730,-451.96 1781.97,-475.53 1841.61,-504.39 1877.52,-521.96"/>
<polygon fill="#757575" stroke="#757575" points="1876.03,-525.13 1886.55,-526.39 1879.12,-518.85 1876.03,-525.13"/>
</g>
<!-- components/Donations/index.js&#45;&gt;components/Donations/Donations.jsx -->
<g id="edge39" class="edge">
<title>components/Donations/index.js&#45;&gt;components/Donations/Donations.jsx</title>
<path fill="none" stroke="#757575" d="M1025.73,-427.96C1051.51,-427.96 1079.55,-427.96 1106.5,-427.96"/>
<polygon fill="#757575" stroke="#757575" points="1106.77,-431.46 1116.77,-427.96 1106.77,-424.46 1106.77,-431.46"/>
</g>
<!-- components/MobileTextForm/MobileSchema.js -->
<g id="node37" class="node">
<title>components/MobileTextForm/MobileSchema.js</title>
<path fill="none" stroke="#cfffac" d="M1722.33,-593.46C1722.33,-593.46 1437.67,-593.46 1437.67,-593.46 1433.83,-593.46 1430,-589.63 1430,-585.8 1430,-585.8 1430,-578.13 1430,-578.13 1430,-574.3 1433.83,-570.46 1437.67,-570.46 1437.67,-570.46 1722.33,-570.46 1722.33,-570.46 1726.17,-570.46 1730,-574.3 1730,-578.13 1730,-578.13 1730,-585.8 1730,-585.8 1730,-589.63 1726.17,-593.46 1722.33,-593.46"/>
<text text-anchor="middle" x="1580" y="-578.26" font-family="Arial" font-size="14.00" fill="#cfffac">components/MobileTextForm/MobileSchema.js</text>
</g>
<!-- components/MobileTextForm/MobileTextForm.jsx -->
<g id="node38" class="node">
<title>components/MobileTextForm/MobileTextForm.jsx</title>
<path fill="none" stroke="#c6c5fe" d="M1386.33,-634.46C1386.33,-634.46 1087.67,-634.46 1087.67,-634.46 1083.83,-634.46 1080,-630.63 1080,-626.8 1080,-626.8 1080,-619.13 1080,-619.13 1080,-615.3 1083.83,-611.46 1087.67,-611.46 1087.67,-611.46 1386.33,-611.46 1386.33,-611.46 1390.17,-611.46 1394,-615.3 1394,-619.13 1394,-619.13 1394,-626.8 1394,-626.8 1394,-630.63 1390.17,-634.46 1386.33,-634.46"/>
<text text-anchor="middle" x="1237" y="-619.26" font-family="Arial" font-size="14.00" fill="#c6c5fe">components/MobileTextForm/MobileTextForm.jsx</text>
</g>
<!-- components/MobileTextForm/MobileTextForm.jsx&#45;&gt;atoms.js -->
<g id="edge40" class="edge">
<title>components/MobileTextForm/MobileTextForm.jsx&#45;&gt;atoms.js</title>
<path fill="none" stroke="#757575" d="M1297.62,-634.47C1335.49,-641.7 1385.58,-651.11 1430,-658.96 1835.01,-730.57 1940.38,-727.27 2342,-815.96 2383.24,-825.07 2429.85,-837.23 2462.73,-846.12"/>
<polygon fill="#757575" stroke="#757575" points="2461.9,-849.53 2472.47,-848.77 2463.73,-842.77 2461.9,-849.53"/>
</g>
<!-- components/MobileTextForm/MobileTextForm.jsx&#45;&gt;components/Common/Input/index.js -->
<g id="edge42" class="edge">
<title>components/MobileTextForm/MobileTextForm.jsx&#45;&gt;components/Common/Input/index.js</title>
<path fill="none" stroke="#757575" d="M1324.81,-634.49C1357.7,-638.32 1395.51,-642.08 1430,-643.96 1554.36,-650.74 1900.92,-642.77 2089.63,-637.64"/>
<polygon fill="#757575" stroke="#757575" points="2089.99,-641.13 2099.89,-637.36 2089.79,-634.13 2089.99,-641.13"/>
</g>
<!-- components/MobileTextForm/MobileTextForm.jsx&#45;&gt;components/Common/Select/index.js -->
<g id="edge43" class="edge">
<title>components/MobileTextForm/MobileTextForm.jsx&#45;&gt;components/Common/Select/index.js</title>
<path fill="none" stroke="#757575" d="M1247.32,-634.73C1272.8,-665.99 1347.28,-751.43 1430,-790.96 1439.8,-795.64 1450.31,-799.49 1461.06,-802.65"/>
<polygon fill="#757575" stroke="#757575" points="1460.42,-806.1 1470.99,-805.37 1462.27,-799.35 1460.42,-806.1"/>
</g>
<!-- components/MobileTextForm/MobileTextForm.jsx&#45;&gt;components/Common/TitleText/index.js -->
<g id="edge44" class="edge">
<title>components/MobileTextForm/MobileTextForm.jsx&#45;&gt;components/Common/TitleText/index.js</title>
<path fill="none" stroke="#757575" d="M1251.91,-611.41C1282.22,-585.5 1354.66,-519.47 1394,-448.96 1421.55,-399.59 1387.2,-363.9 1430,-326.96 1434.26,-323.28 1438.87,-320.07 1443.72,-317.28"/>
<polygon fill="#757575" stroke="#757575" points="1445.4,-320.36 1452.71,-312.7 1442.22,-314.12 1445.4,-320.36"/>
</g>
<!-- components/MobileTextForm/MobileTextForm.jsx&#45;&gt;integrations/donationAPI.js -->
<g id="edge47" class="edge">
<title>components/MobileTextForm/MobileTextForm.jsx&#45;&gt;integrations/donationAPI.js</title>
<path fill="none" stroke="#757575" d="M1256.81,-634.48C1290.29,-654.41 1363.03,-695.08 1430,-714.96 1699,-794.81 1780.17,-745.44 2056,-796.96 2092.52,-803.78 2133.19,-813.73 2164.38,-821.87"/>
<polygon fill="#757575" stroke="#757575" points="2163.6,-825.28 2174.16,-824.44 2165.38,-818.51 2163.6,-825.28"/>
</g>
<!-- components/MobileTextForm/MobileTextForm.jsx&#45;&gt;components/Common/Button/index.jsx -->
<g id="edge41" class="edge">
<title>components/MobileTextForm/MobileTextForm.jsx&#45;&gt;components/Common/Button/index.jsx</title>
<path fill="none" stroke="#757575" d="M1272.14,-611.4C1310.38,-598.61 1374.31,-577.73 1430,-561.96 1705.89,-483.85 1810.69,-554.41 2056,-405.96 2124.59,-364.46 2180.2,-284.14 2203.79,-246.44"/>
<polygon fill="#757575" stroke="#757575" points="2206.83,-248.18 2209.08,-237.83 2200.86,-244.51 2206.83,-248.18"/>
</g>
<!-- components/MobileTextForm/MobileTextForm.jsx&#45;&gt;components/MobileTextForm/MobileSchema.js -->
<g id="edge45" class="edge">
<title>components/MobileTextForm/MobileTextForm.jsx&#45;&gt;components/MobileTextForm/MobileSchema.js</title>
<path fill="none" stroke="#757575" d="M1333.89,-611.43C1377.3,-606.21 1428.74,-600.03 1473.26,-594.68"/>
<polygon fill="#757575" stroke="#757575" points="1473.72,-598.15 1483.23,-593.48 1472.89,-591.2 1473.72,-598.15"/>
</g>
<!-- components/MobileTextForm/options.js -->
<g id="node39" class="node">
<title>components/MobileTextForm/options.js</title>
<path fill="none" stroke="#cfffac" d="M1698.83,-634.46C1698.83,-634.46 1461.17,-634.46 1461.17,-634.46 1457.33,-634.46 1453.5,-630.63 1453.5,-626.8 1453.5,-626.8 1453.5,-619.13 1453.5,-619.13 1453.5,-615.3 1457.33,-611.46 1461.17,-611.46 1461.17,-611.46 1698.83,-611.46 1698.83,-611.46 1702.67,-611.46 1706.5,-615.3 1706.5,-619.13 1706.5,-619.13 1706.5,-626.8 1706.5,-626.8 1706.5,-630.63 1702.67,-634.46 1698.83,-634.46"/>
<text text-anchor="middle" x="1580" y="-619.26" font-family="Arial" font-size="14.00" fill="#cfffac">components/MobileTextForm/options.js</text>
</g>
<!-- components/MobileTextForm/MobileTextForm.jsx&#45;&gt;components/MobileTextForm/options.js -->
<g id="edge46" class="edge">
<title>components/MobileTextForm/MobileTextForm.jsx&#45;&gt;components/MobileTextForm/options.js</title>
<path fill="none" stroke="#757575" d="M1394.03,-622.96C1410.51,-622.96 1427.18,-622.96 1443.4,-622.96"/>
<polygon fill="#757575" stroke="#757575" points="1443.44,-626.46 1453.44,-622.96 1443.44,-619.46 1443.44,-626.46"/>
</g>
<!-- components/MobileTextForm/index.js&#45;&gt;components/MobileTextForm/MobileTextForm.jsx -->
<g id="edge48" class="edge">
<title>components/MobileTextForm/index.js&#45;&gt;components/MobileTextForm/MobileTextForm.jsx</title>
<path fill="none" stroke="#757575" d="M970.71,-557.49C1026.39,-571.23 1119.41,-594.19 1179.2,-608.94"/>
<polygon fill="#757575" stroke="#757575" points="1178.68,-612.42 1189.23,-611.42 1180.36,-605.63 1178.68,-612.42"/>
</g>
<!-- components/OtherAmount/OtherAmount.jsx&#45;&gt;atoms.js -->
<g id="edge49" class="edge">
<title>components/OtherAmount/OtherAmount.jsx&#45;&gt;atoms.js</title>
<path fill="none" stroke="#757575" d="M2052.01,-530.63C2159.55,-527.84 2297.04,-531.37 2342,-563.96 2377.22,-589.49 2358.35,-616.16 2378,-654.96 2413.38,-724.83 2465.64,-801.67 2490.85,-837.48"/>
<polygon fill="#757575" stroke="#757575" points="2488.29,-839.93 2496.92,-846.07 2494,-835.88 2488.29,-839.93"/>
</g>
<!-- components/OtherAmount/OtherAmount.jsx&#45;&gt;components/Common/Input/index.js -->
<g id="edge51" class="edge">
<title>components/OtherAmount/OtherAmount.jsx&#45;&gt;components/Common/Input/index.js</title>
<path fill="none" stroke="#757575" d="M1948.67,-549.54C2004.02,-567.02 2108.86,-600.13 2169.5,-619.28"/>
<polygon fill="#757575" stroke="#757575" points="2168.61,-622.67 2179.2,-622.34 2170.72,-615.99 2168.61,-622.67"/>
</g>
<!-- components/OtherAmount/OtherAmount.jsx&#45;&gt;components/Common/Button/index.jsx -->
<g id="edge50" class="edge">
<title>components/OtherAmount/OtherAmount.jsx&#45;&gt;components/Common/Button/index.jsx</title>
<path fill="none" stroke="#757575" d="M2028.52,-526.41C2038.29,-522.67 2047.62,-517.94 2056,-511.96 2150.89,-444.26 2196.38,-301.74 2210.76,-247.52"/>
<polygon fill="#757575" stroke="#757575" points="2214.2,-248.18 2213.3,-237.62 2207.42,-246.44 2214.2,-248.18"/>
</g>
<!-- components/PrayerCard/PrayerCard.jsx -->
<g id="node42" class="node">
<title>components/PrayerCard/PrayerCard.jsx</title>
<path fill="none" stroke="#c6c5fe" d="M1357.83,-239.46C1357.83,-239.46 1116.17,-239.46 1116.17,-239.46 1112.33,-239.46 1108.5,-235.63 1108.5,-231.8 1108.5,-231.8 1108.5,-224.13 1108.5,-224.13 1108.5,-220.3 1112.33,-216.46 1116.17,-216.46 1116.17,-216.46 1357.83,-216.46 1357.83,-216.46 1361.67,-216.46 1365.5,-220.3 1365.5,-224.13 1365.5,-224.13 1365.5,-231.8 1365.5,-231.8 1365.5,-235.63 1361.67,-239.46 1357.83,-239.46"/>
<text text-anchor="middle" x="1237" y="-224.26" font-family="Arial" font-size="14.00" fill="#c6c5fe">components/PrayerCard/PrayerCard.jsx</text>
</g>
<!-- components/PrayerCard/PrayerCard.jsx&#45;&gt;components/Common/TitleText/index.js -->
<g id="edge55" class="edge">
<title>components/PrayerCard/PrayerCard.jsx&#45;&gt;components/Common/TitleText/index.js</title>
<path fill="none" stroke="#757575" d="M1347.52,-239.52C1363.2,-241.89 1379.06,-244.69 1394,-247.96 1444.71,-259.07 1501.46,-277.84 1538.57,-291.02"/>
<polygon fill="#757575" stroke="#757575" points="1537.43,-294.33 1548.03,-294.4 1539.79,-287.74 1537.43,-294.33"/>
</g>
<!-- components/PrayerCard/PrayerCard.jsx&#45;&gt;components/Common/Button/index.jsx -->
<g id="edge54" class="edge">
<title>components/PrayerCard/PrayerCard.jsx&#45;&gt;components/Common/Button/index.jsx</title>
<path fill="none" stroke="#757575" d="M1265.02,-216.45C1301.62,-201.55 1369.34,-176.37 1430,-166.96 1704.94,-124.34 1782.11,-118.07 2056,-166.96 2101.83,-175.14 2151.72,-195.53 2183.39,-210.05"/>
<polygon fill="#757575" stroke="#757575" points="2182.07,-213.29 2192.61,-214.34 2185.03,-206.95 2182.07,-213.29"/>
</g>
<!-- components/PrayerCard/PrayerCard.jsx&#45;&gt;components/Common/BodyText/index.jsx -->
<g id="edge53" class="edge">
<title>components/PrayerCard/PrayerCard.jsx&#45;&gt;components/Common/BodyText/index.jsx</title>
<path fill="none" stroke="#757575" d="M1336.17,-216.45C1378.34,-211.5 1427.75,-205.71 1470.95,-200.64"/>
<polygon fill="#757575" stroke="#757575" points="1471.4,-204.11 1480.93,-199.47 1470.59,-197.16 1471.4,-204.11"/>
</g>
<!-- components/PrayerCard/index.js&#45;&gt;components/PrayerCard/PrayerCard.jsx -->
<g id="edge56" class="edge">
<title>components/PrayerCard/index.js&#45;&gt;components/PrayerCard/PrayerCard.jsx</title>
<path fill="none" stroke="#757575" d="M1029.63,-227.96C1051.65,-227.96 1075.17,-227.96 1098.16,-227.96"/>
<polygon fill="#757575" stroke="#757575" points="1098.32,-231.46 1108.32,-227.96 1098.32,-224.46 1098.32,-231.46"/>
</g>
<!-- components/Reminder/reminder.jsx&#45;&gt;components/Common/Button/index.jsx -->
<g id="edge59" class="edge">
<title>components/Reminder/reminder.jsx&#45;&gt;components/Common/Button/index.jsx</title>
<path fill="none" stroke="#757575" d="M2027.06,-335.5C2036.98,-333.16 2046.76,-330.34 2056,-326.96 2109.91,-307.25 2164.78,-267.39 2194.17,-244.07"/>
<polygon fill="#757575" stroke="#757575" points="2196.51,-246.68 2202.11,-237.68 2192.12,-241.23 2196.51,-246.68"/>
</g>
<!-- components/Stripe/BillingDetails.jsx&#45;&gt;atoms.js -->
<g id="edge60" class="edge">
<title>components/Stripe/BillingDetails.jsx&#45;&gt;atoms.js</title>
<path fill="none" stroke="#757575" d="M2328,-1203.45C2332.92,-1201.03 2337.63,-1198.22 2342,-1194.96 2451.05,-1113.86 2491.02,-940.58 2502.02,-879.67"/>
<polygon fill="#757575" stroke="#757575" points="2505.49,-880.11 2503.74,-869.66 2498.6,-878.92 2505.49,-880.11"/>
</g>
<!-- components/Stripe/FormField.jsx -->
<g id="node47" class="node">
<title>components/Stripe/FormField.jsx</title>
<path fill="none" stroke="#cfffac" d="M2606.33,-1226.46C2606.33,-1226.46 2406.67,-1226.46 2406.67,-1226.46 2402.83,-1226.46 2399,-1222.63 2399,-1218.8 2399,-1218.8 2399,-1211.13 2399,-1211.13 2399,-1207.3 2402.83,-1203.46 2406.67,-1203.46 2406.67,-1203.46 2606.33,-1203.46 2606.33,-1203.46 2610.17,-1203.46 2614,-1207.3 2614,-1211.13 2614,-1211.13 2614,-1218.8 2614,-1218.8 2614,-1222.63 2610.17,-1226.46 2606.33,-1226.46"/>
<text text-anchor="middle" x="2506.5" y="-1211.26" font-family="Arial" font-size="14.00" fill="#cfffac">components/Stripe/FormField.jsx</text>
</g>
<!-- components/Stripe/BillingDetails.jsx&#45;&gt;components/Stripe/FormField.jsx -->
<g id="edge61" class="edge">
<title>components/Stripe/BillingDetails.jsx&#45;&gt;components/Stripe/FormField.jsx</title>
<path fill="none" stroke="#757575" d="M2332.87,-1214.96C2351.21,-1214.96 2370.21,-1214.96 2388.6,-1214.96"/>
<polygon fill="#757575" stroke="#757575" points="2388.74,-1218.46 2398.74,-1214.96 2388.74,-1211.46 2388.74,-1218.46"/>
</g>
<!-- components/Stripe/CheckoutForm.jsx&#45;&gt;atoms.js -->
<g id="edge62" class="edge">
<title>components/Stripe/CheckoutForm.jsx&#45;&gt;atoms.js</title>
<path fill="none" stroke="#757575" d="M2032.69,-1140.58C2141.28,-1142.61 2291.32,-1139.51 2342,-1109.96 2433.29,-1056.74 2482.5,-929.89 2499.05,-879.31"/>
<polygon fill="#757575" stroke="#757575" points="2502.48,-880.06 2502.17,-869.47 2495.81,-877.95 2502.48,-880.06"/>
</g>
<!-- components/Stripe/CheckoutForm.jsx&#45;&gt;integrations/donationAPI.js -->
<g id="edge66" class="edge">
<title>components/Stripe/CheckoutForm.jsx&#45;&gt;integrations/donationAPI.js</title>
<path fill="none" stroke="#757575" d="M1959.2,-1124.38C1989.29,-1115.23 2027.8,-1100.09 2056,-1076.96 2133.45,-1013.46 2187.32,-902.65 2207.36,-856.77"/>
<polygon fill="#757575" stroke="#757575" points="2210.6,-858.1 2211.32,-847.52 2204.16,-855.34 2210.6,-858.1"/>
</g>
<!-- components/Stripe/CheckoutForm.jsx&#45;&gt;components/Common/Button/index.jsx -->
<g id="edge63" class="edge">
<title>components/Stripe/CheckoutForm.jsx&#45;&gt;components/Common/Button/index.jsx</title>
<path fill="none" stroke="#757575" d="M1979.77,-1124.4C2007.86,-1116.02 2038.02,-1101.64 2056,-1076.96 2116.78,-993.56 2072.16,-715.24 2092,-613.96 2120.16,-470.23 2183.92,-305.11 2207.24,-247.29"/>
<polygon fill="#757575" stroke="#757575" points="2210.59,-248.35 2211.11,-237.77 2204.1,-245.71 2210.59,-248.35"/>
</g>
<!-- components/Stripe/CheckoutForm.jsx&#45;&gt;components/Stripe/BillingDetails.jsx -->
<g id="edge64" class="edge">
<title>components/Stripe/CheckoutForm.jsx&#45;&gt;components/Stripe/BillingDetails.jsx</title>
<path fill="none" stroke="#757575" d="M2032.59,-1147.27C2040.71,-1149.92 2048.6,-1153.12 2056,-1156.96 2076.65,-1167.68 2071.43,-1184.09 2092,-1194.96 2095.33,-1196.72 2098.77,-1198.34 2102.3,-1199.81"/>
<polygon fill="#757575" stroke="#757575" points="2101.22,-1203.15 2111.82,-1203.42 2103.71,-1196.6 2101.22,-1203.15"/>
</g>
<!-- components/Stripe/CheckoutForm.jsx&#45;&gt;components/Stripe/CheckoutError.jsx -->
<g id="edge65" class="edge">
<title>components/Stripe/CheckoutForm.jsx&#45;&gt;components/Stripe/CheckoutError.jsx</title>
<path fill="none" stroke="#757575" d="M2004.04,-1147.47C2038.55,-1151.78 2077.98,-1156.71 2113.39,-1161.14"/>
<polygon fill="#757575" stroke="#757575" points="2113.4,-1164.67 2123.75,-1162.43 2114.26,-1157.72 2113.4,-1164.67"/>
</g>
<!-- components/ThankYou/ThankYou.jsx -->
<g id="node51" class="node">
<title>components/ThankYou/ThankYou.jsx</title>
<path fill="none" stroke="#c6c5fe" d="M1350.33,-280.46C1350.33,-280.46 1123.67,-280.46 1123.67,-280.46 1119.83,-280.46 1116,-276.63 1116,-272.8 1116,-272.8 1116,-265.13 1116,-265.13 1116,-261.3 1119.83,-257.46 1123.67,-257.46 1123.67,-257.46 1350.33,-257.46 1350.33,-257.46 1354.17,-257.46 1358,-261.3 1358,-265.13 1358,-265.13 1358,-272.8 1358,-272.8 1358,-276.63 1354.17,-280.46 1350.33,-280.46"/>
<text text-anchor="middle" x="1237" y="-265.26" font-family="Arial" font-size="14.00" fill="#c6c5fe">components/ThankYou/ThankYou.jsx</text>
</g>
<!-- components/ThankYou/ThankYou.jsx&#45;&gt;atoms.js -->
<g id="edge71" class="edge">
<title>components/ThankYou/ThankYou.jsx&#45;&gt;atoms.js</title>
<path fill="none" stroke="#757575" d="M1358.39,-266.91C1570.07,-263.95 1992.62,-261.19 2056,-284.96 2211.37,-343.24 2252.26,-385.39 2342,-524.96 2374.42,-575.39 2353.8,-600.11 2378,-654.96 2409.75,-726.92 2464.1,-803.27 2490.39,-838.31"/>
<polygon fill="#757575" stroke="#757575" points="2487.61,-840.44 2496.44,-846.3 2493.19,-836.21 2487.61,-840.44"/>
</g>
<!-- components/ThankYou/ThankYou.jsx&#45;&gt;components/Common/TitleText/index.js -->
<g id="edge74" class="edge">
<title>components/ThankYou/ThankYou.jsx&#45;&gt;components/Common/TitleText/index.js</title>
<path fill="none" stroke="#757575" d="M1344.03,-280.47C1381.62,-284.55 1424.13,-289.16 1462.55,-293.33"/>
<polygon fill="#757575" stroke="#757575" points="1462.43,-296.84 1472.75,-294.43 1463.18,-289.88 1462.43,-296.84"/>
</g>
<!-- components/ThankYou/ThankYou.jsx&#45;&gt;components/Common/Button/index.jsx -->
<g id="edge73" class="edge">
<title>components/ThankYou/ThankYou.jsx&#45;&gt;components/Common/Button/index.jsx</title>
<path fill="none" stroke="#757575" d="M1356.22,-257.46C1380.6,-255.38 1406.12,-253.41 1430,-251.96 1658.53,-238.08 1924.93,-231.23 2081.53,-228.15"/>
<polygon fill="#757575" stroke="#757575" points="2081.75,-231.65 2091.68,-227.96 2081.61,-224.65 2081.75,-231.65"/>
</g>
<!-- components/ThankYou/ThankYou.jsx&#45;&gt;components/Common/BodyText/index.jsx -->
<g id="edge72" class="edge">
<title>components/ThankYou/ThankYou.jsx&#45;&gt;components/Common/BodyText/index.jsx</title>
<path fill="none" stroke="#757575" d="M1358.21,-260.58C1370.62,-257.43 1382.78,-253.32 1394,-247.96 1413.86,-238.48 1410.33,-223.83 1430,-213.96 1439.25,-209.33 1449.18,-205.5 1459.37,-202.34"/>
<polygon fill="#757575" stroke="#757575" points="1460.55,-205.65 1469.2,-199.52 1458.62,-198.92 1460.55,-205.65"/>
</g>
<!-- components/ThankYou/index.js&#45;&gt;components/ThankYou/ThankYou.jsx -->
<g id="edge75" class="edge">
<title>components/ThankYou/index.js&#45;&gt;components/ThankYou/ThankYou.jsx</title>
<path fill="none" stroke="#757575" d="M1026.16,-268.96C1051.61,-268.96 1079.24,-268.96 1105.84,-268.96"/>
<polygon fill="#757575" stroke="#757575" points="1105.98,-272.46 1115.98,-268.96 1105.98,-265.46 1105.98,-272.46"/>
</g>
<!-- index.css -->
<g id="node53" class="node">
<title>index.css</title>
<path fill="none" stroke="#cfffac" d="M236.33,-297.46C236.33,-297.46 178.67,-297.46 178.67,-297.46 174.83,-297.46 171,-293.63 171,-289.8 171,-289.8 171,-282.13 171,-282.13 171,-278.3 174.83,-274.46 178.67,-274.46 178.67,-274.46 236.33,-274.46 236.33,-274.46 240.17,-274.46 244,-278.3 244,-282.13 244,-282.13 244,-289.8 244,-289.8 244,-293.63 240.17,-297.46 236.33,-297.46"/>
<text text-anchor="middle" x="207.5" y="-282.26" font-family="Arial" font-size="14.00" fill="#cfffac">index.css</text>
</g>
<!-- index.js -->
<g id="node54" class="node">
<title>index.js</title>
<path fill="none" stroke="#c6c5fe" d="M54.33,-317.46C54.33,-317.46 7.67,-317.46 7.67,-317.46 3.83,-317.46 0,-313.63 0,-309.8 0,-309.8 0,-302.13 0,-302.13 0,-298.3 3.83,-294.46 7.67,-294.46 7.67,-294.46 54.33,-294.46 54.33,-294.46 58.17,-294.46 62,-298.3 62,-302.13 62,-302.13 62,-309.8 62,-309.8 62,-313.63 58.17,-317.46 54.33,-317.46"/>
<text text-anchor="middle" x="31" y="-302.26" font-family="Arial" font-size="14.00" fill="#c6c5fe">index.js</text>
</g>
<!-- index.js&#45;&gt;App.js -->
<g id="edge91" class="edge">
<title>index.js&#45;&gt;App.js</title>
<path fill="none" stroke="#757575" d="M46.57,-317.58C59.38,-327.2 78.91,-340.46 98,-347.96 121.13,-357.06 148.69,-362.07 170.25,-364.8"/>
<polygon fill="#757575" stroke="#757575" points="169.96,-368.29 180.3,-365.97 170.77,-361.34 169.96,-368.29"/>
</g>
<!-- index.js&#45;&gt;auth/auth0&#45;provider&#45;with&#45;history.js -->
<g id="edge92" class="edge">
<title>index.js&#45;&gt;auth/auth0&#45;provider&#45;with&#45;history.js</title>
<path fill="none" stroke="#757575" d="M62.4,-309.62C73.47,-310.95 86.72,-312.55 100.63,-314.22"/>
<polygon fill="#757575" stroke="#757575" points="100.5,-317.73 110.85,-315.45 101.34,-310.78 100.5,-317.73"/>
</g>
<!-- index.js&#45;&gt;index.css -->
<g id="edge93" class="edge">
<title>index.js&#45;&gt;index.css</title>
<path fill="none" stroke="#757575" d="M62.4,-302.48C89.5,-299.37 129.58,-294.78 160.6,-291.22"/>
<polygon fill="#757575" stroke="#757575" points="161.2,-294.68 170.73,-290.06 160.4,-287.72 161.2,-294.68"/>
</g>
<!-- serviceWorker.js -->
<g id="node55" class="node">
<title>serviceWorker.js</title>
<path fill="none" stroke="#cfffac" d="M257.83,-256.46C257.83,-256.46 157.17,-256.46 157.17,-256.46 153.33,-256.46 149.5,-252.63 149.5,-248.8 149.5,-248.8 149.5,-241.13 149.5,-241.13 149.5,-237.3 153.33,-233.46 157.17,-233.46 157.17,-233.46 257.83,-233.46 257.83,-233.46 261.67,-233.46 265.5,-237.3 265.5,-241.13 265.5,-241.13 265.5,-248.8 265.5,-248.8 265.5,-252.63 261.67,-256.46 257.83,-256.46"/>
<text text-anchor="middle" x="207.5" y="-241.26" font-family="Arial" font-size="14.00" fill="#cfffac">serviceWorker.js</text>
</g>
<!-- index.js&#45;&gt;serviceWorker.js -->
<g id="edge94" class="edge">
<title>index.js&#45;&gt;serviceWorker.js</title>
<path fill="none" stroke="#757575" d="M46.87,-294.45C59.71,-285.08 79.13,-272.26 98,-264.96 111.01,-259.93 125.4,-256.14 139.33,-253.3"/>
<polygon fill="#757575" stroke="#757575" points="140.19,-256.7 149.36,-251.39 138.88,-249.82 140.19,-256.7"/>
</g>
</g>
</svg>
