<?xml version="1.0" encoding="UTF-8" standalone="no"?>
<!DOCTYPE svg PUBLIC "-//W3C//DTD SVG 1.1//EN"
 "http://www.w3.org/Graphics/SVG/1.1/DTD/svg11.dtd">
<!-- Generated by graphviz version 2.43.0 (0)
 -->
<!-- Title: G Pages: 1 -->
<svg width="2678pt" height="1219pt"
 viewBox="0.00 0.00 2678.20 1219.20" xmlns="http://www.w3.org/2000/svg" xmlns:xlink="http://www.w3.org/1999/xlink">
<g id="graph0" class="graph" transform="scale(1 1) rotate(0) translate(21.6 1197.6)">
<title>G</title>
<polygon fill="#111111" stroke="transparent" points="-21.6,21.6 -21.6,-1197.6 2656.6,-1197.6 2656.6,21.6 -21.6,21.6"/>
<!-- App.js -->
<g id="node1" class="node">
<title>App.js</title>
<path fill="none" stroke="#c6c5fe" d="M226.83,-520C226.83,-520 188.17,-520 188.17,-520 184.33,-520 180.5,-516.17 180.5,-512.33 180.5,-512.33 180.5,-504.67 180.5,-504.67 180.5,-500.83 184.33,-497 188.17,-497 188.17,-497 226.83,-497 226.83,-497 230.67,-497 234.5,-500.83 234.5,-504.67 234.5,-504.67 234.5,-512.33 234.5,-512.33 234.5,-516.17 230.67,-520 226.83,-520"/>
<text text-anchor="middle" x="207.5" y="-504.8" font-family="Arial" font-size="14.00" fill="#c6c5fe">App.js</text>
</g>
<!-- auth/protected&#45;route.js -->
<g id="node2" class="node">
<title>auth/protected&#45;route.js</title>
<path fill="none" stroke="#c6c5fe" d="M512.33,-520C512.33,-520 375.67,-520 375.67,-520 371.83,-520 368,-516.17 368,-512.33 368,-512.33 368,-504.67 368,-504.67 368,-500.83 371.83,-497 375.67,-497 375.67,-497 512.33,-497 512.33,-497 516.17,-497 520,-500.83 520,-504.67 520,-504.67 520,-512.33 520,-512.33 520,-516.17 516.17,-520 512.33,-520"/>
<text text-anchor="middle" x="444" y="-504.8" font-family="Arial" font-size="14.00" fill="#c6c5fe">auth/protected&#45;route.js</text>
</g>
<!-- App.js&#45;&gt;auth/protected&#45;route.js -->
<g id="edge1" class="edge">
<title>App.js&#45;&gt;auth/protected&#45;route.js</title>
<path fill="none" stroke="#757575" d="M234.94,-508.5C264.67,-508.5 314.46,-508.5 357.88,-508.5"/>
<polygon fill="#757575" stroke="#757575" points="357.9,-512 367.9,-508.5 357.9,-505 357.9,-512"/>
</g>
<!-- components/Profile/index.js -->
<g id="node3" class="node">
<title>components/Profile/index.js</title>
<path fill="none" stroke="#c6c5fe" d="M527.33,-479C527.33,-479 360.67,-479 360.67,-479 356.83,-479 353,-475.17 353,-471.33 353,-471.33 353,-463.67 353,-463.67 353,-459.83 356.83,-456 360.67,-456 360.67,-456 527.33,-456 527.33,-456 531.17,-456 535,-459.83 535,-463.67 535,-463.67 535,-471.33 535,-471.33 535,-475.17 531.17,-479 527.33,-479"/>
<text text-anchor="middle" x="444" y="-463.8" font-family="Arial" font-size="14.00" fill="#c6c5fe">components/Profile/index.js</text>
</g>
<!-- App.js&#45;&gt;components/Profile/index.js -->
<g id="edge2" class="edge">
<title>App.js&#45;&gt;components/Profile/index.js</title>
<path fill="none" stroke="#757575" d="M234.94,-503.88C266.79,-498.31 321.67,-488.71 367.07,-480.77"/>
<polygon fill="#757575" stroke="#757575" points="367.95,-484.17 377.2,-479 366.75,-477.28 367.95,-484.17"/>
</g>
<!-- components/index.js -->
<g id="node4" class="node">
<title>components/index.js</title>
<path fill="none" stroke="#c6c5fe" d="M730.83,-540C730.83,-540 606.17,-540 606.17,-540 602.33,-540 598.5,-536.17 598.5,-532.33 598.5,-532.33 598.5,-524.67 598.5,-524.67 598.5,-520.83 602.33,-517 606.17,-517 606.17,-517 730.83,-517 730.83,-517 734.67,-517 738.5,-520.83 738.5,-524.67 738.5,-524.67 738.5,-532.33 738.5,-532.33 738.5,-536.17 734.67,-540 730.83,-540"/>
<text text-anchor="middle" x="668.5" y="-524.8" font-family="Arial" font-size="14.00" fill="#c6c5fe">components/index.js</text>
</g>
<!-- App.js&#45;&gt;components/index.js -->
<g id="edge3" class="edge">
<title>App.js&#45;&gt;components/index.js</title>
<path fill="none" stroke="#757575" d="M234.74,-513.48C263.6,-518.68 311.41,-526.49 353,-529.5 433.68,-535.33 454.11,-529.81 535,-529.5 552.21,-529.44 570.68,-529.32 588.2,-529.2"/>
<polygon fill="#757575" stroke="#757575" points="588.41,-532.69 598.39,-529.12 588.36,-525.69 588.41,-532.69"/>
</g>
<!-- auth/protected&#45;route.js&#45;&gt;components/index.js -->
<g id="edge4" class="edge">
<title>auth/protected&#45;route.js&#45;&gt;components/index.js</title>
<path fill="none" stroke="#757575" d="M520.02,-515.24C542.01,-517.22 566.12,-519.39 588.36,-521.39"/>
<polygon fill="#757575" stroke="#757575" points="588.16,-524.88 598.43,-522.29 588.78,-517.91 588.16,-524.88"/>
</g>
<!-- components/Profile/Profile.jsx -->
<g id="node43" class="node">
<title>components/Profile/Profile.jsx</title>
<path fill="none" stroke="#cfffac" d="M758.33,-479C758.33,-479 578.67,-479 578.67,-479 574.83,-479 571,-475.17 571,-471.33 571,-471.33 571,-463.67 571,-463.67 571,-459.83 574.83,-456 578.67,-456 578.67,-456 758.33,-456 758.33,-456 762.17,-456 766,-459.83 766,-463.67 766,-463.67 766,-471.33 766,-471.33 766,-475.17 762.17,-479 758.33,-479"/>
<text text-anchor="middle" x="668.5" y="-463.8" font-family="Arial" font-size="14.00" fill="#cfffac">components/Profile/Profile.jsx</text>
</g>
<!-- components/Profile/index.js&#45;&gt;components/Profile/Profile.jsx -->
<g id="edge54" class="edge">
<title>components/Profile/index.js&#45;&gt;components/Profile/Profile.jsx</title>
<path fill="none" stroke="#757575" d="M535.18,-467.5C543.49,-467.5 551.96,-467.5 560.39,-467.5"/>
<polygon fill="#757575" stroke="#757575" points="560.66,-471 570.66,-467.5 560.66,-464 560.66,-471"/>
</g>
<!-- components/Common/Input/index.js -->
<g id="node10" class="node">
<title>components/Common/Input/index.js</title>
<path fill="none" stroke="#c6c5fe" d="M2326.33,-760C2326.33,-760 2107.67,-760 2107.67,-760 2103.83,-760 2100,-756.17 2100,-752.33 2100,-752.33 2100,-744.67 2100,-744.67 2100,-740.83 2103.83,-737 2107.67,-737 2107.67,-737 2326.33,-737 2326.33,-737 2330.17,-737 2334,-740.83 2334,-744.67 2334,-744.67 2334,-752.33 2334,-752.33 2334,-756.17 2330.17,-760 2326.33,-760"/>
<text text-anchor="middle" x="2217" y="-744.8" font-family="Arial" font-size="14.00" fill="#c6c5fe">components/Common/Input/index.js</text>
</g>
<!-- components/index.js&#45;&gt;components/Common/Input/index.js -->
<g id="edge77" class="edge">
<title>components/index.js&#45;&gt;components/Common/Input/index.js</title>
<path fill="none" stroke="#757575" d="M678.34,-540.37C697.77,-565.61 746.89,-624.79 802,-655.5 976.02,-752.47 1036.79,-767.5 1236,-767.5 1236,-767.5 1236,-767.5 1581,-767.5 1757.51,-767.5 1961.5,-760.07 2089.63,-754.51"/>
<polygon fill="#757575" stroke="#757575" points="2090.03,-757.99 2099.87,-754.06 2089.72,-751 2090.03,-757.99"/>
</g>
<!-- components/Common/Modal/index.js -->
<g id="node11" class="node">
<title>components/Common/Modal/index.js</title>
<path fill="none" stroke="#c6c5fe" d="M1693.33,-978C1693.33,-978 1466.67,-978 1466.67,-978 1462.83,-978 1459,-974.17 1459,-970.33 1459,-970.33 1459,-962.67 1459,-962.67 1459,-958.83 1462.83,-955 1466.67,-955 1466.67,-955 1693.33,-955 1693.33,-955 1697.17,-955 1701,-958.83 1701,-962.67 1701,-962.67 1701,-970.33 1701,-970.33 1701,-974.17 1697.17,-978 1693.33,-978"/>
<text text-anchor="middle" x="1580" y="-962.8" font-family="Arial" font-size="14.00" fill="#c6c5fe">components/Common/Modal/index.js</text>
</g>
<!-- components/index.js&#45;&gt;components/Common/Modal/index.js -->
<g id="edge78" class="edge">
<title>components/index.js&#45;&gt;components/Common/Modal/index.js</title>
<path fill="none" stroke="#757575" d="M670.78,-540.04C676.43,-585.19 703.46,-751.17 802,-828.5 900.53,-905.81 1254.6,-943.08 1448.98,-958.07"/>
<polygon fill="#757575" stroke="#757575" points="1448.73,-961.56 1458.97,-958.83 1449.27,-954.58 1448.73,-961.56"/>
</g>
<!-- components/Common/Select/index.js -->
<g id="node12" class="node">
<title>components/Common/Select/index.js</title>
<path fill="none" stroke="#c6c5fe" d="M1693.33,-657C1693.33,-657 1466.67,-657 1466.67,-657 1462.83,-657 1459,-653.17 1459,-649.33 1459,-649.33 1459,-641.67 1459,-641.67 1459,-637.83 1462.83,-634 1466.67,-634 1466.67,-634 1693.33,-634 1693.33,-634 1697.17,-634 1701,-637.83 1701,-641.67 1701,-641.67 1701,-649.33 1701,-649.33 1701,-653.17 1697.17,-657 1693.33,-657"/>
<text text-anchor="middle" x="1580" y="-641.8" font-family="Arial" font-size="14.00" fill="#c6c5fe">components/Common/Select/index.js</text>
</g>
<!-- components/index.js&#45;&gt;components/Common/Select/index.js -->
<g id="edge79" class="edge">
<title>components/index.js&#45;&gt;components/Common/Select/index.js</title>
<path fill="none" stroke="#757575" d="M738.54,-539.9C758.96,-543.15 781.36,-546.59 802,-549.5 1038,-582.77 1315.24,-615.5 1466.5,-632.82"/>
<polygon fill="#757575" stroke="#757575" points="1466.39,-636.34 1476.72,-633.99 1467.19,-629.38 1466.39,-636.34"/>
</g>
<!-- components/Common/TitleText/index.js -->
<g id="node13" class="node">
<title>components/Common/TitleText/index.js</title>
<path fill="none" stroke="#c6c5fe" d="M1699.33,-342C1699.33,-342 1460.67,-342 1460.67,-342 1456.83,-342 1453,-338.17 1453,-334.33 1453,-334.33 1453,-326.67 1453,-326.67 1453,-322.83 1456.83,-319 1460.67,-319 1460.67,-319 1699.33,-319 1699.33,-319 1703.17,-319 1707,-322.83 1707,-326.67 1707,-326.67 1707,-334.33 1707,-334.33 1707,-338.17 1703.17,-342 1699.33,-342"/>
<text text-anchor="middle" x="1580" y="-326.8" font-family="Arial" font-size="14.00" fill="#c6c5fe">components/Common/TitleText/index.js</text>
</g>
<!-- components/index.js&#45;&gt;components/Common/TitleText/index.js -->
<g id="edge80" class="edge">
<title>components/index.js&#45;&gt;components/Common/TitleText/index.js</title>
<path fill="none" stroke="#757575" d="M706.41,-516.93C725.11,-510.16 747.67,-500.57 766,-488.5 784.64,-476.23 782.06,-463.51 802,-453.5 861.31,-423.72 1278.48,-368.25 1475.9,-343.28"/>
<polygon fill="#757575" stroke="#757575" points="1476.51,-346.73 1485.99,-342 1475.63,-339.78 1476.51,-346.73"/>
</g>
<!-- components/Reminder/index.js -->
<g id="node14" class="node">
<title>components/Reminder/index.js</title>
<path fill="none" stroke="#c6c5fe" d="M1673.83,-739C1673.83,-739 1486.17,-739 1486.17,-739 1482.33,-739 1478.5,-735.17 1478.5,-731.33 1478.5,-731.33 1478.5,-723.67 1478.5,-723.67 1478.5,-719.83 1482.33,-716 1486.17,-716 1486.17,-716 1673.83,-716 1673.83,-716 1677.67,-716 1681.5,-719.83 1681.5,-723.67 1681.5,-723.67 1681.5,-731.33 1681.5,-731.33 1681.5,-735.17 1677.67,-739 1673.83,-739"/>
<text text-anchor="middle" x="1580" y="-723.8" font-family="Arial" font-size="14.00" fill="#c6c5fe">components/Reminder/index.js</text>
</g>
<!-- components/index.js&#45;&gt;components/Reminder/index.js -->
<g id="edge85" class="edge">
<title>components/index.js&#45;&gt;components/Reminder/index.js</title>
<path fill="none" stroke="#757575" d="M684.01,-540.03C707.38,-557.97 755.48,-592.28 802,-609.5 1028.71,-693.44 1313.79,-717.71 1467.86,-724.7"/>
<polygon fill="#757575" stroke="#757575" points="1468.12,-728.22 1478.27,-725.16 1468.43,-721.22 1468.12,-728.22"/>
</g>
<!-- components/AddressForm/index.js -->
<g id="node15" class="node">
<title>components/AddressForm/index.js</title>
<path fill="none" stroke="#c6c5fe" d="M1028.33,-819C1028.33,-819 817.67,-819 817.67,-819 813.83,-819 810,-815.17 810,-811.33 810,-811.33 810,-803.67 810,-803.67 810,-799.83 813.83,-796 817.67,-796 817.67,-796 1028.33,-796 1028.33,-796 1032.17,-796 1036,-799.83 1036,-803.67 1036,-803.67 1036,-811.33 1036,-811.33 1036,-815.17 1032.17,-819 1028.33,-819"/>
<text text-anchor="middle" x="923" y="-803.8" font-family="Arial" font-size="14.00" fill="#c6c5fe">components/AddressForm/index.js</text>
</g>
<!-- components/index.js&#45;&gt;components/AddressForm/index.js -->
<g id="edge72" class="edge">
<title>components/index.js&#45;&gt;components/AddressForm/index.js</title>
<path fill="none" stroke="#757575" d="M671.89,-540.07C680.88,-580.48 716.6,-716.46 802,-781.5 807.36,-785.58 813.22,-789.05 819.37,-791.99"/>
<polygon fill="#757575" stroke="#757575" points="818.02,-795.22 828.59,-795.94 820.78,-788.79 818.02,-795.22"/>
</g>
<!-- components/Common/Button/index.jsx -->
<g id="node21" class="node">
<title>components/Common/Button/index.jsx</title>
<path fill="none" stroke="#c6c5fe" d="M2334.33,-342C2334.33,-342 2099.67,-342 2099.67,-342 2095.83,-342 2092,-338.17 2092,-334.33 2092,-334.33 2092,-326.67 2092,-326.67 2092,-322.83 2095.83,-319 2099.67,-319 2099.67,-319 2334.33,-319 2334.33,-319 2338.17,-319 2342,-322.83 2342,-326.67 2342,-326.67 2342,-334.33 2342,-334.33 2342,-338.17 2338.17,-342 2334.33,-342"/>
<text text-anchor="middle" x="2217" y="-326.8" font-family="Arial" font-size="14.00" fill="#c6c5fe">components/Common/Button/index.jsx</text>
</g>
<!-- components/index.js&#45;&gt;components/Common/Button/index.jsx -->
<g id="edge76" class="edge">
<title>components/index.js&#45;&gt;components/Common/Button/index.jsx</title>
<path fill="none" stroke="#757575" d="M724,-516.92C739.8,-510.96 755.58,-501.99 766,-488.5 837.07,-396.55 719.51,-311.37 802,-229.5 940.08,-92.45 1041.45,-172.5 1236,-172.5 1236,-172.5 1236,-172.5 1581,-172.5 1686.6,-172.5 1961.51,-139.36 2056,-186.5 2078.92,-197.93 2073.88,-213.4 2092,-231.5 2123.52,-262.99 2164.7,-294.2 2190.76,-312.92"/>
<polygon fill="#757575" stroke="#757575" points="2188.8,-315.82 2198.98,-318.77 2192.86,-310.12 2188.8,-315.82"/>
</g>
<!-- components/Authority/index.js -->
<g id="node22" class="node">
<title>components/Authority/index.js</title>
<path fill="none" stroke="#c6c5fe" d="M1327.83,-64C1327.83,-64 1146.17,-64 1146.17,-64 1142.33,-64 1138.5,-60.17 1138.5,-56.33 1138.5,-56.33 1138.5,-48.67 1138.5,-48.67 1138.5,-44.83 1142.33,-41 1146.17,-41 1146.17,-41 1327.83,-41 1327.83,-41 1331.67,-41 1335.5,-44.83 1335.5,-48.67 1335.5,-48.67 1335.5,-56.33 1335.5,-56.33 1335.5,-60.17 1331.67,-64 1327.83,-64"/>
<text text-anchor="middle" x="1237" y="-48.8" font-family="Arial" font-size="14.00" fill="#c6c5fe">components/Authority/index.js</text>
</g>
<!-- components/index.js&#45;&gt;components/Authority/index.js -->
<g id="edge73" class="edge">
<title>components/index.js&#45;&gt;components/Authority/index.js</title>
<path fill="none" stroke="#757575" d="M724.74,-516.91C740.38,-510.96 755.88,-502 766,-488.5 854.49,-370.45 704.72,-269.42 802,-158.5 882.47,-66.75 1027.97,-47.74 1128.17,-46.71"/>
<polygon fill="#757575" stroke="#757575" points="1128.34,-50.21 1138.33,-46.67 1128.31,-43.21 1128.34,-50.21"/>
</g>
<!-- components/Checkout/index.js -->
<g id="node25" class="node">
<title>components/Checkout/index.js</title>
<path fill="none" stroke="#c6c5fe" d="M1015.83,-958C1015.83,-958 830.17,-958 830.17,-958 826.33,-958 822.5,-954.17 822.5,-950.33 822.5,-950.33 822.5,-942.67 822.5,-942.67 822.5,-938.83 826.33,-935 830.17,-935 830.17,-935 1015.83,-935 1015.83,-935 1019.67,-935 1023.5,-938.83 1023.5,-942.67 1023.5,-942.67 1023.5,-950.33 1023.5,-950.33 1023.5,-954.17 1019.67,-958 1015.83,-958"/>
<text text-anchor="middle" x="923" y="-942.8" font-family="Arial" font-size="14.00" fill="#c6c5fe">components/Checkout/index.js</text>
</g>
<!-- components/index.js&#45;&gt;components/Checkout/index.js -->
<g id="edge74" class="edge">
<title>components/index.js&#45;&gt;components/Checkout/index.js</title>
<path fill="none" stroke="#757575" d="M670.24,-540.34C674.02,-590.92 695.43,-791.36 802,-900.5 816.07,-914.91 835.13,-924.87 853.92,-931.74"/>
<polygon fill="#757575" stroke="#757575" points="852.8,-935.06 863.39,-934.96 855.05,-928.43 852.8,-935.06"/>
</g>
<!-- components/Common/BodyText/index.jsx -->
<g id="node27" class="node">
<title>components/Common/BodyText/index.jsx</title>
<path fill="none" stroke="#c6c5fe" d="M1705.33,-262C1705.33,-262 1454.67,-262 1454.67,-262 1450.83,-262 1447,-258.17 1447,-254.33 1447,-254.33 1447,-246.67 1447,-246.67 1447,-242.83 1450.83,-239 1454.67,-239 1454.67,-239 1705.33,-239 1705.33,-239 1709.17,-239 1713,-242.83 1713,-246.67 1713,-246.67 1713,-254.33 1713,-254.33 1713,-258.17 1709.17,-262 1705.33,-262"/>
<text text-anchor="middle" x="1580" y="-246.8" font-family="Arial" font-size="14.00" fill="#c6c5fe">components/Common/BodyText/index.jsx</text>
</g>
<!-- components/index.js&#45;&gt;components/Common/BodyText/index.jsx -->
<g id="edge75" class="edge">
<title>components/index.js&#45;&gt;components/Common/BodyText/index.jsx</title>
<path fill="none" stroke="#757575" d="M722.17,-516.93C738.34,-510.95 754.81,-501.95 766,-488.5 815.11,-429.46 744.35,-370.24 802,-319.5 851.55,-275.89 1328.3,-276.77 1394,-270.5 1417.5,-268.26 1442.65,-265.67 1466.6,-263.11"/>
<polygon fill="#757575" stroke="#757575" points="1467.21,-266.56 1476.78,-262.01 1466.47,-259.6 1467.21,-266.56"/>
</g>
<!-- components/OtherAmount/index.js -->
<g id="node34" class="node">
<title>components/OtherAmount/index.js</title>
<path fill="none" stroke="#c6c5fe" d="M1685.33,-698C1685.33,-698 1474.67,-698 1474.67,-698 1470.83,-698 1467,-694.17 1467,-690.33 1467,-690.33 1467,-682.67 1467,-682.67 1467,-678.83 1470.83,-675 1474.67,-675 1474.67,-675 1685.33,-675 1685.33,-675 1689.17,-675 1693,-678.83 1693,-682.67 1693,-682.67 1693,-690.33 1693,-690.33 1693,-694.17 1689.17,-698 1685.33,-698"/>
<text text-anchor="middle" x="1580" y="-682.8" font-family="Arial" font-size="14.00" fill="#c6c5fe">components/OtherAmount/index.js</text>
</g>
<!-- components/index.js&#45;&gt;components/OtherAmount/index.js -->
<g id="edge83" class="edge">
<title>components/index.js&#45;&gt;components/OtherAmount/index.js</title>
<path fill="none" stroke="#757575" d="M695.36,-540.16C721.68,-551.57 763.92,-568.63 802,-578.5 857.56,-592.9 1429.32,-666.41 1430,-666.5 1447.08,-668.79 1465.27,-671.23 1482.85,-673.59"/>
<polygon fill="#757575" stroke="#757575" points="1482.74,-677.11 1493.12,-674.97 1483.67,-670.17 1482.74,-677.11"/>
</g>
<!-- components/Donations/index.js -->
<g id="node35" class="node">
<title>components/Donations/index.js</title>
<path fill="none" stroke="#c6c5fe" d="M1017.83,-540C1017.83,-540 828.17,-540 828.17,-540 824.33,-540 820.5,-536.17 820.5,-532.33 820.5,-532.33 820.5,-524.67 820.5,-524.67 820.5,-520.83 824.33,-517 828.17,-517 828.17,-517 1017.83,-517 1017.83,-517 1021.67,-517 1025.5,-520.83 1025.5,-524.67 1025.5,-524.67 1025.5,-532.33 1025.5,-532.33 1025.5,-536.17 1021.67,-540 1017.83,-540"/>
<text text-anchor="middle" x="923" y="-524.8" font-family="Arial" font-size="14.00" fill="#c6c5fe">components/Donations/index.js</text>
</g>
<!-- components/index.js&#45;&gt;components/Donations/index.js -->
<g id="edge81" class="edge">
<title>components/index.js&#45;&gt;components/Donations/index.js</title>
<path fill="none" stroke="#757575" d="M738.83,-528.5C760.8,-528.5 785.68,-528.5 809.87,-528.5"/>
<polygon fill="#757575" stroke="#757575" points="810.18,-532 820.18,-528.5 810.18,-525 810.18,-532"/>
</g>
<!-- components/MobileTextForm/index.js -->
<g id="node39" class="node">
<title>components/MobileTextForm/index.js</title>
<path fill="none" stroke="#c6c5fe" d="M1036.33,-485C1036.33,-485 809.67,-485 809.67,-485 805.83,-485 802,-481.17 802,-477.33 802,-477.33 802,-469.67 802,-469.67 802,-465.83 805.83,-462 809.67,-462 809.67,-462 1036.33,-462 1036.33,-462 1040.17,-462 1044,-465.83 1044,-469.67 1044,-469.67 1044,-477.33 1044,-477.33 1044,-481.17 1040.17,-485 1036.33,-485"/>
<text text-anchor="middle" x="923" y="-469.8" font-family="Arial" font-size="14.00" fill="#c6c5fe">components/MobileTextForm/index.js</text>
</g>
<!-- components/index.js&#45;&gt;components/MobileTextForm/index.js -->
<g id="edge82" class="edge">
<title>components/index.js&#45;&gt;components/MobileTextForm/index.js</title>
<path fill="none" stroke="#757575" d="M722.43,-516.97C762.33,-508.28 817.17,-496.33 859.27,-487.16"/>
<polygon fill="#757575" stroke="#757575" points="860.11,-490.56 869.14,-485.01 858.62,-483.72 860.11,-490.56"/>
</g>
<!-- components/PrayerCard/index.js -->
<g id="node42" class="node">
<title>components/PrayerCard/index.js</title>
<path fill="none" stroke="#c6c5fe" d="M1021.83,-352C1021.83,-352 824.17,-352 824.17,-352 820.33,-352 816.5,-348.17 816.5,-344.33 816.5,-344.33 816.5,-336.67 816.5,-336.67 816.5,-332.83 820.33,-329 824.17,-329 824.17,-329 1021.83,-329 1021.83,-329 1025.67,-329 1029.5,-332.83 1029.5,-336.67 1029.5,-336.67 1029.5,-344.33 1029.5,-344.33 1029.5,-348.17 1025.67,-352 1021.83,-352"/>
<text text-anchor="middle" x="923" y="-336.8" font-family="Arial" font-size="14.00" fill="#c6c5fe">components/PrayerCard/index.js</text>
</g>
<!-- components/index.js&#45;&gt;components/PrayerCard/index.js -->
<g id="edge84" class="edge">
<title>components/index.js&#45;&gt;components/PrayerCard/index.js</title>
<path fill="none" stroke="#757575" d="M719.64,-516.9C736.3,-510.86 753.71,-501.84 766,-488.5 801.43,-450.04 764.67,-413.11 802,-376.5 811.13,-367.55 822.39,-360.81 834.33,-355.74"/>
<polygon fill="#757575" stroke="#757575" points="835.94,-358.87 844.02,-352.02 833.43,-352.33 835.94,-358.87"/>
</g>
<!-- components/ThankYou/index.js -->
<g id="node51" class="node">
<title>components/ThankYou/index.js</title>
<path fill="none" stroke="#c6c5fe" d="M1018.33,-262C1018.33,-262 827.67,-262 827.67,-262 823.83,-262 820,-258.17 820,-254.33 820,-254.33 820,-246.67 820,-246.67 820,-242.83 823.83,-239 827.67,-239 827.67,-239 1018.33,-239 1018.33,-239 1022.17,-239 1026,-242.83 1026,-246.67 1026,-246.67 1026,-254.33 1026,-254.33 1026,-258.17 1022.17,-262 1018.33,-262"/>
<text text-anchor="middle" x="923" y="-246.8" font-family="Arial" font-size="14.00" fill="#c6c5fe">components/ThankYou/index.js</text>
</g>
<!-- components/index.js&#45;&gt;components/ThankYou/index.js -->
<g id="edge86" class="edge">
<title>components/index.js&#45;&gt;components/ThankYou/index.js</title>
<path fill="none" stroke="#757575" d="M723.25,-516.92C739.2,-510.95 755.26,-501.97 766,-488.5 825.57,-413.77 735.96,-345.59 802,-276.5 805.28,-273.07 808.89,-270.04 812.76,-267.37"/>
<polygon fill="#757575" stroke="#757575" points="814.83,-270.21 821.61,-262.07 811.23,-264.21 814.83,-270.21"/>
</g>
<!-- atoms.js -->
<g id="node5" class="node">
<title>atoms.js</title>
<path fill="none" stroke="#cfffac" d="M2532.83,-714C2532.83,-714 2480.17,-714 2480.17,-714 2476.33,-714 2472.5,-710.17 2472.5,-706.33 2472.5,-706.33 2472.5,-698.67 2472.5,-698.67 2472.5,-694.83 2476.33,-691 2480.17,-691 2480.17,-691 2532.83,-691 2532.83,-691 2536.67,-691 2540.5,-694.83 2540.5,-698.67 2540.5,-698.67 2540.5,-706.33 2540.5,-706.33 2540.5,-710.17 2536.67,-714 2532.83,-714"/>
<text text-anchor="middle" x="2506.5" y="-698.8" font-family="Arial" font-size="14.00" fill="#cfffac">atoms.js</text>
</g>
<!-- auth/auth0&#45;provider&#45;with&#45;history.js -->
<g id="node6" class="node">
<title>auth/auth0&#45;provider&#45;with&#45;history.js</title>
<path fill="none" stroke="#cfffac" d="M309.33,-479C309.33,-479 105.67,-479 105.67,-479 101.83,-479 98,-475.17 98,-471.33 98,-471.33 98,-463.67 98,-463.67 98,-459.83 101.83,-456 105.67,-456 105.67,-456 309.33,-456 309.33,-456 313.17,-456 317,-459.83 317,-463.67 317,-463.67 317,-471.33 317,-471.33 317,-475.17 313.17,-479 309.33,-479"/>
<text text-anchor="middle" x="207.5" y="-463.8" font-family="Arial" font-size="14.00" fill="#cfffac">auth/auth0&#45;provider&#45;with&#45;history.js</text>
</g>
<!-- components/AddressForm/AddressForm.jsx -->
<g id="node7" class="node">
<title>components/AddressForm/AddressForm.jsx</title>
<path fill="none" stroke="#c6c5fe" d="M1370.33,-819C1370.33,-819 1103.67,-819 1103.67,-819 1099.83,-819 1096,-815.17 1096,-811.33 1096,-811.33 1096,-803.67 1096,-803.67 1096,-799.83 1099.83,-796 1103.67,-796 1103.67,-796 1370.33,-796 1370.33,-796 1374.17,-796 1378,-799.83 1378,-803.67 1378,-803.67 1378,-811.33 1378,-811.33 1378,-815.17 1374.17,-819 1370.33,-819"/>
<text text-anchor="middle" x="1237" y="-803.8" font-family="Arial" font-size="14.00" fill="#c6c5fe">components/AddressForm/AddressForm.jsx</text>
</g>
<!-- components/AddressForm/AddressForm.jsx&#45;&gt;atoms.js -->
<g id="edge5" class="edge">
<title>components/AddressForm/AddressForm.jsx&#45;&gt;atoms.js</title>
<path fill="none" stroke="#757575" d="M1378.07,-808.9C1655.88,-810.78 2257.28,-810.02 2342,-769.5 2363.88,-759.04 2357.02,-740.67 2378,-728.5 2403.5,-713.7 2436.14,-707.24 2462.01,-704.45"/>
<polygon fill="#757575" stroke="#757575" points="2462.65,-707.91 2472.28,-703.5 2462,-700.94 2462.65,-707.91"/>
</g>
<!-- components/AddressForm/AddressSchema.js -->
<g id="node8" class="node">
<title>components/AddressForm/AddressSchema.js</title>
<path fill="none" stroke="#cfffac" d="M1718.83,-857C1718.83,-857 1441.17,-857 1441.17,-857 1437.33,-857 1433.5,-853.17 1433.5,-849.33 1433.5,-849.33 1433.5,-841.67 1433.5,-841.67 1433.5,-837.83 1437.33,-834 1441.17,-834 1441.17,-834 1718.83,-834 1718.83,-834 1722.67,-834 1726.5,-837.83 1726.5,-841.67 1726.5,-841.67 1726.5,-849.33 1726.5,-849.33 1726.5,-853.17 1722.67,-857 1718.83,-857"/>
<text text-anchor="middle" x="1580" y="-841.8" font-family="Arial" font-size="14.00" fill="#cfffac">components/AddressForm/AddressSchema.js</text>
</g>
<!-- components/AddressForm/AddressForm.jsx&#45;&gt;components/AddressForm/AddressSchema.js -->
<g id="edge6" class="edge">
<title>components/AddressForm/AddressForm.jsx&#45;&gt;components/AddressForm/AddressSchema.js</title>
<path fill="none" stroke="#757575" d="M1341.24,-819C1380.45,-823.37 1425.32,-828.37 1465.44,-832.84"/>
<polygon fill="#757575" stroke="#757575" points="1465.2,-836.34 1475.53,-833.97 1465.98,-829.38 1465.2,-836.34"/>
</g>
<!-- components/AddressForm/options.js -->
<g id="node9" class="node">
<title>components/AddressForm/options.js</title>
<path fill="none" stroke="#c6c5fe" d="M1690.83,-898C1690.83,-898 1469.17,-898 1469.17,-898 1465.33,-898 1461.5,-894.17 1461.5,-890.33 1461.5,-890.33 1461.5,-882.67 1461.5,-882.67 1461.5,-878.83 1465.33,-875 1469.17,-875 1469.17,-875 1690.83,-875 1690.83,-875 1694.67,-875 1698.5,-878.83 1698.5,-882.67 1698.5,-882.67 1698.5,-890.33 1698.5,-890.33 1698.5,-894.17 1694.67,-898 1690.83,-898"/>
<text text-anchor="middle" x="1580" y="-882.8" font-family="Arial" font-size="14.00" fill="#c6c5fe">components/AddressForm/options.js</text>
</g>
<!-- components/AddressForm/AddressForm.jsx&#45;&gt;components/AddressForm/options.js -->
<g id="edge7" class="edge">
<title>components/AddressForm/AddressForm.jsx&#45;&gt;components/AddressForm/options.js</title>
<path fill="none" stroke="#757575" d="M1269.84,-819.06C1307.58,-832.34 1372.6,-853.92 1430,-866.5 1441.77,-869.08 1454.14,-871.38 1466.51,-873.42"/>
<polygon fill="#757575" stroke="#757575" points="1465.99,-876.88 1476.42,-874.99 1467.09,-869.96 1465.99,-876.88"/>
</g>
<!-- components/AddressForm/AddressForm.jsx&#45;&gt;components/Common/Input/index.js -->
<g id="edge8" class="edge">
<title>components/AddressForm/AddressForm.jsx&#45;&gt;components/Common/Input/index.js</title>
<path fill="none" stroke="#757575" d="M1276.54,-819.02C1309.39,-829.88 1357.02,-848.11 1394,-872.5 1412.63,-884.79 1409.32,-899.11 1430,-907.5 1494.45,-933.66 1991.7,-934.02 2056,-907.5 2124.79,-879.13 2179.61,-805.27 2203.3,-769.09"/>
<polygon fill="#757575" stroke="#757575" points="2206.45,-770.66 2208.9,-760.35 2200.56,-766.89 2206.45,-770.66"/>
</g>
<!-- components/AddressForm/AddressForm.jsx&#45;&gt;components/Common/Modal/index.js -->
<g id="edge9" class="edge">
<title>components/AddressForm/AddressForm.jsx&#45;&gt;components/Common/Modal/index.js</title>
<path fill="none" stroke="#757575" d="M1288.53,-819.02C1321.71,-828.7 1364.3,-845.42 1394,-872.5 1419.27,-895.54 1402.33,-920.4 1430,-940.5 1435.99,-944.85 1442.46,-948.56 1449.25,-951.71"/>
<polygon fill="#757575" stroke="#757575" points="1448.1,-955.03 1458.67,-955.68 1450.81,-948.57 1448.1,-955.03"/>
</g>
<!-- components/AddressForm/AddressForm.jsx&#45;&gt;components/Common/Select/index.js -->
<g id="edge10" class="edge">
<title>components/AddressForm/AddressForm.jsx&#45;&gt;components/Common/Select/index.js</title>
<path fill="none" stroke="#757575" d="M1249.28,-795.94C1277.08,-768.27 1352.25,-698.16 1430,-666.5 1436.26,-663.95 1442.77,-661.7 1449.43,-659.72"/>
<polygon fill="#757575" stroke="#757575" points="1450.56,-663.04 1459.27,-657 1448.7,-656.29 1450.56,-663.04"/>
</g>
<!-- components/AddressForm/AddressForm.jsx&#45;&gt;components/Common/TitleText/index.js -->
<g id="edge11" class="edge">
<title>components/AddressForm/AddressForm.jsx&#45;&gt;components/Common/TitleText/index.js</title>
<path fill="none" stroke="#757575" d="M1246.94,-795.88C1273.53,-760.79 1352.77,-651.96 1394,-549.5 1421.21,-481.88 1382.62,-444.89 1430,-389.5 1448.76,-367.56 1476.79,-353.71 1503.5,-345"/>
<polygon fill="#757575" stroke="#757575" points="1504.71,-348.29 1513.25,-342.02 1502.67,-341.6 1504.71,-348.29"/>
</g>
<!-- components/AddressForm/AddressForm.jsx&#45;&gt;components/Reminder/index.js -->
<g id="edge12" class="edge">
<title>components/AddressForm/AddressForm.jsx&#45;&gt;components/Reminder/index.js</title>
<path fill="none" stroke="#757575" d="M1287.22,-795.95C1348.8,-781.51 1454.13,-756.79 1519.98,-741.35"/>
<polygon fill="#757575" stroke="#757575" points="1520.86,-744.74 1529.79,-739.04 1519.26,-737.92 1520.86,-744.74"/>
</g>
<!-- components/AddressForm/statesList.js -->
<g id="node16" class="node">
<title>components/AddressForm/statesList.js</title>
<path fill="none" stroke="#cfffac" d="M2028.83,-898C2028.83,-898 1793.17,-898 1793.17,-898 1789.33,-898 1785.5,-894.17 1785.5,-890.33 1785.5,-890.33 1785.5,-882.67 1785.5,-882.67 1785.5,-878.83 1789.33,-875 1793.17,-875 1793.17,-875 2028.83,-875 2028.83,-875 2032.67,-875 2036.5,-878.83 2036.5,-882.67 2036.5,-882.67 2036.5,-890.33 2036.5,-890.33 2036.5,-894.17 2032.67,-898 2028.83,-898"/>
<text text-anchor="middle" x="1911" y="-882.8" font-family="Arial" font-size="14.00" fill="#cfffac">components/AddressForm/statesList.js</text>
</g>
<!-- components/AddressForm/options.js&#45;&gt;components/AddressForm/statesList.js -->
<g id="edge14" class="edge">
<title>components/AddressForm/options.js&#45;&gt;components/AddressForm/statesList.js</title>
<path fill="none" stroke="#757575" d="M1698.85,-886.5C1723.67,-886.5 1750.04,-886.5 1775.42,-886.5"/>
<polygon fill="#757575" stroke="#757575" points="1775.47,-890 1785.47,-886.5 1775.47,-883 1775.47,-890"/>
</g>
<!-- components/Common/Input/Input.jsx -->
<g id="node29" class="node">
<title>components/Common/Input/Input.jsx</title>
<path fill="none" stroke="#cfffac" d="M2618.33,-760C2618.33,-760 2394.67,-760 2394.67,-760 2390.83,-760 2387,-756.17 2387,-752.33 2387,-752.33 2387,-744.67 2387,-744.67 2387,-740.83 2390.83,-737 2394.67,-737 2394.67,-737 2618.33,-737 2618.33,-737 2622.17,-737 2626,-740.83 2626,-744.67 2626,-744.67 2626,-752.33 2626,-752.33 2626,-756.17 2622.17,-760 2618.33,-760"/>
<text text-anchor="middle" x="2506.5" y="-744.8" font-family="Arial" font-size="14.00" fill="#cfffac">components/Common/Input/Input.jsx</text>
</g>
<!-- components/Common/Input/index.js&#45;&gt;components/Common/Input/Input.jsx -->
<g id="edge27" class="edge">
<title>components/Common/Input/index.js&#45;&gt;components/Common/Input/Input.jsx</title>
<path fill="none" stroke="#757575" d="M2334.11,-748.5C2348.03,-748.5 2362.31,-748.5 2376.4,-748.5"/>
<polygon fill="#757575" stroke="#757575" points="2376.62,-752 2386.62,-748.5 2376.62,-745 2376.62,-752"/>
</g>
<!-- components/Common/Modal/modal.jsx -->
<g id="node30" class="node">
<title>components/Common/Modal/modal.jsx</title>
<path fill="none" stroke="#cfffac" d="M2030.33,-978C2030.33,-978 1791.67,-978 1791.67,-978 1787.83,-978 1784,-974.17 1784,-970.33 1784,-970.33 1784,-962.67 1784,-962.67 1784,-958.83 1787.83,-955 1791.67,-955 1791.67,-955 2030.33,-955 2030.33,-955 2034.17,-955 2038,-958.83 2038,-962.67 2038,-962.67 2038,-970.33 2038,-970.33 2038,-974.17 2034.17,-978 2030.33,-978"/>
<text text-anchor="middle" x="1911" y="-962.8" font-family="Arial" font-size="14.00" fill="#cfffac">components/Common/Modal/modal.jsx</text>
</g>
<!-- components/Common/Modal/index.js&#45;&gt;components/Common/Modal/modal.jsx -->
<g id="edge28" class="edge">
<title>components/Common/Modal/index.js&#45;&gt;components/Common/Modal/modal.jsx</title>
<path fill="none" stroke="#757575" d="M1701.17,-966.5C1724.7,-966.5 1749.54,-966.5 1773.56,-966.5"/>
<polygon fill="#757575" stroke="#757575" points="1773.79,-970 1783.79,-966.5 1773.79,-963 1773.79,-970"/>
</g>
<!-- components/Common/Select/Select.jsx -->
<g id="node31" class="node">
<title>components/Common/Select/Select.jsx</title>
<path fill="none" stroke="#cfffac" d="M2030.33,-619C2030.33,-619 1791.67,-619 1791.67,-619 1787.83,-619 1784,-615.17 1784,-611.33 1784,-611.33 1784,-603.67 1784,-603.67 1784,-599.83 1787.83,-596 1791.67,-596 1791.67,-596 2030.33,-596 2030.33,-596 2034.17,-596 2038,-599.83 2038,-603.67 2038,-603.67 2038,-611.33 2038,-611.33 2038,-615.17 2034.17,-619 2030.33,-619"/>
<text text-anchor="middle" x="1911" y="-603.8" font-family="Arial" font-size="14.00" fill="#cfffac">components/Common/Select/Select.jsx</text>
</g>
<!-- components/Common/Select/index.js&#45;&gt;components/Common/Select/Select.jsx -->
<g id="edge29" class="edge">
<title>components/Common/Select/index.js&#45;&gt;components/Common/Select/Select.jsx</title>
<path fill="none" stroke="#757575" d="M1680.6,-634C1718.28,-629.64 1761.36,-624.67 1799.94,-620.21"/>
<polygon fill="#757575" stroke="#757575" points="1800.64,-623.66 1810.17,-619.03 1799.83,-616.7 1800.64,-623.66"/>
</g>
<!-- components/Common/TitleText/TitleText.jsx -->
<g id="node32" class="node">
<title>components/Common/TitleText/TitleText.jsx</title>
<path fill="none" stroke="#cfffac" d="M2042.83,-342C2042.83,-342 1779.17,-342 1779.17,-342 1775.33,-342 1771.5,-338.17 1771.5,-334.33 1771.5,-334.33 1771.5,-326.67 1771.5,-326.67 1771.5,-322.83 1775.33,-319 1779.17,-319 1779.17,-319 2042.83,-319 2042.83,-319 2046.67,-319 2050.5,-322.83 2050.5,-326.67 2050.5,-326.67 2050.5,-334.33 2050.5,-334.33 2050.5,-338.17 2046.67,-342 2042.83,-342"/>
<text text-anchor="middle" x="1911" y="-326.8" font-family="Arial" font-size="14.00" fill="#cfffac">components/Common/TitleText/TitleText.jsx</text>
</g>
<!-- components/Common/TitleText/index.js&#45;&gt;components/Common/TitleText/TitleText.jsx -->
<g id="edge30" class="edge">
<title>components/Common/TitleText/index.js&#45;&gt;components/Common/TitleText/TitleText.jsx</title>
<path fill="none" stroke="#757575" d="M1707.26,-330.5C1725,-330.5 1743.36,-330.5 1761.46,-330.5"/>
<polygon fill="#757575" stroke="#757575" points="1761.49,-334 1771.49,-330.5 1761.49,-327 1761.49,-334"/>
</g>
<!-- components/Reminder/reminder.jsx -->
<g id="node44" class="node">
<title>components/Reminder/reminder.jsx</title>
<path fill="none" stroke="#c6c5fe" d="M2019.33,-660C2019.33,-660 1802.67,-660 1802.67,-660 1798.83,-660 1795,-656.17 1795,-652.33 1795,-652.33 1795,-644.67 1795,-644.67 1795,-640.83 1798.83,-637 1802.67,-637 1802.67,-637 2019.33,-637 2019.33,-637 2023.17,-637 2027,-640.83 2027,-644.67 2027,-644.67 2027,-652.33 2027,-652.33 2027,-656.17 2023.17,-660 2019.33,-660"/>
<text text-anchor="middle" x="1911" y="-644.8" font-family="Arial" font-size="14.00" fill="#c6c5fe">components/Reminder/reminder.jsx</text>
</g>
<!-- components/Reminder/index.js&#45;&gt;components/Reminder/reminder.jsx -->
<g id="edge55" class="edge">
<title>components/Reminder/index.js&#45;&gt;components/Reminder/reminder.jsx</title>
<path fill="none" stroke="#757575" d="M1681.62,-723.46C1698.38,-720.16 1715.13,-715.11 1730,-707.5 1750.71,-696.9 1745.35,-680.21 1766,-669.5 1772.1,-666.33 1778.53,-663.6 1785.16,-661.25"/>
<polygon fill="#757575" stroke="#757575" points="1786.54,-664.48 1794.98,-658.07 1784.39,-657.82 1786.54,-664.48"/>
</g>
<!-- components/AddressForm/index.js&#45;&gt;components/AddressForm/AddressForm.jsx -->
<g id="edge13" class="edge">
<title>components/AddressForm/index.js&#45;&gt;components/AddressForm/AddressForm.jsx</title>
<path fill="none" stroke="#757575" d="M1036.2,-807.5C1052.26,-807.5 1068.99,-807.5 1085.64,-807.5"/>
<polygon fill="#757575" stroke="#757575" points="1085.98,-811 1095.98,-807.5 1085.98,-804 1085.98,-811"/>
</g>
<!-- components/Authority/AuthButton.jsx -->
<g id="node17" class="node">
<title>components/Authority/AuthButton.jsx</title>
<path fill="none" stroke="#c6c5fe" d="M1691.83,-64C1691.83,-64 1468.17,-64 1468.17,-64 1464.33,-64 1460.5,-60.17 1460.5,-56.33 1460.5,-56.33 1460.5,-48.67 1460.5,-48.67 1460.5,-44.83 1464.33,-41 1468.17,-41 1468.17,-41 1691.83,-41 1691.83,-41 1695.67,-41 1699.5,-44.83 1699.5,-48.67 1699.5,-48.67 1699.5,-56.33 1699.5,-56.33 1699.5,-60.17 1695.67,-64 1691.83,-64"/>
<text text-anchor="middle" x="1580" y="-48.8" font-family="Arial" font-size="14.00" fill="#c6c5fe">components/Authority/AuthButton.jsx</text>
</g>
<!-- components/Authority/LoginButton.jsx -->
<g id="node18" class="node">
<title>components/Authority/LoginButton.jsx</title>
<path fill="none" stroke="#c6c5fe" d="M2025.33,-64C2025.33,-64 1796.67,-64 1796.67,-64 1792.83,-64 1789,-60.17 1789,-56.33 1789,-56.33 1789,-48.67 1789,-48.67 1789,-44.83 1792.83,-41 1796.67,-41 1796.67,-41 2025.33,-41 2025.33,-41 2029.17,-41 2033,-44.83 2033,-48.67 2033,-48.67 2033,-56.33 2033,-56.33 2033,-60.17 2029.17,-64 2025.33,-64"/>
<text text-anchor="middle" x="1911" y="-48.8" font-family="Arial" font-size="14.00" fill="#c6c5fe">components/Authority/LoginButton.jsx</text>
</g>
<!-- components/Authority/AuthButton.jsx&#45;&gt;components/Authority/LoginButton.jsx -->
<g id="edge15" class="edge">
<title>components/Authority/AuthButton.jsx&#45;&gt;components/Authority/LoginButton.jsx</title>
<path fill="none" stroke="#757575" d="M1699.78,-52.5C1725.37,-52.5 1752.56,-52.5 1778.61,-52.5"/>
<polygon fill="#757575" stroke="#757575" points="1778.91,-56 1788.91,-52.5 1778.91,-49 1778.91,-56"/>
</g>
<!-- components/Authority/LogoutButton.jsx -->
<g id="node19" class="node">
<title>components/Authority/LogoutButton.jsx</title>
<path fill="none" stroke="#c6c5fe" d="M2029.33,-144C2029.33,-144 1792.67,-144 1792.67,-144 1788.83,-144 1785,-140.17 1785,-136.33 1785,-136.33 1785,-128.67 1785,-128.67 1785,-124.83 1788.83,-121 1792.67,-121 1792.67,-121 2029.33,-121 2029.33,-121 2033.17,-121 2037,-124.83 2037,-128.67 2037,-128.67 2037,-136.33 2037,-136.33 2037,-140.17 2033.17,-144 2029.33,-144"/>
<text text-anchor="middle" x="1911" y="-128.8" font-family="Arial" font-size="14.00" fill="#c6c5fe">components/Authority/LogoutButton.jsx</text>
</g>
<!-- components/Authority/AuthButton.jsx&#45;&gt;components/Authority/LogoutButton.jsx -->
<g id="edge16" class="edge">
<title>components/Authority/AuthButton.jsx&#45;&gt;components/Authority/LogoutButton.jsx</title>
<path fill="none" stroke="#757575" d="M1628.49,-64.05C1687.78,-78.46 1789.11,-103.1 1852.66,-118.56"/>
<polygon fill="#757575" stroke="#757575" points="1851.98,-121.99 1862.53,-120.96 1853.64,-115.19 1851.98,-121.99"/>
</g>
<!-- components/Authority/LoginButton.jsx&#45;&gt;components/Common/Button/index.jsx -->
<g id="edge17" class="edge">
<title>components/Authority/LoginButton.jsx&#45;&gt;components/Common/Button/index.jsx</title>
<path fill="none" stroke="#757575" d="M1957.53,-64.1C1987.67,-73.39 2026.86,-88.68 2056,-111.5 2128.76,-168.48 2184,-266.81 2205.82,-309.6"/>
<polygon fill="#757575" stroke="#757575" points="2202.8,-311.4 2210.41,-318.77 2209.06,-308.26 2202.8,-311.4"/>
</g>
<!-- components/Authority/LogoutButton.jsx&#45;&gt;components/Common/Button/index.jsx -->
<g id="edge18" class="edge">
<title>components/Authority/LogoutButton.jsx&#45;&gt;components/Common/Button/index.jsx</title>
<path fill="none" stroke="#757575" d="M2020.01,-144.08C2032.57,-147.71 2044.85,-152.41 2056,-158.5 2124.34,-195.84 2179.74,-273.16 2203.49,-310.05"/>
<polygon fill="#757575" stroke="#757575" points="2200.79,-312.33 2209.09,-318.92 2206.71,-308.59 2200.79,-312.33"/>
</g>
<!-- components/Authority/Loading.jsx -->
<g id="node20" class="node">
<title>components/Authority/Loading.jsx</title>
<path fill="none" stroke="#cfffac" d="M1682.33,-23C1682.33,-23 1477.67,-23 1477.67,-23 1473.83,-23 1470,-19.17 1470,-15.33 1470,-15.33 1470,-7.67 1470,-7.67 1470,-3.83 1473.83,0 1477.67,0 1477.67,0 1682.33,0 1682.33,0 1686.17,0 1690,-3.83 1690,-7.67 1690,-7.67 1690,-15.33 1690,-15.33 1690,-19.17 1686.17,-23 1682.33,-23"/>
<text text-anchor="middle" x="1580" y="-7.8" font-family="Arial" font-size="14.00" fill="#cfffac">components/Authority/Loading.jsx</text>
</g>
<!-- components/Common/Button/Button.jsx -->
<g id="node28" class="node">
<title>components/Common/Button/Button.jsx</title>
<path fill="none" stroke="#cfffac" d="M2627.33,-342C2627.33,-342 2385.67,-342 2385.67,-342 2381.83,-342 2378,-338.17 2378,-334.33 2378,-334.33 2378,-326.67 2378,-326.67 2378,-322.83 2381.83,-319 2385.67,-319 2385.67,-319 2627.33,-319 2627.33,-319 2631.17,-319 2635,-322.83 2635,-326.67 2635,-326.67 2635,-334.33 2635,-334.33 2635,-338.17 2631.17,-342 2627.33,-342"/>
<text text-anchor="middle" x="2506.5" y="-326.8" font-family="Arial" font-size="14.00" fill="#cfffac">components/Common/Button/Button.jsx</text>
</g>
<!-- components/Common/Button/index.jsx&#45;&gt;components/Common/Button/Button.jsx -->
<g id="edge26" class="edge">
<title>components/Common/Button/index.jsx&#45;&gt;components/Common/Button/Button.jsx</title>
<path fill="none" stroke="#757575" d="M2342.01,-330.5C2350.53,-330.5 2359.15,-330.5 2367.73,-330.5"/>
<polygon fill="#757575" stroke="#757575" points="2367.79,-334 2377.79,-330.5 2367.79,-327 2367.79,-334"/>
</g>
<!-- components/Authority/index.js&#45;&gt;components/Authority/AuthButton.jsx -->
<g id="edge19" class="edge">
<title>components/Authority/index.js&#45;&gt;components/Authority/AuthButton.jsx</title>
<path fill="none" stroke="#757575" d="M1335.72,-52.5C1371.4,-52.5 1412.31,-52.5 1450.28,-52.5"/>
<polygon fill="#757575" stroke="#757575" points="1450.39,-56 1460.39,-52.5 1450.39,-49 1450.39,-56"/>
</g>
<!-- components/Authority/index.js&#45;&gt;components/Authority/Loading.jsx -->
<g id="edge20" class="edge">
<title>components/Authority/index.js&#45;&gt;components/Authority/Loading.jsx</title>
<path fill="none" stroke="#757575" d="M1333.89,-40.97C1377.3,-35.75 1428.74,-29.57 1473.26,-24.21"/>
<polygon fill="#757575" stroke="#757575" points="1473.72,-27.68 1483.23,-23.01 1472.89,-20.73 1473.72,-27.68"/>
</g>
<!-- components/Checkout/Checkout.jsx -->
<g id="node23" class="node">
<title>components/Checkout/Checkout.jsx</title>
<path fill="none" stroke="#c6c5fe" d="M1345.83,-998C1345.83,-998 1128.17,-998 1128.17,-998 1124.33,-998 1120.5,-994.17 1120.5,-990.33 1120.5,-990.33 1120.5,-982.67 1120.5,-982.67 1120.5,-978.83 1124.33,-975 1128.17,-975 1128.17,-975 1345.83,-975 1345.83,-975 1349.67,-975 1353.5,-978.83 1353.5,-982.67 1353.5,-982.67 1353.5,-990.33 1353.5,-990.33 1353.5,-994.17 1349.67,-998 1345.83,-998"/>
<text text-anchor="middle" x="1237" y="-982.8" font-family="Arial" font-size="14.00" fill="#c6c5fe">components/Checkout/Checkout.jsx</text>
</g>
<!-- components/Checkout/Checkout.jsx&#45;&gt;atoms.js -->
<g id="edge21" class="edge">
<title>components/Checkout/Checkout.jsx&#45;&gt;atoms.js</title>
<path fill="none" stroke="#757575" d="M1353.82,-994.87C1547.46,-1007.48 1928.29,-1026.06 2056,-987.5 2202.09,-943.4 2239.93,-910.95 2342,-797.5 2365.13,-771.79 2350.37,-749.31 2378,-728.5 2402.06,-710.38 2435.63,-704.08 2462.29,-702.21"/>
<polygon fill="#757575" stroke="#757575" points="2462.69,-705.69 2472.5,-701.68 2462.33,-698.7 2462.69,-705.69"/>
</g>
<!-- components/Checkout/Checkout.jsx&#45;&gt;components/Common/Modal/index.js -->
<g id="edge22" class="edge">
<title>components/Checkout/Checkout.jsx&#45;&gt;components/Common/Modal/index.js</title>
<path fill="none" stroke="#757575" d="M1353.92,-979.7C1384.41,-977.91 1417.5,-975.97 1448.69,-974.14"/>
<polygon fill="#757575" stroke="#757575" points="1448.97,-977.63 1458.75,-973.55 1448.56,-970.64 1448.97,-977.63"/>
</g>
<!-- components/Stripe/index.js -->
<g id="node24" class="node">
<title>components/Stripe/index.js</title>
<path fill="none" stroke="#c6c5fe" d="M1661.83,-1098C1661.83,-1098 1498.17,-1098 1498.17,-1098 1494.33,-1098 1490.5,-1094.17 1490.5,-1090.33 1490.5,-1090.33 1490.5,-1082.67 1490.5,-1082.67 1490.5,-1078.83 1494.33,-1075 1498.17,-1075 1498.17,-1075 1661.83,-1075 1661.83,-1075 1665.67,-1075 1669.5,-1078.83 1669.5,-1082.67 1669.5,-1082.67 1669.5,-1090.33 1669.5,-1090.33 1669.5,-1094.17 1665.67,-1098 1661.83,-1098"/>
<text text-anchor="middle" x="1580" y="-1082.8" font-family="Arial" font-size="14.00" fill="#c6c5fe">components/Stripe/index.js</text>
</g>
<!-- components/Checkout/Checkout.jsx&#45;&gt;components/Stripe/index.js -->
<g id="edge23" class="edge">
<title>components/Checkout/Checkout.jsx&#45;&gt;components/Stripe/index.js</title>
<path fill="none" stroke="#757575" d="M1277.45,-998.07C1340.03,-1016.42 1461.92,-1052.16 1530,-1072.13"/>
<polygon fill="#757575" stroke="#757575" points="1529.06,-1075.5 1539.64,-1074.96 1531.03,-1068.79 1529.06,-1075.5"/>
</g>
<!-- components/Stripe/BillingDetails.jsx -->
<g id="node45" class="node">
<title>components/Stripe/BillingDetails.jsx</title>
<path fill="none" stroke="#c6c5fe" d="M2324.83,-1136C2324.83,-1136 2109.17,-1136 2109.17,-1136 2105.33,-1136 2101.5,-1132.17 2101.5,-1128.33 2101.5,-1128.33 2101.5,-1120.67 2101.5,-1120.67 2101.5,-1116.83 2105.33,-1113 2109.17,-1113 2109.17,-1113 2324.83,-1113 2324.83,-1113 2328.67,-1113 2332.5,-1116.83 2332.5,-1120.67 2332.5,-1120.67 2332.5,-1128.33 2332.5,-1128.33 2332.5,-1132.17 2328.67,-1136 2324.83,-1136"/>
<text text-anchor="middle" x="2217" y="-1120.8" font-family="Arial" font-size="14.00" fill="#c6c5fe">components/Stripe/BillingDetails.jsx</text>
</g>
<!-- components/Stripe/index.js&#45;&gt;components/Stripe/BillingDetails.jsx -->
<g id="edge63" class="edge">
<title>components/Stripe/index.js&#45;&gt;components/Stripe/BillingDetails.jsx</title>
<path fill="none" stroke="#757575" d="M1669.92,-1092.4C1700.38,-1094.38 1734.68,-1096.58 1766,-1098.5 1875.92,-1105.24 2000.97,-1112.43 2091.3,-1117.53"/>
<polygon fill="#757575" stroke="#757575" points="2091.13,-1121.03 2101.31,-1118.1 2091.53,-1114.04 2091.13,-1121.03"/>
</g>
<!-- components/Stripe/CheckoutError.jsx -->
<g id="node47" class="node">
<title>components/Stripe/CheckoutError.jsx</title>
<path fill="none" stroke="#cfffac" d="M2329.83,-1095C2329.83,-1095 2104.17,-1095 2104.17,-1095 2100.33,-1095 2096.5,-1091.17 2096.5,-1087.33 2096.5,-1087.33 2096.5,-1079.67 2096.5,-1079.67 2096.5,-1075.83 2100.33,-1072 2104.17,-1072 2104.17,-1072 2329.83,-1072 2329.83,-1072 2333.67,-1072 2337.5,-1075.83 2337.5,-1079.67 2337.5,-1079.67 2337.5,-1087.33 2337.5,-1087.33 2337.5,-1091.17 2333.67,-1095 2329.83,-1095"/>
<text text-anchor="middle" x="2217" y="-1079.8" font-family="Arial" font-size="14.00" fill="#cfffac">components/Stripe/CheckoutError.jsx</text>
</g>
<!-- components/Stripe/index.js&#45;&gt;components/Stripe/CheckoutError.jsx -->
<g id="edge64" class="edge">
<title>components/Stripe/index.js&#45;&gt;components/Stripe/CheckoutError.jsx</title>
<path fill="none" stroke="#757575" d="M1669.63,-1086.08C1777.86,-1085.57 1961.81,-1084.7 2086.04,-1084.11"/>
<polygon fill="#757575" stroke="#757575" points="2086.39,-1087.61 2096.38,-1084.07 2086.36,-1080.61 2086.39,-1087.61"/>
</g>
<!-- components/Stripe/CheckoutForm.jsx -->
<g id="node48" class="node">
<title>components/Stripe/CheckoutForm.jsx</title>
<path fill="none" stroke="#c6c5fe" d="M2024.83,-1058C2024.83,-1058 1797.17,-1058 1797.17,-1058 1793.33,-1058 1789.5,-1054.17 1789.5,-1050.33 1789.5,-1050.33 1789.5,-1042.67 1789.5,-1042.67 1789.5,-1038.83 1793.33,-1035 1797.17,-1035 1797.17,-1035 2024.83,-1035 2024.83,-1035 2028.67,-1035 2032.5,-1038.83 2032.5,-1042.67 2032.5,-1042.67 2032.5,-1050.33 2032.5,-1050.33 2032.5,-1054.17 2028.67,-1058 2024.83,-1058"/>
<text text-anchor="middle" x="1911" y="-1042.8" font-family="Arial" font-size="14.00" fill="#c6c5fe">components/Stripe/CheckoutForm.jsx</text>
</g>
<!-- components/Stripe/index.js&#45;&gt;components/Stripe/CheckoutForm.jsx -->
<g id="edge65" class="edge">
<title>components/Stripe/index.js&#45;&gt;components/Stripe/CheckoutForm.jsx</title>
<path fill="none" stroke="#757575" d="M1669.6,-1075.73C1711.36,-1070.65 1761.47,-1064.56 1805.12,-1059.25"/>
<polygon fill="#757575" stroke="#757575" points="1805.68,-1062.71 1815.19,-1058.03 1804.84,-1055.76 1805.68,-1062.71"/>
</g>
<!-- components/Stripe/Layout.jsx -->
<g id="node49" class="node">
<title>components/Stripe/Layout.jsx</title>
<path fill="none" stroke="#cfffac" d="M2000.33,-1176C2000.33,-1176 1821.67,-1176 1821.67,-1176 1817.83,-1176 1814,-1172.17 1814,-1168.33 1814,-1168.33 1814,-1160.67 1814,-1160.67 1814,-1156.83 1817.83,-1153 1821.67,-1153 1821.67,-1153 2000.33,-1153 2000.33,-1153 2004.17,-1153 2008,-1156.83 2008,-1160.67 2008,-1160.67 2008,-1168.33 2008,-1168.33 2008,-1172.17 2004.17,-1176 2000.33,-1176"/>
<text text-anchor="middle" x="1911" y="-1160.8" font-family="Arial" font-size="14.00" fill="#cfffac">components/Stripe/Layout.jsx</text>
</g>
<!-- components/Stripe/index.js&#45;&gt;components/Stripe/Layout.jsx -->
<g id="edge66" class="edge">
<title>components/Stripe/index.js&#45;&gt;components/Stripe/Layout.jsx</title>
<path fill="none" stroke="#757575" d="M1617.94,-1098.01C1655.09,-1109.31 1714.14,-1126.56 1766,-1138.5 1786.1,-1143.13 1807.95,-1147.44 1828.4,-1151.16"/>
<polygon fill="#757575" stroke="#757575" points="1827.85,-1154.62 1838.31,-1152.94 1829.09,-1147.73 1827.85,-1154.62"/>
</g>
<!-- components/Checkout/index.js&#45;&gt;components/Checkout/Checkout.jsx -->
<g id="edge24" class="edge">
<title>components/Checkout/index.js&#45;&gt;components/Checkout/Checkout.jsx</title>
<path fill="none" stroke="#757575" d="M1013.82,-958.02C1052.08,-962.92 1096.85,-968.66 1136.14,-973.7"/>
<polygon fill="#757575" stroke="#757575" points="1135.91,-977.2 1146.27,-975 1136.8,-970.25 1135.91,-977.2"/>
</g>
<!-- components/Common/BodyText/BodyText.jsx -->
<g id="node26" class="node">
<title>components/Common/BodyText/BodyText.jsx</title>
<path fill="none" stroke="#cfffac" d="M2048.33,-262C2048.33,-262 1773.67,-262 1773.67,-262 1769.83,-262 1766,-258.17 1766,-254.33 1766,-254.33 1766,-246.67 1766,-246.67 1766,-242.83 1769.83,-239 1773.67,-239 1773.67,-239 2048.33,-239 2048.33,-239 2052.17,-239 2056,-242.83 2056,-246.67 2056,-246.67 2056,-254.33 2056,-254.33 2056,-258.17 2052.17,-262 2048.33,-262"/>
<text text-anchor="middle" x="1911" y="-246.8" font-family="Arial" font-size="14.00" fill="#cfffac">components/Common/BodyText/BodyText.jsx</text>
</g>
<!-- components/Common/BodyText/index.jsx&#45;&gt;components/Common/BodyText/BodyText.jsx -->
<g id="edge25" class="edge">
<title>components/Common/BodyText/index.jsx&#45;&gt;components/Common/BodyText/BodyText.jsx</title>
<path fill="none" stroke="#757575" d="M1713.39,-250.5C1727.26,-250.5 1741.44,-250.5 1755.53,-250.5"/>
<polygon fill="#757575" stroke="#757575" points="1755.76,-254 1765.76,-250.5 1755.76,-247 1755.76,-254"/>
</g>
<!-- components/Donations/Donations.jsx -->
<g id="node33" class="node">
<title>components/Donations/Donations.jsx</title>
<path fill="none" stroke="#c6c5fe" d="M1349.33,-540C1349.33,-540 1124.67,-540 1124.67,-540 1120.83,-540 1117,-536.17 1117,-532.33 1117,-532.33 1117,-524.67 1117,-524.67 1117,-520.83 1120.83,-517 1124.67,-517 1124.67,-517 1349.33,-517 1349.33,-517 1353.17,-517 1357,-520.83 1357,-524.67 1357,-524.67 1357,-532.33 1357,-532.33 1357,-536.17 1353.17,-540 1349.33,-540"/>
<text text-anchor="middle" x="1237" y="-524.8" font-family="Arial" font-size="14.00" fill="#c6c5fe">components/Donations/Donations.jsx</text>
</g>
<!-- components/Donations/Donations.jsx&#45;&gt;atoms.js -->
<g id="edge31" class="edge">
<title>components/Donations/Donations.jsx&#45;&gt;atoms.js</title>
<path fill="none" stroke="#757575" d="M1357.05,-537.95C1381.19,-539.82 1406.41,-541.75 1430,-543.5 1708.14,-564.14 1780.67,-542.98 2056,-587.5 2207.94,-612.07 2383.49,-664.03 2462.75,-688.8"/>
<polygon fill="#757575" stroke="#757575" points="2461.79,-692.17 2472.38,-691.83 2463.89,-685.49 2461.79,-692.17"/>
</g>
<!-- components/Donations/Donations.jsx&#45;&gt;components/Common/Modal/index.js -->
<g id="edge34" class="edge">
<title>components/Donations/Donations.jsx&#45;&gt;components/Common/Modal/index.js</title>
<path fill="none" stroke="#757575" d="M1246.43,-540.05C1271.9,-575.42 1349.06,-685.98 1394,-787.5 1416.54,-838.41 1392.35,-866.48 1430,-907.5 1450.02,-929.31 1479.15,-943.19 1506.35,-951.95"/>
<polygon fill="#757575" stroke="#757575" points="1505.68,-955.41 1516.27,-954.96 1507.71,-948.71 1505.68,-955.41"/>
</g>
<!-- components/Donations/Donations.jsx&#45;&gt;components/Common/TitleText/index.js -->
<g id="edge35" class="edge">
<title>components/Donations/Donations.jsx&#45;&gt;components/Common/TitleText/index.js</title>
<path fill="none" stroke="#757575" d="M1322.45,-517C1347.94,-509.98 1374.34,-498.68 1394,-480.5 1425.93,-450.97 1399.25,-420.26 1430,-389.5 1451.73,-367.76 1482.45,-353.8 1510.36,-344.95"/>
<polygon fill="#757575" stroke="#757575" points="1511.52,-348.25 1520.1,-342.03 1509.51,-341.55 1511.52,-348.25"/>
</g>
<!-- components/Donations/Donations.jsx&#45;&gt;components/Common/Button/index.jsx -->
<g id="edge33" class="edge">
<title>components/Donations/Donations.jsx&#45;&gt;components/Common/Button/index.jsx</title>
<path fill="none" stroke="#757575" d="M1357.19,-520.67C1457.38,-512.72 1604.01,-497.88 1730,-472.5 1897.47,-438.76 2090.77,-374.41 2174.16,-345.37"/>
<polygon fill="#757575" stroke="#757575" points="2175.49,-348.61 2183.77,-342.01 2173.18,-342 2175.49,-348.61"/>
</g>
<!-- components/Donations/Donations.jsx&#45;&gt;components/Common/BodyText/index.jsx -->
<g id="edge32" class="edge">
<title>components/Donations/Donations.jsx&#45;&gt;components/Common/BodyText/index.jsx</title>
<path fill="none" stroke="#757575" d="M1331.28,-516.92C1354.57,-509.82 1377.57,-498.5 1394,-480.5 1446.36,-423.14 1379.93,-368.87 1430,-309.5 1448.53,-287.53 1476.37,-273.68 1502.99,-264.98"/>
<polygon fill="#757575" stroke="#757575" points="1504.18,-268.27 1512.72,-262 1502.14,-261.58 1504.18,-268.27"/>
</g>
<!-- components/Donations/Donations.jsx&#45;&gt;components/OtherAmount/index.js -->
<g id="edge36" class="edge">
<title>components/Donations/Donations.jsx&#45;&gt;components/OtherAmount/index.js</title>
<path fill="none" stroke="#757575" d="M1249.74,-540.24C1277.95,-567.66 1352.94,-635.87 1430,-666.5 1438.64,-669.93 1447.76,-672.8 1457.06,-675.19"/>
<polygon fill="#757575" stroke="#757575" points="1456.27,-678.6 1466.81,-677.51 1457.89,-671.79 1456.27,-678.6"/>
</g>
<!-- components/OtherAmount/OtherAmount.jsx -->
<g id="node40" class="node">
<title>components/OtherAmount/OtherAmount.jsx</title>
<path fill="none" stroke="#c6c5fe" d="M2044.33,-701C2044.33,-701 1777.67,-701 1777.67,-701 1773.83,-701 1770,-697.17 1770,-693.33 1770,-693.33 1770,-685.67 1770,-685.67 1770,-681.83 1773.83,-678 1777.67,-678 1777.67,-678 2044.33,-678 2044.33,-678 2048.17,-678 2052,-681.83 2052,-685.67 2052,-685.67 2052,-693.33 2052,-693.33 2052,-697.17 2048.17,-701 2044.33,-701"/>
<text text-anchor="middle" x="1911" y="-685.8" font-family="Arial" font-size="14.00" fill="#c6c5fe">components/OtherAmount/OtherAmount.jsx</text>
</g>
<!-- components/OtherAmount/index.js&#45;&gt;components/OtherAmount/OtherAmount.jsx -->
<g id="edge49" class="edge">
<title>components/OtherAmount/index.js&#45;&gt;components/OtherAmount/OtherAmount.jsx</title>
<path fill="none" stroke="#757575" d="M1693.3,-687.52C1714.69,-687.72 1737.39,-687.93 1759.74,-688.13"/>
<polygon fill="#757575" stroke="#757575" points="1759.95,-691.63 1769.98,-688.22 1760.01,-684.63 1759.95,-691.63"/>
</g>
<!-- components/Donations/index.js&#45;&gt;components/Donations/Donations.jsx -->
<g id="edge37" class="edge">
<title>components/Donations/index.js&#45;&gt;components/Donations/Donations.jsx</title>
<path fill="none" stroke="#757575" d="M1025.73,-528.5C1051.51,-528.5 1079.55,-528.5 1106.5,-528.5"/>
<polygon fill="#757575" stroke="#757575" points="1106.77,-532 1116.77,-528.5 1106.77,-525 1106.77,-532"/>
</g>
<!-- components/MobileTextForm/MobileSchema.js -->
<g id="node36" class="node">
<title>components/MobileTextForm/MobileSchema.js</title>
<path fill="none" stroke="#cfffac" d="M1722.33,-422C1722.33,-422 1437.67,-422 1437.67,-422 1433.83,-422 1430,-418.17 1430,-414.33 1430,-414.33 1430,-406.67 1430,-406.67 1430,-402.83 1433.83,-399 1437.67,-399 1437.67,-399 1722.33,-399 1722.33,-399 1726.17,-399 1730,-402.83 1730,-406.67 1730,-406.67 1730,-414.33 1730,-414.33 1730,-418.17 1726.17,-422 1722.33,-422"/>
<text text-anchor="middle" x="1580" y="-406.8" font-family="Arial" font-size="14.00" fill="#cfffac">components/MobileTextForm/MobileSchema.js</text>
</g>
<!-- components/MobileTextForm/MobileTextForm.jsx -->
<g id="node37" class="node">
<title>components/MobileTextForm/MobileTextForm.jsx</title>
<path fill="none" stroke="#c6c5fe" d="M1386.33,-471C1386.33,-471 1087.67,-471 1087.67,-471 1083.83,-471 1080,-467.17 1080,-463.33 1080,-463.33 1080,-455.67 1080,-455.67 1080,-451.83 1083.83,-448 1087.67,-448 1087.67,-448 1386.33,-448 1386.33,-448 1390.17,-448 1394,-451.83 1394,-455.67 1394,-455.67 1394,-463.33 1394,-463.33 1394,-467.17 1390.17,-471 1386.33,-471"/>
<text text-anchor="middle" x="1237" y="-455.8" font-family="Arial" font-size="14.00" fill="#c6c5fe">components/MobileTextForm/MobileTextForm.jsx</text>
</g>
<!-- components/MobileTextForm/MobileTextForm.jsx&#45;&gt;atoms.js -->
<g id="edge38" class="edge">
<title>components/MobileTextForm/MobileTextForm.jsx&#45;&gt;atoms.js</title>
<path fill="none" stroke="#757575" d="M1365,-471.02C1635.75,-496.1 2252.41,-556.13 2342,-590.5 2399.31,-612.49 2456.14,-658.22 2485.33,-683.92"/>
<polygon fill="#757575" stroke="#757575" points="2483.35,-686.85 2493.14,-690.91 2488.02,-681.63 2483.35,-686.85"/>
</g>
<!-- components/MobileTextForm/MobileTextForm.jsx&#45;&gt;components/Common/Input/index.js -->
<g id="edge40" class="edge">
<title>components/MobileTextForm/MobileTextForm.jsx&#45;&gt;components/Common/Input/index.js</title>
<path fill="none" stroke="#757575" d="M1296.66,-471.04C1327.13,-478.7 1364.13,-490.69 1394,-508.5 1413.16,-519.93 1410.62,-532.43 1430,-543.5 1550.02,-612.07 1625.94,-534.51 1730,-625.5 1760.88,-652.51 1732.78,-686.42 1766,-710.5 1815.99,-746.74 1974.79,-752.77 2089.6,-752.05"/>
<polygon fill="#757575" stroke="#757575" points="2089.9,-755.54 2099.87,-751.96 2089.84,-748.54 2089.9,-755.54"/>
</g>
<!-- components/MobileTextForm/MobileTextForm.jsx&#45;&gt;components/Common/Select/index.js -->
<g id="edge41" class="edge">
<title>components/MobileTextForm/MobileTextForm.jsx&#45;&gt;components/Common/Select/index.js</title>
<path fill="none" stroke="#757575" d="M1323.98,-471.08C1349.25,-478.25 1375.14,-489.82 1394,-508.5 1430.84,-545 1390.84,-585.5 1430,-619.5 1436,-624.7 1442.65,-629.04 1449.73,-632.65"/>
<polygon fill="#757575" stroke="#757575" points="1448.36,-635.87 1458.91,-636.83 1451.26,-629.5 1448.36,-635.87"/>
</g>
<!-- components/MobileTextForm/MobileTextForm.jsx&#45;&gt;components/Common/TitleText/index.js -->
<g id="edge42" class="edge">
<title>components/MobileTextForm/MobileTextForm.jsx&#45;&gt;components/Common/TitleText/index.js</title>
<path fill="none" stroke="#757575" d="M1295.26,-447.92C1326.58,-439.57 1364.83,-425.91 1394,-404.5 1415.5,-388.72 1407.27,-370.44 1430,-356.5 1437,-352.21 1444.52,-348.57 1452.32,-345.51"/>
<polygon fill="#757575" stroke="#757575" points="1453.73,-348.72 1461.96,-342.03 1451.36,-342.13 1453.73,-348.72"/>
</g>
<!-- components/MobileTextForm/MobileTextForm.jsx&#45;&gt;components/Common/Button/index.jsx -->
<g id="edge39" class="edge">
<title>components/MobileTextForm/MobileTextForm.jsx&#45;&gt;components/Common/Button/index.jsx</title>
<path fill="none" stroke="#757575" d="M1272.59,-447.92C1304.34,-437.15 1352.58,-420.41 1394,-404.5 1410.18,-398.28 1413.12,-393.43 1430,-389.5 1701.52,-326.35 1778.45,-376.47 2056,-350.5 2077.29,-348.51 2100.13,-345.92 2121.69,-343.28"/>
<polygon fill="#757575" stroke="#757575" points="2122.33,-346.72 2131.82,-342.02 2121.47,-339.78 2122.33,-346.72"/>
</g>
<!-- components/MobileTextForm/MobileTextForm.jsx&#45;&gt;components/MobileTextForm/MobileSchema.js -->
<g id="edge43" class="edge">
<title>components/MobileTextForm/MobileTextForm.jsx&#45;&gt;components/MobileTextForm/MobileSchema.js</title>
<path fill="none" stroke="#757575" d="M1316.46,-447.97C1351.24,-442.88 1392.65,-436.85 1430,-431.5 1448.3,-428.88 1467.87,-426.1 1486.62,-423.45"/>
<polygon fill="#757575" stroke="#757575" points="1487.21,-426.9 1496.63,-422.04 1486.24,-419.97 1487.21,-426.9"/>
</g>
<!-- components/MobileTextForm/options.js -->
<g id="node38" class="node">
<title>components/MobileTextForm/options.js</title>
<path fill="none" stroke="#cfffac" d="M1698.83,-463C1698.83,-463 1461.17,-463 1461.17,-463 1457.33,-463 1453.5,-459.17 1453.5,-455.33 1453.5,-455.33 1453.5,-447.67 1453.5,-447.67 1453.5,-443.83 1457.33,-440 1461.17,-440 1461.17,-440 1698.83,-440 1698.83,-440 1702.67,-440 1706.5,-443.83 1706.5,-447.67 1706.5,-447.67 1706.5,-455.33 1706.5,-455.33 1706.5,-459.17 1702.67,-463 1698.83,-463"/>
<text text-anchor="middle" x="1580" y="-447.8" font-family="Arial" font-size="14.00" fill="#cfffac">components/MobileTextForm/options.js</text>
</g>
<!-- components/MobileTextForm/MobileTextForm.jsx&#45;&gt;components/MobileTextForm/options.js -->
<g id="edge44" class="edge">
<title>components/MobileTextForm/MobileTextForm.jsx&#45;&gt;components/MobileTextForm/options.js</title>
<path fill="none" stroke="#757575" d="M1394.03,-455.84C1410.51,-455.45 1427.18,-455.06 1443.4,-454.68"/>
<polygon fill="#757575" stroke="#757575" points="1443.53,-458.18 1453.44,-454.45 1443.36,-451.18 1443.53,-458.18"/>
</g>
<!-- components/MobileTextForm/index.js&#45;&gt;components/MobileTextForm/MobileTextForm.jsx -->
<g id="edge45" class="edge">
<title>components/MobileTextForm/index.js&#45;&gt;components/MobileTextForm/MobileTextForm.jsx</title>
<path fill="none" stroke="#757575" d="M1044.18,-468.11C1052.57,-467.73 1061.11,-467.35 1069.69,-466.96"/>
<polygon fill="#757575" stroke="#757575" points="1069.93,-470.46 1079.77,-466.51 1069.62,-463.46 1069.93,-470.46"/>
</g>
<!-- components/OtherAmount/OtherAmount.jsx&#45;&gt;atoms.js -->
<g id="edge46" class="edge">
<title>components/OtherAmount/OtherAmount.jsx&#45;&gt;atoms.js</title>
<path fill="none" stroke="#757575" d="M2052.28,-692.57C2185.36,-695.49 2377.27,-699.69 2462.23,-701.55"/>
<polygon fill="#757575" stroke="#757575" points="2462.21,-705.05 2472.29,-701.77 2462.37,-698.05 2462.21,-705.05"/>
</g>
<!-- components/OtherAmount/OtherAmount.jsx&#45;&gt;components/Common/Input/index.js -->
<g id="edge48" class="edge">
<title>components/OtherAmount/OtherAmount.jsx&#45;&gt;components/Common/Input/index.js</title>
<path fill="none" stroke="#757575" d="M1977.66,-701C2002.26,-705.4 2030.43,-710.56 2056,-715.5 2087.51,-721.59 2122.43,-728.75 2151.58,-734.83"/>
<polygon fill="#757575" stroke="#757575" points="2151.13,-738.32 2161.64,-736.94 2152.57,-731.46 2151.13,-738.32"/>
</g>
<!-- components/OtherAmount/OtherAmount.jsx&#45;&gt;components/Common/Button/index.jsx -->
<g id="edge47" class="edge">
<title>components/OtherAmount/OtherAmount.jsx&#45;&gt;components/Common/Button/index.jsx</title>
<path fill="none" stroke="#757575" d="M2042.12,-677.99C2046.97,-675.53 2051.63,-672.71 2056,-669.5 2165.59,-588.94 2202.88,-413.98 2212.88,-352.44"/>
<polygon fill="#757575" stroke="#757575" points="2216.38,-352.74 2214.44,-342.32 2209.46,-351.67 2216.38,-352.74"/>
</g>
<!-- components/PrayerCard/PrayerCard.jsx -->
<g id="node41" class="node">
<title>components/PrayerCard/PrayerCard.jsx</title>
<path fill="none" stroke="#c6c5fe" d="M1357.83,-342C1357.83,-342 1116.17,-342 1116.17,-342 1112.33,-342 1108.5,-338.17 1108.5,-334.33 1108.5,-334.33 1108.5,-326.67 1108.5,-326.67 1108.5,-322.83 1112.33,-319 1116.17,-319 1116.17,-319 1357.83,-319 1357.83,-319 1361.67,-319 1365.5,-322.83 1365.5,-326.67 1365.5,-326.67 1365.5,-334.33 1365.5,-334.33 1365.5,-338.17 1361.67,-342 1357.83,-342"/>
<text text-anchor="middle" x="1237" y="-326.8" font-family="Arial" font-size="14.00" fill="#c6c5fe">components/PrayerCard/PrayerCard.jsx</text>
</g>
<!-- components/PrayerCard/PrayerCard.jsx&#45;&gt;components/Common/TitleText/index.js -->
<g id="edge52" class="edge">
<title>components/PrayerCard/PrayerCard.jsx&#45;&gt;components/Common/TitleText/index.js</title>
<path fill="none" stroke="#757575" d="M1365.95,-330.5C1391.06,-330.5 1417.48,-330.5 1442.85,-330.5"/>
<polygon fill="#757575" stroke="#757575" points="1442.89,-334 1452.89,-330.5 1442.89,-327 1442.89,-334"/>
</g>
<!-- components/PrayerCard/PrayerCard.jsx&#45;&gt;components/Common/Button/index.jsx -->
<g id="edge51" class="edge">
<title>components/PrayerCard/PrayerCard.jsx&#45;&gt;components/Common/Button/index.jsx</title>
<path fill="none" stroke="#757575" d="M1324.81,-318.98C1357.7,-315.15 1395.51,-311.38 1430,-309.5 1707.81,-294.35 1778.37,-291.36 2056,-309.5 2081.31,-311.15 2108.73,-314.26 2133.59,-317.59"/>
<polygon fill="#757575" stroke="#757575" points="2133.33,-321.09 2143.72,-318.98 2134.28,-314.16 2133.33,-321.09"/>
</g>
<!-- components/PrayerCard/PrayerCard.jsx&#45;&gt;components/Common/BodyText/index.jsx -->
<g id="edge50" class="edge">
<title>components/PrayerCard/PrayerCard.jsx&#45;&gt;components/Common/BodyText/index.jsx</title>
<path fill="none" stroke="#757575" d="M1349.09,-318.99C1364.53,-315.39 1379.92,-310.67 1394,-304.5 1412.56,-296.36 1411.47,-284.71 1430,-276.5 1440.88,-271.68 1452.58,-267.75 1464.46,-264.55"/>
<polygon fill="#757575" stroke="#757575" points="1465.63,-267.87 1474.47,-262.03 1463.92,-261.08 1465.63,-267.87"/>
</g>
<!-- components/PrayerCard/index.js&#45;&gt;components/PrayerCard/PrayerCard.jsx -->
<g id="edge53" class="edge">
<title>components/PrayerCard/index.js&#45;&gt;components/PrayerCard/PrayerCard.jsx</title>
<path fill="none" stroke="#757575" d="M1029.63,-337.11C1051.65,-336.41 1075.17,-335.65 1098.16,-334.92"/>
<polygon fill="#757575" stroke="#757575" points="1098.44,-338.41 1108.32,-334.59 1098.22,-331.41 1098.44,-338.41"/>
</g>
<!-- components/Reminder/reminder.jsx&#45;&gt;components/Common/Button/index.jsx -->
<g id="edge56" class="edge">
<title>components/Reminder/reminder.jsx&#45;&gt;components/Common/Button/index.jsx</title>
<path fill="none" stroke="#757575" d="M2027.04,-642.76C2037.35,-639.27 2047.2,-634.63 2056,-628.5 2155.41,-559.31 2198.49,-408.18 2211.48,-352.05"/>
<polygon fill="#757575" stroke="#757575" points="2214.93,-352.67 2213.69,-342.14 2208.1,-351.14 2214.93,-352.67"/>
</g>
<!-- components/Stripe/BillingDetails.jsx&#45;&gt;atoms.js -->
<g id="edge57" class="edge">
<title>components/Stripe/BillingDetails.jsx&#45;&gt;atoms.js</title>
<path fill="none" stroke="#757575" d="M2332.24,-1112.96C2335.74,-1110.49 2339.02,-1107.68 2342,-1104.5 2399.41,-1043.27 2321.87,-790.91 2378,-728.5 2398.79,-705.39 2434.07,-699.61 2462.25,-699.21"/>
<polygon fill="#757575" stroke="#757575" points="2462.25,-702.71 2472.27,-699.28 2462.3,-695.71 2462.25,-702.71"/>
</g>
<!-- components/Stripe/FormField.jsx -->
<g id="node46" class="node">
<title>components/Stripe/FormField.jsx</title>
<path fill="none" stroke="#cfffac" d="M2606.33,-1136C2606.33,-1136 2406.67,-1136 2406.67,-1136 2402.83,-1136 2399,-1132.17 2399,-1128.33 2399,-1128.33 2399,-1120.67 2399,-1120.67 2399,-1116.83 2402.83,-1113 2406.67,-1113 2406.67,-1113 2606.33,-1113 2606.33,-1113 2610.17,-1113 2614,-1116.83 2614,-1120.67 2614,-1120.67 2614,-1128.33 2614,-1128.33 2614,-1132.17 2610.17,-1136 2606.33,-1136"/>
<text text-anchor="middle" x="2506.5" y="-1120.8" font-family="Arial" font-size="14.00" fill="#cfffac">components/Stripe/FormField.jsx</text>
</g>
<!-- components/Stripe/BillingDetails.jsx&#45;&gt;components/Stripe/FormField.jsx -->
<g id="edge58" class="edge">
<title>components/Stripe/BillingDetails.jsx&#45;&gt;components/Stripe/FormField.jsx</title>
<path fill="none" stroke="#757575" d="M2332.87,-1124.5C2351.21,-1124.5 2370.21,-1124.5 2388.6,-1124.5"/>
<polygon fill="#757575" stroke="#757575" points="2388.74,-1128 2398.74,-1124.5 2388.74,-1121 2388.74,-1128"/>
</g>
<!-- components/Stripe/CheckoutForm.jsx&#45;&gt;atoms.js -->
<g id="edge59" class="edge">
<title>components/Stripe/CheckoutForm.jsx&#45;&gt;atoms.js</title>
<path fill="none" stroke="#757575" d="M2032.56,-1055.4C2144.04,-1060.8 2298.8,-1060.16 2342,-1019.5 2436.89,-930.17 2289.52,-824.18 2378,-728.5 2399.01,-705.78 2434.05,-699.93 2462.08,-699.4"/>
<polygon fill="#757575" stroke="#757575" points="2462.43,-702.9 2472.44,-699.44 2462.45,-695.9 2462.43,-702.9"/>
</g>
<!-- components/Stripe/CheckoutForm.jsx&#45;&gt;components/Common/Button/index.jsx -->
<g id="edge60" class="edge">
<title>components/Stripe/CheckoutForm.jsx&#45;&gt;components/Common/Button/index.jsx</title>
<path fill="none" stroke="#757575" d="M1977.22,-1034.97C2005.69,-1026.57 2036.87,-1012.15 2056,-987.5 2091.63,-941.6 2079.32,-785.21 2092,-728.5 2124.87,-581.56 2186.21,-410.58 2208.04,-351.69"/>
<polygon fill="#757575" stroke="#757575" points="2211.43,-352.62 2211.64,-342.03 2204.87,-350.18 2211.43,-352.62"/>
</g>
<!-- components/Stripe/CheckoutForm.jsx&#45;&gt;components/Stripe/BillingDetails.jsx -->
<g id="edge61" class="edge">
<title>components/Stripe/CheckoutForm.jsx&#45;&gt;components/Stripe/BillingDetails.jsx</title>
<path fill="none" stroke="#757575" d="M1942.81,-1058.01C1978.33,-1070.91 2038.69,-1091.69 2092,-1104.5 2102.04,-1106.91 2112.61,-1109.12 2123.17,-1111.11"/>
<polygon fill="#757575" stroke="#757575" points="2122.81,-1114.6 2133.28,-1112.95 2124.07,-1107.71 2122.81,-1114.6"/>
</g>
<!-- components/Stripe/CheckoutForm.jsx&#45;&gt;components/Stripe/CheckoutError.jsx -->
<g id="edge62" class="edge">
<title>components/Stripe/CheckoutForm.jsx&#45;&gt;components/Stripe/CheckoutError.jsx</title>
<path fill="none" stroke="#757575" d="M2006.52,-1058C2039.76,-1062.05 2077.29,-1066.62 2111.31,-1070.76"/>
<polygon fill="#757575" stroke="#757575" points="2110.93,-1074.24 2121.28,-1071.97 2111.77,-1067.29 2110.93,-1074.24"/>
</g>
<!-- components/ThankYou/ThankYou.jsx -->
<g id="node50" class="node">
<title>components/ThankYou/ThankYou.jsx</title>
<path fill="none" stroke="#c6c5fe" d="M1350.33,-262C1350.33,-262 1123.67,-262 1123.67,-262 1119.83,-262 1116,-258.17 1116,-254.33 1116,-254.33 1116,-246.67 1116,-246.67 1116,-242.83 1119.83,-239 1123.67,-239 1123.67,-239 1350.33,-239 1350.33,-239 1354.17,-239 1358,-242.83 1358,-246.67 1358,-246.67 1358,-254.33 1358,-254.33 1358,-258.17 1354.17,-262 1350.33,-262"/>
<text text-anchor="middle" x="1237" y="-246.8" font-family="Arial" font-size="14.00" fill="#c6c5fe">components/ThankYou/ThankYou.jsx</text>
</g>
<!-- components/ThankYou/ThankYou.jsx&#45;&gt;atoms.js -->
<g id="edge67" class="edge">
<title>components/ThankYou/ThankYou.jsx&#45;&gt;atoms.js</title>
<path fill="none" stroke="#757575" d="M1260.97,-238.91C1358.89,-191.1 1750.41,-16.04 2056,-111.5 2203.57,-157.6 2244.82,-189.26 2342,-309.5 2439.72,-430.41 2487.25,-617.99 2501.08,-681.02"/>
<polygon fill="#757575" stroke="#757575" points="2497.7,-681.93 2503.21,-690.98 2504.54,-680.47 2497.7,-681.93"/>
</g>
<!-- components/ThankYou/ThankYou.jsx&#45;&gt;components/Common/TitleText/index.js -->
<g id="edge70" class="edge">
<title>components/ThankYou/ThankYou.jsx&#45;&gt;components/Common/TitleText/index.js</title>
<path fill="none" stroke="#757575" d="M1287.22,-262.05C1348.8,-276.49 1454.13,-301.21 1519.98,-316.65"/>
<polygon fill="#757575" stroke="#757575" points="1519.26,-320.08 1529.79,-318.96 1520.86,-313.26 1519.26,-320.08"/>
</g>
<!-- components/ThankYou/ThankYou.jsx&#45;&gt;components/Common/Button/index.jsx -->
<g id="edge69" class="edge">
<title>components/ThankYou/ThankYou.jsx&#45;&gt;components/Common/Button/index.jsx</title>
<path fill="none" stroke="#757575" d="M1288.2,-238.9C1418.25,-211.03 1775.56,-148.39 2056,-229.5 2111.72,-245.62 2166.69,-287.55 2195.44,-312.02"/>
<polygon fill="#757575" stroke="#757575" points="2193.31,-314.81 2203.16,-318.71 2197.9,-309.52 2193.31,-314.81"/>
</g>
<!-- components/ThankYou/ThankYou.jsx&#45;&gt;components/Common/BodyText/index.jsx -->
<g id="edge68" class="edge">
<title>components/ThankYou/ThankYou.jsx&#45;&gt;components/Common/BodyText/index.jsx</title>
<path fill="none" stroke="#757575" d="M1358.22,-250.5C1383.53,-250.5 1410.46,-250.5 1436.5,-250.5"/>
<polygon fill="#757575" stroke="#757575" points="1436.81,-254 1446.81,-250.5 1436.81,-247 1436.81,-254"/>
</g>
<!-- components/ThankYou/index.js&#45;&gt;components/ThankYou/ThankYou.jsx -->
<g id="edge71" class="edge">
<title>components/ThankYou/index.js&#45;&gt;components/ThankYou/ThankYou.jsx</title>
<path fill="none" stroke="#757575" d="M1026.16,-250.5C1051.61,-250.5 1079.24,-250.5 1105.84,-250.5"/>
<polygon fill="#757575" stroke="#757575" points="1105.98,-254 1115.98,-250.5 1105.98,-247 1105.98,-254"/>
</g>
<!-- index.css -->
<g id="node52" class="node">
<title>index.css</title>
<path fill="none" stroke="#cfffac" d="M236.33,-438C236.33,-438 178.67,-438 178.67,-438 174.83,-438 171,-434.17 171,-430.33 171,-430.33 171,-422.67 171,-422.67 171,-418.83 174.83,-415 178.67,-415 178.67,-415 236.33,-415 236.33,-415 240.17,-415 244,-418.83 244,-422.67 244,-422.67 244,-430.33 244,-430.33 244,-434.17 240.17,-438 236.33,-438"/>
<text text-anchor="middle" x="207.5" y="-422.8" font-family="Arial" font-size="14.00" fill="#cfffac">index.css</text>
</g>
<!-- index.js -->
<g id="node53" class="node">
<title>index.js</title>
<path fill="none" stroke="#c6c5fe" d="M54.33,-458C54.33,-458 7.67,-458 7.67,-458 3.83,-458 0,-454.17 0,-450.33 0,-450.33 0,-442.67 0,-442.67 0,-438.83 3.83,-435 7.67,-435 7.67,-435 54.33,-435 54.33,-435 58.17,-435 62,-438.83 62,-442.67 62,-442.67 62,-450.33 62,-450.33 62,-454.17 58.17,-458 54.33,-458"/>
<text text-anchor="middle" x="31" y="-442.8" font-family="Arial" font-size="14.00" fill="#c6c5fe">index.js</text>
</g>
<!-- index.js&#45;&gt;App.js -->
<g id="edge87" class="edge">
<title>index.js&#45;&gt;App.js</title>
<path fill="none" stroke="#757575" d="M46.57,-458.11C59.38,-467.73 78.91,-481 98,-488.5 121.13,-497.59 148.69,-502.61 170.25,-505.34"/>
<polygon fill="#757575" stroke="#757575" points="169.96,-508.83 180.3,-506.51 170.77,-501.88 169.96,-508.83"/>
</g>
<!-- index.js&#45;&gt;auth/auth0&#45;provider&#45;with&#45;history.js -->
<g id="edge88" class="edge">
<title>index.js&#45;&gt;auth/auth0&#45;provider&#45;with&#45;history.js</title>
<path fill="none" stroke="#757575" d="M62.4,-450.16C73.47,-451.49 86.72,-453.09 100.63,-454.76"/>
<polygon fill="#757575" stroke="#757575" points="100.5,-458.27 110.85,-455.99 101.34,-451.32 100.5,-458.27"/>
</g>
<!-- index.js&#45;&gt;index.css -->
<g id="edge89" class="edge">
<title>index.js&#45;&gt;index.css</title>
<path fill="none" stroke="#757575" d="M62.4,-443.02C89.5,-439.91 129.58,-435.32 160.6,-431.76"/>
<polygon fill="#757575" stroke="#757575" points="161.2,-435.22 170.73,-430.6 160.4,-428.26 161.2,-435.22"/>
</g>
<!-- serviceWorker.js -->
<g id="node54" class="node">
<title>serviceWorker.js</title>
<path fill="none" stroke="#cfffac" d="M257.83,-397C257.83,-397 157.17,-397 157.17,-397 153.33,-397 149.5,-393.17 149.5,-389.33 149.5,-389.33 149.5,-381.67 149.5,-381.67 149.5,-377.83 153.33,-374 157.17,-374 157.17,-374 257.83,-374 257.83,-374 261.67,-374 265.5,-377.83 265.5,-381.67 265.5,-381.67 265.5,-389.33 265.5,-389.33 265.5,-393.17 261.67,-397 257.83,-397"/>
<text text-anchor="middle" x="207.5" y="-381.8" font-family="Arial" font-size="14.00" fill="#cfffac">serviceWorker.js</text>
</g>
<!-- index.js&#45;&gt;serviceWorker.js -->
<g id="edge90" class="edge">
<title>index.js&#45;&gt;serviceWorker.js</title>
<path fill="none" stroke="#757575" d="M46.87,-434.99C59.71,-425.62 79.13,-412.8 98,-405.5 111.01,-400.47 125.4,-396.68 139.33,-393.84"/>
<polygon fill="#757575" stroke="#757575" points="140.19,-397.23 149.36,-391.93 138.88,-390.36 140.19,-397.23"/>
</g>
</g>
</svg>
